<svg xmlns="http://www.w3.org/2000/svg" viewBox="0 0 40 40" width="60px" height="60px;"><g fill="lightgrey" ><polygon points="10.005 21.55 10.005 12.879 7.937 12.879 7.937 10.814 12.694 10.814 12.694 21.55"></polygon><path d="M23.0336355,13.4980031 C23.0336355,14.5302611 22.6200345,15.149616 21.586032,15.7689708 C22.826835,16.181874 23.4472364,17.2141321 23.4472364,18.4528418 C23.4472364,20.3109063 21.7928325,21.549616 19.1044262,21.549616 C16.4160198,21.549616 14.7616159,20.3109063 14.7616159,18.4528418 C14.7616159,17.2141321 15.5888178,16.181874 16.8296208,15.7689708 C16.0024188,15.3560676 15.3820173,14.3238095 15.3820173,13.4980031 C15.3820173,11.8463902 16.8296208,10.6076805 19.1044262,10.6076805 C21.586032,10.6076805 23.0336355,11.8463902 23.0336355,13.4980031 Z M17.4500222,18.2463902 C17.4500222,19.0721966 18.0704237,19.6915515 19.3112266,19.6915515 C20.5520296,19.6915515 21.172431,19.2786482 21.172431,18.2463902 C21.172431,17.4205837 20.5520296,16.8012289 19.3112266,16.8012289 C18.0704237,16.8012289 17.4500222,17.4205837 17.4500222,18.2463902 Z M17.6568227,13.7044547 C17.6568227,14.5302611 18.2772242,14.9431644 19.1044262,14.9431644 C19.9316281,14.9431644 20.5520296,14.5302611 20.5520296,13.7044547 C20.5520296,12.8786482 19.9316281,12.465745 19.1044262,12.465745 C18.2772242,12.465745 17.6568227,12.8786482 17.6568227,13.7044547 Z"></path><path d="M28.2036477,12.0528418 C28.6172487,13.2915515 28.8240492,14.7367127 28.8240492,16.181874 C28.8240492,23.4076805 23.0336355,29.1883257 15.7956183,29.1883257 C8.5576012,29.1883257 2.7671875,23.4076805 2.7671875,16.181874 C2.7671875,8.95606759 8.5576012,3.17542243 15.7956183,3.17542243 C17.2432218,3.17542243 18.6908252,3.38187404 19.9316281,3.79477727 L19.9316281,0.904454685 C18.4840247,0.491551459 17.2432218,0.285099846 15.7956183,0.285099846 C7.10999778,0.285099846 0.0787811388,7.30445469 0.0787811388,15.9754224 C0.0787811388,24.6463902 7.10999778,31.665745 15.7956183,31.665745 C24.4812389,31.665745 31.5124555,24.6463902 31.5124555,15.9754224 C31.5124555,14.5302611 31.305655,13.0850998 30.892054,11.8463902 C31.0988545,12.0528418 28.2036477,12.0528418 28.2036477,12.0528418 Z"></path><polygon points="27.376 4.621 27.376 1.73 25.102 1.73 25.102 4.621 22.206 4.621 22.206 6.892 25.102 6.892 25.102 9.782 27.376 9.782 27.376 6.892 30.272 6.892 30.272 4.621"></polygon></g></svg>