<svg id="Lager_1" data-name="Lager 1" xmlns="http://www.w3.org/2000/svg" xmlns:xlink="http://www.w3.org/1999/xlink" viewBox="0 0 250 250"><defs><style>.cls-1{fill:url(#linear-gradient);}.cls-2{fill:url(#linear-gradient-2);}.cls-3{fill:url(#linear-gradient-3);}.cls-4{fill:url(#linear-gradient-4);}.cls-5{fill:url(#linear-gradient-5);}.cls-6{fill:url(#linear-gradient-6);}.cls-7{fill:url(#linear-gradient-7);}.cls-8{fill:url(#linear-gradient-8);}.cls-9{fill:url(#linear-gradient-9);}.cls-10{fill:url(#linear-gradient-10);}.cls-11{fill:url(#linear-gradient-11);}.cls-12{fill:url(#linear-gradient-12);}.cls-13{fill:url(#linear-gradient-13);}.cls-14{fill:url(#linear-gradient-14);}.cls-15{fill:#fed100;}.cls-16{fill:#fe203e;}.cls-17{fill:#fff;}</style><linearGradient id="linear-gradient" x1="121.5" y1="18.96" x2="121.5" y2="247.62" gradientUnits="userSpaceOnUse"><stop offset="0" stop-color="#ffdf6c"/><stop offset="0.35" stop-color="#b79340"/><stop offset="0.57" stop-color="#cfab4f"/><stop offset="0.7" stop-color="#d8b555"/><stop offset="0.72" stop-color="#d4b152"/><stop offset="0.9" stop-color="#b38f3c"/><stop offset="1" stop-color="#a68233"/></linearGradient><linearGradient id="linear-gradient-2" x1="50.42" y1="194.96" x2="50.42" y2="198.27" xlink:href="#linear-gradient"/><linearGradient id="linear-gradient-3" x1="62.54" y1="194.96" x2="62.54" y2="198.27" xlink:href="#linear-gradient"/><linearGradient id="linear-gradient-4" x1="74.65" y1="194.96" x2="74.65" y2="198.27" xlink:href="#linear-gradient"/><linearGradient id="linear-gradient-5" x1="86.77" y1="194.96" x2="86.77" y2="198.27" xlink:href="#linear-gradient"/><linearGradient id="linear-gradient-6" x1="98.88" y1="194.96" x2="98.88" y2="198.27" xlink:href="#linear-gradient"/><linearGradient id="linear-gradient-7" x1="111" y1="194.96" x2="111" y2="198.27" xlink:href="#linear-gradient"/><linearGradient id="linear-gradient-8" x1="123.12" y1="194.96" x2="123.12" y2="198.27" xlink:href="#linear-gradient"/><linearGradient id="linear-gradient-9" x1="135.23" y1="194.96" x2="135.23" y2="198.27" xlink:href="#linear-gradient"/><linearGradient id="linear-gradient-10" x1="147.35" y1="194.96" x2="147.35" y2="198.27" xlink:href="#linear-gradient"/><linearGradient id="linear-gradient-11" x1="159.46" y1="194.96" x2="159.46" y2="198.27" xlink:href="#linear-gradient"/><linearGradient id="linear-gradient-12" x1="171.58" y1="194.96" x2="171.58" y2="198.27" xlink:href="#linear-gradient"/><linearGradient id="linear-gradient-13" x1="183.69" y1="194.96" x2="183.69" y2="198.27" xlink:href="#linear-gradient"/><linearGradient id="linear-gradient-14" x1="195.81" y1="194.96" x2="195.81" y2="198.27" xlink:href="#linear-gradient"/></defs><title>2020new</title><path class="cls-1" d="M240.13,146.2l-7,4.4q.46-2.59.8-5.22L241,136l-6.62,5c.16-1.74.27-3.5.34-5.26l6.26-10-6.16,5.56v-.16h0v-.29c0-1.53,0-3-.11-4.56a2.26,2.26,0,0,0,0-.26l5.36-10.5-5.65,6.08c-.15-1.77-.34-3.52-.57-5.26l4.42-10.91L233.17,112c-.31-1.74-.65-3.47-1-5.18l3.45-11.25-4.5,7q-.69-2.56-1.48-5.08l2.45-11.51-3.88,7.33c-.6-1.66-1.24-3.29-1.92-4.91l1.45-11.7-3.24,7.66q-1.11-2.39-2.33-4.71l.42-11.82L220,75.67c-.87-1.51-1.78-3-2.73-4.48l-.61-11.82-1.87,8.14q-1.5-2.15-3.09-4.22L210,51.53l-1.15,8.28c-.72-.86-1.46-1.71-2.21-2.55l-1.05-1.18-.19-.2-2.67-11.59-.42,8.36-.06-.06-.09-.1-.09-.08q-1.71-1.71-3.5-3.34l0,0-3.66-11.31.3,8.36c-1-.83-2-1.65-3-2.45l-.35-.27-.74-.56-4.64-10.94,1,8.28c-1.43-1-2.88-2-4.36-2.93L177.6,26.75l1.75,8.15c-1.52-.89-3.06-1.73-4.62-2.55l-6.43-9.91,2.44,7.94c-1.59-.74-3.2-1.46-4.83-2.13L158.66,19l3.11,7.67-.7,3.31-8,4.55,11.76-3.06c1.65.68,3.28,1.41,4.89,2.17l-8.34,3.83,12-2c1.59.82,3.15,1.69,4.68,2.59l-8.62,3.08,12.08-1c1.5,1,3,2,4.44,3l-8.85,2.32,12.09.08c1.42,1.1,2.81,2.22,4.17,3.38l-9,1.53,12,1.14c1.17,1.08,2.33,2.18,3.46,3.31l.41.41-9.1.74L203,58.2l1.26,1.39c.77.87,1.54,1.76,2.28,2.65l-9.13-.05,11.65,3.21q1.65,2.13,3.18,4.34l-9.1-.85,11.36,4.23q1.44,2.25,2.78,4.59l-9-1.65,11,5.21q1.25,2.37,2.37,4.82l-8.85-2.43,10.48,6.15c.69,1.65,1.33,3.31,1.94,5l-8.63-3.2,9.93,7.06c.54,1.69,1,3.41,1.49,5.14l-8.33-3.94,9.28,7.89q.57,2.61,1,5.25L222,108.36l8.55,8.67c.23,1.76.42,3.53.56,5.32l-7.5-5.32,7.75,9.37c.07,1.57.11,3.14.11,4.73,0,.21,0,.41,0,.62l-7-6,6.9,10c-.07,1.79-.19,3.58-.36,5.35l-6.46-6.54,6,10.58q-.34,2.67-.82,5.29l-5.88-7.09,5.07,11.08q-.59,2.61-1.29,5.19l-5.23-7.57,4.09,11.47c-.54,1.71-1.12,3.39-1.74,5.06l-4.55-8,3.06,11.77c-.68,1.65-1.41,3.28-2.17,4.89l-3.83-8.35,2,12q-1.24,2.37-2.59,4.68L213.61,177l1,12.07c-1,1.51-2,3-3,4.45l-2.31-8.85-.09,12.09q-1.63,2.13-3.37,4.17l-1.53-9-1.14,12q-1.82,2-3.73,3.87l-.74-9.09-2.18,11.88q-2,1.82-4.05,3.54l.06-9.13-3.21,11.65q-2.13,1.64-4.35,3.18l.86-9.1-4.23,11.35c-1.51,1-3,1.89-4.59,2.78l1.64-9-5.2,11c-1.59.83-3.19,1.62-4.82,2.37l2.43-8.86-6.16,10.49c-1.64.69-3.31,1.33-5,1.94l3.19-8.63L156,234.05c-1.7.53-3.41,1-5.14,1.48l3.94-8.32-7.89,9.27q-2.61.59-5.25,1l4.64-7.94-8.67,8.55c-1.75.23-3.53.42-5.31.56l5.32-7.5-9.37,7.75c-.7,0-1.4,0-2.1,0a5,5,0,0,0-9.4,0c-.7,0-1.4,0-2.1,0l-9.37-7.75,5.32,7.5c-1.78-.14-3.56-.33-5.31-.56l-8.67-8.55,4.64,7.94q-2.64-.45-5.25-1l-7.89-9.27,3.94,8.32c-1.73-.45-3.44-.95-5.14-1.48l-7-9.93,3.19,8.63c-1.68-.61-3.35-1.25-5-1.94L72,220.32l2.43,8.86c-1.63-.75-3.23-1.54-4.82-2.37l-5.2-11,1.64,9c-1.55-.89-3.08-1.81-4.59-2.78l-4.23-11.35.86,9.1q-2.22-1.54-4.35-3.18L50.49,205l.06,9.13q-2.07-1.73-4-3.54l-2.18-11.88-.74,9.09q-1.92-1.89-3.73-3.87l-1.14-12-1.53,9q-1.74-2-3.37-4.17l-.09-12.09-2.31,8.85c-1-1.46-2-2.94-3-4.45l1-12.07-3.09,8.62q-1.35-2.31-2.59-4.68l2-12-3.83,8.35c-.76-1.61-1.49-3.24-2.17-4.89l3.06-11.77-4.55,8c-.62-1.67-1.2-3.35-1.74-5.06l4.09-11.47-5.23,7.57q-.7-2.58-1.29-5.19l5.07-11.08-5.88,7.09q-.48-2.62-.82-5.29l6-10.58L12,141.16c-.17-1.77-.29-3.56-.36-5.35l6.9-10-7,6c0-.21,0-.41,0-.62,0-1.59,0-3.16.11-4.73L19.38,117l-7.5,5.32c.14-1.79.33-3.56.56-5.32L21,108.36,13.05,113q.45-2.64,1-5.25l9.28-7.89L15,103.81c.46-1.73,1-3.45,1.49-5.14l9.93-7.06-8.63,3.2c.61-1.69,1.25-3.35,1.94-5l10.48-6.15-8.85,2.43q1.13-2.45,2.37-4.82l11-5.21-9,1.65q1.33-2.34,2.78-4.59l11.36-4.23-9.1.85q1.53-2.2,3.18-4.34l11.65-3.21-9.13.05c.74-.89,1.51-1.78,2.28-2.65L40,58.2,51.85,56l-9.1-.74.41-.41c1.13-1.13,2.29-2.23,3.46-3.31l12-1.14-9-1.53c1.36-1.16,2.75-2.28,4.17-3.38l12.09-.08L57.07,43.1c1.45-1,2.94-2,4.44-3l12.08,1L65,38c1.53-.9,3.09-1.77,4.68-2.59l12,2L73.27,33.6c1.61-.76,3.24-1.49,4.89-2.17l11.76,3.06-8-4.55-.7-3.31L84.34,19l-7.25,9.29c-1.63.67-3.24,1.39-4.83,2.13l2.44-7.94-6.43,9.91c-1.56.82-3.1,1.66-4.62,2.55l1.75-8.15L59.84,37.21c-1.48.95-2.93,1.92-4.36,2.93l1-8.28L51.87,42.8l-.74.56-.35.27c-1,.8-2,1.62-3,2.45l.3-8.36L44.43,49l0,0q-1.78,1.63-3.5,3.34l-.09.08-.09.1-.06.06-.42-8.36L37.56,55.88l-.19.2-1,1.18c-.75.84-1.49,1.69-2.21,2.55L33,51.53,31.31,63.29q-1.59,2.07-3.09,4.22l-1.87-8.14-.61,11.82c-.95,1.47-1.86,3-2.73,4.48l-2.56-7.92.42,11.82q-1.22,2.33-2.33,4.71L15.3,76.62l1.45,11.7c-.68,1.62-1.32,3.25-1.92,4.91L11,85.9,13.4,97.41q-.8,2.52-1.48,5.08l-4.5-7,3.45,11.25c-.39,1.71-.73,3.44-1,5.18l-5.09-6.53,4.42,10.91c-.23,1.74-.42,3.49-.57,5.26l-5.65-6.08L8.3,126a2.26,2.26,0,0,0,0,.26c-.07,1.51-.11,3-.11,4.56v.29h0v.16L2,125.73l6.26,10c.07,1.76.18,3.52.34,5.26L2,136l7.09,9.39q.33,2.63.8,5.22l-7-4.4,7.88,8.74q.57,2.59,1.25,5.14L4.63,156.3l8.6,8q.79,2.53,1.7,5l-7.67-3.12,9.3,7.26q1,2.44,2.13,4.83l-8-2.44,9.92,6.43q1.21,2.34,2.54,4.61l-8.14-1.74,10.46,5.55q1.41,2.22,2.93,4.37l-8.29-1,10.94,4.64c1.07,1.38,2.16,2.74,3.29,4.08L26,202.46l11.31,3.67q1.77,1.94,3.62,3.78l-8.35.42L44.19,213q1.92,1.77,3.93,3.45l-8.29,1.15,11.77,1.64q2.07,1.6,4.21,3.1l-8.14,1.87,11.82.61q2.2,1.41,4.49,2.73l-7.92,2.56,11.81-.42q2.32,1.22,4.71,2.33l-7.66,3.23,11.7-1.44q2.43,1,4.91,1.92l-7.32,3.88,11.51-2.46c1.67.54,3.36,1,5.07,1.49l-7,4.5,11.25-3.45c1.72.38,3.44.73,5.19,1l-6.54,5.09,10.91-4.41c1.74.23,3.5.42,5.26.57l-6.08,5.65,10.5-5.36c.84,0,1.68,0,2.51.06a5,5,0,0,0,9.33,0c.84,0,1.68,0,2.52-.06l10.5,5.36L133.1,242c1.76-.15,3.52-.34,5.26-.57l10.91,4.41-6.54-5.09c1.75-.3,3.47-.65,5.19-1l11.25,3.45-7-4.5c1.71-.46,3.4-.95,5.07-1.49l11.51,2.46-7.32-3.88q2.47-.9,4.91-1.92l11.7,1.44L170.42,232q2.39-1.11,4.71-2.33l11.81.42L179,227.55q2.28-1.32,4.49-2.73l11.82-.61-8.14-1.87q2.15-1.5,4.21-3.1l11.77-1.64-8.29-1.15q2-1.68,3.93-3.45l11.59-2.67-8.35-.42q1.84-1.84,3.62-3.78L217,202.46l-8.37.31c1.13-1.34,2.22-2.7,3.29-4.08l10.94-4.64-8.29,1q1.51-2.15,2.93-4.37l10.46-5.55-8.14,1.74q1.32-2.27,2.54-4.61l9.92-6.43-7.95,2.44q1.13-2.38,2.13-4.83l9.3-7.26-7.67,3.12q.9-2.47,1.7-5l8.6-8L231,160.08q.67-2.55,1.25-5.14Z"/><path class="cls-2" d="M52.07,196.62A1.65,1.65,0,1,1,50.42,195,1.65,1.65,0,0,1,52.07,196.62Z"/><circle class="cls-3" cx="62.54" cy="196.62" r="1.65"/><circle class="cls-4" cx="74.65" cy="196.62" r="1.65"/><circle class="cls-5" cx="86.77" cy="196.62" r="1.65"/><circle class="cls-6" cx="98.88" cy="196.62" r="1.65"/><circle class="cls-7" cx="111" cy="196.62" r="1.65"/><path class="cls-8" d="M124.77,196.62a1.66,1.66,0,1,1-1.65-1.66A1.65,1.65,0,0,1,124.77,196.62Z"/><circle class="cls-9" cx="135.23" cy="196.62" r="1.65"/><circle class="cls-10" cx="147.35" cy="196.62" r="1.65"/><circle class="cls-11" cx="159.46" cy="196.62" r="1.65"/><circle class="cls-12" cx="171.58" cy="196.62" r="1.65"/><circle class="cls-13" cx="183.69" cy="196.62" r="1.65"/><path class="cls-14" d="M197.46,196.62a1.65,1.65,0,1,1-1.65-1.66A1.65,1.65,0,0,1,197.46,196.62Z"/><path class="cls-15" d="M56.61,126.75a11.41,11.41,0,0,1,7.5-2.75q5.61,0,7.43,3.68a6.85,6.85,0,0,1,.65,4.15H67.54a5,5,0,0,0-.65-2.41A3.8,3.8,0,0,0,63.45,128,5.9,5.9,0,0,0,59,130a12,12,0,0,0-2.69,5.79q-.8,3.75.35,5.61a3.86,3.86,0,0,0,3.53,1.86,5.59,5.59,0,0,0,4.08-1.6A9.19,9.19,0,0,0,66,139.09h4.6A13.08,13.08,0,0,1,66.26,145a10.92,10.92,0,0,1-6.84,2.28q-4.8,0-6.9-3.08t-.94-8.48A15.38,15.38,0,0,1,56.61,126.75Z"/><path class="cls-15" d="M83.64,124.42h5.25l3.16,22.25H87l-.47-4.57h-8.2l-2.5,4.57H71Zm-3.23,13.84h5.65l-.93-8.75Z"/><path class="cls-15" d="M99.68,139.8a4,4,0,0,0,.35,2.28c.56.92,1.76,1.37,3.59,1.37a9,9,0,0,0,2.75-.36,3.37,3.37,0,0,0,2.49-2.58,1.52,1.52,0,0,0-.6-1.7,8.38,8.38,0,0,0-2.81-1.05l-2.25-.52a12.32,12.32,0,0,1-4.44-1.71c-1.28-1-1.68-2.63-1.22-4.81a8.25,8.25,0,0,1,3.23-5,10.93,10.93,0,0,1,6.81-2,8.11,8.11,0,0,1,5.6,1.87c1.38,1.24,1.87,3,1.44,5.41h-4.46A2.53,2.53,0,0,0,109,128.2a5.1,5.1,0,0,0-2.59-.56,5.9,5.9,0,0,0-3,.72,3,3,0,0,0-1.5,2,1.54,1.54,0,0,0,.68,1.79,10.83,10.83,0,0,0,2.7.92l3.64.92a7.87,7.87,0,0,1,3.45,1.61q1.67,1.57,1,4.54a8.33,8.33,0,0,1-3.41,5.07,11.62,11.62,0,0,1-7,2q-4.35,0-6.42-2c-1.37-1.33-1.82-3.14-1.32-5.46Z"/><path class="cls-15" d="M119.74,146.67h-4.62l4.73-22.25h4.61Z"/><path class="cls-15" d="M128.72,124.42h4.88L139.15,140l3.31-15.53h4.33l-4.73,22.25h-4.64l-5.74-15.8-3.35,15.8H124Z"/><path class="cls-15" d="M163.93,144.69a11.69,11.69,0,0,1-7.83,2.6q-4.77,0-6.75-2.6-2.7-3.18-1.42-9.17t5.33-9.18a11.71,11.71,0,0,1,7.83-2.6q4.77,0,6.75,2.6,2.72,3.06,1.42,9.18A15.26,15.26,0,0,1,163.93,144.69Zm.68-9.17q.78-3.75-.4-5.79a4.18,4.18,0,0,0-4-2,6.67,6.67,0,0,0-4.83,2,11.09,11.09,0,0,0-2.88,5.8c-.53,2.5-.4,4.43.41,5.79a4.25,4.25,0,0,0,4,2,6.63,6.63,0,0,0,4.82-2A11.23,11.23,0,0,0,164.61,135.52Z"/><path class="cls-15" d="M175.08,124.42H180L185.51,140l3.31-15.53h4.33l-4.72,22.25h-4.65L178,130.87l-3.35,15.8h-4.33Z"/><path class="cls-15" d="M91.93,179.46a16.78,16.78,0,0,1,5.33-4.63,44.13,44.13,0,0,0,4.5-3.05,5.87,5.87,0,0,0,2-3.14,3,3,0,0,0-.28-2.31,2.15,2.15,0,0,0-2-.92,3.43,3.43,0,0,0-3,1.46,8.38,8.38,0,0,0-1,2.69H93.28a12.69,12.69,0,0,1,2-4.52,8,8,0,0,1,6.81-3.27c2.31,0,4,.64,5.11,1.92a5.64,5.64,0,0,1,1,5.1,8.58,8.58,0,0,1-2.36,4.31,19.52,19.52,0,0,1-3.72,2.8l-2,1.22c-1.24.76-2.09,1.32-2.57,1.66A6.41,6.41,0,0,0,96.25,180h9.55l-.8,3.79H90A12.53,12.53,0,0,1,91.93,179.46Z"/><path class="cls-15" d="M124.58,173a20.6,20.6,0,0,1-3.46,8.35,7.79,7.79,0,0,1-6.49,2.92q-4.17,0-5.24-2.92t.1-8.35a20.24,20.24,0,0,1,3.45-8.36,7.78,7.78,0,0,1,6.49-2.95c2.79,0,4.53,1,5.24,2.95S125.34,169.42,124.58,173Zm-9.21,7.77a3.2,3.2,0,0,0,2.94-2,24.56,24.56,0,0,0,1.83-5.77,21,21,0,0,0,.64-5.86,1.88,1.88,0,0,0-2.1-1.9,3.23,3.23,0,0,0-3,1.9,23,23,0,0,0-1.85,5.86,20.35,20.35,0,0,0-.62,5.77A1.93,1.93,0,0,0,115.37,180.8Z"/><path class="cls-15" d="M126.31,179.46a16.78,16.78,0,0,1,5.33-4.63,44.13,44.13,0,0,0,4.5-3.05,5.81,5.81,0,0,0,2-3.14,3,3,0,0,0-.27-2.31,2.18,2.18,0,0,0-2-.92,3.43,3.43,0,0,0-3,1.46,8.38,8.38,0,0,0-1,2.69h-4.18a12.69,12.69,0,0,1,2-4.52,8,8,0,0,1,6.81-3.27c2.31,0,4,.64,5.11,1.92a5.64,5.64,0,0,1,1,5.1,8.58,8.58,0,0,1-2.36,4.31,19.52,19.52,0,0,1-3.72,2.8l-2,1.22c-1.24.76-2.09,1.32-2.57,1.66a6.41,6.41,0,0,0-1.25,1.19h9.55l-.8,3.79h-15A12.53,12.53,0,0,1,126.31,179.46Z"/><path class="cls-15" d="M159,173a20.6,20.6,0,0,1-3.46,8.35A7.79,7.79,0,0,1,149,184.3q-4.17,0-5.24-2.92t.1-8.35a20.24,20.24,0,0,1,3.45-8.36,7.8,7.8,0,0,1,6.49-2.95c2.79,0,4.54,1,5.24,2.95S159.72,169.42,159,173Zm-9.21,7.77a3.2,3.2,0,0,0,2.94-2,24.56,24.56,0,0,0,1.83-5.77,21,21,0,0,0,.64-5.86,1.88,1.88,0,0,0-2.1-1.9,3.21,3.21,0,0,0-2.94,1.9,22.56,22.56,0,0,0-1.86,5.86,20.35,20.35,0,0,0-.62,5.77A1.93,1.93,0,0,0,149.75,180.8Z"/><path class="cls-16" d="M79,70.5c0-3.75,7.62-6.45,8.54-9.91s-4.26-9.71-2.45-12.85S94.87,46,97.45,43.45s1.12-10.52,4.3-12.36S111,34.5,114.6,33.54,120.75,25,124.5,25s6.45,7.62,9.91,8.54,9.71-4.26,12.85-2.45,1.71,9.78,4.29,12.36,10.52,1.12,12.36,4.29S160.5,57,161.46,60.59,170,66.75,170,70.5s-7.62,6.45-8.54,9.91,4.26,9.71,2.45,12.85-9.78,1.71-12.36,4.29-1.12,10.52-4.29,12.36-9.28-3.41-12.85-2.45S128.25,116,124.5,116s-6.45-7.62-9.9-8.54-9.72,4.26-12.86,2.45-1.71-9.78-4.29-12.36-10.52-1.12-12.36-4.29S88.5,84,87.54,80.41,79,74.25,79,70.5Z"/><path class="cls-17" d="M96.22,59.32h5.21l5.94,17,3.54-17h4.63L110.49,83.7h-5L99.38,66.38,95.8,83.7H91.16Z"/><path class="cls-17" d="M133.75,59.32h5.64L128.26,74.54l-1.88,9.16h-5l1.89-9.16-5.07-15.22h5.86l2.73,10.62Z"/><path class="cls-17" d="M146,59.32h5.61L155,83.7h-5.39l-.5-5h-8.77l-2.68,5h-5.2Zm-3.46,15.17h6l-1-9.6Z"/></svg>