<svg xmlns="http://www.w3.org/2000/svg" viewBox="0 0 239.97 243.05"><defs><style>.cls-1{isolation:isolate;}.cls-2{fill:#e6e6e6;stroke:#e6e6e6;stroke-miterlimit:10;}.cls-3{fill:#b3b3b3;}.cls-10,.cls-11,.cls-12,.cls-13,.cls-14,.cls-15,.cls-16,.cls-4,.cls-6,.cls-7,.cls-8,.cls-9{fill:#ccc;}.cls-5{fill:#999;}.cls-6{opacity:0.72;}.cls-10,.cls-16,.cls-6,.cls-7,.cls-8,.cls-9{mix-blend-mode:multiply;}.cls-7{opacity:0.54;}.cls-9{opacity:0;}.cls-10{opacity:0.9;}.cls-11{opacity:0.14;}.cls-12{opacity:0.5;}.cls-13{opacity:0.25;}.cls-14{opacity:0.6;}.cls-15{opacity:0.73;}.cls-16{opacity:0.17;}</style></defs><title>ban2</title><g class="cls-1"><g id="Lager_1" data-name="Lager 1"><path class="cls-2" d="M190.29,23.61l-4.06,19.27,6.28,1.32s1.43-6.79,7.28-5.56,9,6.21,13.56,5.1c0,0-17,3.33-22.6,29.73L214,78.36s2-27.46,21.84-43.39l-3.66-3.64a12.61,12.61,0,0,1-7.25.86c-3.79-.79-12.23-6.17-18-7.37S196,27.41,196,27.41l.5-2.48Z" transform="translate(-7.82 -5.26)"/><path class="cls-2" d="M215.25,80.07l-26.17-5.51.29-1.38C193.2,55,202.45,47.37,208.18,44.3c-.88-.43-1.76-1-2.65-1.52a19,19,0,0,0-6-2.76c-4.31-.91-5.49,3.92-5.62,4.47l-.29,1.37-9-1.9,4.63-22,9,1.89-.17.85a15,15,0,0,1,9.2-1.25c3.33.7,7.44,2.69,11.06,4.44a39.78,39.78,0,0,0,6.91,2.94,11.16,11.16,0,0,0,6.35-.76l.9-.43,5.48,5.45-1.23,1c-19.18,15.36-21.29,42.12-21.31,42.4Zm-22.83-7.68,20.3,4.27c.73-6.07,4.43-27.65,21-41.78L231.8,33a13.75,13.75,0,0,1-7.2.6A40.49,40.49,0,0,1,217,30.42c-3.47-1.69-7.41-3.6-10.41-4.23-5-1.06-9.73,2.32-9.77,2.35l-2.93,2.13.94-4.65-3.5-.74-3.48,16.51,3.64.77c1-2.81,3.67-6.33,8.55-5.3A21.45,21.45,0,0,1,207,40.39c2.23,1.36,3.92,2.44,5.81,2.41l4-.11h0L213,44.17C211.37,45,197.73,49.62,192.42,72.39Z" transform="translate(-7.82 -5.26)"/><g id="Coin"><path class="cls-3" d="M172.87,59.24a48,48,0,0,0-9.35-14.92,54.15,54.15,0,0,0-31.06-16.55,56.85,56.85,0,0,0-18.68,0A54.15,54.15,0,0,0,82.72,44.32a47.78,47.78,0,0,0-9.35,14.92,45.37,45.37,0,0,0,0,33.12,47.56,47.56,0,0,0,9.35,14.92,54.1,54.1,0,0,0,31.06,16.56,57,57,0,0,0,18.68,0,54.1,54.1,0,0,0,31.06-16.56,47.74,47.74,0,0,0,9.35-14.92,45.37,45.37,0,0,0,0-33.12ZM149.46,99a37,37,0,0,1-17.78,9.49,39.55,39.55,0,0,1-17.12,0A37,37,0,0,1,96.78,99h0a33.16,33.16,0,0,1-8.57-13.67,31.13,31.13,0,0,1,0-19,33.2,33.2,0,0,1,8.57-13.68h0a37,37,0,0,1,17.78-9.48,39.55,39.55,0,0,1,17.12,0,37,37,0,0,1,17.78,9.48A33.2,33.2,0,0,1,158,66.32a31.13,31.13,0,0,1,0,19A33.16,33.16,0,0,1,149.46,99Zm-65.29-14-8,4.24a42.15,42.15,0,0,1,0-26.76l8,4.25a34.54,34.54,0,0,0,0,18.27Zm77.89-18.27,8-4.25a42.15,42.15,0,0,1,0,26.76l-8-4.24a34.27,34.27,0,0,0,0-18.27Zm-1.14-3.44a36.56,36.56,0,0,0-7.11-11.35l7.81-4.17a44.25,44.25,0,0,1,7.13,11.36ZM159.11,45l-8,4.24A40.82,40.82,0,0,0,134,40.11V31.63A50.2,50.2,0,0,1,159.11,45ZM130.23,31V39.3a43.5,43.5,0,0,0-14.22,0V31A52.9,52.9,0,0,1,130.23,31Zm-18,.65v8.48a40.86,40.86,0,0,0-17.14,9.14l-8-4.24A50.16,50.16,0,0,1,112.22,31.63ZM84.62,47.71l7.81,4.17a36.56,36.56,0,0,0-7.11,11.35l-7.83-4.16A44.08,44.08,0,0,1,84.62,47.71Zm.7,40.66a36.61,36.61,0,0,0,7.11,11.36l-7.81,4.17a44.42,44.42,0,0,1-7.13-11.36Zm1.81,18.23,8-4.24a41,41,0,0,0,17.14,9.14V120A50.23,50.23,0,0,1,87.13,106.6Zm28.88,14V112.3a43.5,43.5,0,0,0,14.22,0v8.33A52.9,52.9,0,0,1,116,120.63Zm18-.66V111.5a40.93,40.93,0,0,0,17.13-9.14l8,4.24A50.27,50.27,0,0,1,134,120Zm27.6-16.07-7.81-4.17a36.61,36.61,0,0,0,7.11-11.36l7.83,4.17A44.42,44.42,0,0,1,161.62,103.9Z" transform="translate(-7.82 -5.26)"/><path class="cls-3" d="M124.28,61.11c4.05.23,6.54,2.18,7.42,5.8A1.91,1.91,0,0,0,134,68.23a1.74,1.74,0,0,0,1.43-2.08c-1.24-5.12-5-8.14-10.71-8.52l-.06-3.56a1.84,1.84,0,0,0-1.9-1.72h0a1.82,1.82,0,0,0-1.86,1.78l.06,3.7c-4.68.82-8.52,3.68-9.4,7.37-1.69,7.11,7.72,11.08,10.62,12.12l.6.22c5.91,2.12,9,5.15,8.31,8.12s-4.75,5.08-9.07,4.84c-4-.23-6.55-2.18-7.42-5.8a1.9,1.9,0,0,0-2.27-1.33,1.75,1.75,0,0,0-1.43,2.09c1.24,5.12,5,8.14,10.71,8.51l.06,3.56a1.84,1.84,0,0,0,1.9,1.73h0a1.81,1.81,0,0,0,1.86-1.77l-.06-3.71c4.68-.81,8.52-3.67,9.4-7.36,1.69-7.11-7.72-11.08-10.63-12.12l-.59-.22c-5.91-2.12-9-5.16-8.32-8.13S120,60.87,124.28,61.11Z" transform="translate(-7.82 -5.26)"/></g><polygon class="cls-4" points="232.48 0 235.13 4.84 239.97 7.48 235.13 10.13 232.48 14.97 229.84 10.13 225 7.49 229.84 4.84 232.48 0"/><polygon class="cls-4" points="7.48 51 10.13 55.84 14.97 58.48 10.13 61.13 7.48 65.97 4.84 61.13 0 58.49 4.84 55.84 7.48 51"/><polygon class="cls-4" points="50.48 131 53.13 135.84 57.97 138.48 53.13 141.13 50.48 145.97 47.84 141.13 43 138.49 47.84 135.84 50.48 131"/><polygon class="cls-4" points="177.48 101 180.13 105.84 184.97 108.48 180.13 111.13 177.48 115.97 174.84 111.13 170 108.49 174.84 105.84 177.48 101"/><polygon class="cls-4" points="227.48 191 230.13 195.84 234.97 198.48 230.13 201.13 227.48 205.97 224.84 201.13 220 198.49 224.84 195.84 227.48 191"/><polygon class="cls-4" points="94.93 226.77 97.57 231.61 102.41 234.25 97.57 236.9 94.93 241.74 92.28 236.9 87.44 234.26 92.28 231.61 94.93 226.77"/><polygon class="cls-4" points="138.93 171.77 141.57 176.61 146.41 179.25 141.57 181.9 138.93 186.74 136.28 181.9 131.44 179.26 136.28 176.61 138.93 171.77"/><polygon class="cls-4" points="159.93 9.77 162.57 14.61 167.41 17.25 162.57 19.9 159.93 24.74 157.28 19.9 152.44 17.26 157.28 14.61 159.93 9.77"/><g id="Slot_machine" data-name="Slot machine"><path class="cls-5" d="M78.54,168.29l-49.06,24.1a5.13,5.13,0,0,0-2.33,6.85l7,14.28A5.11,5.11,0,0,0,41,215.85l49.06-24.1a5.11,5.11,0,0,0,2.33-6.84l-7-14.29A5.11,5.11,0,0,0,78.54,168.29Zm-41.77,44-7-14.29a2.22,2.22,0,0,1,1-3l14-6.86,9,18.27-14,6.86A2.21,2.21,0,0,1,36.77,212.25Zm10.54-25.39L63.26,179l9,18.27-15.95,7.83Zm42.5-.68a2.22,2.22,0,0,1-1,3l-14,6.86-9-18.27,14-6.86a2.22,2.22,0,0,1,3,1Z" transform="translate(-7.82 -5.26)"/><path class="cls-5" d="M78.5,175.49l-6.2,3a1.45,1.45,0,0,0,1.28,2.6l3.63-1.78a21.09,21.09,0,0,0,1.42,9.07,1.44,1.44,0,0,0,1.86.84l.13,0a1.45,1.45,0,0,0,.72-1.81c-2.25-6-.86-10.08-.85-10.11a1.44,1.44,0,0,0-2-1.8Z" transform="translate(-7.82 -5.26)"/><path class="cls-5" d="M60,184.6l-6.19,3.05A1.44,1.44,0,0,0,55,190.24l3.63-1.78a21.13,21.13,0,0,0,1.43,9.07,1.44,1.44,0,0,0,1.86.85l.13-.06a1.44,1.44,0,0,0,.71-1.81c-2.25-6-.85-10.08-.84-10.11a1.45,1.45,0,0,0-2-1.8Z" transform="translate(-7.82 -5.26)"/><path class="cls-5" d="M41.41,193.72l-6.2,3a1.45,1.45,0,0,0,1.28,2.6l3.63-1.79a21.15,21.15,0,0,0,1.42,9.08,1.45,1.45,0,0,0,1.86.84l.13-.06a1.45,1.45,0,0,0,.72-1.8c-2.26-6-.86-10.08-.85-10.12a1.44,1.44,0,0,0-2-1.79Z" transform="translate(-7.82 -5.26)"/><path class="cls-5" d="M93.57,198.11l-49.66,24.4a4.8,4.8,0,0,0-2.18,6.4l1.39,2.83a4.79,4.79,0,0,0,6.4,2.19l49.65-24.4a4.79,4.79,0,0,0,2.19-6.4L100,200.3A4.79,4.79,0,0,0,93.57,198.11Zm5.19,6.29a1.89,1.89,0,0,1-.86,2.53l-49.65,24.4a1.89,1.89,0,0,1-2.53-.86l-1.39-2.83a1.89,1.89,0,0,1,.86-2.53l49.65-24.4a1.89,1.89,0,0,1,2.53.86Z" transform="translate(-7.82 -5.26)"/><path class="cls-5" d="M109.62,153.52A8.15,8.15,0,1,0,104.54,165l9.3,18.91a5.25,5.25,0,0,1-1.21,6.21c-4.5-8.38-8.29-8.4-12.25-6.73L88.16,158.47a8.45,8.45,0,0,0-11.28-3.85l-57.2,28.11A8.43,8.43,0,0,0,15.84,194L40.2,243.6a8.43,8.43,0,0,0,11.28,3.84l57.2-28.1a8.43,8.43,0,0,0,3.84-11.28l-.59-1.22c3.78-2.15,6.09-5.2,2-14.12a8.13,8.13,0,0,0,2.49-10.14l-9.29-18.91A8.15,8.15,0,0,0,109.62,153.52Zm.31,55.81a5.55,5.55,0,0,1-2.53,7.41L50.2,244.85a5.54,5.54,0,0,1-7.4-2.53L18.43,192.74A5.55,5.55,0,0,1,21,185.33l57.2-28.11a5.53,5.53,0,0,1,7.4,2.53Zm.72-5.08-9-18.33c2.83-1.2,5.22-1.07,9.14,6.89S113.34,202.75,110.65,204.25Zm-6-42.42a5.26,5.26,0,1,1,2.4-7A5.26,5.26,0,0,1,104.63,161.83Z" transform="translate(-7.82 -5.26)"/></g><g id="Roulette"><path class="cls-4" d="M224.37,139.61A32.81,32.81,0,1,0,234,162.8,32.57,32.57,0,0,0,224.37,139.61Zm-12,34.42a15.9,15.9,0,0,1-22.48,0h0a15.6,15.6,0,0,1-3.45-5.15,15.91,15.91,0,0,1,0-12.17h0a15.76,15.76,0,0,1,3.45-5.15h0a15.7,15.7,0,0,1,5.15-3.45,15.87,15.87,0,0,1,6.09-1.21h0a15.82,15.82,0,0,1,6.08,1.21h0a15.75,15.75,0,0,1,5.16,3.45h0a15.73,15.73,0,0,1,3.44,5.15h0A15.9,15.9,0,0,1,212.42,174Zm5.88-17.13,6.35-2.63a24.7,24.7,0,0,1,1.46,7.42h-6.86A17.78,17.78,0,0,0,218.3,156.9Zm-.85-2.05a17.49,17.49,0,0,0-2.71-4l4.85-4.85a24.63,24.63,0,0,1,4.21,6.27Zm-4.27-5.62a18.09,18.09,0,0,0-4.06-2.71l1.8-4.35.83-2a25,25,0,0,1,6.28,4.21Zm-6.11-3.56a18.1,18.1,0,0,0-4.79-.95v-6.86a25,25,0,0,1,7.42,1.46Zm-7-.95a18.18,18.18,0,0,0-4.79.95l-2.63-6.35a25.07,25.07,0,0,1,7.42-1.46Zm-9.46-4.55,2.63,6.35a17.87,17.87,0,0,0-4.06,2.71l-4.85-4.85A24.77,24.77,0,0,1,190.61,140.17ZM182.76,146l4.85,4.85a18.14,18.14,0,0,0-2.71,4l-6.35-2.63A24.9,24.9,0,0,1,182.76,146Zm-5.06,8.32,6.35,2.63a18.18,18.18,0,0,0-1,4.79h-6.86A25,25,0,0,1,177.7,154.27Zm5.4,9.63a18.18,18.18,0,0,0,1,4.79l-6.35,2.63a25,25,0,0,1-1.46-7.42Zm1.8,6.84a18.14,18.14,0,0,0,2.71,4l-4.85,4.86a25.13,25.13,0,0,1-4.21-6.28Zm4.28,5.62a17.55,17.55,0,0,0,4.06,2.71l-1.8,4.35-.83,2a24.51,24.51,0,0,1-6.28-4.21Zm6.1,3.56a18.18,18.18,0,0,0,4.79,1v6.86a25.07,25.07,0,0,1-7.42-1.46Zm7,1a18.1,18.1,0,0,0,4.79-1l2.63,6.35a25,25,0,0,1-7.42,1.46Zm9.47,4.55-.83-2-1.8-4.35a17.76,17.76,0,0,0,4.06-2.71l4.85,4.85A24.69,24.69,0,0,1,211.75,185.42Zm7.84-5.77-4.85-4.86a17.49,17.49,0,0,0,2.71-4l6.35,2.63A24.86,24.86,0,0,1,219.59,179.65Zm5.06-8.33-6.35-2.63a17.78,17.78,0,0,0,.95-4.79h6.86A24.7,24.7,0,0,1,224.65,171.32Zm3.68-9.63a26.89,26.89,0,0,0-7.17-17.31l2.41-2.41a30.32,30.32,0,0,1,8.17,19.72Zm-8.73-18.88a27,27,0,0,0-17.32-7.17v-3.41A30.35,30.35,0,0,1,222,140.4Zm-19.53-10.58v3.41a26.94,26.94,0,0,0-17.31,7.17l-2.41-2.41A30.38,30.38,0,0,1,200.07,132.23ZM178.78,142l2.41,2.41A27,27,0,0,0,174,161.69h-3.4A30.36,30.36,0,0,1,178.78,142ZM174,163.9a27,27,0,0,0,7.17,17.31l-2.41,2.41a30.34,30.34,0,0,1-8.16-19.72Zm8.74,18.88A26.94,26.94,0,0,0,200.07,190v3.41a30.32,30.32,0,0,1-19.72-8.17Zm19.52,10.58V190a27,27,0,0,0,17.32-7.17l2.4,2.41A30.3,30.3,0,0,1,202.28,193.36Zm21.29-9.74-2.41-2.41a26.89,26.89,0,0,0,7.17-17.31h3.41A30.3,30.3,0,0,1,223.57,183.62Z" transform="translate(-7.82 -5.26)"/><path class="cls-4" d="M209.16,161.69H205a4,4,0,0,0-2.76-2.76v-4.12a1.11,1.11,0,0,0-2.21,0v4.12a4.05,4.05,0,0,0-2.76,2.76H193.2a1.11,1.11,0,1,0,0,2.21h4.11a4.05,4.05,0,0,0,2.76,2.76v4.12a1.11,1.11,0,0,0,2.21,0v-4.12A4,4,0,0,0,205,163.9h4.12a1.11,1.11,0,1,0,0-2.21Z" transform="translate(-7.82 -5.26)"/></g><g id="Clover"><path class="cls-4" d="M43.13,109.68A3.74,3.74,0,0,0,44,105.2a4.55,4.55,0,0,0-.62-1,1.69,1.69,0,0,1-.4-1.07V103a1.74,1.74,0,0,1,.4-1.08,4.49,4.49,0,0,0,.62-1,3.75,3.75,0,0,0-.87-4.49,3.62,3.62,0,0,0-2-.92,6,6,0,0,0-4.19,1,6,6,0,0,0,1-4.19,3.56,3.56,0,0,0-.92-2,3.75,3.75,0,0,0-4.49-.87,4.49,4.49,0,0,0-1,.62,1.75,1.75,0,0,1-1.08.41h-.18A1.7,1.7,0,0,1,29.17,90a4.75,4.75,0,0,0-1-.62,3.75,3.75,0,0,0-4.49.87,3.5,3.5,0,0,0-.92,2,6,6,0,0,0,1,4.19,6,6,0,0,0-4.18-1,3.69,3.69,0,0,0-2,.92,3.75,3.75,0,0,0-.86,4.49,4.44,4.44,0,0,0,.61,1,1.7,1.7,0,0,1,.41,1.08v.18a1.65,1.65,0,0,1-.41,1.07,4.51,4.51,0,0,0-.61,1,3.73,3.73,0,0,0,.86,4.48,3.56,3.56,0,0,0,2,.92,4.76,4.76,0,0,0,.84.07,6.06,6.06,0,0,0,3.34-1,6,6,0,0,0-1,4.19,3.56,3.56,0,0,0,.92,2,3.71,3.71,0,0,0,4.49.86,4.7,4.7,0,0,0,1-.61,1.65,1.65,0,0,1,1.07-.41h.18a1.7,1.7,0,0,1,1.08.41,4.44,4.44,0,0,0,1,.61,3.73,3.73,0,0,0,4.49-.86,3.62,3.62,0,0,0,.92-2,6,6,0,0,0-1-4.19,5.92,5.92,0,0,0,1.87.83,19.66,19.66,0,0,1,4.07,12.18.54.54,0,1,0,1.07,0,20.68,20.68,0,0,0-3.67-12,4.76,4.76,0,0,0,.84-.07A3.5,3.5,0,0,0,43.13,109.68ZM23.86,92.47A2.57,2.57,0,0,1,24.48,91a2.65,2.65,0,0,1,3.26-.65,3.42,3.42,0,0,1,.74.47,2.82,2.82,0,0,0,1.76.65h.18a2.78,2.78,0,0,0,1.76-.65,3.42,3.42,0,0,1,.74-.47,2.67,2.67,0,0,1,3.27.65,2.56,2.56,0,0,1,.61,1.44,4.94,4.94,0,0,1-1.41,4.19l-5.06,5.6-5.07-5.61A5,5,0,0,1,23.86,92.47Zm-4.12,17.07a2.6,2.6,0,0,1-1.45-.62,2.66,2.66,0,0,1-.65-3.26,3.42,3.42,0,0,1,.47-.74,2.75,2.75,0,0,0,.66-1.76V103a2.75,2.75,0,0,0-.66-1.76,3.42,3.42,0,0,1-.47-.74,2.66,2.66,0,0,1,.65-3.26,2.6,2.6,0,0,1,1.45-.62,4,4,0,0,1,.68,0A5,5,0,0,1,23.93,98l5.6,5-5.62,5.07A5,5,0,0,1,19.74,109.54Zm17.06,4.12a2.6,2.6,0,0,1-.61,1.45,2.67,2.67,0,0,1-3.27.65,3.42,3.42,0,0,1-.74-.47,2.79,2.79,0,0,0-1.76-.66h-.18a2.83,2.83,0,0,0-1.76.66,3.42,3.42,0,0,1-.74.47,2.66,2.66,0,0,1-3.26-.65,2.6,2.6,0,0,1-.62-1.45,5,5,0,0,1,1.42-4.19l5-5.6,5.07,5.62A4.94,4.94,0,0,1,36.8,113.66Zm-.06-5.54-5.6-5.05L36.75,98a5,5,0,0,1,4.18-1.4,2.54,2.54,0,0,1,1.44.62,2.67,2.67,0,0,1,.66,3.26,3.9,3.9,0,0,1-.48.74A2.8,2.8,0,0,0,41.9,103v.18a2.8,2.8,0,0,0,.65,1.76,3.9,3.9,0,0,1,.48.74,2.67,2.67,0,0,1-.66,3.26,2.54,2.54,0,0,1-1.44.62A5,5,0,0,1,36.74,108.12Z" transform="translate(-7.82 -5.26)"/></g><g id="Clover-2" data-name="Clover"><path class="cls-4" d="M191.82,223.1a3.76,3.76,0,0,0,.86-4.49,4.75,4.75,0,0,0-.62-1,1.69,1.69,0,0,1-.4-1.07v-.18a1.74,1.74,0,0,1,.4-1.08,4.49,4.49,0,0,0,.62-1,3.76,3.76,0,0,0-.86-4.49,3.62,3.62,0,0,0-2-.92,6,6,0,0,0-4.19,1,5.92,5.92,0,0,0,1-4.18,3.5,3.5,0,0,0-.92-2,3.75,3.75,0,0,0-4.49-.87,4.49,4.49,0,0,0-1,.62,1.74,1.74,0,0,1-1.08.4h-.18a1.69,1.69,0,0,1-1.07-.4,4.75,4.75,0,0,0-1-.62,3.75,3.75,0,0,0-4.49.87,3.5,3.5,0,0,0-.92,2,6,6,0,0,0,1,4.19,6,6,0,0,0-4.18-1,3.62,3.62,0,0,0-2,.92,3.74,3.74,0,0,0-.86,4.49,4.44,4.44,0,0,0,.61,1,1.7,1.7,0,0,1,.41,1.08v.18a1.65,1.65,0,0,1-.41,1.07,5.17,5.17,0,0,0-.61,1,3.74,3.74,0,0,0,.86,4.49,3.56,3.56,0,0,0,2,.92,6,6,0,0,0,.85.06,6,6,0,0,0,3.33-1,6,6,0,0,0-1,4.18,3.56,3.56,0,0,0,.92,2,3.71,3.71,0,0,0,4.49.86,4.7,4.7,0,0,0,1-.61,1.65,1.65,0,0,1,1.07-.41h.18a1.7,1.7,0,0,1,1.08.41,4.44,4.44,0,0,0,1,.61,3.74,3.74,0,0,0,4.49-.86,3.56,3.56,0,0,0,.92-2,6,6,0,0,0-1-4.18,6.26,6.26,0,0,0,1.87.83,19.66,19.66,0,0,1,4.07,12.18.54.54,0,0,0,.54.53.54.54,0,0,0,.54-.53,20.72,20.72,0,0,0-3.68-12,5.93,5.93,0,0,0,.84-.06A3.56,3.56,0,0,0,191.82,223.1Zm-19.28-17.21a2.54,2.54,0,0,1,.62-1.44,2.85,2.85,0,0,1,2-1,2.93,2.93,0,0,1,1.24.3,4.66,4.66,0,0,1,.74.48,2.77,2.77,0,0,0,1.75.65h.18a2.78,2.78,0,0,0,1.76-.65,4.25,4.25,0,0,1,.74-.48,2.69,2.69,0,0,1,3.27.66,2.53,2.53,0,0,1,.61,1.44,4.94,4.94,0,0,1-1.41,4.19l-5.06,5.6L174,210.07A5,5,0,0,1,172.54,205.89ZM168.42,223a2.6,2.6,0,0,1-1.45-.62,2.66,2.66,0,0,1-.65-3.26,3.42,3.42,0,0,1,.47-.74,2.77,2.77,0,0,0,.66-1.76v-.18a2.73,2.73,0,0,0-.66-1.76,3.68,3.68,0,0,1-.47-.74,2.67,2.67,0,0,1,.65-3.27,2.6,2.6,0,0,1,1.45-.61,4,4,0,0,1,.69-.05,5.06,5.06,0,0,1,3.5,1.46l5.6,5.06-5.62,5.07A5,5,0,0,1,168.42,223Zm17.06,4.12a2.6,2.6,0,0,1-.61,1.45,2.67,2.67,0,0,1-3.27.65,3.68,3.68,0,0,1-.74-.47,2.73,2.73,0,0,0-1.76-.66h-.18a2.72,2.72,0,0,0-1.75.66,4,4,0,0,1-.74.47,2.67,2.67,0,0,1-3.27-.65,2.6,2.6,0,0,1-.62-1.45,5,5,0,0,1,1.42-4.19l5-5.6,5.07,5.62A4.91,4.91,0,0,1,185.48,227.08Zm-.06-5.54-5.6-5,5.61-5.07a5,5,0,0,1,4.18-1.4,2.53,2.53,0,0,1,1.44.61,2.69,2.69,0,0,1,.66,3.27,3.74,3.74,0,0,1-.48.74,2.78,2.78,0,0,0-.65,1.76v.18a2.82,2.82,0,0,0,.65,1.76,3.47,3.47,0,0,1,.48.74,2.67,2.67,0,0,1-.66,3.26,2.54,2.54,0,0,1-1.44.62A5,5,0,0,1,185.42,221.54Z" transform="translate(-7.82 -5.26)"/></g><polygon class="cls-4" points="54.27 11.54 54.45 50.25 16.28 43.84 16.96 34.16 17.45 27.63 38.08 10.09 44.61 10.66 54.27 11.54"/><polygon class="cls-6" points="35.27 27.69 54.45 50.25 24.12 37.18 35.27 27.69"/><polygon class="cls-7" points="35.27 27.69 24.12 37.18 25.21 27.15 35.27 27.69"/><polygon class="cls-8" points="46.43 18.21 35.27 27.69 36.36 17.67 46.43 18.21"/><polygon class="cls-9" points="36.36 17.67 35.27 27.69 25.21 27.15 27.77 18.86 36.36 17.67"/><polygon class="cls-8" points="46.43 18.21 54.45 50.25 35.27 27.69 46.43 18.21"/><polygon class="cls-10" points="54.27 11.54 54.45 50.25 46.43 18.21 54.27 11.54"/><polygon class="cls-7" points="44.61 10.66 46.43 18.21 36.36 17.67 36.6 11.36 44.61 10.66"/><polygon class="cls-8" points="54.27 11.54 46.43 18.21 44.61 10.66 54.27 11.54"/><polygon class="cls-11" points="44.61 10.66 36.6 11.36 38.08 10.09 44.61 10.66"/><polygon class="cls-12" points="36.6 11.36 36.36 17.67 27.77 18.86 36.6 11.36"/><polygon class="cls-13" points="16.96 34.17 24.12 37.18 25.21 27.15 18.94 26.37 16.96 34.17"/><polygon class="cls-14" points="16.96 34.17 18.94 26.37 17.45 27.63 16.96 34.17"/><polygon class="cls-15" points="18.94 26.37 25.21 27.15 27.77 18.86 18.94 26.37"/><polygon class="cls-16" points="54.27 11.54 54.46 50.25 35.28 27.69 36.36 17.67 46.43 18.21 54.27 11.54"/><polygon class="cls-4" points="9.98 26.45 12.65 27.5 15.44 26.96 14.45 29.62 15.06 32.43 12.39 31.37 9.61 31.91 10.59 29.25 9.98 26.45"/><polygon class="cls-4" points="16.54 8.72 19.92 10.06 23.44 9.37 22.2 12.73 22.97 16.29 19.59 14.95 16.07 15.64 17.32 12.27 16.54 8.72"/></g></g></svg>