<svg xmlns="http://www.w3.org/2000/svg" xmlns:xlink="http://www.w3.org/1999/xlink" viewBox="-15 0 270 57" version="1.1"><!-- Generator: Sketch 39.1 (31720) - http://www.bohemiancoding.com/sketch --><desc>Created with Sketch.</desc><defs><polygon id="path-1" points="15.8809764 0.224095921 0.286365525 0.224095921 0.286365525 15.201807 15.8809764 15.201807 15.8809764 0.224095921"></polygon><polygon id="path-3" points="52.9094595 51.0015535 52.9094595 0.313734289 0.150593539 0.313734289 0.150593539 51.0015535 52.9094595 51.0015535"></polygon><polygon id="path-5" points="2.22262241e-20 0.0969244396 2.22262241e-20 38.2574272 31.9438704 38.2574272 31.9438704 0.0969244396 0 0.0969244396"></polygon><polygon id="path-7" points="0 59.1905033 247.660157 59.1905033 247.660157 1 0 1"></polygon></defs><g id="2nd-concept" stroke="none" stroke-width="1" fill="none" fill-rule="evenodd"><g id="Betsafe---Logos" transform="translate(-367.000000, -783.000000)"><g id="Betsafe-logo" transform="translate(303.000000, 623.000000)"><g id="Page-1" transform="translate(64.012722, 160.349456)"><g id="Group-3" transform="translate(213.200763, 0.169746)"><mask id="mask-2" fill="white"><use xlink:href="#path-1"></use></mask><g id="Clip-2"></g><path d="M13.5965507,13.0115054 C10.5514698,15.9326292 5.61669211,15.9326292 2.5683312,13.0071731 C-0.474289698,10.0860493 -0.474289698,5.34301389 2.5683312,2.41795166 C5.61669211,-0.5075044 10.5514698,-0.5075044 13.5965507,2.41795166 C16.6424516,5.34301389 16.6424516,10.0860493 13.5965507,13.0115054" id="Fill-1" fill="#A20000" mask="url(#mask-2)"></path></g><g id="Group-6" transform="translate(194.750697, 5.683529)"><mask id="mask-4" fill="white"><use xlink:href="#path-3"></use></mask><g id="Clip-5"></g><polygon id="Fill-4" fill="#A20000" mask="url(#mask-4)" points="52.9095825 0.322004965 52.9095825 0.313734289 16.463732 20.1924997 23.8404784 13.2356801 0.150593539 0.313734289 15.1246672 25.6566593 0.150593539 51.0015535 26.529678 36.6145166 52.9095825 50.9991904 37.9404289 25.6566593 52.9095825 0.318066548"></polygon></g><g id="Group-9" transform="translate(0.000000, 7.652738)"><mask id="mask-6" fill="white"><use xlink:href="#path-5"></use></mask><g id="Clip-8"></g><path d="M15.4163012,30.6165046 C19.9238573,30.6165046 23.1472889,27.5693514 23.1472889,23.560043 C23.1472889,19.7086652 19.8697372,16.4555328 15.6910022,16.4555328 C11.5790975,16.4555328 8.4602163,19.5507347 8.4602163,23.6683495 C8.4602163,27.6260646 11.6328077,30.6165046 15.4163012,30.6165046 M8.5163865,34.8948068 L-0.000164000588,38.1002843 L-0.000164000588,0.0969244396 L8.85053769,0.0969244396 L8.85053769,12.6053365 C10.6885743,10.3021503 13.414264,8.97096537 17.1977576,8.97096537 C20.9812511,8.97096537 24.3768833,10.3021503 27.1595633,12.9271051 C30.2731144,15.8104201 31.9438704,19.4967783 31.9438704,23.6116363 C31.9438704,28.1069453 30.162824,31.9528094 26.7102016,34.8948068 C24.0948023,37.1381291 20.9812511,38.2574272 17.3621682,38.2574272 C13.7988454,38.2574272 11.1268658,37.3504098 8.5163865,34.8948068" id="Fill-7" fill="#000" mask="url(#mask-6)"></path></g><path d="M56.8834807,28.3795626 C55.8232169,25.4391405 53.3209779,23.838174 49.8146454,23.838174 C46.1414422,23.838174 43.5231729,25.6549658 42.9122707,28.3795626 L56.8834807,28.3795626 Z M64.3401774,37.4138971 C61.442287,43.4026538 56.4882393,46.4478377 49.8146454,46.4478377 C45.250509,46.4478377 41.5777159,44.9488762 38.5178749,41.8493422 C35.6281846,38.9128585 34.1210192,35.2757305 34.1210192,31.2128597 C34.1210192,27.2035513 35.735605,23.5164054 38.6847455,20.6858652 C41.6880063,17.7958549 45.6408304,16.1960699 49.704355,16.1960699 C59.2167991,16.1960699 65.7263924,22.7665308 65.7263924,33.4561819 L65.7263924,34.3663501 L43.1923017,34.3663501 C43.9696645,37.4138971 46.2517326,39.0191958 50.0893464,39.0191958 C51.8703927,39.0191958 53.3209779,38.5328013 54.6526627,37.4138971 L64.3401774,37.4138971 Z" id="Fill-10" fill="#000"></path><path d="M93.2922671,37.2017739 L93.2922671,37.4707678 C93.2922671,39.0709466 94.6296919,40.1973338 96.5238987,40.1973338 C98.4156454,40.1973338 99.5271594,39.2879533 99.5271594,37.6775347 C99.5271594,35.3326013 97.1294708,35.4361816 93.4021475,34.3149143 C88.232849,32.7631781 85.72487,30.0905684 85.72487,25.7614605 C85.72487,20.1519734 90.0089753,16.1962275 97.1294708,16.1962275 C103.310653,16.1962275 107.258147,19.5600293 107.597218,25.0151305 L99.6374498,25.0151305 C99.3008386,23.1412318 98.582516,22.3385824 97.0191804,22.3385824 C95.2943042,22.3385824 94.2930807,23.3042823 94.2930807,24.6933619 C94.2930807,26.668478 96.1282472,27.1493587 99.1905482,27.9531895 C105.31228,29.5533683 108.374581,31.8022044 108.374581,36.5633565 C108.374581,42.3303804 103.641524,46.5019516 96.4107382,46.5019516 C89.7293543,46.5019516 85.6145796,43.025511 85.0012174,37.2017739 L93.2922671,37.2017739 Z" id="Fill-12" fill="#000"></path><path d="M126.678523,38.2692424 C130.462016,38.2692424 133.629278,35.2788025 133.629278,31.3210874 C133.629278,27.2034725 130.462016,24.1082707 126.339451,24.1082707 C122.170966,24.1082707 118.939335,27.361403 118.939335,31.2127809 C118.939335,35.2220893 122.170966,38.2692424 126.678523,38.2692424 L126.678523,38.2692424 Z M133.575567,42.5475447 C130.962628,45.0031476 128.290648,45.910165 124.733066,45.910165 C121.110703,45.910165 117.997562,44.790867 115.379292,42.5475447 C111.932,39.6055473 110.150953,35.7596832 110.150953,31.2643742 C110.150953,27.1495162 111.816379,23.463158 114.935261,20.579843 C117.717941,17.9548881 121.110703,16.6237032 124.897066,16.6237032 C128.516559,16.6237032 131.298829,17.7957761 133.300866,20.2580743 L133.300866,17.0462954 L142.092118,17.0462954 L142.092118,45.7530222 L133.575567,42.5475447 Z" id="Fill-14" fill="#000"></path><path d="M146.521569,15.9798902 C146.521569,9.83202145 149.973781,7.0530745 157.320597,7.0530745 C157.761349,7.0530745 160.96674,7.22478947 161.461612,7.22478947 L161.461612,13.002447 C161.407492,13.002447 158.541992,12.8791746 158.488282,12.8791746 C155.815892,12.8791746 155.19966,13.7353864 155.19966,16.3548275 L155.19966,17.0464135 L159.551005,17.0464135 L159.551005,23.4632761 L155.19966,23.4632761 L155.19966,45.7527465 L146.521569,45.7527465 L146.521569,15.9798902 Z" id="Fill-16" fill="#000"></path><path d="M68.4360921,7.76797593 L77.065803,7.76797593 L77.065803,17.0110465 L81.4200186,17.0110465 L81.4200186,23.4243646 L77.065803,23.4243646 L77.065803,37.1655011 C77.065803,39.7845483 77.6816252,40.6419417 80.3540147,40.6419417 C80.410595,40.6419417 83.2736352,40.5230015 83.3302154,40.5230015 L83.3302154,46.295933 C82.8324736,46.295933 79.6303622,46.4688295 79.1887906,46.4688295 C71.8427943,46.4688295 68.3901719,43.6871256 68.3901719,37.5408322 C68.3901719,37.2202451 68.4360921,7.76797593 68.4360921,7.76797593" id="Fill-18" fill="#000"></path><path d="M183.475944,28.3795626 C182.41609,25.4391405 179.919181,23.838174 176.412439,23.838174 C172.739236,23.838174 170.120966,25.6549658 169.504734,28.3795626 L183.475944,28.3795626 Z M190.932641,37.4138971 C188.04049,43.4026538 183.086033,46.4478377 176.412439,46.4478377 C171.848302,46.4478377 168.175509,44.9488762 165.116078,41.8493422 C162.220648,38.9128585 160.718813,35.2757305 160.718813,31.2128597 C160.718813,27.2035513 162.330938,23.5164054 165.282949,20.6858652 C168.2858,17.7958549 172.233294,16.1960699 176.302148,16.1960699 C185.814592,16.1960699 192.324186,22.7665308 192.324186,33.4561819 L192.324186,34.3663501 L169.787225,34.3663501 C170.567458,37.4138971 172.849936,39.0191958 176.68714,39.0191958 C178.468596,39.0191958 179.919181,38.5328013 181.250866,37.4138971 L190.932641,37.4138971 Z" id="Fill-20" fill="#000"></path><mask id="mask-8" fill="white"><use xlink:href="#path-7"></use></mask><g id="Clip-23"></g></g></g></g></g></svg>