<svg xmlns="http://www.w3.org/2000/svg" xmlns:xlink="http://www.w3.org/1999/xlink" version="1.1" id="Layer_1" x="0px" y="0px" viewBox="0 0 221 52" style="enable-background:new 0 0 221 52;" xml:space="preserve"><style type="text/css">	.st0{opacity:0.7;}	.st1{fill-rule:evenodd;clip-rule:evenodd;fill:#E73C41;}	.st2{opacity:0.5;fill-rule:evenodd;clip-rule:evenodd;fill:#E73C41;}	.st3{opacity:0.6;fill-rule:evenodd;clip-rule:evenodd;fill:#E73C41;}	.st4{fill:#E73C41;}</style><g><g><g class="st0"><path class="st1" d="M1.8,26.7c0.2,0.1,0.4,0.2,0.6,0.1c0,0,0,0,0.1,0c0.2,0,0.2-0.2,0.4-0.2c0.1,0,0.2-0.1,0.2-0.2     c0-0.1-0.2-0.2-0.3-0.2c-0.1,0-0.4-0.1-0.4-0.2c0-0.1,0-0.3-0.1-0.4c-0.1-0.1-0.2-0.2-0.2-0.3c0-0.1,0-0.1,0-0.2     c0-0.1-0.2-0.2-0.2-0.2c-0.1,0-0.2,0.1-0.3,0.2c-0.2,0.3,0.1,0.7-0.3,1C1.1,26.1,1,26.1,1,26.2c-0.2,0.2,0,0.4,0.2,0.5     c0.2,0.1,0.3,0,0.5,0C1.7,26.6,1.7,26.6,1.8,26.7z"></path><path class="st1" d="M2.2,30.1c0-0.1,0-0.2,0-0.4c0-0.1,0-0.3-0.1-0.4c-0.2-0.2-0.2-0.1-0.4,0c0,0,0,0-0.1,0     c-0.1,0.1-0.3,0.3-0.1,0.4c0.1,0.1,0.2,0.1,0.2,0.1c0.1,0.1,0,0.2,0,0.3c-0.1,0.1-0.1,0.4-0.1,0.5c0,0.1,0.2,0.1,0.2,0.2     c0,0.1,0.1,0.2,0.2,0.2c0.2,0,0.2-0.2,0.2-0.3c0-0.1,0-0.2,0-0.2c0-0.1,0-0.1,0.1-0.1c0-0.1,0-0.1,0-0.2     C2.2,30.2,2.2,30.2,2.2,30.1z"></path><path class="st1" d="M51.7,23.4c-0.2-0.2-0.5-0.3-0.5-0.6c0-0.2,0-0.4,0-0.5c0-0.1-0.2-0.2-0.2-0.3c0,0,0-0.1-0.1-0.1     c-0.1-0.1-0.1-0.2-0.2-0.3c-0.2-0.1-0.3-0.2-0.4-0.3c-0.1-0.2-0.3-0.2-0.4-0.4c-0.1-0.2-0.2-0.3-0.2-0.5c0-0.1,0-0.1,0-0.2     c0-0.2-0.1-0.3-0.1-0.5c0.1-0.3,0.4-0.3,0.2-0.6c-0.1-0.1-0.2-0.3-0.3-0.3c-0.1-0.1-0.2,0-0.3-0.1c-0.2-0.2-0.2-0.5-0.1-0.7     c0.1-0.2,0.2-0.4,0.1-0.7c0-0.2,0-0.3-0.1-0.5c0-0.1-0.1-0.2-0.2-0.3C49,16.2,49,16,49,15.8c0-0.3-0.1-0.6-0.3-0.9     c-0.1-0.2-0.2-0.3-0.2-0.5c0-0.2,0.1-0.2,0.2-0.3c0.1-0.1,0.1-0.3,0-0.5c-0.1-0.3-0.3-0.5-0.6-0.5c-0.3,0-0.7-0.1-0.7-0.5     c0-0.2,0-0.4-0.2-0.6c-0.1-0.1-0.2-0.2-0.3-0.4c0-0.1,0.1-0.2,0.1-0.3c0-0.1-0.3-0.2-0.4-0.2c-0.2,0-0.4-0.1-0.5-0.3     c-0.3-0.4-0.5-0.9-1-1.1c-0.4-0.1-1-0.2-1.1-0.7C43.8,8.9,44,8.7,44,8.5c0-0.3-0.1-0.5-0.4-0.6c-0.2-0.1-0.4-0.2-0.6-0.3     c-0.3,0-0.5,0-0.8-0.2c-0.2-0.2-0.4-0.3-0.6-0.5c-0.1-0.1-0.2-0.1-0.2-0.2c-0.1-0.2,0-0.4-0.2-0.6C41.2,6,41,5.8,40.8,5.6     c-0.1-0.1-0.3-0.2-0.4-0.4c-0.1-0.1-0.1-0.3-0.2-0.3c-0.3-0.1-0.2,0.2-0.4,0.3c-0.2,0.1-0.4-0.1-0.5-0.2C39,4.9,38.8,5,38.6,4.9     c-0.2-0.1-0.6-0.2-0.6-0.5c0-0.2,0-0.3-0.1-0.5c-0.3-0.4-0.8-0.1-1-0.6c-0.1-0.2-0.1-0.4-0.2-0.5c-0.2-0.2-0.6-0.4-0.9-0.3     c-0.2,0.1-0.1,0.2-0.1,0.4c0,0.2-0.1,0.6-0.4,0.5c-0.2-0.1-0.2-0.5-0.3-0.6c-0.3-0.2-0.6,0-0.9-0.1c-0.1,0-0.2-0.1-0.2-0.1     c0,0,0-0.1,0-0.2c-0.1-0.1-0.2-0.1-0.4-0.1c-0.1-0.1-0.2-0.2-0.3-0.3c-0.1-0.1-0.2-0.1-0.3-0.2c-0.3-0.3-0.4-0.5-0.8-0.5     c-0.2,0-0.3,0.2-0.4,0.3c-0.2,0.2-0.5,0.3-0.7,0.3c-0.2,0-0.3-0.2-0.5-0.3c-0.1-0.1-0.1-0.2-0.2-0.3C30.1,1,29.9,0.9,29.6,1     c-0.1,0.1-0.2,0.2-0.3,0.2c-0.2,0-0.4-0.1-0.6,0.1c0,0,0,0.1-0.1,0.1c-0.1,0.1-0.3,0.1-0.4,0.1c-0.1,0-0.3-0.2-0.4-0.2     c-0.1,0-0.1,0.1-0.2,0.1c-0.2,0.1-0.3,0-0.5,0.1c-0.3,0.1-0.6,0.2-0.9,0.3c-0.1,0-0.2,0-0.2-0.1c-0.1-0.1-0.1-0.2-0.2-0.3     c-0.2-0.2-0.6,0.1-0.8,0.1c-0.3,0-0.6,0.1-0.8,0c-0.1-0.1-0.2-0.2-0.3-0.2c-0.2,0-0.3,0.1-0.4,0.2c-0.2,0.1-0.4,0-0.6,0.2     c-0.2,0.1-0.3,0.1-0.4,0.3c-0.1,0.1-0.2,0.3-0.3,0.4c-0.1,0.1-0.2,0-0.3,0c-0.3,0-0.3,0.4-0.6,0.5c-0.3,0.1-0.8-0.2-1.1-0.3     c-0.1,0-0.3,0-0.4,0.1c-0.1,0.1-0.1,0.2-0.3,0.2c-0.1,0-0.3-0.1-0.4,0c-0.1,0-0.2,0-0.2,0.1c0,0,0,0.1-0.1,0.1     c-0.1,0.1-0.2,0.1-0.3,0.2c-0.3,0.1-0.6,0.2-0.9,0.3c-0.1,0.1-0.2,0.1-0.3,0.2c-0.1,0.1-0.2,0.1-0.3,0.2c-0.1,0-0.2,0-0.4,0     c-0.3,0-0.2,0.4-0.5,0.5c-0.2,0.1-0.3-0.2-0.6,0c-0.1,0.1-0.2,0.3-0.2,0.4c0,0.2,0.1,0.2,0.2,0.4c0.2,0.3-0.2,0.3-0.2,0.6     c0,0.1,0,0.2,0,0.2c-0.1,0.1-0.2,0.1-0.3,0.1c-0.3,0.1-0.7,0.3-0.9,0.5c-0.2,0.1-0.4,0.2-0.6,0.1c0,0-0.1-0.1-0.2-0.1     c-0.1,0-0.2,0-0.3,0c-0.2,0.1-0.1,0.2-0.1,0.4c0,0.2,0,0.2-0.1,0.2c-0.1,0.1-0.1,0.1-0.2,0.2c0,0.1-0.1,0.3-0.2,0.3     c-0.2,0-0.2-0.4-0.4-0.5c0,0,0,0,0,0c-0.3-0.1-0.3,0.8-0.6,0.8c-0.6,0.1-1.1-1-1.9-0.4C8,8.7,9.7,9,9.6,9.8     c0,1.1-1.6,0.4-1.7,1.1c-0.1,0.4,1.8,1.1,0.4,1.5c0.2,0.6-1,1-1.3,1.6c0,0,0,0.1,0,0.1c-0.1,0.2-0.3,0.2-0.5,0.2     c-0.2,0-0.4-0.1-0.4,0.2c-0.1,0.2-0.1,0.3-0.3,0.4c0,0-0.1,0-0.1,0c0,0-0.1,0.1-0.1,0.1c-0.1,0-0.1,0-0.2,0C5.3,15,5,14.8,5,15.1     c0,0.3,0.6,0.2,0.6,0.5c0,0.2-0.4,0.1-0.4,0.4c0,0.1,0,0.2,0.1,0.3c0.1,0.3,0.4,0.6,0.4,0.9c0,0.2-0.2,0.5-0.4,0.6     c-0.2,0-0.4-0.1-0.5,0.1c-0.1,0.2,0,0.4-0.3,0.5c-0.1,0-0.2,0-0.3,0.1c-0.2,0.2,0.1,0.3,0.2,0.4c0.1,0,0.7,0.2,0.4,0.4     c-0.1,0.1-0.2,0-0.2,0.2c0,0.1,0.1,0.2,0.1,0.3c0,0.1-0.1,0.1,0,0.2c0,0.1,0.1,0.1,0.1,0.2c0,0.2-0.3,0.2-0.3,0.4     c-0.1,0.2,0.4,0.9-0.1,0.9c-0.1,0-0.2-0.1-0.2,0.1c0,0.3,0.4,0.2,0.6,0.4c0.2,0.2,0.2,0.5,0.1,0.7c-0.1,0.1-0.2,0.2-0.2,0.3     c-0.1,0.1,0,0.2-0.2,0.3c-0.2,0.1-0.4-0.1-0.5-0.2c-0.1-0.1-0.1-0.3-0.2-0.4c-0.1,0-0.8,0.1-0.8,0.2c0,0.1-0.1,0.1-0.1,0.2     c0,0.1,0.1,0.1,0.1,0.2c0.1,0.2,0.1,0.3-0.1,0.4c-0.3,0.1-0.4,0-0.6,0.2c-0.2,0.2-0.2,0.5,0,0.7c0.1,0.1,0.2,0.1,0.2,0.3     c0.1,0.2,0.2,0.5,0.4,0.6c0.2,0.1,0.5,0.1,0.6,0.4c0,0.1-0.1,0.2-0.1,0.3c0,0.2,0.3,0.1,0.3,0.3c0,0.1-0.1,0.1-0.1,0.2     c0,0.1,0.1,0.2,0.1,0.3c0,0.1,0,0.2-0.1,0.3c-0.1,0-0.2-0.1-0.3-0.1c-0.1,0-0.2,0-0.2,0.1c0,0-0.1,0.1-0.1,0.1c0,0-0.1,0-0.1,0     c-0.2,0.1-0.2,0.3-0.2,0.5c0,0.2-0.2,0.3-0.3,0.5c-0.1,0.2,0.1,0.3,0.3,0.2c0.1-0.1,0.3-0.2,0.4,0c0.1,0.2-0.1,0.3-0.2,0.4     c-0.1,0.1-0.2,0.1-0.2,0.2c0,0.1,0.1,0.1,0.1,0.2c0,0.1-0.1,0.2,0,0.3c0.1,0.1,0.4,0.1,0.4,0.2C3,29.9,2.6,29.9,2.5,30     c-0.1,0.1,0,0.2,0,0.3c0,0.1-0.1,0.1,0,0.2c0,0.1,0.1,0.1,0.2,0.1C2.9,30.8,3,30.9,3.2,31c0.2,0.1,0.4,0.2,0.6,0.2     C3.9,31.1,4,31,4.1,31c0.1,0,0.3,0,0.3,0.1c0.1,0.1,0,0.2,0,0.3c-0.1,0-0.1,0.1-0.2,0.1C4,31.7,4,31.7,4,31.8     c0.1,0.2,0.2,0.3,0.3,0.4c0.1,0.1,0.1,0.2,0.3,0.1c0.1,0,0.1-0.1,0.2-0.1c0.1,0,0.1,0.1,0.2,0.2c0,0.1,0.2,0.2,0.2,0.3     c0,0.1-0.1,0.3-0.1,0.4c-0.1,0.1-0.1,0.1-0.2,0.2c-0.1,0-0.1,0.1-0.2,0.1c0,0-0.1,0-0.1,0c0,0-0.1,0-0.1,0c0,0-0.1-0.1-0.1-0.1     c-0.1,0-0.1,0.1-0.1,0.1c-0.1,0-0.3,0-0.3,0.2c0,0.2,0.3,0.3,0.1,0.5c-0.1,0.1-0.3,0.1-0.4,0.3c0,0-0.1,0.2,0,0.3     c0,0.1,0.1,0.1,0.2,0.2c0.1,0.2,0,0.4,0.2,0.5c0.1,0.1,0.2,0,0.3,0c0.1,0,0.1,0.2,0.2,0.2c0,0,0.1,0,0.2,0c0.1,0,0.1,0.1,0.2,0.1     c0.1,0,0.2,0.1,0.3,0.2c0.1,0.1,0,0.2,0.1,0.3c0.1,0.1,0.1,0,0.2,0.1c0.1,0,0.1,0.1,0.1,0.2c0.3,0.4,1-0.6,1.1,0.2     c0,0.2-0.2,0.5-0.1,0.7c0,0.1,0.1,0.1,0.2,0.2c0.1,0.1,0.2,0.3,0.2,0.5c0,0.2-0.1,0.3,0,0.5c0.1,0.2,0.2,0.1,0.3,0     c0.1,0,0.2-0.1,0.3-0.1c0.1-0.1,0.3-0.2,0.4-0.1c0.3,0.1,0.2,0.5,0.1,0.7c-0.1,0.2-0.1,0.3,0,0.6c0.1,0.2,0,0.3,0.1,0.5     c0.1,0.1,0.2,0.2,0.2,0.4c0,0.1,0,0.1,0.1,0.2c0.1,0.1,0.1,0.3,0.3,0.4c0.1,0.1,0.3,0.1,0.5,0.2c0.2-0.1,0.4-0.4,0.6-0.2     c0.2,0.2,0,0.4,0.1,0.6c0.1,0.1,0.1,0,0.2,0c0.1,0,0.2,0,0.3,0.1c0.3,0.3,0,0.5,0,0.8c0,0.3,0.2,0.5,0.5,0.6     c0.3,0.1,0.3-0.2,0.6-0.3c0.2-0.1,0.4-0.1,0.7-0.1c0.1,0,0.2,0,0.3-0.1c0.2,0,0.3,0.1,0.3,0.2c0,0.2,0,0.2-0.1,0.3     c-0.1,0.2-0.1,0.3,0.1,0.4c0.1,0.1,0.2,0.1,0.3,0.2c0.1,0.1,0,0.2,0,0.3c0,0.1,0.1,0.2,0.1,0.3c0,0.1-0.1,0.2-0.1,0.3     c0,0.1,0.1,0.2,0.2,0.2c0.2,0,0.3-0.2,0.3-0.4c0.2-0.3,0.4,0,0.4,0.2c0,0.1,0,0.2,0,0.4c0,0.1,0.1,0.3,0.1,0.4     c0,0.2-0.3,0.5-0.1,0.7c0.1,0.1,0.3,0,0.5,0.1c0.1,0,0.3,0,0.4,0.1c0.1,0,0.2,0.2,0.3,0.2c0.1,0,0.3-0.1,0.4-0.1     c0.4-0.1,0.7-0.5,1,0c0.1,0.1,0.2,0.2,0.3,0.3c0.1,0.1,0.2,0.3,0.3,0.4c0.1,0.1,0.3,0.1,0.4,0.2c0.2,0.1,0.2,0.2,0.4,0.2     c0.2,0,0.3,0.1,0.3,0.2c0.1,0.4,0.5,0.2,0.6-0.1c0-0.1,0-0.2,0.1-0.2c0.1-0.1,0.3,0,0.3,0.1c0.1,0.1,0.1,0.2,0.2,0.2     c0,0,0.1,0,0.1,0c0.2,0.1,0.3,0.2,0.5,0.3c0.1,0,0.4,0.1,0.3,0.3c0,0.1-0.2,0-0.3,0.1c-0.1,0.1-0.1,0.2,0,0.3     c0.1,0.1,0.4,0,0.5,0c0.2,0,0.3,0.1,0.5,0.1c0.3,0,0.5,0,0.6-0.3c0-0.1,0.1-0.3,0.2-0.3c0.1,0,0.2,0.2,0.2,0.3     c0,0.1-0.1,0.3,0.1,0.3c0.1,0,0.3-0.1,0.5,0c0.2,0.1,0,0.4,0.2,0.5c0.1,0,0.2,0,0.3,0c0.3,0.1,0.5,0.3,0.2,0.6     c-0.1,0.1-0.3,0.1-0.5,0.1c-0.3,0-0.4,0.2-0.4,0.5c0,0.4,0.6,0.6,0.9,0.4c0.2-0.2,0.3-0.3,0.3-0.6c0-0.2,0-0.5,0.2-0.6     c0.1-0.1,0.3,0.1,0.4,0c0.1-0.1,0.1-0.2,0.2-0.3c0.3-0.2,0.6-0.6,0.9-0.4c0.2,0.1,0.3,0.3,0.5,0.4c0.1,0.1,0.3,0.1,0.4,0     c0.2,0,0.3-0.2,0.5-0.1c0.2,0.1,0.2,0.3,0.4,0.4c0.2,0,0.3-0.1,0.4-0.2c0.1-0.1,0.6-0.9,0.9-0.7c0.1,0.1,0,0.3,0,0.4     c0.1,0.2,0.3,0.2,0.1,0.4c-0.1,0.2-0.3,0.2-0.5,0.3c-0.3,0.2-0.2,0.5,0.1,0.7c0.2,0.1,0.3,0.2,0.5,0.1c0.2,0,0.5-0.1,0.5-0.3     c0.1-0.2,0-0.4,0-0.6c0.1-0.3,0.6-0.7,0.9-0.5c0.3,0.2,0.1,0.5,0,0.7c-0.2,0.2-0.2,0.6,0.2,0.6c0.4,0.1,0.8-0.2,0.7-0.6     c0-0.2-0.1-0.3-0.1-0.5c0-0.2,0.1-0.4,0.2-0.5c0.1-0.1,0.2-0.3,0.3-0.4c0.1-0.2,0.3-0.2,0.5-0.1c0.3,0.1,0.5,0.4,0.8,0.3     c0.1,0,0.3,0,0.4-0.2c0.1-0.1,0-0.3,0.1-0.4c0.1-0.2,0.3-0.1,0.5-0.2c0.4-0.1,0.5-0.7,0.9-0.8c0.5,0,0,0.6,0.5,0.7     c0.3,0,0.4-0.1,0.4-0.3c0-0.4,0.5-0.4,0.7-0.3c0.1,0.1,0.2,0.1,0.4,0.1c0.1,0,0.2,0.1,0.4,0.1c0.2,0,0.4-0.1,0.5-0.3     c0.1-0.1,0.2-0.3,0.3-0.4c0-0.1-0.1-0.3,0-0.4c0.2-0.3,0.6-0.1,0.8-0.4c0.1-0.3,0.4-0.4,0.7-0.6c0.1-0.1,0.2-0.2,0.2-0.3     c0-0.2-0.1-0.3,0-0.5c0-0.2,0.2-0.4,0.4-0.5c0.2-0.1,0.3,0,0.5,0c0.1,0,0.3,0,0.4-0.1c0.1-0.1,0.1-0.2,0.3-0.3     c0.1-0.1,0.3-0.1,0.4-0.2c0.1-0.1,0.1-0.1,0.3-0.2c0.1-0.1,0.1-0.1,0.1-0.2c0-0.2,0-0.7,0.3-0.8c0.3-0.1,0.4,0.3,0.5,0.5     c0.2,0.4,0.6,0.3,0.8,0c0.2-0.3,0-0.6-0.1-1c0-0.1-0.1-0.3-0.1-0.4c0-0.1,0.1-0.1,0.1-0.2c0.1-0.1,0.1,0,0.2,0     c0.1,0,0.2,0,0.3-0.1c0.1-0.1,0.1-0.1,0.3-0.2c0.2-0.1,0.4-0.2,0.5-0.4c0.1-0.1,0-0.2,0.2-0.3c0.3-0.2,0.6-0.4,0.8-0.7     c0.1-0.2,0-0.4,0.1-0.5c0.3-0.5,1,0.3,1.4-0.2c0.2-0.3,0.2-0.6,0.1-0.8c-0.1-0.3-0.1-0.4,0.1-0.7c0.2-0.2,0-0.2,0-0.5     c0-0.2,0.2-0.4,0.3-0.5c0.1-0.1,0.2-0.1,0.2-0.2c0.1-0.1,0.1-0.3,0.2-0.4c0.2-0.1,0.2-0.3,0.2-0.5c0.2-0.1,0.3,0,0.3-0.2     c0-0.1,0-0.2,0-0.3c-0.1-0.2-0.1-0.3,0.1-0.5c0.1-0.1,0.4-0.2,0.4-0.4c0-0.2-0.1-0.3,0-0.5c0.2-0.6,0.8,0.1,1.1-0.5     c0.2-0.3-0.1-0.7-0.4-0.7c-0.2,0-0.3,0.1-0.5,0c-0.2-0.1-0.2-0.3-0.1-0.5c0-0.1,0.1-0.1,0.1-0.1c0.1-0.1,0-0.2,0.1-0.2     c0.2-0.1,0.3-0.2,0.2-0.5c-0.1-0.1-0.1-0.2-0.1-0.3c0-0.1,0-0.2,0-0.3c0-0.1,0-0.2,0-0.2c0.1-0.4,0.3-0.6,0.3-0.9     c0.3-0.2,0.3-0.5,0.3-0.8c0-0.2,0.1-0.5,0-0.7c0-0.2-0.2-0.4-0.1-0.6c0-0.2,0.1-0.3,0.3-0.4c0.2-0.2,0.1-0.4,0.1-0.7     c0-0.1,0-0.2,0-0.3c0-0.1-0.1-0.1-0.1-0.2c0-0.1,0.1-0.1,0.1-0.2c0-0.1-0.2-0.7,0.1-0.7c0.1-0.1-0.1-0.5,0.1-0.5     c0.1-0.2-0.2-0.4,0-0.5c0.1-0.1,0.2,0.1,0.3,0.2c0.1,0.2,0.1,0.3,0.1,0.5c0,0.1,0.1,0.2,0.2,0.3c0.2,0,0.3-0.2,0.4-0.3     C52,24.1,52,23.7,51.7,23.4z M7.5,25.7c-0.2,0.3-0.7,0.4-1,0c-0.2-0.3,0-0.5,0.1-0.8c0-0.2,0-0.2,0.1-0.3     c0.1-0.1,0.2-0.1,0.3-0.3c0-0.2-0.1-0.3-0.1-0.5c-0.5,0.1-0.6-0.1-0.4-0.6C6.5,23,6.5,23.1,6.7,23c0,0,0,0,0.1,0     c0.3-0.1,0.6-0.5,0.8-0.8c0.2-0.3,0.3-0.5,0.6-0.2c0,0,0,0.1,0.1,0.2c0,0,0.1,0,0.2,0c0,0,0.2,0.2,0.2,0.2     C8.8,22.4,9,22.1,9.2,22c0.5-0.2,1,0.2,0.8,0.7C10,23,9.9,23.1,9.6,23.2c-0.8,0.2-1.5,0-1.8,0.9c-0.1,0.3-0.1,0.6,0,0.9     C7.8,25.3,7.7,25.4,7.5,25.7z M12.1,27.9c0,0.4,0.3,0.5,0.2,0.8c0,0.1-0.2,0.4-0.3,0.4c-0.1,0.1-0.5,0.1-0.7,0     c0,0.4-0.1,0.6-0.4,0.9c-0.4,0.3-0.5,0.9-0.6,1.4c-0.2,0.7-0.3,1.4-0.2,2c0.1,0.3,0.3,0.7,0.4,1c0.2,0.6,0.4,1.1,0.4,1.7     c0,0.2-0.1,0.6-0.3,0.5c-0.1-0.3-0.4-0.4-0.6-0.6c-0.2-0.2-0.3-0.6-0.3-0.9c-0.1-0.8-0.1-1.6,0-2.3c0-0.2,0.1-0.4,0.1-0.6     c0.1-0.2,0.2-0.5,0-0.7c-0.2-0.3-0.8-0.1-1-0.5c-0.1-0.1-0.1-0.2-0.2-0.3c-0.1-0.1-0.3,0-0.4,0c-0.4,0-0.6-0.5-0.6-0.9     c0.1-0.9,0.8-1,1.1-1.7c0.2-0.6-0.2-1.1,0.5-1.5c0.4-0.2,0.9-0.1,1.1,0.3c0.5-0.3,1.5-0.9,1.9-0.2c0.3,0.4-0.1,0.5-0.2,0.8     C12.2,27.6,12.5,28,12.1,27.9z M48,30.6c-0.6,1.4-1.4,2.6-2.5,3.6c-1,1-2.3,1.9-3.6,2.5c-1.4,0.6-2.9,0.9-4.5,0.9     c-1.6,0-3.1-0.3-4.5-0.9c-0.8-0.3-1.5-0.7-2.2-1.2c-0.1,0.5-0.3,1-0.7,1.4c-0.5,0.5-1,0.7-1.7,0.7h-2.4c-0.7,0-1.2-0.2-1.7-0.7     c-0.5-0.5-0.7-1.1-0.7-1.7c0-0.7,0.2-1.2,0.7-1.7c0.5-0.5,1.1-0.7,1.7-0.7h0V12.9h0c-0.6,0-1.2-0.2-1.7-0.7     c-0.5-0.5-0.7-1-0.7-1.7c0-0.6,0.2-1.2,0.7-1.7c0.5-0.5,1-0.7,1.7-0.7h2.4c0.7,0,1.2,0.2,1.7,0.7c0.5,0.5,0.7,1,0.7,1.7v6.4     c0.5-0.4,1.1-0.7,1.7-1c1.7-0.8,3.3-1.3,4.9-1.3c1.6,0,3.1,0.3,4.5,0.9c1.4,0.6,2.6,1.4,3.6,2.5c1,1,1.9,2.3,2.5,3.6     c0.6,1.4,0.9,2.9,0.9,4.5C48.9,27.7,48.6,29.2,48,30.6z"></path><path class="st1" d="M42.1,21.4c-0.6-0.6-1.3-1.1-2.1-1.4c-0.8-0.3-1.7-0.5-2.6-0.5c-0.9,0-1.8,0.2-2.6,0.5     c-0.8,0.3-1.5,0.8-2.1,1.4c-0.6,0.6-1.1,1.3-1.4,2.1c-0.3,0.8-0.5,1.7-0.5,2.6c0,0.9,0.2,1.8,0.5,2.6c0.3,0.8,0.8,1.5,1.4,2.1     c0.6,0.6,1.3,1.1,2.1,1.4c0.8,0.3,1.7,0.5,2.6,0.5c0.9,0,1.8-0.2,2.6-0.5c0.8-0.3,1.5-0.8,2.1-1.4c0.6-0.6,1.1-1.3,1.4-2.1     c0.3-0.8,0.5-1.7,0.5-2.6c0-0.9-0.2-1.8-0.5-2.6C43.2,22.7,42.7,22,42.1,21.4z"></path></g><g><path class="st2" d="M45.5,34.2c-1,1-2.3,1.9-3.6,2.5c-1.4,0.6-2.9,0.9-4.5,0.9c-1.6,0-3.1-0.3-4.5-0.9c-0.8-0.3-1.5-0.7-2.2-1.2     c-0.1,0.5-0.3,1-0.7,1.4c-0.5,0.5-1,0.7-1.7,0.7h-2.4c-0.7,0-1.2-0.2-1.7-0.7c-0.5-0.5-0.7-1.1-0.7-1.7c0-0.7,0.2-1.2,0.7-1.7     c0.5-0.5,1.1-0.7,1.7-0.7h0V12.9h0c-0.6,0-1.2-0.2-1.7-0.7c-0.5-0.5-0.7-1-0.7-1.7c0-0.6,0.2-1.2,0.7-1.7c0.5-0.5,1-0.7,1.7-0.7     h2.4c0.7,0,1.2,0.2,1.7,0.7c0.5,0.5,0.7,1,0.7,1.7v6.4c0.5-0.4,1.1-0.7,1.7-1c1.7-0.8,3.3-1.3,4.9-1.3c1.6,0,3.1,0.3,4.5,0.9     c1.4,0.6,2.6,1.4,3.6,2.5c1,1,1.9,2.3,2.5,3.6c0.6,1.4,0.9,2.9,0.9,4.5c0,1.1-0.1,2.1-0.4,3.1c0.1,0,0.2,0,0.2-0.1     c0.7-0.3,1-0.7,1.6-1.1c-0.3-0.5-0.1-0.8-0.2-1.3c-0.2-0.7-0.6-0.8-0.9-1.2c-0.6-0.8,0.3-1.2,0.5-1.9c0.3-0.9-0.2-1.2-0.8-1.9     c-0.1-0.1-0.1-0.2-0.2-0.3c-1-1.7-0.7-5.4-2.7-6.4c1.7-1.4-1.1-2.3-1.4-1.8c1.5-2.7-1.4-2.5-3.6-2.1c-0.9-1.1-0.1-2.5-0.6-3.7     c-0.5-1.2-2.1-1.9-3.2-2.3c-0.2-0.1-3.4-1.7-3.6-1.1c-0.1,0.5-0.7,0.4-1,0.7c0.1,0.3,0.2,0.7,0.1,1c-0.3-0.1-0.4-0.1-0.8-0.1     c-0.1-0.5-0.2-1.1-0.5-1.6c-0.6,0.1-1.1-0.1-1.7,0c-0.6-0.5-0.4-0.6-0.4-1.3c0-0.4,0.4-0.4,0.1-0.8c-0.6-0.9-3.5,1.1-4.4,0.9     c-1.1-0.2-0.7-0.6-1.8,0c-0.6,0.3-1.2,0.7-1.8,0.9c-0.1,0-0.1,0-0.2,0.1c-0.3,0.1-0.5,0.1-0.8,0L20,4l-0.4,0.1l-0.4,0l-0.3,0.1     c-0.9,0.4-1.8,0.7-2.5,1.5c-0.3,0.4-0.5,0.9-0.9,1.3c-0.5,0.5-1.2,0.7-1.6,1.3c-0.8,1-0.9,1.1-2.2,0.8c-0.3-0.1-1-0.4-1.3,0     c-0.3,0.5,0.4,0.7,0.4,1c0,0.9-0.7,0.6-1.1,1.1c-0.6,0.6-0.1,1.1-0.4,1.9c-0.2,0.4-0.3,0.5-0.6,0.7c-0.5,0.4-0.4,0.3-0.9,0.4     c-0.4,0.1-1.3,0.8-1.4,1.3c-0.2,0.7,0.7,1.1,0.7,1.7C7,17.8,6,17.6,5.6,18c-0.6,0.5,0.3,0.9,0,1.4c-0.1,0.3-0.5,0.3-0.6,0.7     c-0.1,0.4,0.2,0.4,0.3,0.7C5.5,21.3,5,22.3,5,22.9c0.6,0,1.2-0.6,1.2-1.2c0-0.2,0-0.3,0.1-0.5c0.2-0.5,1-0.5,1.4-0.8     c0.2-0.2,0.4-0.4,0.7-0.5c0.3,0,0.5,0.2,0.7,0.4s0.3,0.5,0.5,0.6c0.2,0.2,0.5,0.2,0.7,0c0,0.2,0,0.5,0.2,0.7     c0.3,0.3,2.8-0.3,1.6,1.2c-0.4,0.5-1.4,0.5-1.4,1.4c0,0.7,0.7,0.6,1,1.2c0.2-0.1,0.4,0,0.5-0.1c0.3-0.1,1,1.7,1,1.8     c0.1,0.4-0.1,0.5-0.2,0.8c-0.2,0.4-0.1,0.3,0,0.7c0.1,0.6-0.2,1-0.8,1.2c-1.7,0.8-0.8,1.6-1,3c-0.1,0.3-0.2,0.7,0,0.9     c0.1,0.1,0.2,0.1,0.3,0.2c0.4,0.2,0.4,0.7,0.4,1.1c0,0.3,0,0.7,0,1c0,0.3,0,0.6-0.2,0.8c-0.3,0.2-0.7,0.2-1,0.1     c-0.4,0-0.8,0.1-1.2-0.1c-0.7-0.3-0.8-1-0.9-1.7c-0.2-0.6-0.8-1.2-0.8-1.9c0-0.5,0.8-1.3,0.4-1.8c-0.5-0.7-0.8,0.5-1.2,0.4     c-0.2,0-0.4-0.5-0.5-0.6c-0.2-0.3-0.2-0.4-0.1-0.7C6.4,30.1,6,30,5.5,29.6c-0.4-0.3-0.3-0.4-0.3-0.8c0-0.2-0.2-0.4-0.2-0.7     c-0.1-0.7,0.5-1.2,1.2-1c0.3,0.1,0.5,0.3,0.8,0.4c0.1,0,0.2,0.1,0.3,0.1c0.2,0.1,0.3,0.3,0.6,0.3c0.3,0,0.6-0.2,0.8-0.4     c0.3-0.3,0.1-0.4,0.2-0.7c0.1-0.3,0.3-0.3,0.3-0.7c0-0.3-0.1-0.5-0.1-0.8c0-0.5,0.3-0.4,0.5-0.8C9.6,24.5,9.6,24,9.2,24     c0.1,0.4-0.2,0.4-0.4,0.5c-0.3,0.1-0.4,0.4-0.5,0.7c-0.1,0.2-0.1,0.5-0.1,0.7c0,0.1,0,0.6-0.1,0.7c-0.3,0.3-1,0-1.3,0     c-0.3,0-0.5,0.2-0.8,0c-0.1-0.1-0.3-0.4-0.4-0.5c-0.2,0.1-0.2,0.3-0.4,0.4c-0.2-0.2-0.1-0.4-0.3-0.6c-0.2-0.3-0.7-0.4-0.9-0.1     c-0.3,0.3,0,0.6,0,0.9c0,0.1,0,0.5-0.1,0.6c-0.2,0.2-0.3,0.1-0.6,0.1c-0.1,0-0.2,0.1-0.3,0.2c-0.2,0.3,0,0.3,0,0.5     c0.2,0.4,0.1,0.4,0,0.7c-0.2,0.5,0.2,0.4,0.4,0.8c0.1,0.3-0.3,0.5-0.1,0.9c0.3,0.4,0.8-0.1,1.2,0.1c0.2,0.1,0.2,0.3,0.3,0.5     c0,0.2-0.1,0.3-0.1,0.5c0,0.9,1.3-0.3,1.3,0.8c0,0.1,0,0.2,0,0.3c0,0,0,0,0,0c0,0.2-0.1,0.4-0.2,0.5l0.2,0c0,0.2-0.1,0.4-0.4,0.6     c-0.5,0.4-1.1,0.7-0.7,1.6c0.4,0.9,1.2,0.6,2,0.5c0.3,0,0.9-0.1,0.9,0.4c0,0.3-0.4,0.4-0.5,0.7c-0.2,0.5,1.5,1.4,1.9,2     c0.3,0.4,0.5,0.8,0.8,1.2c0.2,0.3,0.1,0.5,0.5,0.7c0,0,0.8-0.1,0.8,0c0,0.3,0,0.9,0.3,1.1c0.4,0.3,0.6-0.2,1-0.1     c0.4,0.2,0.2,0.5,0.6,0.8c0.2,0.1,0.7,0.2,0.9,0.4c0.4,0.4,0.5,1.4,0.7,1.8c0.8,1.3,2.9,0.3,3.2,1.4c0.6-0.4,1.3-1,2-0.6     c-0.1,0.8,0.1,1.7,0.9,1.9c0.8,0.2,0.7-0.3,1.3-0.6c1.3-0.5,0.9,0.8,1.3,1.7c0.4-0.4,2-0.9,2.6-0.8c0,0.3,0.2,0.6,0.3,0.8     c1.1-0.4-0.1-1.9,1.5-1.3c0.2,0.1,0,0.5,0.4,0.6c0.5,0.1,0.2-0.4,0.3-0.4c0.6-0.2,0.6-0.4,1,0.1c0.2,0.2-0.1,0.6,0.2,0.8     c0.2,0.2,0.4,0.1,0.4,0.1c0.3,0.2,1,0.3,1.3,0c0.6-0.7-1.4-3.1,0.7-2.7c1.1,0.2,1.1,2,2.3,1.1c0.5-0.4,0.1-1,1.1-0.7     c0.7,0.2,0.6,0.9,1.3,0.8c0.8-0.2,0.6-1.2,0.4-1.7c-0.3-0.8-1.4-1.1-0.4-1.9c1.2-1,1.4,0.6,2.4,0.6c-0.1,0,1.8-0.9,1.8-0.9     c0,0,0.5-0.8,0.5-0.8c0.2-0.3,0.4-0.5,0.6-0.6l0.4-0.3c0.7-0.9,1.7-1,2.2-2c0.3-0.6,0.2-1.2,0.8-1.6c0.5-0.3,0.9,0.1,1.1-0.6     c0.3-0.9-0.7-2-0.8-3.1C45.7,34.1,45.6,34.2,45.5,34.2z"></path><path class="st2" d="M40,20c-0.8-0.3-1.7-0.5-2.6-0.5c-0.9,0-1.8,0.2-2.6,0.5c-0.8,0.3-1.5,0.8-2.1,1.4c-0.6,0.6-1.1,1.3-1.4,2.1     c-0.3,0.8-0.5,1.7-0.5,2.6c0,0.9,0.2,1.8,0.5,2.6c0.3,0.8,0.8,1.5,1.4,2.1c0.6,0.6,1.3,1.1,2.1,1.4c0.8,0.3,1.7,0.5,2.6,0.5     c0.9,0,1.8-0.2,2.6-0.5c0.8-0.3,1.5-0.8,2.1-1.4c0.6-0.6,1.1-1.3,1.4-2.1c0.3-0.8,0.5-1.7,0.5-2.6c0-0.9-0.2-1.8-0.5-2.6     c-0.3-0.8-0.8-1.5-1.4-2.1C41.5,20.8,40.8,20.3,40,20z"></path><path class="st2" d="M48,30.5C48,30.5,48,30.6,48,30.5c-0.5,1.2-1.1,2.2-1.9,3.1c0.1,0.7,0.4,1.8,1.1,1.9     c0.5,0.1,1.4-0.7,1.4-1.2c-0.1-0.6-0.9-0.5-0.9-1.1c-0.1-0.9,0.8-0.5,1.2-0.9c0.3-0.3,0.3-1.1,0-1.5C48.6,30.6,48.3,30.6,48,30.5     z"></path></g><g><path class="st3" d="M40,20c-0.8-0.3-1.7-0.5-2.6-0.5c-0.9,0-1.8,0.2-2.6,0.5c-0.8,0.3-1.5,0.8-2.1,1.4c-0.6,0.6-1.1,1.3-1.4,2.1     c-0.3,0.8-0.5,1.7-0.5,2.6c0,0.9,0.2,1.8,0.5,2.6c0.3,0.8,0.8,1.5,1.4,2.1c0.6,0.6,1.3,1.1,2.1,1.4c0.8,0.3,1.7,0.5,2.6,0.5     c0.9,0,1.8-0.2,2.6-0.5c0.8-0.3,1.5-0.8,2.1-1.4c0.6-0.6,1.1-1.3,1.4-2.1c0.3-0.8,0.5-1.7,0.5-2.6c0-0.9-0.2-1.8-0.5-2.6     c-0.3-0.8-0.8-1.5-1.4-2.1C41.5,20.8,40.8,20.3,40,20z"></path><path class="st3" d="M30.8,16.9c0.5-0.4,1.1-0.7,1.7-1c1.7-0.8,3.3-1.3,4.9-1.3c1.6,0,3.1,0.3,4.5,0.9c1.4,0.6,2.6,1.4,3.6,2.5     c0.5,0.5,0.9,1,1.3,1.6c0.5-1.4-0.1-1.1-1-2c-0.9-0.9-1.2-1.4-1.4-2.6c-1.4-0.2-2.6-1.9-3.6-2.7c-0.6-0.5-1.1-0.9-1.4-1.6     c-0.7-1.8,0.1-3-2-4c-0.2-0.1-3-0.8-2.9-0.5c0.2,0.8-0.9,0.3-1.4,0.7c-0.6,0.5-0.5,1.8,0.4,1.9c-0.1,1.4-0.6,1.6-1.4,2.5     c-0.8,0.9-0.3,1-1.3,0.5c-0.1,0-0.1-0.1-0.2-0.1V16.9z"></path><path class="st3" d="M41.9,36.7c-1.4,0.6-2.9,0.9-4.5,0.9c-1.6,0-3.1-0.3-4.5-0.9c-0.8-0.3-1.5-0.7-2.2-1.2     c-0.1,0.5-0.3,1-0.7,1.4c-0.5,0.5-1,0.7-1.7,0.7h-2.4c-0.7,0-1.2-0.2-1.7-0.7c-0.5-0.5-0.7-1.1-0.7-1.7c0-0.7,0.2-1.2,0.7-1.7     c0.5-0.5,1.1-0.7,1.7-0.7h0V12.9h0c-0.6,0-1.2-0.2-1.7-0.7c-0.5-0.5-0.7-1-0.7-1.7c0-0.6,0.2-1.2,0.7-1.7c0.5-0.5,1-0.7,1.7-0.7     h2.4c0.2,0,0.4,0,0.6,0.1c-0.1-0.3-0.2-0.6-0.3-0.9c-0.3-0.6-0.8-1.4-1.5-1.1c-0.2,0.1-0.3,0.2-0.4,0.3c-0.6,0.4-1.3,0.1-1.9,0     c-0.8-0.2-1.5-0.3-2.3-0.4C22.3,6,22.1,6,21.9,6c-0.9-0.1-1.8-0.2-2.7-0.3c-0.4,0.2-0.4,0.7-0.5,1.1c-0.1,0.4-0.5,0.9-0.9,0.7     c-0.1,0-0.2-0.2-0.4-0.2c-0.7-0.5-0.9,0.3-1.3,0.6C15.9,8,14.9,8.7,14.6,9c-0.9,0.9-0.4,2.6-1.4,3.2c-0.8,0.4-1.4,0-2.2,0.2     c-1,0.2-1.2,1-1.7,1.8C8.7,15,8.8,14.9,8.9,16c0.1,0.8,0,0.6-0.4,1.2c-0.5,0.6-1.2,1.4-1.5,2.1c-0.7,1.3,0.5,0.9,1.6,0.9     c1,0,1.5-0.6,2.4-0.9c1.4-0.4,0.2,0.3,0.6,1.2c0.4,1,4.1,0.7,2.4,2.5c-0.5,0.5-0.8,0.2-0.7,1.2c0.7,0.1,0.2,0.9,1,0.9     c0.1,0.4,0.4,1.3,0.6,1.7c0.3,0.4,1.2,0.8,1.2,1.5c0,0.8-0.7,0.3-0.1,1.3c0.5,0.9,1.3,1.3,0.2,2c-0.7-1.1-1.2,0.2-1.2,0.8     c0,0.6,0.1,0.5-0.1,0.9c-0.2,0.5-0.6,0.1-0.6,0.7c-1.1,0-1.6,0-1.5,1.3c0,0.4,0.7,0.5,0.4,1.1c-0.1,0.2-0.3,0.4-0.6,0.6     c-0.3,0.2-0.5,0.4-0.8,0.6c-0.1,0.1-0.2,0.1-0.3,0.2c-0.1,0-0.3,0-0.4,0c-0.6,0-1.2-0.1-1.8-0.1c-0.2,0.5,0.2,1.2,0.7,1.5     c0.5,0.3,1.1,0.5,1.5,0.9c0.5,0.5,0.8,0.3,1.4,0.6c0.5,0.3,0.6,0.8,0.9,1.2c0.1,0.1,2.4,2.3,1.8,2.5c0.3-0.1,0.7-0.1,1,0.2     c0.4-0.5,1.6-0.2,2.2-0.5c0.7-0.4,1.1-1.3,1.9-1.5c0,0.1,0.2,0.3,0.2,0.4c0.2-0.1,0.6-0.2,0.8-0.3c0.2,0.4,0.3,0.7,0.6,1     c-0.3,0.9-0.2,3,1.2,2.4c0.7-0.3,0.5-1.1,1.1-1.5c0.3,0.7,0.7,0.9,1.4,1c1.1,0.2,1-0.2,1.7-0.7c0.3-0.2,0.5-0.1,0.8-0.3     c0.2-0.2,0.3-0.5,0.6-0.6c0.5-0.2,1.2,0,1.4,0.5c0.7,0.2,1.4,0.5,2,0.7c0.4,0.1,0.8,0.2,1.3,0.2c0.4,0,1.3,0,1.7-0.3     c0.2-0.1,0.5-0.8,0.4-0.8c0.1,0,0.2,0,0.3-0.1c-0.1-0.4-0.1-0.9-0.1-1.3c0.2,0,0.3-0.1,0.5-0.1C36.3,42.2,36.6,42,37,42     c0-1,1.4-0.9,2-0.6c0.4,0.1,0.8,0.6,1.3,0.3c0.4-0.2,0.4-0.8,0.7-1.1c-0.1-0.2-0.1-0.5-0.2-0.6c1.7,0-0.6-1.6,1.1-1.9     c0.5-0.1,0.6,0.4,1.2,0.2c0.6-0.2,0.4-0.3,0.6-0.8c0.1-0.4-0.2-0.6,0.2-1c0.3-0.3,0.4,0,0.6-0.2c0.6-0.4,0.8-0.6,0.9-1.4     c0-0.2,0-0.3,0-0.5C44.3,35.4,43.2,36.1,41.9,36.7z"></path></g><g><path class="st1" d="M37.4,19.5c-0.9,0-1.8,0.2-2.6,0.5c-0.8,0.3-1.5,0.8-2.1,1.4c-0.6,0.6-1.1,1.3-1.4,2.1     c-0.3,0.8-0.5,1.7-0.5,2.6c0,0.9,0.2,1.8,0.5,2.6c0.3,0.8,0.8,1.5,1.4,2.1c0.6,0.6,1.3,1.1,2.1,1.4c0.8,0.3,1.7,0.5,2.6,0.5     c0.9,0,1.8-0.2,2.6-0.5c0.8-0.3,1.5-0.8,2.1-1.4c0.6-0.6,1.1-1.3,1.4-2.1c0.3-0.8,0.5-1.7,0.5-2.6c0-0.9-0.2-1.8-0.5-2.6     c-0.3-0.8-0.8-1.5-1.4-2.1c-0.6-0.6-1.3-1.1-2.1-1.4C39.2,19.6,38.3,19.5,37.4,19.5z"></path><path class="st1" d="M37.4,37.6c-1.6,0-3.1-0.3-4.5-0.9c-0.8-0.3-1.5-0.7-2.2-1.2c-0.1,0.5-0.3,1-0.7,1.4c-0.5,0.5-1,0.7-1.7,0.7     h-2.4c-0.7,0-1.2-0.2-1.7-0.7c-0.5-0.5-0.7-1.1-0.7-1.7c0-0.7,0.2-1.2,0.7-1.7c0.5-0.5,1.1-0.7,1.7-0.7h0V12.9h0     c-0.6,0-1.2-0.2-1.7-0.7c-0.5-0.5-0.7-1-0.7-1.7c0-0.1,0-0.2,0-0.4c-0.5,0.1-1,0.2-1.5,0.2c-0.4,0-0.8-0.1-1.2,0     c-0.4,0.1-0.8,0.4-0.7,0.8c-0.4-0.7-1.6-0.9-2-0.2c-0.4,0.7,0.2,1.4,0.3,2.2c0,0.7-0.4,1.3-1,1.6c-0.6,0.3-1.4,0.1-1.8-0.4     c-0.1-0.2-0.3-0.3-0.5-0.4c-0.1,0-0.3,0-0.5,0c-0.9,0.2-2.1,0.2-2.5,1.1c-0.2,0.5,0.8,0.9,0.1,1.6c-0.3,0.3-1,0.2-1.4,0.2     C9.7,16.7,9.4,17,8.7,18c-0.2,0.3-0.6,0.2-0.5,0.8c0.2,1,0.6,0.2,1.2,0.2c0.4,0,0.7,0.3,1.1,0.2c0.6-0.1,0.7-0.6,1.1-0.9     c0.7-0.3,1.2-0.1,1.6,0.4c0.3,0.4,0.3,0.8,0.5,1.2c0.3,0.8,0.2,0.4,0.9,0.7c0.9,0.5,1.6,0.9,1.8,1.9c0.1,0.3,0.5,1.6,0.5,1.8     c-0.1,0.4-1.9,1.2-2.1,1c0.7,0.8,0.3,1.7,0.6,2.6c0.2,0.6,1.9,1.5,0.7,2.1c0.4,0.8,2.6,2.2,1.4,3.3c0.2,0.2,0.4,0.4,0.2,0.7     c-0.6,0.8-0.6-0.1-1-0.2c-0.3-0.1-0.3-0.4-0.8,0.1c-0.5,0.5,0,0.7-0.2,1c-0.3,0.9-2.9,1.7-1.4,2.8c0.3,0.2,1.3,0.2,1.6,0.6     c0.4,0.7,0,1.5,0.6,2.3c1.3,1.7,1.6-1.2,2.5-0.3c0.5-0.9,2.4-1,2.1,0.4c0.2-0.9,2.8,1.7,2.9,1.8c1.1,0.8,2.1,1.4,3.2,0     c0.7-0.9,0.5-1.3,1.6-0.7c0.4,0.2,0.7,0.6,1.4,0.6c0.1,0,0.1,0,0.2,0c0.6-0.1,1.3-0.6,2.1-0.2c0.2,0.1,0.6,0.8,0.8,1.1     c0.6-0.6,1.4-0.8,1.3-1.9c0.7,0.3,1.6-0.6,1.7-1.1c0.1-0.6-0.4-1.3-0.2-1.9c0.4-0.2,0.7-0.5,1.1-0.6c0.4,1.3,1.7,0.5,2.2-0.3     C38.8,37.5,38.1,37.6,37.4,37.6z"></path><path class="st1" d="M32,14.5c-0.3,0.2-0.7,0.2-1.3,0.1v2.3c0.5-0.4,1.1-0.7,1.7-1c1.7-0.8,3.3-1.3,4.9-1.3     c1.3,0,2.6,0.2,3.8,0.6c0-0.4-1.5-2.4-1.6-2.4c-0.7-0.6-1.2-1.3-1.9-2c-0.6-0.6-1.5-1.6-2.3-1c-0.5,0.4-0.1,1.4-0.6,1.9     c-0.6,0.6-1.8-0.4-2.6,0c-0.7,0.3-0.6,1.4-0.2,2.1c0.1,0.1,0.1,0.2,0.1,0.4C32.2,14.3,32.1,14.4,32,14.5z"></path></g></g><g><path class="st4" d="M135.2,31.7c-0.8,0-1.4,0.3-1.9,0.8c-0.5,0.5-0.8,1.2-0.8,1.9c0,0.7,0.3,1.4,0.8,1.9c0.5,0.5,1.2,0.8,1.9,0.8    c0.7,0,1.4-0.3,1.9-0.8c0.5-0.5,0.8-1.2,0.8-1.9c0-0.8-0.3-1.4-0.8-1.9C136.6,32,136,31.7,135.2,31.7z"></path></g><g><path class="st4" d="M157.5,28.3c-0.1,0-0.2,0-0.3,0c-0.5,0-1,0.2-1.5,0.6c-0.4,0.3-0.7,0.7-0.9,1.1c-0.8,1.1-1.7,1.8-2.6,2.3    c-0.9,0.4-1.8,0.6-2.7,0.6c-0.9,0-1.8-0.2-2.6-0.5c-0.8-0.3-1.5-0.8-2.1-1.4c-0.6-0.6-1.1-1.3-1.4-2.1c-0.3-0.8-0.5-1.7-0.5-2.6    c0-0.9,0.2-1.8,0.5-2.6c0.3-0.8,0.8-1.5,1.4-2.1c0.6-0.6,1.3-1.1,2.1-1.4c0.8-0.3,1.7-0.5,2.6-0.5s1.9,0.2,2.8,0.6    c0.9,0.4,1.7,1.1,2.5,2.2l0,0.1c0.3,0.3,0.6,0.7,0.9,1c0.4,0.4,0.9,0.6,1.5,0.6c0.2,0,0.4,0,0.5-0.1c1.1-0.2,1.7-1,1.7-2.2v-3.5    c0-0.7-0.2-1.2-0.7-1.7c-0.5-0.5-1-0.7-1.7-0.7c-0.6,0-1.2,0.2-1.6,0.6c0,0,0,0,0,0c-0.5-0.3-0.9-0.5-1.4-0.7    c-1.4-0.6-2.9-0.9-4.5-0.9s-3.1,0.3-4.5,0.9c-1.4,0.6-2.6,1.4-3.6,2.5c-1,1-1.9,2.3-2.5,3.6c-0.6,1.4-0.9,2.9-0.9,4.5    c0,1.6,0.3,3.1,0.9,4.5c0.6,1.4,1.4,2.6,2.5,3.6c1,1,2.3,1.9,3.6,2.5c1.4,0.6,2.9,0.9,4.5,0.9c1.6,0,3.1-0.3,4.5-0.9    c1.4-0.6,2.8-1.7,4-3.2c0.7-0.8,1.1-1.5,1.3-2.2c0.2-0.7,0.2-1.3-0.2-1.9C158.9,28.8,158.3,28.4,157.5,28.3z"></path><path class="st4" d="M180.8,18c-1-1-2.3-1.9-3.6-2.5c-1.4-0.6-2.9-0.9-4.5-0.9c-1.6,0-3.1,0.3-4.5,0.9c-1.4,0.6-2.6,1.4-3.6,2.5    c-1,1-1.9,2.3-2.5,3.6c-0.6,1.4-0.9,2.9-0.9,4.5c0,1.6,0.3,3.1,0.9,4.5c0.6,1.4,1.4,2.6,2.5,3.6c1,1,2.3,1.9,3.6,2.5    c1.4,0.6,2.9,0.9,4.5,0.9c1.6,0,3.1-0.3,4.5-0.9c1.4-0.6,2.6-1.4,3.6-2.5c1-1,1.9-2.3,2.5-3.6c0.6-1.4,0.9-2.9,0.9-4.5    c0-1.6-0.3-3.1-0.9-4.5C182.6,20.3,181.8,19.1,180.8,18z M178.8,28.7c-0.3,0.8-0.8,1.5-1.4,2.1c-0.6,0.6-1.3,1.1-2.1,1.4    c-0.8,0.3-1.7,0.5-2.6,0.5c-0.9,0-1.8-0.2-2.6-0.5c-0.8-0.3-1.5-0.8-2.1-1.4c-0.6-0.6-1.1-1.3-1.4-2.1c-0.3-0.8-0.5-1.7-0.5-2.6    c0-0.9,0.2-1.8,0.5-2.6c0.3-0.8,0.8-1.5,1.4-2.1c0.6-0.6,1.3-1.1,2.1-1.4c0.8-0.3,1.7-0.5,2.6-0.5c0.9,0,1.8,0.2,2.6,0.5    c0.8,0.3,1.5,0.8,2.1,1.4c0.6,0.6,1.1,1.3,1.4,2.1c0.3,0.8,0.5,1.7,0.5,2.6C179.3,27,179.1,27.9,178.8,28.7z"></path><path class="st4" d="M219.2,20.6c-0.5-1.2-1.2-2.2-2-3.1c-0.9-0.9-1.9-1.6-3-2.1c-1.2-0.5-2.4-0.8-3.7-0.8c-1.7,0-3.3,0.4-4.7,1.2    c-1,0.5-1.8,1.2-2.6,2c-0.7-0.8-1.5-1.5-2.4-2c-1.4-0.8-2.9-1.2-4.6-1.2c-1.3,0-2.5,0.3-3.7,0.8c-0.6,0.3-1.1,0.6-1.6,0.9    c0,0-0.1-0.1-0.1-0.1c-0.5-0.5-1.1-0.7-1.7-0.7h-2.4c-0.7,0-1.2,0.2-1.7,0.7c-0.5,0.5-0.7,1.1-0.7,1.7c0,0.7,0.2,1.2,0.7,1.7    c0.5,0.5,1,0.7,1.7,0.7h0v13.8c0,0.7,0.2,1.2,0.7,1.7c0.5,0.5,1,0.7,1.7,0.7c0.6,0,1.2-0.2,1.7-0.7c0.5-0.5,0.7-1,0.7-1.7l0-10.2    c0-0.5,0.1-1,0.4-1.5c0.2-0.6,0.6-1.1,1-1.5c0.4-0.4,0.9-0.8,1.5-1.1c0.5-0.3,1.1-0.4,1.7-0.4c0.6,0,1.2,0.1,1.8,0.3    c0.5,0.2,1,0.6,1.4,1c0.4,0.4,0.8,0.9,1,1.5c0.3,0.6,0.4,1.3,0.5,1.9v10c0,0.7,0.2,1.2,0.7,1.7c0.5,0.5,1,0.7,1.7,0.7    c0.7,0,1.2-0.2,1.7-0.7c0.5-0.5,0.7-1,0.7-1.7l0-10.1c0-0.6,0.2-1.2,0.4-1.8c0.2-0.6,0.6-1.1,1-1.5c0.4-0.4,0.9-0.8,1.5-1    c0.5-0.2,1.2-0.4,1.8-0.4c0.7,0,1.3,0.1,1.8,0.4c0.6,0.2,1,0.6,1.5,1c0.4,0.4,0.8,0.9,1,1.5c0.2,0.6,0.4,1.2,0.4,1.8v10    c0,0.7,0.2,1.2,0.7,1.7c0.5,0.5,1,0.7,1.7,0.7c0.7,0,1.2-0.2,1.7-0.7c0.5-0.5,0.7-1,0.7-1.7l0-10C219.9,23,219.7,21.7,219.2,20.6z    "></path></g><g><path class="st4" d="M55.5,8.1c-0.7,0-1.4,0.3-1.9,0.8c-0.5,0.5-0.8,1.2-0.8,1.9c0,0.8,0.3,1.4,0.8,1.9c0.5,0.5,1.2,0.8,1.9,0.8    c0.8,0,1.4-0.3,1.9-0.8c0.5-0.5,0.8-1.2,0.8-1.9c0-0.8-0.3-1.4-0.8-1.9C56.9,8.3,56.3,8.1,55.5,8.1z"></path><path class="st4" d="M55.9,15.6h-2.4c-0.7,0-1.2,0.2-1.7,0.7c-0.5,0.5-0.7,1.1-0.7,1.7c0,0.7,0.2,1.2,0.7,1.7    c0.5,0.5,1,0.7,1.7,0.7h0v13.8c0,0.7,0.2,1.2,0.7,1.7c0.5,0.5,1,0.7,1.7,0.7s1.2-0.2,1.7-0.7c0.5-0.5,0.7-1,0.7-1.7V18    c0-0.6-0.2-1.2-0.7-1.7C57.1,15.9,56.6,15.6,55.9,15.6z"></path></g><path class="st4" d="M81.1,20.5c-0.5-1.2-1.2-2.2-2.1-3.1c-0.9-0.9-1.9-1.6-3-2.1c-1.2-0.5-2.4-0.8-3.7-0.8c-0.7,0-1.3,0.1-2,0.2   c-0.7,0.1-1.3,0.4-1.9,0.6c-0.6,0.3-1.1,0.6-1.5,0.9c0,0,0,0-0.1-0.1c-0.5-0.5-1.1-0.7-1.7-0.7h-2.4c-0.7,0-1.2,0.2-1.7,0.7   c-0.5,0.5-0.7,1.1-0.7,1.7c0,0.7,0.2,1.2,0.7,1.7c0.5,0.5,1,0.7,1.7,0.7l0,13.8c0,0.7,0.2,1.2,0.7,1.7c0.5,0.5,1,0.7,1.7,0.7   c0.6,0,1.2-0.2,1.7-0.7c0.5-0.5,0.7-1,0.7-1.7l0-10.2c0-0.5,0.1-1,0.4-1.5c0.3-0.6,0.6-1.1,1.1-1.6c0.4-0.4,0.9-0.8,1.5-1.1   c0.6-0.3,1.2-0.4,1.8-0.4c0.6,0,1.2,0.1,1.8,0.4c0.6,0.2,1.1,0.6,1.5,1c0.4,0.4,0.8,0.9,1,1.5c0.2,0.6,0.4,1.2,0.4,1.8v10   c0,0.7,0.2,1.2,0.7,1.7c0.5,0.5,1,0.7,1.7,0.7c0.7,0,1.2-0.2,1.7-0.7c0.5-0.5,0.7-1,0.7-1.7l0-10C81.8,23,81.6,21.7,81.1,20.5z"></path><path class="st4" d="M129,18c-1-1-2.3-1.9-3.6-2.5c-1.4-0.6-2.9-0.9-4.5-0.9c-1.6,0-3.1,0.3-4.5,0.9c-1.4,0.6-2.6,1.4-3.6,2.5   c-1,1-1.9,2.3-2.5,3.6c-0.6,1.4-0.9,2.9-0.9,4.5c0,1.6,0.3,3.1,0.9,4.5c0.6,1.4,1.4,2.6,2.5,3.6c1,1,2.3,1.9,3.6,2.5   c1.4,0.6,2.9,0.9,4.5,0.9s3.1-0.3,4.5-0.9c1.4-0.6,2.6-1.4,3.6-2.5c1-1,1.9-2.3,2.5-3.6c0.6-1.4,0.9-2.9,0.9-4.5   c0-1.6-0.3-3.1-0.9-4.5C130.8,20.3,130,19,129,18z M127,28.7c-0.3,0.8-0.8,1.5-1.4,2.1c-0.6,0.6-1.3,1.1-2.1,1.4   c-0.8,0.3-1.7,0.5-2.6,0.5c-0.9,0-1.8-0.2-2.6-0.5c-0.8-0.3-1.5-0.8-2.1-1.4c-0.6-0.6-1.1-1.3-1.4-2.1c-0.3-0.8-0.5-1.7-0.5-2.6   c0-0.9,0.2-1.8,0.5-2.6c0.3-0.8,0.8-1.5,1.4-2.1c0.6-0.6,1.3-1.1,2.1-1.4c0.8-0.3,1.7-0.5,2.6-0.5s1.8,0.2,2.6,0.5   c0.8,0.3,1.5,0.8,2.1,1.4c0.6,0.6,1.1,1.3,1.4,2.1c0.3,0.8,0.5,1.7,0.5,2.6C127.5,27,127.3,27.9,127,28.7z"></path><path class="st4" d="M108.7,16.3c-0.5-0.5-1-0.7-1.7-0.7h-2.4c-0.7,0-1.2,0.2-1.7,0.7c-0.2,0.2-0.3,0.4-0.5,0.6   c-0.7-0.6-1.6-1-2.4-1.4c-1.4-0.6-2.9-0.9-4.5-0.9c-1.6,0-3.1,0.3-4.5,0.9c-1.4,0.6-2.6,1.4-3.6,2.5c-1,1-1.9,2.3-2.5,3.6   C84.3,23,84,24.5,84,26.1c0,1.6,0.3,3.1,0.9,4.5c0.6,1.4,1.4,2.6,2.5,3.6c1,1,2.3,1.9,3.6,2.5c1.4,0.6,2.9,0.9,4.5,0.9   c1.6,0,3.1-0.3,4.5-0.9c0.7-0.3,1.3-0.6,1.9-1c-0.1,0.2-0.1,0.3-0.2,0.5c-0.3,0.8-0.8,1.5-1.4,2.1c-0.6,0.6-1.3,1.1-2.1,1.4   c-0.8,0.3-1.7,0.5-2.6,0.5c-0.9,0-1.8-0.2-2.6-0.5c-0.8-0.3-1.5-0.8-2.1-1.4c-0.1-0.1-0.2-0.2-0.3-0.4c0,0,0,0,0,0   c-0.2-0.2-0.4-0.4-0.7-0.6c-0.4-0.3-0.9-0.4-1.4-0.3c-0.7,0.1-1.2,0.3-1.6,0.9c-0.4,0.5-0.6,1.1-0.6,1.8c0,0.5,0.2,1,0.6,1.4   c0.2,0.2,0.4,0.4,0.6,0.6c1,1,2.3,1.9,3.7,2.5c1.4,0.6,2.9,0.9,4.5,0.9c1.6,0,3.1-0.3,4.5-0.9c1.4-0.6,2.6-1.4,3.6-2.5   c1-1,1.9-2.3,2.5-3.6c0.6-1.4,0.9-2.9,0.9-4.5V20.5h0c0.7,0,1.2-0.2,1.7-0.7c0.5-0.5,0.7-1,0.7-1.7   C109.4,17.4,109.2,16.8,108.7,16.3z M101.6,28.7c-0.3,0.8-0.8,1.5-1.4,2.1c-0.6,0.6-1.3,1.1-2.1,1.4c-0.8,0.3-1.7,0.5-2.6,0.5   c-0.9,0-1.8-0.2-2.6-0.5c-0.8-0.3-1.5-0.8-2.1-1.4c-0.6-0.6-1.1-1.3-1.4-2.1c-0.3-0.8-0.5-1.7-0.5-2.6c0-0.9,0.2-1.8,0.5-2.6   c0.3-0.8,0.8-1.5,1.4-2.1c0.6-0.6,1.3-1.1,2.1-1.4c0.8-0.3,1.7-0.5,2.6-0.5c0.9,0,1.8,0.2,2.6,0.5c0.8,0.3,1.5,0.8,2.1,1.4   c0.6,0.6,1.1,1.3,1.5,2.1c0.3,0.7,0.4,1.5,0.4,2.3C102.2,26.9,102,27.9,101.6,28.7z"></path></g></svg>