<?xml version="1.0" ?><!DOCTYPE svg  PUBLIC '-//W3C//DTD SVG 1.1//EN'  'http://www.w3.org/Graphics/SVG/1.1/DTD/svg11.dtd'><svg height="32px"  style="enable-background:new 0 0 512 512; fill:#fed100;" version="1.1" viewBox="0 0 512 512" width="40px" xml:space="preserve" xmlns="http://www.w3.org/2000/svg" xmlns:xlink="http://www.w3.org/1999/xlink"><g id="_x32_67_x2C___Bank_deposit_x2C__cash_x2C__money"><g><path d="M235.062,210.94l34.37,31.346h187.669c2.209,0,4,1.791,4,4c0,0.226-0.03,0.444-0.066,0.66    c0.036,0.216,0.066,0.434,0.066,0.66V355.3c0,0.121-0.025,0.235-0.035,0.353c0.01,0.119,0.035,0.232,0.035,0.354    c0,2.209-1.791,4-4,4H215.436c-0.152,0-0.296-0.028-0.443-0.045c-0.147,0.017-0.291,0.045-0.443,0.045c-2.209,0-4-1.791-4-4    v-83.493c-7.296-7.156-14.594-14.313-21.886-21.469c-2.728,4.804-7.548,6.102-11.35,7.125c-2.458,0.662-4.799,1.307-6.812,2.678    V388.74h322.197v-177.8H235.062z"/><path d="M295.364,286.922c-1.841,7.934-8.245,14.041-17.569,16.758c-3.333,0.971-7.127,1.498-11.205,1.498    c-12.583,0-27.867-5.024-40.646-17.563c-2.465-2.418-4.929-4.836-7.395-7.254v71.646h118.251c-0.024-0.18-0.055-0.359-0.055-0.546    v-13.839c-5.6-0.131-11.771-1.499-18.166-4.764c-1.968-1.004-2.748-3.413-1.744-5.381s3.412-2.748,5.381-1.744    c12.667,6.467,23.946,3.931,29.756-0.205c3.738-2.662,5.619-6.085,5.157-9.391c-0.653-4.688-5.991-9.139-14.645-12.213    c-21.597-7.67-26.098-19.83-23.39-27.912c2.012-6.004,8.219-10.73,17.65-12.05v-13.676h-58.577    C295.52,266.752,297.143,279.253,295.364,286.922z"/><path d="M357.297,274.154c-18.179-5.73-28.848-0.877-30.615,4.398c-1.625,4.851,3.465,12.5,18.481,17.832    c15.827,5.624,19.255,14.097,19.89,18.646c0.875,6.268-2.28,12.627-8.44,17.013c-3.001,2.136-7.07,3.968-11.866,4.915v14.501    c0,0.187-0.03,0.366-0.055,0.546h108.409v-101.72H344.746v13.376c4.512,0.246,9.517,1.147,14.957,2.861    c2.106,0.664,3.275,2.911,2.611,5.018C361.65,273.648,359.405,274.818,357.297,274.154z"/><path d="M110.483,231.018c16.31-4.863,28.292,4.431,38.866,12.63c5.502,4.268,10.736,8.308,16.474,10.716    c3.182-2.218,6.579-3.156,9.41-3.919c4.97-1.338,7.027-1.893,7.494-7.267c0.134-1.542,1.146-2.869,2.598-3.406    c1.45-0.538,3.083-0.188,4.189,0.897c14.002,13.745,28.016,27.489,42.032,41.234c14.61,14.337,32.631,17.409,44.011,14.095    c6.562-1.911,10.829-5.777,12.014-10.885c1.909-8.227-3.921-19.031-16.415-30.426L194.6,184.866    c-1.632-1.489-1.749-4.019-0.26-5.651c1.489-1.632,4.019-1.748,5.651-0.26l26.299,23.985h67.776    c-63.358-68.029-80.896-66.98-148.054-62.958c-18.316,1.097-40.884,2.441-68.866,2.589V121.26c0-2.209-1.791-4-4-4H21.17    c-2.209,0-4,1.791-4,4s1.791,4,4,4h47.976v178.76H18.286c-2.209,0-4,1.791-4,4s1.791,4,4,4h54.861c2.209,0,4-1.791,4-4v-24.216    c16.637,20.521,28.733,21.39,43.896,22.44c11.739,0.813,24.873,1.732,41.459,12.051V261.66    c-6.636-2.834-12.43-7.328-18.055-11.691c-10.362-8.035-19.311-14.976-31.678-11.286c-2.117,0.63-4.345-0.573-4.976-2.69    C107.162,233.877,108.366,231.649,110.483,231.018z"/><path d="M50.769,281.354c0-7.246-5.901-13.142-13.155-13.142c-7.236,0-13.124,5.896-13.124,13.142    c0,7.243,5.887,13.137,13.124,13.137C44.868,294.491,50.769,288.598,50.769,281.354z"/></g></g><g id="Layer_1"/></svg>