<svg xmlns="http://www.w3.org/2000/svg" viewBox="-5 0 116 57" style="background-color:#0d2857;">
    <g fill="#ebf1f2" fill-rule="evenodd">
        <g fill="#fff">
            <path d="M41.19 23.26s-.725.57-.87.643c-1.01.51-1.521-.606-1.541-1.586-.018-.888-.035-.718-.03-1.282.025-2.122.05-4.845.074-6.966.014-1.22.077-2.334.09-3.554-3.3-.155-6.71-.245-9.853.955-1.273.485-2.468 1.18-3.482 2.1-.707.643-1.37 1.268-1.883 2.077-.612.963-1.106 2.105-1.433 3.199-.986 3.289-.18 7.373 3.153 8.964 1.016.487 2.084.627 3.2.592 1.278-.043 2.536-.533 3.355-1.556.45-.559.725-1.234.904-1.926.103-.397.174-.804.233-1.21.037-.253.08-.676.153-1.3-.108.12-.217.236-.33.353-.974.99-2.452 1.857-3.878 1.38-.451-.15-.931-.517-1.214-.9-.562-.76-.623-1.802-.602-2.72.026-1.125.306-2.417.885-3.382.927-1.544 2.41-2.669 4.052-3.444.783-.369 1.99-.616 1.99-.616v2.687c0 2.569-.047 5.22-.06 7.787-.006 1.168-.015 2.62.623 3.646.772 1.248 2.701.58 3.67-.098.895-.625 2.16-1.91 2.94-3.12l-.137-.711M79.907 29.046c-1.11-.635-1.969-1.396-2.19-3.087-.115-2.278.535-4.514.574-6.786.042-2.53-.302-5.228-2.02-7.14-1.702-1.894-4.011-2.407-6.674-1.72-.564.147-1.939.907-2.361 1.731l.275-1.455s-1.817.071-2.454.069c-.706-.003-2.22-.066-2.925-.09-.297-.01-.821-.046-.821-.046.287.33.644 1.31.703 1.515.177.614.285 1.245.426 1.867.27 1.181.407 2.388.47 3.596.135 2.481.055 5.083-.465 7.52-.057.268-.579 2.522-.948 2.87.395 0 .788.004 1.178-.003 1.332-.022 2.68.204 4.005.213.615.003 2.066-.187 1.328-1.165-.582-.77-.706-1.73-.76-2.665a40.988 40.988 0 0 1-.038-3.4c.059-2.286.245-7.21 3.68-6.834 1.304.143 2.146 1.43 2.445 2.595.383 1.498.13 3.044.042 4.562-.096 1.667-.176 3.38.17 5.016.694 2.306 2.423 2.658 3.814 2.949 1.144.235 3.028.154 2.558-.115"/>
            <path d="M87.952 26.23c-1.802 0-3.263-3.14-3.263-7.017 0-3.877 1.46-7.019 3.263-7.019 1.804 0 3.265 3.142 3.265 7.019 0 3.876-1.462 7.018-3.265 7.018m-.011-16.209c-4.997 0-9.047 4.115-9.047 9.192 0 5.078 4.05 9.193 9.047 9.193 4.997 0 9.048-4.115 9.048-9.19 0-5.075-4.05-9.19-9.048-9.19M57.65 55.512c-1.803 0-3.263-3.142-3.263-7.019 0-3.877 1.46-7.018 3.263-7.018 1.805 0 3.266 3.141 3.266 7.018s-1.461 7.019-3.264 7.019m-.011-16.21c-4.996 0-9.048 4.115-9.048 9.192s4.052 9.191 9.048 9.191c4.997 0 9.047-4.115 9.047-9.191 0-5.075-4.05-9.19-9.047-9.19M60.68 26.888c-.753-1.037-.9-2.319-.976-3.56a70.606 70.606 0 0 1-.126-4.188c0-.328 0-.306.004-.633.01-1.162.043-2.549.09-3.703.062-1.486.245-2.723.513-4.187 0 0-1.828.075-2.47.072-.71-.003-2.055-.069-2.765-.094a53.17 53.17 0 0 1-1.193-.073c.534.672.965 1.588 1.12 1.987.734 1.907.781 3.97.821 5.994.005.328.01.307.012.635.012 1.924-.061 3.862-.45 5.746-.058.28-.583 2.635-.957 2.999.395 0 .79.005 1.186-.003 1.339-.023 2.518.212 3.85.222.618.002 2.08-.195 1.336-1.218M26.274 21.722l-.249-.146c.054.257-1.47 1.872-4.157 2.678-3.072.92-6.294.471-9.091-1.077-3.307-1.832-4.44-5.549-4.624-9.2-.23-4.611 2.825-9.17 6.536-9.567 5.735-.616 4.902 3.52 4.647 4.233-.098.276-.328.635-.57 1.015-.529.826-1.126 1.76-.648 2.279.193.21.537.323 1.05.35.062.002.125.004.187.004 2.251 0 4.042-2.09 4.468-4.112.539-2.545-.871-5.334-3.428-6.785C19.167.697 17.77.343 16.24.343c-2.34 0-4.925.754-6.968 2.23C6.05 4.903 3.964 8.587 3.274 12.768c-.534 3.232-.183 6.288 1.015 8.835 1.292 2.75 3.54 4.772 6.498 5.846 1.153.418 2.855.924 4.423.951.138.003.28.005.42.005 2.233 0 5.363-.319 7.586-1.831 2.42-1.646 3.42-3.232 3.057-4.85M60.025 6c0 .706-.257 1.312-.77 1.82-.516.508-1.116.763-1.802.763-.745 0-1.365-.255-1.865-.763A2.503 2.503 0 0 1 54.839 6c0-.733.249-1.34.749-1.82s1.12-.72 1.865-.72c.687 0 1.286.24 1.801.72.514.48.77 1.087.77 1.82"/>
            <path d="M41.19 23.26s-.725.57-.87.643c-1.01.51-1.521-.606-1.541-1.587-.018-.888-.035-.718-.03-1.281.025-2.122.05-4.845.074-6.966.014-1.22.077-2.334.09-3.554-3.3-.155-6.71-.245-9.853.954-1.273.486-2.468 1.18-3.482 2.102-.707.642-1.369 1.267-1.883 2.073-.614.963-1.108 2.105-1.435 3.199-.986 3.289-.179 7.372 3.152 8.964 1.016.485 2.084.627 3.2.59 1.277-.043 2.536-.533 3.354-1.555.448-.56.724-1.235.904-1.927.103-.397.173-.804.232-1.21.035-.252.077-.676.15-1.299-.11.119-.219.236-.332.352-.976.99-2.454 1.858-3.877 1.38-.452-.15-.932-.517-1.215-.9-.564-.76-.626-1.802-.604-2.72.026-1.125.306-2.417.884-3.382.925-1.544 2.41-2.669 4.052-3.444.782-.369 1.989-.616 1.989-.616v2.69c-.003 2.566-.047 5.218-.061 7.784-.007 1.168-.015 2.621.62 3.646.773 1.249 2.702.58 3.672-.098.891-.625 2.157-1.91 2.939-3.12l-.137-.71M79.9 29.052c-1.11-.635-1.97-1.396-2.19-3.087-.116-2.278.534-4.514.572-6.787.042-2.53-.304-5.228-2.022-7.14-1.701-1.893-4.012-2.404-6.673-1.717-.565.147-1.939.906-2.363 1.731l.273-1.455s-1.816.071-2.454.069c-.706-.003-2.219-.064-2.925-.088-.296-.01-.82-.045-.82-.045.286.33.644 1.31.703 1.515.174.613.284 1.244.426 1.867.268 1.182.404 2.387.47 3.596.132 2.48.054 5.082-.468 7.52-.057.27-.579 2.523-.95 2.87.392 0 .785.005 1.178-.002 1.33-.021 2.68.205 4.003.214.614.005 2.066-.185 1.327-1.165-.581-.769-.706-1.73-.76-2.664a40.93 40.93 0 0 1-.038-3.399c.057-2.283.245-7.208 3.68-6.83 1.302.143 2.146 1.43 2.443 2.595.383 1.5.13 3.044.04 4.561-.097 1.67-.177 3.382.17 5.016.691 2.307 2.42 2.661 3.811 2.95 1.144.237 3.029.154 2.558-.115M2.18 52.645V48.15c.016-2.564.014-10.662.014-10.662h-.017c-.037-2.021-.084-4.086-.82-5.993-.154-.4-.584-1.315-1.12-1.986 0 0 .893.064 1.192.074.71.026 2.788.093 3.5.095.641.002 2.467-.071 2.467-.071-.268 1.462-.451 2.701-.513 4.188-.009.19-.011.392-.014.594l-.02 15.835.028 1.182.07 1.926c.054.934.18 1.895.76 2.664.74.98-.712 1.17-1.326 1.165-1.324-.007-2.674-.235-4.004-.211-.392.007-.786.002-1.18.002.37-.348.942-2.31.95-2.87l.044-1.45m85.756-26.397c-1.802 0-3.264-3.142-3.264-7.018s1.462-7.018 3.263-7.018c1.805 0 3.267 3.142 3.267 7.018 0 3.877-1.462 7.019-3.264 7.019m-.012-16.208c-4.997 0-9.047 4.114-9.047 9.19 0 5.075 4.05 9.19 9.047 9.19 4.998 0 9.048-4.116 9.048-9.192 0-5.075-4.05-9.19-9.048-9.19M57.685 55.56c-1.803 0-3.262-3.142-3.262-7.018 0-3.877 1.46-7.018 3.263-7.018 1.805 0 3.266 3.141 3.266 7.018 0 3.876-1.46 7.018-3.266 7.018m-.159-16.154c-4.998 0-9.047 4.114-9.047 9.19 0 5.075 4.05 9.19 9.047 9.19 4.996 0 9.048-4.117 9.048-9.193 0-5.075-4.052-9.19-9.048-9.19m3.148-12.513c-.755-1.037-.901-2.32-.977-3.563a70.798 70.798 0 0 1-.127-4.188c0-.328 0-.307.005-.633.01-1.163.042-2.55.09-3.703.06-1.486.244-2.725.512-4.188 0 0-1.826.074-2.468.071-.71-.002-2.054-.069-2.765-.095-.299-.01-1.193-.073-1.193-.073.537.67.965 1.586 1.12 1.985.737 1.908.784 3.97.821 5.994.007.328.012.307.015.637.011 1.922-.062 3.86-.45 5.744-.059.28-.583 2.635-.955 2.999.395 0 .79.004 1.186-.003 1.339-.023 2.518.212 3.85.222.618.002 2.08-.195 1.336-1.218m-34.4-5.154l-.249-.146c.054.257-1.47 1.872-4.157 2.678-3.073.92-6.295.47-9.092-1.08-3.306-1.831-4.44-5.548-4.623-9.199-.23-4.612 2.824-9.17 6.535-9.57 5.737-.618 4.902 3.52 4.648 4.234-.097.274-.327.633-.57 1.013-.527.823-1.125 1.758-.647 2.279.193.209.537.323 1.05.347.063.002.124.005.188.005 2.252 0 4.042-2.09 4.468-4.112.54-2.543-.87-5.333-3.428-6.783C19.17.692 17.772.337 16.242.337c-2.339 0-4.925.752-6.967 2.229C6.051 4.899 3.969 8.58 3.277 12.764c-.537 3.235-.184 6.29 1.014 8.84 1.293 2.75 3.54 4.772 6.498 5.845 1.153.42 2.856.925 4.423.952.14.002.28.004.422.004 2.233 0 5.362-.318 7.586-1.83 2.419-1.647 3.419-3.233 3.057-4.85m33.75-15.723c0 .706-.257 1.313-.77 1.82-.515.51-1.115.764-1.802.764-.744 0-1.365-.255-1.865-.761a2.492 2.492 0 0 1-.748-1.82c0-.732.247-1.339.748-1.82.5-.478 1.12-.718 1.864-.718.687 0 1.287.24 1.802.72.513.48.772 1.086.772 1.819m-6.57 13.123c-.816-1.055-1.92-1.503-3.088-1.98-.151-.06-.303-.12-.455-.185a32.534 32.534 0 0 0-3.41-1.177l-.15-.043c-.712-.2-1.686-.475-1.59-1.337.126-1.107 1.45-1.88 2.563-1.88.4 0 .96.098 1.367.564.313.357.146.573-.087.87-.153.197-.327.421-.33.705 0 .494.497.824.99.93.185.041.376.062.566.062 1.078 0 2.102-.687 2.546-1.71.363-.832.238-1.695-.336-2.309-.977-1.049-2.534-1.624-4.386-1.624-2.551 0-5.676 1.213-6.714 3.534-.62 1.382-.529 3.463.69 4.554.654.583 1.454.861 2.158 1.106.35.122.706.243 1.059.362 1.096.373 2.228.756 3.313 1.206 1.051.435 2.734 1.398 2.202 2.963-.4 1.172-2.13 1.795-3.174 1.848a3.934 3.934 0 0 1-.925-.079l-.12-.021c-.518-.098-.927-.174-1.285-.578-.317-.36-.6-.951-.34-1.439.45-.851 1.166-1.127 2.058-1.398l.174-.055-.15-.107a4.508 4.508 0 0 0-2.577-.818c-.504 0-.99.088-1.452.26a3.248 3.248 0 0 0-1.83 1.71 3.439 3.439 0 0 0-.085 2.658c.388 1.037 1.746 1.734 2.153 1.905 1.202.504 2.668.773 4.238.773 0 0 .974-.026 1.454-.079 1.56-.166 5.264-.972 5.962-4.326.36-1.729-.03-3.596-1.023-4.878m42.316 29.05c-.82-1.054-1.92-1.504-3.09-1.98l-.454-.185a32.02 32.02 0 0 0-3.41-1.177l-.15-.043c-.71-.202-1.685-.476-1.586-1.34.125-1.107 1.45-1.878 2.562-1.878.4 0 .96.098 1.367.564.313.356.146.573-.087.87-.155.195-.329.421-.329.704-.002.495.494.825.988.932.186.043.377.062.565.062 1.078 0 2.101-.687 2.546-1.712.362-.833.238-1.696-.336-2.31-.977-1.048-2.535-1.624-4.387-1.624-2.55 0-5.675 1.213-6.715 3.534-.621 1.382-.532 3.465.69 4.555.653.585 1.453.86 2.157 1.106.353.12.706.242 1.061.364 1.097.373 2.23.758 3.313 1.205 1.052.436 2.735 1.399 2.203 2.966-.4 1.173-2.13 1.796-3.174 1.848a3.934 3.934 0 0 1-.925-.078l-.12-.024c-.518-.098-.927-.174-1.285-.578-.32-.36-.6-.952-.341-1.44.452-.85 1.167-1.126 2.059-1.398l.174-.054-.148-.105a4.507 4.507 0 0 0-2.575-.818c-.503 0-.99.088-1.451.257a3.248 3.248 0 0 0-1.831 1.71 3.439 3.439 0 0 0-.085 2.659c.388 1.037 1.746 1.734 2.153 1.905 1.203.505 2.669.773 4.238.773 0 0 .974-.026 1.454-.078 1.56-.167 5.264-.975 5.963-4.326.36-1.73-.03-3.596-1.024-4.878m-54.683 7.969c-.753-1.037-.9-2.319-.974-3.56a68.84 68.84 0 0 1-.128-4.188c0-.329 0-.305.005-.633.01-1.16.043-2.547.092-3.703.059-1.487.245-2.726.513-4.188 0 0-1.828.075-2.47.072-.711-.002-2.055-.069-2.766-.095a53.907 53.907 0 0 1-1.193-.072c.537.673.965 1.589 1.12 1.988.735 1.907.784 3.972.822 5.993.004.329.009.31.011.638.014 1.924-.06 3.862-.447 5.746-.059.283-.583 2.637-.956 3.001.396 0 .791.005 1.188-.002 1.338-.024 2.518.211 3.85.223.619.003 2.079-.195 1.334-1.217M37.992 43.94c.068-.433 2.043-1.035 2.157-1.423.474-1.613 1.956-3.223 3.725-3.42 5.19-.576 5.493 4.073 4.888 5.347-.532 1.118-1.629 1.899-2.824 1.899-.21 0-.422-.023-.628-.07-.546-.119-1.097-.484-1.097-1.033.002-.315.196-.564.366-.782.259-.33.444-.569.096-.967-.452-.517-1.074-.624-1.517-.624-1.235 0-3.165.818-3.165 3.158l-2.001-2.088m-31.509.805c2.014-1.283 6.398-1.287 8.42.01l2.049-4.23a14.094 14.094 0 0 0-12.52-.015l2.05 4.235m14.16 8.247c-1.011.51-1.533-.606-1.542-1.587l-.029-1.182.033-15.84c.004-.2.007-.404.014-.593.062-1.487.247-2.724.514-4.186 0 0-1.827.076-2.47.074-.71-.003-2.787-.07-3.497-.096a55.054 55.054 0 0 1-1.193-.07c.536.672.966 1.588 1.12 1.987.736 1.908.783 3.972.821 5.996.017 0 .018 8.098.002 10.664v4.48c-.007 1.169-.014 2.622.622 3.647.772 1.248 2.704.58 3.671-.098.894-.625 2.16-1.91 2.941-3.12l-.136-.711c-.003-.007-.727.562-.872.635zm13.804.167c.04.37-.186 4.304-6.417 4.304-6.53 0-7.866-5.948-7.866-8.455 0-7.06 4.565-9.736 8.019-9.938 6.069-.355 7.372 4.495 6.92 6.604-.303 1.427-1.374 3.458-6.214 3.458-2.796 0-5.483.029-5.483-.347 0-1.353 7-1.394 7.857-2.626.52-.746-.195-3.153-2.89-3.153-2.207 0-4.016 2.535-4.016 6.098 0 7.213 7.104 5.536 8.344 4.58.645-.497 1.675-1.246 1.753-.52M75.678 43.1c2.693 0 3.409 2.409 2.89 3.154-.654.94-4.874 1.187-6.844 1.85.329-2.975 1.98-5.004 3.954-5.004zm.516 6.128c4.84 0 5.91-2.032 6.214-3.457.293-1.37-.157-3.903-2.179-5.408a44.254 44.254 0 0 1-10.831 3.646c-.327.066-.657.13-.99.19-.584 1.327-.937 2.95-.937 4.914 0 2.504 1.334 8.454 7.866 8.454 6.23 0 6.456-3.933 6.416-4.302-.077-.725-1.107.026-1.751.523-1.24.956-8.342 2.633-8.342-4.58l.001-.048c1.028.088 2.757.079 4.533.079v-.01z"/>
            <path d="M14.373 39.787l2.472-.369v7.189s-1.62 1.668-2.225 0c-.111-.307-.227-1.257-.247-1.746-.09-2.17 0-5.074 0-5.074zM3.845 38.358l2.682.095s.155.794.163 1.161c.032 1.382.059 3.515 0 4.807-.026.576-.163 1.126-.163 1.126H3.845v-7.189zM22 21.565h4.978v5.032s-2.314-.283-3.468-.283c-.505 0-1.51.283-1.51.283s.32-1.624.32-2.516c0-.785-.32-2.516-.32-2.516zM40.49 23.788s.417-.427.632-.545c.26-.143.791-.24.791-.24v2.156h-1.422s-.079-.405-.079-.613c0-.249.079-.758.079-.758zM24.336 48.252v1.027l-.682.173-.581-.422.514-.775zM22.367 52.37v1.027l-1.103.133-.289-.676s.039-.104.129-.24l.315-.475.948.23zM40.155 44.367l-.106 1.92-1.2-.797-.29-.676s-.887-.849-.797-.985c.081-.122 2.456-1.23 2.456-1.23l-.063 1.768z"/>
        </g>
        <g fill="#CD2D9D">
            <path d="M63.82 33.946c.002-.012.07-.034.077-.038a.975.975 0 0 1 .213-.063c.165-.029.341-.02.504.023.222.058.402.222.53.41.07.102.122.214.15.335.028.119.052.273.035.397-.01.074-.047.19-.087.285-.082.19-.132.281-.207.402.405-.216.838-.435 1.301-.44.4-.004.767.226.953.583.153.293.144.742-.04 1.027-.193.305-.543.467-.89.479-.096.002-.385-.029-.467-.09.026.123.287.39.496.525.205.133.447.245.673.33.195.074.438.124.643.16.703.126 1.456-.053 2.113-.345.322-.143.658-.324.896-.557.374-.366.77-.853.866-1.381a3.33 3.33 0 0 0 .052-.785c-.42.585-1.08.88-1.781.597a1.431 1.431 0 0 1-.876-1.454c.043-.397.278-.758.619-.96.165-.098.365-.172.553-.2.094-.014.713.024.55-.233-.056-.09-.256-.138-.348-.188-.527-.278-.81-.723-.779-1.33a1.48 1.48 0 0 1 .777-1.253c.08-.043.165-.071.25-.1.086-.028.171-.054.26-.066.528-.079 1.031.15 1.356.559.374.475.4 1 .132 1.538-.047.093-.181.25-.174.357.014.304.494-.09.578-.133.17-.088.375-.148.563-.164a1.27 1.27 0 0 1 1.059.418c.404.46.456 1.17.124 1.696-.404.642-1.113.79-1.79.561.183.29.348.466.494.607.383.373.986.535 1.499.613.325.05.706-.002 1.047-.076.704-.15 1.416-.447 1.915-.963.146-.152.316-.333.431-.509a3.76 3.76 0 0 0 .355-.666c.092-.233.15-.604.101-.72-.03.1-.247.294-.329.35-.29.192-.666.268-1 .135-.313-.126-.579-.485-.624-.814-.056-.4.111-.803.436-1.034.379-.271.856-.347 1.31-.41-.129-.054-.223-.1-.4-.206a1.276 1.276 0 0 1-.237-.18 1.186 1.186 0 0 1-.2-.343.998.998 0 0 1-.07-.362c-.006-.228.046-.468.194-.647.106-.13.245-.242.396-.316a.914.914 0 0 1 .21-.074c.006-.002.074-.024.081-.014 0 0 .422.454.728 1.532.369 1.308.55 2.806.402 4.165l-.141 1.303-.179 1.132a39.67 39.67 0 0 1-5.485 2.257 39.326 39.326 0 0 1-5.76 1.394l-.798-.813-.866-.976c-.906-1.017-1.621-2.342-2.075-3.624-.372-1.056-.292-1.674-.292-1.674M80.389 40.372l-.876-1.686a34.204 34.204 0 0 1-11.25 3.652l.258 1.886c.336-.062.668-.127.998-.193a44.252 44.252 0 0 0 10.232-3.36c.212-.1.425-.2.638-.303"/>
            <path d="M63.82 33.946c.002-.012.07-.034.077-.038.069-.029.14-.05.213-.063a1.2 1.2 0 0 1 .504.023c.222.058.402.222.53.41a1 1 0 0 1 .15.335c.028.119.052.273.036.397-.011.074-.05.19-.09.285-.082.19-.132.283-.207.402.405-.216.838-.435 1.302-.44.398-.004.766.226.951.583.152.293.142.742-.04 1.027-.194.305-.545.467-.891.479-.098.002-.386-.029-.468-.09.026.123.287.387.496.525.204.13.445.245.672.33.197.076.438.124.643.162.704.124 1.455-.052 2.111-.345.32-.142.659-.326.894-.556.372-.367.77-.854.866-1.382.035-.202.068-.44.05-.785-.42.585-1.08.88-1.782.597a1.43 1.43 0 0 1-.877-1.45c.042-.4.275-.76.618-.964.163-.097.365-.171.553-.2.095-.014.711.024.549-.233-.06-.09-.257-.138-.349-.185-.529-.279-.811-.723-.78-1.327.025-.526.303-1.006.776-1.254.08-.043.162-.071.25-.097.084-.029.169-.055.258-.07.525-.075 1.028.15 1.353.562.374.473.4 1.001.13 1.539-.048.093-.182.25-.177.357.014.304.494-.09.579-.136.17-.088.376-.145.565-.164.395-.036.793.119 1.056.418.405.46.454 1.17.122 1.696-.407.642-1.115.79-1.793.561.184.29.346.467.492.607.384.373.986.535 1.5.614.324.05.703-.003 1.046-.077.701-.15 1.414-.447 1.916-.963a4.02 4.02 0 0 0 .43-.509 3.92 3.92 0 0 0 .356-.666c.091-.233.15-.604.098-.72-.03.097-.247.292-.33.347-.289.193-.665.269-1 .135-.312-.126-.578-.485-.623-.813-.056-.4.11-.804.436-1.034.378-.272.856-.348 1.31-.41a2.583 2.583 0 0 1-.4-.206 1.3 1.3 0 0 1-.237-.181 1.147 1.147 0 0 1-.2-.345.99.99 0 0 1-.073-.362c-.005-.228.047-.466.195-.645.106-.131.245-.243.395-.317a.977.977 0 0 1 .21-.074c.007-.002.075-.022.082-.015 0 0 .421.457.725 1.534.37 1.31.55 2.807.4 4.166l-.141 1.303-.18 1.132c-1.8.9-3.618 1.65-5.484 2.257a39.675 39.675 0 0 1-5.758 1.393l-.798-.814-.868-.975c-.906-1.018-1.62-2.343-2.073-3.625-.374-1.054-.294-1.673-.294-1.673m16.577 6.435l-.875-1.686a34.136 34.136 0 0 1-11.253 3.656c.104.753.153 1.13.26 1.886.333-.06.667-.125.997-.191a44.3 44.3 0 0 0 10.231-3.36c.212-.097.424-.197.638-.302"/>
        </g>
    </g>
</svg>