<svg xmlns="http://www.w3.org/2000/svg" viewBox="0 -20 420 100" class="svg-logo"><title>Casinostugan</title><path fill="#fcf5e4" d="M418.5 29.5c-4.8-5.35-7.65-11.1-7.65-20.6a8.9 8.9 0 0 0-8.9-8.9H17.35A8.9 8.9 0 0 0 8.5 8.9c0 9.5-2.9 15.25-7.65 20.6a1.5 1.5 0 0 0 0 2C5.6 36.85 8.5 42.6 8.5 52.1a8.9 8.9 0 0 0 8.85 8.9h384.6a8.9 8.9 0 0 0 8.85-8.9c0-9.5 2.9-15.25 7.65-20.6a1.5 1.5 0 0 0 .05-2z"></path><path fill="#d65645" d="M342.8 34.05l-3.55-3.55 3.55-3.55-1.4-1.4-3.55 3.55-3.55-3.55-1.4 1.4 3.55 3.55-3.55 3.55 3.55 3.55-2.1 2.1-3.55 3.55-2.1-2.1-1.4-1.4-2.1-2.1 3.55-3.55-3.65-3.6 3.55-3.55-1.4-1.4-2.1-2.1 3.55-3.55 2.1-2.1 3.55 3.55 3.55-3.55 3.55 3.55 1.4-1.4-3.55-3.55 3.55-3.55-1.4-1.4L337.9 15l-3.55-3.55L330.8 15l-2.1-2.1-1.4-1.4-1.4 1.4-2.1 2.1-3.55-3.55-1.4 1.4 3.55 3.55-3.55 3.55 3.55 3.55-3.55 3.55 1.4 1.4 2.1 2.1-3.55 3.55 3.55 3.55-2.1 2.1-1.4 1.4 1.4 1.4 2.1 2.1-3.55 3.55 1.4 1.4 3.55-3.55 2.1 2.1 1.4 1.4 1.4-1.4 2.1-2.1 3.55 3.55 3.55-3.55 3.55 3.55 1.4-1.4-3.55-3.55 2.1-2.1 1.4-1.4-1.4-1.4-2.1-2.1 3.55-3.6zm-7.05 0l2.1-2.1 2.1 2.1-2.1 2.1-2.1-2.1zm-1.4-19.8l2.1 2.1-2.15 2.15-2.1-2.1 2.15-2.15zm-7.05 0l2.1 2.1-2.15 2.15-2.1-2.1 2.15-2.15zm-5.7 5.65l2.1-2.1 2.1 2.1-2.1 2.1-2.1-2.1zm0 7.05l2.1-2.1 2.1 2.1-2.1 2.1-2.1-2.1zm0 7.05l2.1-2.1 2.1 2.1-2.1 2.1-2.1-2.1zm0 7.05l2.1-2.1 2.1 2.1-2.1 2.1-2.1-2.1zm5.65 5.65l-2.1-2.1 2.1-2.1 2.1 2.1-2.1 2.1zm7.05 0l-2.1-2.1 2.1-2.1 2.1 2.1-2.1 2.1zm5.65-5.65l-2.1 2.1-2.1-2.1 2.1-2.1 2.1 2.1zm-25.45-7L311 30.5l3.55-3.55-1.4-1.4-2.1-2.1 3.55-3.55-3.55-3.55 3.55-3.55-1.4-1.4-3.55 3.55L306 11.4l-1.4 1.4 3.55 3.55-3.55 3.55 3.55 3.55L304.6 27l1.4 1.4 2.1 2.1-3.55 3.55 3.55 3.55-2.1 2.1-3.5 3.55-2.1-2.1-1.4-1.4-2.1-2.1 3.55-3.55-3.6-3.6 3.55-3.55-1.4-1.4-2.1-2.1 3.55-3.55-3.55-3.55 3.55-3.55-1.4-1.4-3.55 3.55-3.55-3.55-1.4 1.4 3.55 3.55-3.55 3.55 3.55 3.55-3.55 3.55 1.4 1.4 2.05 2.1-3.55 3.55L294 37.6l-2.1 2.1-1.4 1.4 1.4 1.4 2.1 2.1-3.55 3.55 1.4 1.4L295.4 46l2.1 2.1 1.4 1.4 1.4-1.4 2.1-2.1 3.55 3.55L309.5 46l3.55 3.55 1.4-1.4-3.45-3.5 2.1-2.1 1.4-1.4-1.4-1.4-2.1-2.2 3.5-3.5zm-7.05-14.15l2.1-2.1 2.1 2.1-2.1 2.1-2.1-2.1zm0 7.05l2.1-2.1 2.1 2.1-2.1 2.1-2.1-2.1zm0 7.05l2.1-2.1 2.1 2.1-2.1 2.1-2.1-2.1zM293.3 19.9l2.1-2.1 2.1 2.1-2.1 2.1-2.1-2.1zm0 7.05l2.1-2.1 2.1 2.1-2.1 2.1-2.1-2.1zm0 7.05l2.1-2.1 2.1 2.1-2.1 2.1-2.1-2.1zm0 7.05l2.1-2.1 2.1 2.1-2.1 2.1-2.1-2.1zm5.65 5.65l-2.1-2.1 2.1-2.1 2.1 2.1-2.1 2.1zm7.05 0l-2.1-2.1 2.1-2.1 2.1 2.1-2.1 2.1zm5.65-5.65l-2.1 2.1-2.1-2.1 2.1-2.1 2.1 2.1zm86.3 1.45l1.4-1.4-1.4-1.4-2.1-2.1 3.55-3.55-3.55-3.55 3.55-3.55-1.4-1.4-2.1-2.1 3.55-3.55-1.5-1.4-3.55 3.5-2.1-2.1-3.55-3.55 3.55-3.55-1.4-1.4-3.55 3.55-2.1-2.1-1.4-1.4-1.4 1.4-2.1 2.1-3.55-3.55-1.4 1.4 3.55 3.55-3.55 3.55 3.55 3.55L375.4 27l1.4 1.4 2.1 2.1-3.55 3.55 3.55 3.55-2.1 2.1-1.4 1.4 1.4 1.4 2.1 2.1-3.55 3.55 1.4 1.4L380.3 46l3.55 3.55 1.4-1.4-3.55-3.55 2.1-2.1 1.4-1.4-1.4-1.4-2.1-2.1 3.55-3.55-3.55-3.55 3.55-3.55-1.4-1.4-2.1-2.1 3.55-3.55 2.1-2.1 2.1 2.1 3.55 3.55L389.5 27l1.4 1.4 2.1 2.1-3.55 3.55L393 37.6l-2.1 2.1-1.4 1.4 1.4 1.4 2.1 2.1-3.55 3.55 1.4 1.4L394.4 46l3.55 3.55 1.4-1.4-3.55-3.55 2.1-2.1h.05zm-15.55-1.4l-2.1 2.1-2.1-2.1 2.1-2.1 2.1 2.1zm0-7.05l-2.1 2.1-2.1-2.1 2.1-2.1 2.1 2.1zm0-7.05l-2.1 2.1-2.1-2.1 2.1-2.1 2.1 2.1zm-4.25-7.05l2.1-2.1 2.1 2.1-2.1 2.05-2.1-2.05zm5.65-1.4l-2.1-2.1 2.1-2.1 2.1 2.1-2.1 2.1zm8.5 8.5l2.1-2.1 2.1 2.1-2.1 2.1-2.1-2.1zm0 7.05l2.1-2.1 2.1 2.1-2.1 2.1-2.1-2.1zm2.1 9.2l-2.1-2.1 2.1-2.1 2.1 2.1-2.1 2.1zm-23.3-9.25l-3.55-3.55 3.55-3.55-1.4-1.4-2.1-2.1 3.55-3.55-3.55-3.55 3.55-3.55-1.4-1.4-3.55 3.55-3.55-3.55-3.55 3.55-2.1-2.1-1.5-1.45-1.4 1.4-2.1 2.15-3.55-3.55-1.4 1.4 3.55 3.55-3.55 3.55 3.55 3.55-3.55 3.55 1.4 1.4 2.1 2.1-3.55 3.55 3.55 3.55-2.1 2.1-1.4 1.4 1.4 1.4 2.1 2.1-3.55 3.55 1.4 1.4 3.55-3.55 3.55 3.55 1.4-1.4-3.55-3.55 2.15-2.1 1.4-1.4-1.4-1.4-2.1-2.1 3.55-3.55 2.1-2.1 2.1 2.1 3.55 3.55-2.1 2.1-1.4 1.4 1.4 1.4 2.1 2.1-3.55 3.55 1.4 1.4L366.1 46l3.55 3.55 1.4-1.4-3.55-3.55 2.1-2.1 1.4-1.4-1.4-1.4-2.1-2.1 3.6-3.55zM368.25 27l-2.1 2.1-2.15-2.15 2.1-2.1 2.15 2.15zm-11.3 0l-1.45-1.45-2.1-2.1 3.55-3.55 2.1-2.1 2.1 2.1 3.55 3.55-3.55 3.55-2.1 2.1-2.1-2.1zm11.3-7.05l-2.1 2.05-2.15-2.1 2.1-2.1 2.15 2.15zm-5.65-5.7l2.1 2.1-2.1 2.15-2.1-2.1 2.1-2.15zm-7.05 0l2.1 2.1-2.15 2.1-2.1-2.1 2.15-2.1zm-5.7 5.65l2.1-2.1 2.1 2.1L352 22l-2.15-2.1zm0 7.05l2.1-2.1 2.1 2.1L352 29.1l-2.15-2.15zm4.25 14.15l-2.1 2.15-2.1-2.1L352 39l2.1 2.1zm-4.25-7.05l2.1-2.1 2.1 2.1-2.05 2.1-2.15-2.1zm5.65-1.45l-2.1-2.1 2.1-2.1 2.1 2.1-2.1 2.1zm7.05-4.25l2.1 2.1-2.1 2.1-2.1-2.05 2.1-2.15zm1.45 5.7l2.1-2.1 2.1 2.1-2.1 2.1-2.1-2.1zm4.25 7.05l-2.1 2.1-2.15-2.1 2.1-2.1 2.15 2.1zm-135.7-7.05L229 30.5l3.55-3.55-1.4-1.4-2.15-2.1 3.55-3.55-3.55-3.55 3.55-3.55-1.4-1.4-3.55 3.55-3.55-3.55-3.55 3.55-2.1-2.1-1.4-1.45-1.4 1.4-2.1 2.1-3.55-3.55-1.45 1.45 3.55 3.55-3.55 3.55 3.55 3.55-3.55 3.5 1.4 1.4 2.1 2.1-3.5 3.6 3.55 3.55-2.1 2.1-1.45 1.4 1.4 1.4 2.1 2.1-3.5 3.6 1.4 1.4 3.55-3.55 2.1 2.1 1.4 1.4 1.4-1.4 2.1-2.1L224 49.6l3.55-3.55 3.55 3.55 1.4-1.4-3.5-3.55 2.1-2.1 1.4-1.4-1.4-1.4-2.1-2.2 3.55-3.5zm-2.85 0l-2.1 2.1-2.1-2.1 2.1-2.1 2.1 2.1zm-5.65 5.65l-3.55 3.55-2.1-2.1-1.4-1.45-2.1-2.1 3.55-3.55-3.55-3.55 3.55-3.55-1.45-1.4-2.1-2.1 3.55-3.55 2.1-2.1 2.1 2.1 3.55 3.55-3.55 3.55 1.4 1.4 2.1 2.1-3.55 3.55 3.55 3.55-2.1 2.1zm5.65-12.75l-2.1 2.1-2.1-2.1 2.1-2.1 2.1 2.1zm0-7.05l-2.1 2.1-2.1-2.1 2.1-2.1 2.1 2.1zm-5.65-5.65l2.1 2.1-2.1 2.15-2.1-2.1 2.1-2.15zm-7.05 0l2.1 2.1-2.1 2.15-2.1-2.1 2.1-2.15zm-5.65 5.65l2.1-2.1 2.1 2.1-2.1 2.1-2.1-2.1zm0 7.05l2.1-2.1 2.1 2.1-2.1 2.1-2.1-2.1zm0 7.05l2.1-2.1 2.1 2.1-2.1 2.1-2.1-2.1zm0 7.05l2.1-2.1 2.1 2.1-2.1 2.1-2.1-2.1zm5.65 5.7l-2.1-2.1 2.1-2.15 2.1 2.1-2.1 2.15zm7.05 0l-2.1-2.1 2.1-2.1 2.1 2.1-2.1 2.1zm5.65-5.65l-2.1 2.1-2.1-2.1 2.1-2.1 2.1 2.1zm-25.4-7.05l-3.55-3.55 3.55-3.55-1.4-1.4-2.1-2.1 3.55-3.55-1.5-1.4-3.5 3.5-2.1-2.1-3.55-3.55 3.55-3.55-1.4-1.4-3.55 3.55-2.1-2.1-1.4-1.4-1.4 1.4-2.1 2.1-3.55-3.55-1.4 1.4 3.55 3.55-3.55 3.55 3.55 3.55-3.55 3.55 1.4 1.4 2.1 2.1-3.55 3.55 3.55 3.55-2.1 2.1-1.4 1.4 1.4 1.4 2.1 2.1-3.55 3.55 1.4 1.4 3.55-3.55 3.55 3.55 1.4-1.4-3.55-3.55 2.1-2.1 1.4-1.4-1.4-1.4-2.1-2.1 3.55-3.55-3.6-3.55 3.55-3.55-1.4-1.4-2.1-2.1 3.55-3.55 2.1-2.1 2.1 2.1 3.55 3.55L194.4 27l1.4 1.4 2.1 2.1-3.55 3.55 3.55 3.55-2.1 2.1-1.4 1.4 1.4 1.4 2.1 2.1-3.55 3.55 1.4 1.4L199.3 46l3.55 3.55 1.4-1.4-3.55-3.55 2.1-2.1 1.4-1.4-1.4-1.4-2.1-2.1 3.6-3.55zm-17 7.05l-2.1 2.1-2.1-2.1 2.1-2.1 2.1 2.1zm0-7.05l-2.1 2.1-2.1-2.1 2.1-2.1 2.1 2.1zm0-7.05l-2.1 2.1-2.1-2.1 2.1-2.1 2.1 2.1zm-4.25-7.05l2.1-2.1 2.1 2.1L185.2 22l-2.15-2.05zm5.65-1.45l-2.1-2.1 2.1-2.1 2.1 2.1-2.1 2.1zm8.5 8.5l2.1-2.1 2.1 2.1-2.1 2.1-2.1-2.1zm0 7.05l2.1-2.1 2.1 2.1-2.1 2.1-2.1-2.1zm4.25 7.05l-2.1 2.1-2.1-2.1 2.1-2.1 2.1 2.1zm84.75-29.7l-3.55 3.55-3.55-3.55-3.55 3.55-2.05-2.15-1.4-1.4-1.4 1.4-2.1 2.1-3.6-3.5-1.4 1.4 3.55 3.55-3.55 3.55 1.4 1.4 3.55-3.55 2.1 2.1 3.55 3.55-3.55 3.55 1.4 1.4 2.1 2.1L270.6 34l3.55 3.55-2.1 2.1-1.4 1.4 1.4 1.4 2.1 2.1-3.55 3.55 1.4 1.4 3.55-3.55 3.55 3.55 1.4-1.4-3.5-3.45 2.1-2.1 1.4-1.4-1.4-1.4-2.1-2.2 3.55-3.55-3.55-3.5 3.55-3.55-1.4-1.4-2.15-2.1 3.55-3.55 2.1-2.1 3.55 3.55 1.4-1.4-3.55-3.55 3.55-3.55-1.4-1.45zm-16.25 4.95l2.1-2.1 2.1 2.1-2.1 2.15-2.1-2.15zm7.8 24.75l-2.1 2.1-2.15-2.1 2.1-2.1 2.15 2.1zm0-7.05l-2.1 2.1-2.15-2.1 2.1-2.1 2.15 2.1zm0-7.05l-2.1 2.1-2.15-2.15 2.1-2.1 2.15 2.15zm-4.25-7.1l2.1-2.1 2.1 2.1-2.1 2.1-2.1-2.1zm5.65-1.4L277 16.35l2.1-2.1 2.1 2.1-2.05 2.15zm-18.3 15.55l-3.55-3.55 3.55-3.55-1.4-1.4-3.55 3.55-3.55-3.55-3.55 3.55-2.1-2.1-3.55-3.55 3.55-3.55 2.1-2.1 3.55 3.55 3.55-3.55 3.55 3.55 1.4-1.4-3.55-3.55 3.55-3.55-1.4-1.4L255.9 15l-3.55-3.55L248.8 15l-2.1-2.1-1.4-1.4-1.4 1.4-2.1 2.1-3.55-3.55-1.4 1.4 3.55 3.55-3.55 3.55 3.55 3.55-3.55 3.55 1.4 1.4 2.1 2.1-3.55 3.55 1.4 1.4 3.55-3.55 2.1 2.1 1.4 1.4 1.4-1.4 2.1-2.1 2.1 2.1 3.55 3.55-2.1 2.1-3.55 3.55-2.1-2.1-1.4-1.4-1.4 1.4-2.1 2.1-3.55-3.55-1.4 1.4 3.55 3.55-3.55 3.55 1.4 1.4 3.55-3.55 2.1 2.1 1.4 1.4 1.4-1.4 2.1-2.1 3.55 3.55 3.55-3.55 3.55 3.55 1.4-1.4-3.55-3.55 2.1-2.1 1.4-1.4-1.4-1.4-2.1-2.1 3.6-3.6zm-8.5-19.8l2.1 2.1-2.1 2.15-2.1-2.1 2.1-2.15zm-7.05 0l2.1 2.1-2.1 2.15-2.1-2.1 2.1-2.15zm-5.65 5.65l2.1-2.1 2.1 2.1-2.1 2.1-2.1-2.1zm0 7.05l2.1-2.1 2.1 2.1-2.1 2.1-2.1-2.1zm5.65 5.65l-2.15-2.1 2.1-2.1 2.1 2.1-2.05 2.1zm7.05-4.25l2.15 2.15-2.1 2.1-2.15-2.1 2.1-2.15zm1.4 5.65l2.1-2.1 2.1 2.1-2.1 2.1-2.1-2.1zm-8.5 12.75l-2.1-2.1 2.1-2.1 2.1 2.1-2.1 2.1zm7.05 0l-2.1-2.1 2.1-2.1 2.1 2.1-2.1 2.1zm5.7-5.65l-2.1 2.1-2.1-2.1 2.1-2.1 2.1 2.1zm-138.6-7.05l-3.5-3.55 3.55-3.55-1.45-1.4-2.1-2.1 3.55-3.55-3.55-3.55 3.55-3.55-1.45-1.4-3.55 3.55-3.55-3.55-3.55 3.55-2.1-2.1-1.4-1.4-1.4 1.4-2.1 2.1-3.55-3.55-1.4 1.4 3.55 3.55-3.55 3.55 3.55 3.55L95.4 27l1.4 1.4 2.1 2.1-3.55 3.55 3.55 3.55-2.1 2.1-1.4 1.4 1.4 1.4 2.1 2.1-3.55 3.55 1.4 1.4L100.3 46l3.55 3.55 1.4-1.4-3.55-3.55 2.1-2.1 1.4-1.4-1.4-1.4-2.1-2.1 3.55-3.55 2.1-2.1 2.1 2.1L113 37.6l-2.1 2.1-1.4 1.4 1.4 1.4 2.1 2.1-3.5 3.6 1.4 1.4 3.55-3.55L118 49.6l1.4-1.4-3.55-3.55L118 42.5l1.4-1.4-1.4-1.4-2.1-2.1 3.5-3.55zM116.55 27l-2.1 2.1-2.1-2.1 2.1-2.1 2.1 2.1zm-12.75-1.4l-2.1-2.1 3.55-3.55 2.1-2.1 2.1 2.1L113 23.5l-3.5 3.45-2.1 2.1-2.1-2.1-1.5-1.35zm12.75-5.65l-2.1 2.05-2.1-2.1 2.1-2.1 2.1 2.15zm-5.6-5.7l2.1 2.1-2.1 2.15-2.1-2.1 2.1-2.15zm-7.05 0l2.1 2.1-2.15 2.15-2.1-2.1 2.15-2.15zm-5.7 5.65l2.1-2.1 2.1 2.1-2.05 2.1-2.15-2.1zm0 7.05l2.1-2.1 2.1 2.1-2.1 2.1-2.1-2.1zm4.25 14.15l-2.1 2.1-2.1-2.1 2.1-2.1 2.1 2.1zm-4.25-7.05l2.1-2.1 2.1 2.1-2.1 2.1-2.1-2.1zm5.65-1.4l-2.1-2.15 2.1-2.1 2.15 2.1-2.15 2.15zm7.05-4.25l2.1 2.1-2.1 2.1-2.1-2.1 2.1-2.1zm1.4 5.65l2.1-2.1 2.1 2.1-2 2.1-2.2-2.1zm4.25 7.05l-2.1 2.1-2.1-2.1 2.15-2.1 2.05 2.1zM89.7 39.7l-3.55 3.55-3.55-3.55-3.55 3.55L77 41.1l-1.4-1.4-2.1-2.1 3.55-3.55-3.6-3.55L77 26.95l-1.4-1.4-2.1-2.1 3.55-3.55 2.1-2.1 3.55 3.55 3.55-3.55 3.55 3.55 1.4-1.4-3.55-3.55 3.55-3.55-1.4-1.4L86.25 15l-3.55-3.55L79.15 15 77 12.8l-1.4-1.4-1.4 1.4-2.1 2.1-3.6-3.5-1.4 1.4 3.55 3.55-3.55 3.55 3.55 3.55L67.1 27l1.4 1.4 2.1 2.1-3.55 3.55 3.55 3.55-2.1 2.1-1.4 1.4 1.4 1.4 2.1 2.1-3.55 3.55 1.4 1.4L72 46l2.1 2.1 1.4 1.4 1.4-1.4L79 46l3.55 3.55L86.1 46l3.55 3.55 1.4-1.4-3.55-3.55 3.55-3.55-1.35-1.35zm-7.05-25.45l2.1 2.1-2.1 2.15-2.1-2.1 2.1-2.15zm-7.05 0l2.1 2.1-2.1 2.15-2.1-2.1 2.1-2.15zm-5.65 5.65l2.1-2.1 2.1 2.1-2.1 2.1-2.1-2.1zm0 7.05l2.1-2.1 2.1 2.1-2.1 2.1-2.1-2.1zm0 7.05l2.1-2.1 2.1 2.1-2.1 2.1-2.1-2.1zm0 7.05l2.1-2.1 2.1 2.1-2.1 2.1-2.1-2.1zm5.65 5.65l-2.1-2.1 2.1-2.1 2.1 2.1-2.1 2.1zm7.05 0l-2.1-2.1 2.1-2.1 2.1 2.1-2.1 2.1zm91.95-7l-3.55 3.55-3.55-3.55-2.1-2.1 3.55-3.55-3.55-3.55 3.55-3.55-1.45-1.4-2.1-2.1 3.55-3.55 2.1-2.1 3.55 3.55 1.4-1.4-3.55-3.55 3.55-3.55-1.4-1.4-3.55 3.55-3.55-3.6-3.55 3.55-2.1-2.1-1.4-1.4L159 12.8l-2.1 2.1-3.55-3.55-1.4 1.4 3.55 3.55-3.55 3.55 1.4 1.4 3.55-3.55 2.1 2.1 3.55 3.55-3.55 3.6 1.4 1.4 2.1 2.1-3.5 3.6 3.55 3.55-2.1 2.1-1.45 1.4-2.1 2.1-3.55-3.55-1.4 1.4 3.55 3.55-3.55 3.55 1.4 1.4L156.9 46l2.1 2.1 1.4 1.4 1.4-1.4 2.1-2.1 3.55 3.55L171 46l3.55 3.55 1.4-1.4-3.55-3.55 3.55-3.55-1.35-1.35zm-7.1-25.45l2.1 2.1-2.1 2.15-2.1-2.1 2.1-2.15zm-9.2 2.1l2.1-2.1 2.1 2.1-2.05 2.15-2.15-2.15zm3.55 3.55l2.1-2.1 2.1 2.1-2.1 2.1-2.1-2.1zm0 7.05l2.1-2.1 2.1 2.1-2.1 2.1-2.1-2.1zm0 7.05l2.1-2.1 2.1 2.1-2.1 2.1-2.1-2.1zm4.25 7.05l-2.1 2.1-2.1-2.1 2.1-2.1 2.1 2.1zm-5.65 5.7l-2.1-2.1 2.1-2.1 2.1 2.1-2.1 2.1zm7.05 0l-2.1-2.1 2.1-2.15 2.1 2.1-2.1 2.15zm-19.8-12.7l-3.55-3.55 3.55-3.55-1.4-1.4-3.55 3.55-3.55-3.55-3.55 3.55-2.1-2.1-1.4-1.4-2.1-2.1 3.55-3.55 2.1-2.1 3.55 3.55 3.55-3.55 3.55 3.55 1.4-1.4-3.55-3.55 3.55-3.55-1.4-1.4-3.55 3.55-3.55-3.55-3.55 3.55-2.1-2.1-1.4-1.4-1.4 1.4-2.1 2.1-3.55-3.55-1.4 1.4 3.55 3.55-3.55 3.55 3.55 3.55-3.55 3.55 1.4 1.4 2.1 2.1-3.55 3.55 1.4 1.4 3.55-3.55 2.1 2.1 1.4 1.4 1.4-1.4 2.1-2.1 2.1 2.1 3.55 3.55-2.1 2.1-3.55 3.55-2.1-2.1-1.4-1.4-1.4 1.4-2.1 2.1-3.55-3.55-1.4 1.4 3.55 3.55-3.55 3.55 1.4 1.4 3.55-3.55 2.1 2.1 1.4 1.4 1.4-1.4 2.1-2.1 3.55 3.55 3.55-3.55 3.55 3.55 1.4-1.4-3.55-3.55 2.1-2.1 1.4-1.4-1.4-1.4-2.1-2.1 3.55-3.65zm-8.5-19.8l2.1 2.1-2.1 2.15-2.1-2.1 2.1-2.15zm-7.05 0l2.1 2.1-2.1 2.15-2.1-2.1 2.1-2.15zm-5.65 5.65l2.1-2.1 2.1 2.1-2.1 2.1-2.1-2.1zm0 7.05l2.1-2.1 2.1 2.1-2.1 2.1-2.1-2.1zm5.65 5.65l-2.1-2.1 2.1-2.1 2.1 2.1-2.1 2.1zm7.05-4.25l2.1 2.1-2.1 2.1-2.1-2.05 2.1-2.15zm1.4 5.65l2.1-2.1 2.1 2.1-2.1 2.1-2.1-2.1zm-8.5 12.75l-2.1-2.1 2.1-2.1 2.1 2.1-2.1 2.1zm7.05 0l-2.1-2.1 2.1-2.1 2.1 2.1-2.1 2.1zm5.65-5.65l-2.1 2.1-2.1-2.1 2.1-2.1 2.1 2.1z"></path><path fill="#5c6c2f" d="M55.8 42.5l1.4-1.4-1.4-1.4-2.1-2.1 3.55-3.55-3.55-3.55 3.55-3.55-1.4-1.4-3.55 3.55-3.55-3.55-2.1-2.1 3.55-3.55-1.45-1.4L45.2 22l-2.1-2.1-3.55-3.55 3.55-3.55-1.4-1.4-3.55 3.55-3.55-3.55-1.4 1.4 3.55 3.55-3.55 3.55-2.15 2.1-3.5-3.5-1.4 1.4 3.55 3.55L26.15 27 24 29.1l-3.55-3.55-1.4 1.4 3.55 3.55-3.55 3.55 3.55 3.55-2.1 2.1-1.4 1.4 1.35 1.4 2.1 2.1L19 48.15l1.4 1.4 3.6-3.5 3.55 3.55 3.55-3.55 3.55 3.55 3.55-3.55 3.55 3.55 1.4-1.4-3.55-3.55 2.1-2.15 1.4-1.4-1.4-1.4-2.1-2.1 3.55-3.55 2.1-2.1 2.1 2.1 3.55 3.55-2.1 2.1-1.4 1.4 1.35 1.4 2.1 2.1-3.55 3.55 1.4 1.4L52.25 46l3.55 3.55 1.4-1.4-3.55-3.55 2.1-2.1h.05zm-8.5-15.55l-2.1 2.1-2.1-2.1 2.1-2.1 2.1 2.1zM34.6 39.7l-3.55 3.55-3.55-3.55-2.1-2.1 3.55-3.55 2.1-2.1 2.1 2.1 3.55 3.55-2.1 2.1zm0-7.05l-2.1-2.15 2.1-2.1 2.15 2.1-2.15 2.15zm1.4-5.7l2.1-2.1 2.1 2.1-2.1 2.1-2.1-2.1zm7.8-3.55l-2.1 2.1-2.1-2.1 2.1-2.1 2.1 2.1zm-3.55-3.55L38.15 22 36 19.9l2.1-2.1 2.15 2.05zM34.6 21.3l2.1 2.1-2.1 2.1-2.1-2.05 2.1-2.15zm-1.4 5.65l-2.1 2.1-2.1-2.1 2.1-2.1 2.1 2.1zm-5.65 1.45l2.1 2.1-2.1 2.1-2.15-2.1 2.15-2.1zm-5.65 5.65L24 31.9l2.1 2.1-2.1 2.15-2.1-2.1zm0 7.05L24 39l2.1 2.1-2.1 2.15-2.1-2.15zm5.65 5.65l-2.1-2.1 2.1-2.15 2.1 2.1-2.1 2.15zm7.05 0l-2.1-2.1 2.1-2.15 2.1 2.1-2.1 2.15zm5.65-5.65l-2.1 2.1L36 41.1l2.15-2.1 2.1 2.1zM36 34.05l2.1-2.1 2.1 2.1-2.1 2.1-2.1-2.1zm5.65-1.4l-2.1-2.15 2.1-2.1 2.15 2.1-2.15 2.15zm7.05-4.25l2.1 2.1-2.1 2.1-2.05-2.1 2.05-2.1zm1.4 5.65l2.1-2.1 2.1 2.1-2.1 2.1-2.1-2.1zm2.1 9.2l-2.1-2.1 2.1-2.1 2.1 2.1-2.1 2.1z"></path></svg>