<svg xmlns="http://www.w3.org/2000/svg" style="background-color:#329cd2;" xmlns:xlink="http://www.w3.org/1999/xlink" viewBox="-5 0 278.6 50.34"><defs><style>.cls-1{fill:none;}.cls-2{clip-path:url(#clip-path);}.cls-3{fill:#fff;}.cls-3,.cls-4{fill-rule:evenodd;}.cls-4{fill:#fff;}</style><clipPath id="clip-path" transform="translate(-0.43 -0.59)"><rect class="cls-1" width="269.65" height="51.51"/></clipPath></defs><title>OnLightBackgrounds</title><g id="Layer_2" data-name="Layer 2"><g id="Layer_1-2" data-name="Layer 1"><g id="OnLightBackgrounds"><g class="cls-2"><g id="OnLightBackgrounds-2" data-name="OnLightBackgrounds"><g id="Door"><path class="cls-3" d="M73.18.59a19.26,19.26,0,0,0-17.85,12.1,19.22,19.22,0,0,0-35.65-.12A19.26,19.26,0,0,0,1.87.59H.43V50.92H74.61V.59ZM53.85,48.06H21.11V19.83a16.37,16.37,0,1,1,32.74,0Z" transform="translate(-0.43 -0.59)"/></g><g id="Casino_Room" data-name="Casino Room"><path class="cls-4" d="M97.72,34.79c-1.18,0-2.15,1.21-4.56,1.21-3.53,0-5.39-2.93-5.39-6.34s1.84-6.51,5.39-6.51c2.41,0,3.21,1,4.39,1a1.82,1.82,0,0,0,1.78-1.92c0-2.52-4.08-3.21-6.17-3.21-5.85,0-9.87,4.59-9.87,10.56s4,10.56,9.87,10.56c2.12,0,6.46-.63,6.46-3.39A2,2,0,0,0,97.72,34.79Zm14.77-13.4A3.25,3.25,0,0,0,109.42,19a3.37,3.37,0,0,0-3.07,2.38L100.58,37a2.47,2.47,0,0,0-.2.95,2.06,2.06,0,0,0,2.12,2,2,2,0,0,0,2.07-1.52l.86-2.67h8l.86,2.7A2,2,0,0,0,116.37,40a1.91,1.91,0,0,0,2-1.89,3.37,3.37,0,0,0-.23-1.06Zm-5.83,10.42,2.73-8.32h.06l2.67,8.32Zm17-6.8c0-1.21,1.12-1.86,2.35-1.86,1.72,0,2.64.86,3.82.86a2,2,0,0,0,1.92-2.12c0-2.27-4-2.87-5.62-2.87-3.82,0-7.12,2.5-7.12,6.51,0,6.66,9.58,4.62,9.58,8,0,1.41-1,2.47-2.93,2.47s-3.47-1.12-4.82-1.12a1.92,1.92,0,0,0-1.92,2c0,2.7,4.76,3.21,7,3.21,4,0,7.35-2.56,7.35-6.66C133.26,26.07,123.68,28,123.68,25Zm13.57-5.82a2.06,2.06,0,0,0-2.15,2.24v16.3a2.15,2.15,0,1,0,4.3,0V21.42A2.06,2.06,0,0,0,137.25,19.18Zm19.83,0a2.06,2.06,0,0,0-2.15,2.24V32.27h-.06l-9.1-12.14a2.68,2.68,0,0,0-1.81-.95,2.06,2.06,0,0,0-2.15,2.24v16.3a2.15,2.15,0,1,0,4.3,0V27h.06l9.1,12a2.75,2.75,0,0,0,1.81.95,2.06,2.06,0,0,0,2.15-2.24V21.42A2.06,2.06,0,0,0,157.08,19.18ZM170.7,19c-5.85,0-9.87,4.59-9.87,10.56s4,10.56,9.87,10.56,9.87-4.62,9.87-10.56S176.47,19,170.7,19Zm0,17.16c-3.64,0-5.4-3.1-5.4-6.6s1.81-6.6,5.4-6.6,5.39,3.13,5.39,6.6S174.35,36.17,170.7,36.17Zm27-4.91c2.93-.46,5.31-2.27,5.31-5.42,0-4.51-2.73-6.48-7.15-6.48h-5a2,2,0,0,0-2.21,2.24V37.72a2.15,2.15,0,1,0,4.3,0V31.49H193l6.37,7.72a2.18,2.18,0,0,0,3.82-1.46,1.86,1.86,0,0,0-.57-1.26ZM192.9,28.4V23.32h3a2.41,2.41,0,0,1,2.67,2.52,2.44,2.44,0,0,1-2.67,2.55ZM214.33,19c-5.86,0-9.87,4.59-9.87,10.56s4,10.56,9.87,10.56,9.87-4.62,9.87-10.56S220.1,19,214.33,19Zm0,17.16c-3.65,0-5.4-3.1-5.4-6.6s1.81-6.6,5.4-6.6,5.39,3.13,5.39,6.6S218,36.17,214.33,36.17ZM235,19c-5.85,0-9.87,4.59-9.87,10.56s4,10.56,9.87,10.56,9.87-4.62,9.87-10.56S240.81,19,235,19Zm0,17.16c-3.65,0-5.4-3.1-5.4-6.6S231.46,23,235,23s5.4,3.13,5.4,6.6S238.69,36.17,235,36.17Zm34,1.23-2.67-16a2.88,2.88,0,0,0-2.81-2.21,3.06,3.06,0,0,0-2.87,2.07l-3.39,11.36h-.06l-3.39-11.36A3.06,3.06,0,0,0,251,19.18a2.88,2.88,0,0,0-2.81,2.21l-2.67,16a2.89,2.89,0,0,0,0,.49A2,2,0,0,0,247.52,40c1.46,0,2-.66,2.24-2l1.69-11.68h.06l3.44,12a2.42,2.42,0,0,0,4.59,0l3.44-12H263L264.73,38c.2,1.35.78,2,2.24,2A2,2,0,0,0,269,37.89,2.89,2.89,0,0,0,269,37.41Z" transform="translate(-0.43 -0.59)"/></g></g></g></g></g></g></svg>