<svg xmlns="http://www.w3.org/2000/svg" xmlns:xlink="http://www.w3.org/1999/xlink" viewBox="0 0 116 57" version="1.1"><!-- Generator: Sketch 52.2 (67145) - http://www.bohemiancoding.com/sketch --><title>Group 10</title><desc>Created with Sketch.</desc><g id="DESIGN-THE-CHOSEN-ONE" stroke="none" stroke-width="1" fill="none" fill-rule="evenodd"><g id="DESKTOP-/-HOME-/-WELCOME-OFFER-Copy" transform="translate(-77.000000, -52.000000)"><g id="Group-8" transform="translate(20.000000, 20.000000)"><g id="Group-6"><g id="Group-5"><g id="Group-10" transform="translate(56.000000, 32.000000)"><path d="M8.59199983,56.24 C6.30398843,56.24 4.50800643,55.6880055 3.20399994,54.584 C1.89999344,53.4799945 1.20800038,51.8640107 1.12799998,49.7360001 C1.1119999,49.303998 1.10399998,48.600005 1.10399998,47.6240002 C1.10399998,46.6319952 1.1119999,45.9120024 1.12799998,45.4640002 C1.20800038,43.3839899 1.90799336,41.7800059 3.22799994,40.6520003 C4.54800651,39.5239947 6.33598859,38.9600003 8.59199983,38.9600003 C10.0160069,38.9600003 11.2919941,39.191998 12.4199998,39.6560003 C13.5480054,40.1200026 14.4399964,40.7919959 15.0959997,41.6720003 C15.752003,42.5520047 16.0959995,43.5919942 16.1279997,44.7920002 C16.1279997,44.9360009 16.0760002,45.0559997 15.9719997,45.1520002 C15.8679992,45.2480007 15.7440004,45.2960002 15.5999997,45.2960002 L12.1919998,45.2960002 C11.9679986,45.2960002 11.8040003,45.2520007 11.6999998,45.1640002 C11.5959992,45.0759998 11.5040002,44.9120014 11.4239998,44.6720002 C11.1999987,43.8879963 10.8600021,43.3400018 10.4039998,43.0280003 C9.94799752,42.7159987 9.34400357,42.5600003 8.59199983,42.5600003 C6.78399083,42.5600003 5.8480002,43.5679902 5.78399989,45.5840002 C5.76799981,46.0160024 5.75999989,46.6799957 5.75999989,47.5760002 C5.75999989,48.4720046 5.76799981,49.1519978 5.78399989,49.6160001 C5.8480002,51.6320102 6.78399083,52.6400001 8.59199983,52.6400001 C9.32800349,52.6400001 9.93199744,52.4800017 10.4039998,52.1600001 C10.8760021,51.8399985 11.2159987,51.2960039 11.4239998,50.5280001 C11.4880001,50.2879989 11.5759992,50.1240006 11.6879998,50.0360001 C11.8000003,49.9479997 11.9679986,49.9040001 12.1919998,49.9040001 L15.5999997,49.9040001 C15.7440004,49.9040001 15.8679992,49.9519996 15.9719997,50.0480001 C16.0760002,50.1440006 16.1279997,50.2639994 16.1279997,50.4080001 C16.0959995,51.6080061 15.752003,52.6479957 15.0959997,53.528 C14.4399964,54.4080044 13.5480054,55.0799977 12.4199998,55.544 C11.2919941,56.0080023 10.0160069,56.24 8.59199983,56.24 Z M21.9359996,56.24 C21.0879953,56.24 20.3160031,56.0760016 19.6199996,55.748 C18.9239961,55.4199984 18.3800016,54.9680029 17.9879996,54.392 C17.5959977,53.8159972 17.3999997,53.1840035 17.3999997,52.4960001 C17.3999997,51.4079947 17.8519951,50.5240035 18.7559996,49.8440001 C19.6600041,49.1639967 20.9039917,48.6960014 22.4879996,48.4400002 L25.4639995,47.9840002 L25.4639995,47.6960002 C25.4639995,47.1039972 25.3440007,46.6720015 25.1039995,46.4000002 C24.8639983,46.1279988 24.4560024,45.9920002 23.8799995,45.9920002 C23.5599979,45.9920002 23.2920006,46.0479996 23.0759995,46.1600002 C22.8599985,46.2720008 22.6160009,46.4399991 22.3439996,46.6640002 C22.1359985,46.8400011 21.9520004,46.9679998 21.7919996,47.0480002 C21.7279992,47.1600007 21.648,47.2160002 21.5519996,47.2160002 L18.7679996,47.2160002 C18.6079988,47.2160002 18.4760002,47.1640007 18.3719996,47.0600002 C18.2679991,46.9559997 18.2239996,46.8320009 18.2399996,46.6880002 C18.2559997,46.255998 18.4719976,45.7720029 18.8879996,45.2360002 C19.3040017,44.6999975 19.9359954,44.2400022 20.7839996,43.8560002 C21.6320038,43.4719983 22.6799933,43.2800003 23.9279995,43.2800003 C25.9120094,43.2800003 27.3839947,43.7159959 28.3439994,44.5880002 C29.3040042,45.4600046 29.7839994,46.6399927 29.7839994,48.1280002 L29.7839994,55.4 C29.7839994,55.5600008 29.728,55.6999994 29.6159994,55.82 C29.5039989,55.9400006 29.3600003,56 29.1839994,56 L26.2319995,56 C26.0719987,56 25.9320001,55.9400006 25.8119995,55.82 C25.6919989,55.6999994 25.6319995,55.5600008 25.6319995,55.4 L25.6319995,54.56 C25.2799977,55.0560025 24.7920026,55.4599985 24.1679995,55.772 C23.5439964,56.0840016 22.8000039,56.24 21.9359996,56.24 Z M23.1359995,53.4080001 C23.840003,53.4080001 24.4119973,53.1760024 24.8519995,52.7120001 C25.2920017,52.2479978 25.5119995,51.5760045 25.5119995,50.6960001 L25.5119995,50.4080001 L23.5199995,50.7440001 C22.1759928,51.0000014 21.5039996,51.4799966 21.5039996,52.1840001 C21.5039996,52.5520019 21.659998,52.8479989 21.9719996,53.0720001 C22.2840011,53.2960012 22.6719972,53.4080001 23.1359995,53.4080001 Z M37.4879992,56.24 C36.1759927,56.24 35.0800037,56.0560018 34.1999993,55.688 C33.3199949,55.3199982 32.6680015,54.8800026 32.2439994,54.368 C31.8199972,53.8559975 31.6079994,53.3920021 31.6079994,52.9760001 C31.6079994,52.8159993 31.6679988,52.6840006 31.7879994,52.5800001 C31.908,52.4759996 32.0399986,52.4240001 32.1839994,52.4240001 L35.0879993,52.4240001 C35.1839998,52.4240001 35.263999,52.4559998 35.3279993,52.5200001 C35.6000006,52.6960009 35.7519991,52.7999999 35.7839993,52.8320001 C36.0880008,53.0560012 36.371998,53.2279995 36.6359993,53.3480001 C36.9000006,53.4680007 37.2159974,53.528 37.5839992,53.528 C38.0160014,53.528 38.3719978,53.4440009 38.6519992,53.2760001 C38.9320006,53.1079992 39.0719992,52.8720016 39.0719992,52.5680001 C39.0719992,52.3119988 38.996,52.1040009 38.8439992,51.9440001 C38.6919985,51.7839993 38.4040014,51.6280008 37.9799992,51.4760001 C37.5559971,51.3239993 36.9120036,51.1680009 36.0479993,51.0080001 C33.2799855,50.4479973 31.8959994,49.1680101 31.8959994,47.1680002 C31.8959994,46.5119969 32.1079972,45.8840032 32.5319993,45.2840002 C32.9560015,44.6839972 33.5799952,44.2000021 34.4039993,43.8320002 C35.2280034,43.4639984 36.2159935,43.2800003 37.3679993,43.2800003 C38.5360051,43.2800003 39.5479949,43.4599984 40.4039992,43.8200002 C41.2600035,44.180002 41.9119969,44.6119977 42.3599992,45.1160002 C42.8080014,45.6200027 43.0319991,46.0799981 43.0319991,46.4960002 C43.0319991,46.6400009 42.9799997,46.7679996 42.8759991,46.8800002 C42.7719986,46.9920007 42.6479999,47.0480002 42.5039991,47.0480002 L39.8639992,47.0480002 C39.7199985,47.0480002 39.6079996,47.0160005 39.5279992,46.9520002 C39.3359983,46.8559997 39.1440002,46.7360009 38.9519992,46.5920002 C38.6639978,46.3999992 38.4120003,46.2520007 38.1959992,46.1480002 C37.9799982,46.0439997 37.7040009,45.9920002 37.3679993,45.9920002 C36.9679973,45.9920002 36.6560004,46.0799993 36.4319993,46.2560002 C36.2079982,46.4320011 36.0959993,46.6559988 36.0959993,46.9280002 C36.0959993,47.1680014 36.1639986,47.3639994 36.2999993,47.5160002 C36.436,47.6680009 36.7159971,47.8159994 37.1399993,47.9600002 C37.5640014,48.1040009 38.2079949,48.2559994 39.0719992,48.4160002 C40.640007,48.6880015 41.7799956,49.1719967 42.4919992,49.8680001 C43.2040027,50.5640036 43.5599991,51.3759955 43.5599991,52.3040001 C43.5599991,53.504006 43.0280045,54.4599965 41.9639992,55.172 C40.8999939,55.8840036 39.4080088,56.24 37.4879992,56.24 Z M46.0799991,41.7920003 C45.9039982,41.7920003 45.7599996,41.7320009 45.6479991,41.6120003 C45.5359985,41.4919997 45.4799991,41.3440012 45.4799991,41.1680003 L45.4799991,38.9360003 C45.4799991,38.7599995 45.5399985,38.6120009 45.6599991,38.4920003 C45.7799997,38.3719998 45.9199983,38.3120004 46.0799991,38.3120004 L49.079999,38.3120004 C49.2559999,38.3120004 49.4039984,38.3719998 49.523999,38.4920003 C49.6439996,38.6120009 49.703999,38.7599995 49.703999,38.9360003 L49.703999,41.1680003 C49.703999,41.3440012 49.6439996,41.4919997 49.523999,41.6120003 C49.4039984,41.7320009 49.2559999,41.7920003 49.079999,41.7920003 L46.0799991,41.7920003 Z M46.0799991,56 C45.9199983,56 45.7799997,55.9400006 45.6599991,55.82 C45.5399985,55.6999994 45.4799991,55.5600008 45.4799991,55.4 L45.4799991,44.1200002 C45.4799991,43.9439994 45.5399985,43.8000008 45.6599991,43.6880002 C45.7799997,43.5759997 45.9199983,43.5200002 46.0799991,43.5200002 L49.079999,43.5200002 C49.2559999,43.5200002 49.4039984,43.5759997 49.523999,43.6880002 C49.6439996,43.8000008 49.703999,43.9439994 49.703999,44.1200002 L49.703999,55.4 C49.703999,55.5760009 49.6439996,55.7199994 49.523999,55.832 C49.4039984,55.9440006 49.2559999,56 49.079999,56 L46.0799991,56 Z M52.9199989,56 C52.7439981,56 52.5959995,55.9440006 52.4759989,55.832 C52.3559983,55.7199994 52.2959989,55.5760009 52.2959989,55.4 L52.2959989,39.5600003 C52.2959989,39.3839995 52.3559983,39.2400009 52.4759989,39.1280003 C52.5959995,39.0159998 52.7439981,38.9600003 52.9199989,38.9600003 L55.9199989,38.9600003 C56.0959998,38.9600003 56.2399983,39.0159998 56.3519989,39.1280003 C56.4639994,39.2400009 56.5199989,39.3839995 56.5199989,39.5600003 L56.5199989,55.4 C56.5199989,55.5600008 56.4639994,55.6999994 56.3519989,55.82 C56.2399983,55.9400006 56.0959998,56 55.9199989,56 L52.9199989,56 Z M62.8799987,56.24 C62.0319945,56.24 61.2600022,56.0760016 60.5639988,55.748 C59.8679953,55.4199984 59.3240008,54.9680029 58.9319988,54.392 C58.5399969,53.8159972 58.3439988,53.1840035 58.3439988,52.4960001 C58.3439988,51.4079947 58.7959943,50.5240035 59.6999988,49.8440001 C60.6040033,49.1639967 61.8479908,48.6960014 63.4319987,48.4400002 L66.4079987,47.9840002 L66.4079987,47.6960002 C66.4079987,47.1039972 66.2879999,46.6720015 66.0479987,46.4000002 C65.8079975,46.1279988 65.4000016,45.9920002 64.8239987,45.9920002 C64.5039971,45.9920002 64.2359998,46.0479996 64.0199987,46.1600002 C63.8039976,46.2720008 63.5600001,46.4399991 63.2879987,46.6640002 C63.0799977,46.8400011 62.8959995,46.9679998 62.7359987,47.0480002 C62.6719984,47.1600007 62.5919992,47.2160002 62.4959987,47.2160002 L59.7119988,47.2160002 C59.551998,47.2160002 59.4199993,47.1640007 59.3159988,47.0600002 C59.2119983,46.9559997 59.1679987,46.8320009 59.1839988,46.6880002 C59.1999989,46.255998 59.4159967,45.7720029 59.8319988,45.2360002 C60.2480009,44.6999975 60.8799945,44.2400022 61.7279988,43.8560002 C62.576003,43.4719983 63.6239925,43.2800003 64.8719987,43.2800003 C66.8560086,43.2800003 68.3279938,43.7159959 69.2879986,44.5880002 C70.2480034,45.4600046 70.7279986,46.6399927 70.7279986,48.1280002 L70.7279986,55.4 C70.7279986,55.5600008 70.6719991,55.6999994 70.5599986,55.82 C70.447998,55.9400006 70.3039995,56 70.1279986,56 L67.1759987,56 C67.0159979,56 66.8759993,55.9400006 66.7559987,55.82 C66.6359981,55.6999994 66.5759987,55.5600008 66.5759987,55.4 L66.5759987,54.56 C66.2239969,55.0560025 65.7360018,55.4599985 65.1119987,55.772 C64.4879956,56.0840016 63.744003,56.24 62.8799987,56.24 Z M64.0799987,53.4080001 C64.7840022,53.4080001 65.3559965,53.1760024 65.7959987,52.7120001 C66.2360009,52.2479978 66.4559987,51.5760045 66.4559987,50.6960001 L66.4559987,50.4080001 L64.4639987,50.7440001 C63.119992,51.0000014 62.4479987,51.4799966 62.4479987,52.1840001 C62.4479987,52.5520019 62.6039972,52.8479989 62.9159987,53.0720001 C63.2280003,53.2960012 63.6159964,53.4080001 64.0799987,53.4080001 Z M73.7999985,56 C73.6399977,56 73.4999991,55.9400006 73.3799985,55.82 C73.2599979,55.6999994 73.1999985,55.5600008 73.1999985,55.4 L73.1999985,44.1200002 C73.1999985,43.9439994 73.2599979,43.8000008 73.3799985,43.6880002 C73.4999991,43.5759997 73.6399977,43.5200002 73.7999985,43.5200002 L76.7519985,43.5200002 C76.9279993,43.5200002 77.0719979,43.5759997 77.1839984,43.6880002 C77.295999,43.8000008 77.3519984,43.9439994 77.3519984,44.1200002 L77.3519984,45.0320002 C77.7840006,44.5039976 78.339995,44.0800018 79.0199984,43.7600002 C79.7000018,43.4399986 80.479994,43.2800003 81.3599984,43.2800003 C82.2720029,43.2800003 83.0839948,43.4879982 83.7959983,43.9040002 C84.5080019,44.3200023 85.0679963,44.9359961 85.4759983,45.7520002 C85.8840003,46.5680043 86.0879983,47.5519944 86.0879983,48.7040001 L86.0879983,55.4 C86.0879983,55.5600008 86.0319988,55.6999994 85.9199983,55.82 C85.8079977,55.9400006 85.6639992,56 85.4879983,56 L82.2959983,56 C82.1199975,56 81.971999,55.9440006 81.8519984,55.832 C81.7319978,55.7199994 81.6719984,55.5760009 81.6719984,55.4 L81.6719984,48.8480001 C81.6719984,48.1279966 81.5000001,47.5760021 81.1559984,47.1920002 C80.8119967,46.8079983 80.3120017,46.6160002 79.6559984,46.6160002 C79.0159952,46.6160002 78.5120003,46.8119982 78.1439984,47.2040002 C77.7759966,47.5960021 77.5919984,48.1439966 77.5919984,48.8480001 L77.5919984,55.4 C77.5919984,55.5600008 77.535999,55.6999994 77.4239984,55.82 C77.3119979,55.9400006 77.1679993,56 76.9919985,56 L73.7999985,56 Z M93.2399981,56.24 C91.6879904,56.24 90.4680026,55.7520049 89.5799982,54.776 C88.6919938,53.7999952 88.2159985,52.4080091 88.1519982,50.6000001 L88.1279982,49.7600001 L88.1519982,48.8960001 C88.2159985,47.1519915 88.6959937,45.7800052 89.5919982,44.7800002 C90.4880027,43.7799952 91.7039905,43.2800003 93.2399981,43.2800003 C94.6800053,43.2800003 95.8399937,43.7439956 96.7199981,44.6720002 L96.7199981,39.5600003 C96.7199981,39.3839995 96.7799975,39.2400009 96.8999981,39.1280003 C97.0199987,39.0159998 97.1599972,38.9600003 97.319998,38.9600003 L100.415998,38.9600003 C100.591999,38.9600003 100.739997,39.0159998 100.859998,39.1280003 C100.979999,39.2400009 101.039998,39.3839995 101.039998,39.5600003 L101.039998,55.4 C101.039998,55.5760009 100.979999,55.7199994 100.859998,55.832 C100.739997,55.9440006 100.591999,56 100.415998,56 L97.559998,56 C97.3999972,56 97.2599986,55.9400006 97.139998,55.82 C97.0199975,55.6999994 96.9599981,55.5600008 96.9599981,55.4 L96.9599981,54.656 C96.0959938,55.7120053 94.8560062,56.24 93.2399981,56.24 Z M94.6319981,52.9040001 C95.3200015,52.9040001 95.8319964,52.6840023 96.1679981,52.2440001 C96.5039997,51.8039979 96.6879979,51.2480035 96.7199981,50.5760001 C96.7519982,50.1279979 96.7679981,49.8240009 96.7679981,49.6640001 C96.7679981,49.4879992 96.7519982,49.1920022 96.7199981,48.7760001 C96.6879979,48.151997 96.4999998,47.6360022 96.1559981,47.2280002 C95.8119964,46.8199981 95.3040014,46.6160002 94.6319981,46.6160002 C93.9119945,46.6160002 93.3959997,46.8279981 93.0839981,47.2520002 C92.7719966,47.6760023 92.5919984,48.2639964 92.5439981,49.0160001 L92.5199981,49.7600001 L92.5439981,50.5040001 C92.5919984,51.2560039 92.7719966,51.843998 93.0839981,52.2680001 C93.3959997,52.6920022 93.9119945,52.9040001 94.6319981,52.9040001 Z M109.631998,56.24 C107.615988,56.24 106.068003,55.7720047 104.987998,54.836 C103.907993,53.8999954 103.319998,52.5680087 103.223998,50.8400001 C103.207998,50.6319991 103.199998,50.2720027 103.199998,49.7600001 C103.199998,49.2479976 103.207998,48.8880012 103.223998,48.6800001 C103.319998,46.9839917 103.923992,45.660005 105.035998,44.7080002 C106.148003,43.7559955 107.679988,43.2800003 109.631998,43.2800003 C111.584008,43.2800003 113.115992,43.7559955 114.227998,44.7080002 C115.340003,45.660005 115.943997,46.9839917 116.039998,48.6800001 C116.071998,49.0960022 116.087998,49.4559986 116.087998,49.7600001 C116.087998,50.0640016 116.071998,50.423998 116.039998,50.8400001 C115.943997,52.5680087 115.356003,53.8999954 114.275998,54.836 C113.195992,55.7720047 111.648008,56.24 109.631998,56.24 Z M109.631998,53.2160001 C110.288001,53.2160001 110.775996,53.0120021 111.095998,52.6040001 C111.415999,52.195998 111.599998,51.5680043 111.647998,50.7200001 C111.663998,50.5599993 111.671998,50.2400025 111.671998,49.7600001 C111.671998,49.2799977 111.663998,48.9600009 111.647998,48.8000001 C111.599998,47.967996 111.415999,47.3440023 111.095998,46.9280002 C110.775996,46.5119981 110.288001,46.3040002 109.631998,46.3040002 C108.975995,46.3040002 108.487999,46.5119981 108.167998,46.9280002 C107.847996,47.3440023 107.663998,47.967996 107.615998,48.8000001 L107.591998,49.7600001 L107.615998,50.7200001 C107.663998,51.5680043 107.847996,52.195998 108.167998,52.6040001 C108.487999,53.0120021 108.975995,53.2160001 109.631998,53.2160001 Z" id="Casilando" fill="#32363C"></path><polygon id="Fill-2" fill="#01B958" points="40.0098392 32.7793433 77.8599984 32.7793433 58.9347988 0.000383999992"></polygon><g id="Group-7" transform="translate(39.999999, 16.219200)"><polygon id="Fill-9" fill="#FF6B6B" points="23.2664806 9.38564573 37.8600472 3.68637593 37.8600472 16.5602157"></polygon><polygon id="Fill-5" fill="#3399FD" points="9.47227181 0.170615997 0.00979199981 16.5602157 37.8599512 16.5602157"></polygon></g><polygon id="Fill-8" fill="#FFC43D" points="57.1564948 20.8263116 43.2362551 12.7894317 40.0099352 32.7795113"></polygon></g></g></g></g></g></g></svg>