<svg xmlns="http://www.w3.org/2000/svg" xmlns:xlink="http://www.w3.org/1999/xlink" version="1.1" id="Layer_1" x="0px" y="0px" viewBox="0 -25 150.8 250" style=" background-color:#1aa8ab;" preserveAspectRatio="xMidYMin slice" ><style type="text/css">.st0{clip-path:url(#SVGID_2_);fill:#FFFFFF;}.st1{clip-path:url(#SVGID_4_);fill:#FFFFFF;}</style><g><defs><rect id="SVGID_1_" width="147.8" height="31.4"/></defs><clipPath id="SVGID_2_"><use xlink:href="#SVGID_1_" style="overflow:visible;"/></clipPath><path class="st0" d="M18.9,22.5c-1,0.6-2.2,0.8-3.4,0.8c-1.1,0-2-0.2-2.9-0.6c-0.9-0.4-1.7-1-2.3-1.7c-0.7-0.7-1.2-1.5-1.6-2.4c-0.4-0.9-0.6-1.9-0.6-3c0-1,0.2-2,0.6-2.9c0.4-0.9,0.9-1.7,1.6-2.5c0.7-0.7,1.4-1.3,2.3-1.7c0.9-0.4,1.9-0.6,3-0.6c1.6,0,3.2,0.5,4.6,1.6l6.1-5.3c-1.5-1.4-3.2-2.4-5-3.1C19.4,0.4,17.5,0,15.5,0c-2.2,0-4.2,0.4-6.1,1.2c-1.9,0.8-3.5,2-4.9,3.4C3.1,6.1,2,7.7,1.2,9.6c-0.8,1.9-1.2,3.9-1.2,6c0,2.1,0.4,4.2,1.2,6c0.8,1.9,1.9,3.6,3.3,5c1.4,1.4,3,2.6,4.9,3.4c1.9,0.8,3.9,1.2,6.1,1.2c2.4,0,4.7-0.5,6.8-1.6c2.1-1.1,4-2.5,5.5-4.5l-6.2-5.1C20.9,21.2,20,22,18.9,22.5 M48,11.6h-9.7V0.1h-8.9v31.1h8.9V19.8H48v11.5H57V0.1H48V11.6z M70.4,0.1L59,31.2H68l1.6-4.1h8.9l1.6,4.1h8.9L77.7,0.1H70.4z M71.2,19.8l2.7-8.3l3,8.3H71.2z M110.2,16.5l-9.8-16.4h-8.9v31.1h8.9V15.7l9.8,15.6h8.9V0.1h-8.9V16.5z M147.8,0.1h-26v8.2H134l-11.4,21.3v1.6h25.2V23h-11.4l11.4-21.3V0.1z"/></g><g><defs><rect id="SVGID_3_" width="147.8" height="49"/></defs><clipPath id="SVGID_4_"><use xlink:href="#SVGID_3_" style="overflow:visible;"/></clipPath><path class="st1" d="M147.5,47.9h-4.1v-3.3h3.9v-0.9h-3.9v-2.9h4.1v-0.9h-5.2v9.1h5.2V47.9z M133.8,48.9l3.2-8h0.1c-0.1,0.8-0.1,1.5-0.1,2.2v5.9h1.1v-9.1h-1.6l-3,7.5h-0.1l-3-7.5h-1.6v9.1h1v-5.8c0-0.9,0-1.6-0.1-2.3h0.1l3.2,8.1H133.8z M119.9,45l1.1-2.8c0.2-0.5,0.3-0.9,0.4-1.3c0.1,0.5,0.3,1,0.4,1.3l1.1,2.8H119.9z M125.6,48.9l-3.7-9.1H121l-3.7,9.1h1.1l1.1-2.9h3.7l1.2,2.9H125.6z M111,45.1h2.1v2.8c-0.6,0.1-1.2,0.2-1.9,0.2c-1.2,0-2.1-0.3-2.7-1c-0.6-0.6-0.9-1.6-0.9-2.8c0-1.2,0.3-2.1,1-2.7c0.6-0.7,1.5-1,2.7-1c0.8,0,1.6,0.2,2.4,0.5l0.4-0.9c-0.9-0.4-1.8-0.5-2.8-0.5c-1,0-1.8,0.2-2.6,0.6c-0.7,0.4-1.3,0.9-1.7,1.6c-0.4,0.7-0.6,1.5-0.6,2.5c0,1.5,0.4,2.6,1.2,3.4c0.8,0.8,1.9,1.2,3.3,1.2c0.7,0,1.3,0,1.8-0.1c0.5-0.1,1-0.2,1.5-0.3v-4.4H111V45.1z M92.6,40.7H94c0.8,0,1.4,0.1,1.8,0.4s0.5,0.7,0.5,1.3c0,0.6-0.2,1-0.5,1.3c-0.4,0.3-0.9,0.4-1.7,0.4h-1.5V40.7z M94.6,45.1l2.3,3.8h1.3l-2.5-4.1c1.3-0.4,1.9-1.2,1.9-2.4c0-0.9-0.3-1.5-0.8-1.9c-0.5-0.4-1.4-0.6-2.5-0.6h-2.6v9.1h1.1v-3.8H94.6z M86.2,39.8v5.9c0,0.8-0.2,1.3-0.6,1.8c-0.4,0.4-1,0.6-1.8,0.6c-0.8,0-1.5-0.2-1.9-0.6c-0.4-0.4-0.6-1-0.6-1.7v-5.9h-1.1v5.9c0,1,0.3,1.9,0.9,2.5c0.6,0.6,1.5,0.9,2.6,0.9c1.1,0,2-0.3,2.6-0.9c0.6-0.6,1-1.4,1-2.4v-5.9H86.2z M69.8,41.6c0.5-0.6,1.3-1,2.4-1c1,0,1.8,0.3,2.3,0.9c0.5,0.6,0.8,1.6,0.8,2.8c0,1.2-0.3,2.2-0.8,2.8c-0.5,0.6-1.3,1-2.3,1c-1,0-1.8-0.3-2.3-1c-0.5-0.6-0.8-1.6-0.8-2.8C69,43.1,69.2,42.2,69.8,41.6 M75.3,40.9c-0.8-0.8-1.8-1.2-3.1-1.2c-1.4,0-2.4,0.4-3.2,1.2c-0.7,0.8-1.1,2-1.1,3.4c0,1.5,0.4,2.6,1.1,3.5s1.8,1.2,3.2,1.2c1.3,0,2.4-0.4,3.2-1.2c0.8-0.8,1.1-2,1.1-3.4C76.4,42.9,76,41.7,75.3,40.9 M59.4,39.8h-1.2l3.1,5.6v3.5h1.1v-3.5l3.1-5.6h-1.2l-2.5,4.5L59.4,39.8z"/></g></svg>