<svg xmlns="http://www.w3.org/2000/svg" xmlns:xlink="http://www.w3.org/1999/xlink" width="500" height="125" viewBox="0 0 500 125" style="&#10;    color: black;&#10;    background-color: red;&#10;">
    <defs>
        <path id="a" d="M.517.085h52.247v54.62H.517z"/>
        <path id="c" d="M.13.385h44.59v52.764H.13z"/>
        <path id="e" d="M0 118h413.419V.085H0z"/>
    </defs>
    <g fill="none" fill-rule="evenodd">
        <path d="M0 0h500v125H0z"/>
        <path fill="#FFF" d="M166.784 122h3.12V4h-3.12z"/>
        <g transform="translate(43 4)">
            <g transform="translate(146.599)">
                <mask id="b" fill="#fff">
                    <use xlink:href="#a"/>
                </mask>
                <path fill="#FFF" d="M28.359 54.705C12.899 54.705.517 42.424.517 27.216.517 12.294 12.757.085 27.714.085c10.88 0 20.398 5.854 25.05 16.064h-10.95c-3.579-4.641-7.73-6.64-13.885-6.64-10.092 0-17.535 7.854-17.535 17.778 0 9.853 8.016 17.993 17.75 17.993 5.081 0 8.803-1.714 13.098-6.212h11.522c-4.15 9.639-13.598 15.637-24.405 15.637" mask="url(#b)"/>
            </g>
            <path fill="#FFF" d="M234.359 53.776V31.643h-18.895v22.133h-9.805V1.013h9.805v21.276h18.895V1.013h9.805v52.763zM254.324 53.776V1.013h28.413v9.353H264.13V22.79h17.822v9.352h-17.822v12.281h18.608v9.353zM305.71 10.366h-4.366v15.85h4.796c7.585 0 10.806-2.427 10.806-7.996 0-4.713-1.932-7.854-11.236-7.854zm9.519 43.41L301.344 33.57v20.207h-9.805V1.012h15.244c7.228 0 11.023 1 14.458 3.927 3.65 3.07 5.583 7.64 5.583 12.995 0 8.211-4.296 13.994-13.814 16.35l14.314 19.493H315.23zM347.219 10.366h-4.366v15.85h4.795c7.586 0 10.806-2.427 10.806-7.996 0-4.713-1.932-7.854-11.235-7.854zm9.518 43.41L342.853 33.57v20.207h-9.805V1.012h15.244c7.228 0 11.023 1 14.458 3.927 3.65 3.07 5.583 7.64 5.583 12.995 0 8.211-4.296 13.994-13.814 16.35l14.314 19.493h-12.096z"/>
            <g transform="translate(368.7 .628)">
                <mask id="d" fill="#fff">
                    <use xlink:href="#c"/>
                </mask>
                <path fill="#FFF" d="M27.328 33.657v19.492h-9.806V33.657L.13.385h10.593l11.74 24.276L34.127.385H44.72z" mask="url(#d)"/>
            </g>
            <path fill="#FFF" d="M174.378 117.802c-15.467 0-27.155-11.451-27.155-26.532 0-15.43 11.408-26.88 26.805-26.88 10.708 0 19.807 5.446 23.796 14.313h-5.809c-4.409-6.913-10.498-9.565-17.777-9.565-12.318 0-21.766 9.496-21.766 21.923 0 12.079 9.868 21.993 21.836 21.993 7.559 0 12.528-2.862 17.987-9.705h5.74c-5.18 9.565-13.158 14.453-23.657 14.453M225.61 71.163L215.464 94.83h20.085l-9.937-23.668zm19.457 45.73l-7.489-17.384h-24.075l-7.56 17.384h-5.458l22.186-51.595h5.81l22.256 51.595h-5.67zM269.214 117.802c-9.308 0-15.677-6.074-16.166-15.361h5.529c.769 6.912 4.968 10.613 10.778 10.613 5.877 0 10.218-4.329 10.218-10.263 0-5.656-2.66-8.1-11.549-10.822-6.018-1.816-7.629-2.583-9.657-4.54-2.31-2.163-3.64-5.584-3.64-9.145 0-8.03 6.02-13.894 14.346-13.894 8.47 0 14.49 5.586 14.49 13.963h-5.391c0-5.584-3.989-9.215-9.237-9.215-5.18 0-8.96 3.84-8.96 9.005 0 2.376.98 4.75 2.45 6.006 1.33 1.186 2.94 1.814 7.63 3.212 5.318 1.606 7.487 2.582 9.587 4.118 3.29 2.445 5.18 6.494 5.18 11.033 0 8.796-6.65 15.29-15.608 15.29"/>
            <mask id="f" fill="#fff">
                <use xlink:href="#e"/>
            </mask>
            <path fill="#FFF" d="M291.681 116.893h5.179V65.298h-5.179zM343.472 116.894l-30.794-45.382v45.382h-5.18V65.298h6.998l28.976 42.798V65.298h5.178v51.596zM385.116 69.138C373.15 69.138 363 79.122 363 90.922c0 12.218 9.939 22.132 22.116 22.132 12.038 0 22.047-9.914 22.047-21.854 0-12.078-10.009-22.062-22.047-22.062m0 48.664c-15.188 0-27.365-12.01-27.365-27.02 0-14.313 12.528-26.391 27.365-26.391 14.978 0 27.296 12.007 27.296 26.74 0 14.592-12.318 26.67-27.296 26.67M53.079 49.386C43.8 32.574 47.483 26.222 50.086 18.81c9.402 12.048 6.509 26.112 2.993 30.576M57.362 54.65C71.305 11.93 88.082 8.044 104.945.625c-5.6 35.298-34.308 52.87-47.583 54.027M46.188 65.54c0 9.351-7.6 16.93-16.974 16.93-9.371 0-16.97-7.579-16.97-16.93 0-9.352 7.599-16.933 16.97-16.933 9.374 0 16.974 7.581 16.974 16.933M89.67 87.807c0 10.077-8.191 18.244-18.292 18.244S53.09 97.884 53.09 87.807 61.277 69.56 71.38 69.56c10.1 0 18.291 8.17 18.291 18.248" mask="url(#f)"/>
            <path fill="#FFF" d="M47.478 52.157c-2.3-2.986-5.06-5.247-8.281-6.79-3.218-1.54-6.758-2.31-10.61-2.31-4.215 0-8.118 1.011-11.71 3.027-3.588 2.02-6.37 4.73-8.347 8.134-1.976 3.404-2.966 7.228-2.966 11.478 0 6.428 2.212 11.793 6.627 16.088 4.419 4.297 9.991 6.451 16.718 6.451 7.399 0 13.586-2.89 18.57-8.671 0 0-1.756 9.078-5.693 10.908-3.939 1.83-8.34 2.742-13.198 2.742-9.244 0-16.535-3.07-21.871-9.207C2.243 78.825 0 72.569 0 65.23c0-7.712 2.713-14.202 8.136-19.467 5.422-5.268 12.215-7.902 20.379-7.902 4.93 0 9.388.974 13.357 2.92 3.977 1.948 5.606 11.376 5.606 11.376M51.06 102.199c2.492 3.238 5.482 5.691 8.97 7.36 3.492 1.67 7.326 2.506 11.503 2.506 4.567 0 8.797-1.094 12.69-3.283 3.893-2.185 6.91-5.123 9.049-8.818 2.142-3.687 3.211-7.835 3.211-12.444 0-6.96-2.391-12.773-7.184-17.434C84.513 65.43 78.474 63.1 71.183 63.1c-8.018 0-14.727 3.135-20.123 9.397 0 0 1.9-9.842 6.167-11.823C61.5 58.69 66.266 57.7 71.533 57.7c10.018 0 17.919 3.328 23.704 9.98 4.852 5.617 7.281 12.404 7.281 20.347 0 8.362-2.941 15.397-8.818 21.104-5.879 5.713-13.239 8.563-22.091 8.563-5.343 0-10.17-1.055-14.479-3.164-4.305-2.11-6.07-12.331-6.07-12.331" mask="url(#f)"/>
        </g>
    </g>
</svg>