<svg xmlns="http://www.w3.org/2000/svg" xmlns:xlink="http://www.w3.org/1999/xlink" id="Lager_1" x="px" y="0px" viewBox="-5 0 112.9 17.2" style="enable-background:new 0 0 102.9 17.2; background-color:#373942;" xml:space="preserve"> <style type="text/css"> .st0{fill:#8EB50D;} .st1{fill:#F9F9F9;} </style> <g> <path class="st0" d="M99.5,16.8v-3.2h3.4v3.2H99.5z M102.8,11.3h-3.2L99.5,0h3.4L102.8,11.3L102.8,11.3z M90.4,2.5 c-3.6,0-6.4,2.6-6.4,6.2v8h3.6V8.8c0-1.5,1.3-2.8,2.8-2.8s2.8,1.3,2.8,2.8v7.9h3.6v-8C96.9,5.2,94,2.5,90.4,2.5 M74.5,13.8 c-2.2,0-3.9-1.8-3.9-3.9s1.8-3.9,3.9-3.9s3.9,1.8,3.9,3.9S76.7,13.8,74.5,13.8L74.5,13.8 M74.5,2.5c-4,0-7.3,3.3-7.3,7.3 c0,4,3.3,7.3,7.3,7.3c4,0,7.3-3.3,7.3-7.3C81.8,5.8,78.5,2.5,74.5,2.5"/> <path class="st1" d="M58.3,5.6c1,0,1.9,0.3,2.6,1c0.6,0.5,1,1.2,1.1,2h-7.5C54.9,6.8,56.5,5.6,58.3,5.6 M65.2,8.9 C65.1,7,64.3,5.4,63,4.3c-1.3-1.1-2.9-1.7-4.7-1.7c-1.9,0-3.7,0.8-5,2.1C52,6,51.3,7.9,51.3,9.9c0,2.1,0.8,4,2.2,5.3 c1.3,1.2,3.2,1.9,5.1,1.9c2.4,0,4.4-0.8,5.9-2.5l-2.4-2.1c-0.9,1-2.1,1.4-3.5,1.4c-0.9,0-1.8-0.3-2.6-0.7c-0.8-0.5-1.3-1.2-1.5-2 l0-0.1l10.6,0C65.2,11.1,65.3,10.1,65.2,8.9 M43.5,2.6c-1.5,0-2.8,0.6-3.8,1.5c-1-1-2.4-1.5-3.8-1.5c-3.1,0-5.5,2.5-5.5,5.6 c0,0,0,0,0,0v8.6h3.5V8.2c0-1.2,0.9-2.1,2.1-2.1C37.1,6.1,38,7,38,8.2v8.6h3.5V8.2c0-1.2,0.9-2.1,2.1-2.1s2.1,0.9,2.1,2.1v8.6h3.5 V8.2C49.1,5.1,46.6,2.6,43.5,2.6C43.5,2.6,43.5,2.6,43.5,2.6 M20.8,13.8c-1,0-2-0.4-2.7-1.1c-0.8-0.7-1.2-1.8-1.2-2.8 c0-1.1,0.4-2.1,1.1-2.8c0.7-0.7,1.7-1.2,2.8-1.2c2.2,0,3.9,1.8,3.9,3.9S23,13.8,20.8,13.8 M20.8,2.5c-2.3,0-4.4,1-5.8,2.8 c-1,1.3-1.5,2.9-1.5,4.5c0,1.6,0.5,3.2,1.5,4.5c1.4,1.8,3.5,2.8,5.8,2.9c4,0,7.3-3.3,7.3-7.3C28.1,5.8,24.9,2.5,20.8,2.5 M7.3,5.9 c1.4,0,2.6,0.7,3.3,1.9l1.9-3c-1.4-1.4-3.3-2.2-5.2-2.2C3.3,2.5,0,5.8,0,9.8c0,4,3.3,7.3,7.3,7.3c2,0,3.9-0.8,5.2-2.2l-1.9-3 c-0.7,1.1-2,1.8-3.3,1.8c-2.2,0-3.9-1.8-3.9-3.9S5.1,5.9,7.3,5.9"/> </g> </svg>