<svg id="logo" enable-background="new 0 0 1359.02 163.13" version="1.1" viewBox="0 0 1359 163.13" xml:space="preserve" xmlns="http://www.w3.org/2000/svg"><path d="m590.21 163.13h-59.453c-36.15 0-65.563-29.412-65.563-65.563v-97.455h36v97.455c0 16.301 13.262 29.563 29.563 29.563h59.453v36z" fill="#17BEFF"></path><path d="m220.52 163.13h-11.891c-36.15 0-65.563-29.41-65.563-65.561v-31.896c0-36.15 29.412-65.561 65.563-65.561h11.891c36.15 0 65.561 29.41 65.561 65.561v31.896c-.001 36.151-29.411 65.561-65.561 65.561zm-11.891-127.02c-16.301 0-29.563 13.262-29.563 29.561v31.896c0 16.299 13.262 29.561 29.563 29.561h11.891c16.299 0 29.561-13.262 29.561-29.561v-31.896c0-16.299-13.262-29.561-29.561-29.561h-11.891z" fill="#17BEFF"></path><path d="m733.26 41.892c0-23.43-21.766-41.781-49.551-41.781h-75.443v163.02h36v.002h39.443c27.785 0 49.551-18.354 49.551-41.781v-15.947c0-8.904-3.15-17.072-8.574-23.781 5.424-6.709 8.574-14.877 8.574-23.781v-15.949zm-88.994-5.782h39.443c9.033 0 13.551 4.678 13.551 5.781v15.947c0 1.104-4.518 5.781-13.551 5.781h-39.443v-27.509zm52.994 85.239c0 1.104-4.518 5.781-13.551 5.781h-39.443v-27.51h39.443c9.033 0 13.551 4.678 13.551 5.781v15.948z" fill="#FF8F04"></path><path d="m381.58 163.13h-11.891c-36.152 0-65.563-29.41-65.563-65.561v-31.896c0-36.15 29.41-65.561 65.563-65.561h11.891c36.152 0 65.563 29.41 65.563 65.561v31.896c0 36.151-29.411 65.561-65.563 65.561zm-11.891-127.02c-16.301 0-29.563 13.262-29.563 29.561v31.896c0 16.299 13.262 29.561 29.563 29.561h11.891c16.301 0 29.563-13.262 29.563-29.561v-31.896c0-16.299-13.262-29.561-29.563-29.561h-11.891z" fill="#17BEFF"></path><path d="m816.87 36.11h59.451v-36h-59.451c-10.633 0-20.674 2.561-29.563 7.072-21.336 10.826-36 32.971-36 58.488v31.895c0 25.518 14.664 47.662 36 58.49 8.889 4.512 18.93 7.072 29.563 7.072h59.451v-36h-59.451c-15.611 0-28.426-12.164-29.484-27.51h52.92v-36h-52.92c1.058-15.344 13.873-27.507 29.484-27.507z" fill="#FF8F04"></path><path d="m1019.4.112h-110c-.025 0-.051-.002-.076-.002h-14.945v36.002h15.021c16.266.041 29.486 13.283 29.486 29.559v97.457h36v-97.457c0-10.631-2.56-20.67-7.07-29.559h51.578v-36z" fill="#E11D00"></path><path d="M125.014,163.128H65.563C29.41,163.128,0,133.716,0,97.566V65.671C0,29.521,29.41,0.11,65.563,0.11h59.451   v36H65.563C49.262,36.11,36,49.37,36,65.671v31.895c0,16.301,13.262,29.563,29.563,29.563h59.451V163.128z" fill="#70C62A"></path><path d="m1345.6 69.358c-3.867-1.465-7.504-3.645-10.91-6.539-7.487-6.4955-16.92-9.1383-25.233-10.805-14.22-3.1302-27.725-3.2976-40.936-10.377-6.9644-3.8939-14.699-8.8431-22.242-9.879-3.9-.527-8.305-.174-13.211 1.063 1.846-6.2808-24.313 9.6925-18.369 6.949-21.432 8.7728-41.338 6.9454-54.086 18.472-14.645 11.439-27.024 27.902-27.024 27.902 4.078-3.846 9.15-6.484 15.225-7.916 6.7413-1.5621 14.873-.5625 20.148-5.165 5.2284-3.6258 8.1824-7.7961 13.027-11.33.02-.02.035-.029.055-.029 6.9891-4.4187 13.435-4.6935 17.449 2.173 1.605 7.732.9 17.168-2.121 28.307-.016.121-.043.236-.078.342-2.6999 9.8937-5.7824 17.338-7.756 27.883-.6755 5.5214.2635 9.9466.821 15.595.4543 5.6058-2.1535 10.826.289 16.18 3.071 5.2216 9.2609 9.9003 14.564 10.589 6.142.10324 32.754 2.0191 24.2-2.911-2.1892-4.3507-5.0442-4.3468-8.867-2.701-4.8424.79973-9.6802.35847-13.638-3.23-1.6476-7.6186-.099-16.733-.713-24.229-.777-9.002 2.584-18.789 10.086-29.363 4.7925-6.7532 19.536-19.415 14.986-26.531-4.1709-6.8869-9.4495-14.821-6.883-22.825 2.7449-4.5154 7.3879-7.8234 11.915-10.035 7.998-3.848 14.379-3.045 19.144 2.408 6.4556 6.3072 13.674 8.1142 22.057 11.68 9.5928 5.1341 20.824 7.8768 30.557 8.841 8.1315.9736 14.411 2.2823 22.054 4.237 6.775 3.0853 13.49 5.8756 20.287 2.536-1.5226-.27061-3.5607-.8464-4.797-1.292z" fill="#17beff"></path><path d="m1082 64.488c-2.5172 7.5494-1.8443 14.077-4.475 21.763-1.254 3.568-3.478 7.486-6.674 11.76-3.564 4.764-6.945 7.949-10.141 9.557-2.7122 1.4142-5.53 3.1925-7.705 4.793-6.68 5.002-8.482 8.543-9.58 10.955-1.01 1.938-1.781 4.281-3.899 5.646-1.146.74-1.851 2.17-2.117 4.291.603 4.7948 2.6564 9.3548 4.818 13.343 3.709 6.795 7.66 11.174 11.863 13.135 2.1084.55927 5.0865 1.2954 6.88 0 1.0367-.57406 1.7269-.65697 2.786-.796-7.7321-15.526-5.9812-26.946 6.299-35.534 19.313-12.02 34.113-24.314 44.404-36.883 6.957-8.492 12.076-17.557 15.357-27.195 5.8713-17.459 11.655-26.706 33.283-29.256 17.879-.53997 33.137 2.4084 48.51-5.058 8.42-4.184 17.086-6.027 26.002-5.535 6.512.336 12.15 1.74 16.918 4.211 6.6782 2.642 33.884 12.517 36.749 9.4354 3.5431-3.4617 7.1495 1.3884 9.0852 4.4126.883 1.078 6.381 2.701 16.496 4.873l14.908 2.965c1.7846-1.8399 4.193-1.4158 5.664-.131.688.615 1.236 1.287 1.643 2.01 2.1785.23362 3.5979.05273 5.799-.156l-.186-2.809c-1.7158-3.3906-6.3688-5.7438-9.533-7.121-7.7801-3.7303-16.026-6.9082-23.537-9.534-.795-.281-1.58-.725-2.357-1.324-1.305-.652-4.016-1.414-8.129-2.277-6.602-1.412-13.018-2.965-19.25-4.66-6.883-1.889-11.545-3.424-13.98-4.605-5.1444-2.3955-10.067-4.1509-15.275-5.456-4.945-1.217-8.246-1.836-9.906-1.856-1.889 0-5.797.629-11.728 1.881-1.289.283-5.887-.025-13.797-.926-7.182-.795-11.525-1.369-13.027-1.721-7.8525-1.8316-14.783-3.8756-22.664-5.217-10.078-1.729-19.672-1.934-28.781-.609-12.399 2.2873-23.92 7.2089-34.156 13.108-14.211 8.26-22.904 16.822-26.082 25.684-2.2763 9.0894-7.7233 16.393-10.485 24.836z" fill="#e11d00"></path><path d="m1290 79.765c-1.1907-4.0032-3.0461-8.9679 1.33-10.45-16.313.80079-38.809-17.627-43.102-14.379-.5709 2.3737.2595 3.1448 6.6335 9.7638 3.5081 4.4258 12.293 5.1828 14.986 7.863-11.899 1.4911-9.0478.60338-15.861 7.573 1.3819 2.8989 3.3712 5.7981 5.162 7.918 4.928 5.789 11.131 9.982 18.617 12.576 11.147 9.1388 14.952 23.848 22.4 36.09 2.947 4.943 5.9518 8.9226 8.8108 10.742 6.4306 2.1908 14.726-2.2615 20.049 1.9424-1.3789 4.7706-18.487.20733-21.941 4.8979 1.926 2.734 4.7996 4.7411 7.4306 5.2151 8.4313-.24842 16.372-.10282 22.828-1.936 1.167-1.5066 2.9281-1.9512 3.582-3.624.543-2.33-2.051-3.049-2.051-3.049-1.927-4.5875-3.9836-5.8383-10.297-5.797-10.077-1.068-12.082-6.78-15.808-15.037-3.654-3.055-8.104-9.621-13.346-19.701-2.5989-5.3657-4.8882-9.4947-6.963-14.907 1.241-5.7867-.8449-11.361-2.461-15.701z" fill="#70c62a"></path><path d="m1150.7 91.681c-.3097 4.6795-1.9809 10.204-5.56 12.737-2.363 1.588-3.008 7.176-1.932 16.762.707 6.406 1.4719 13.221 3.0969 19.647 1.728 4.7987 3.6749 6.0387 9.4011 8.1529 3.8603 2.3221 4.5527 7.5269 2.145 9.849 6.558.0829 11.301-.1462 17.926-1.191 3.7097-2.832-2.0736-7.9268-3.812-9.825l-9.27-1.059-5.957-5.43c-.6179-4.748-.9323-9.8467 0-14.428 1.9771-6.4688 1.3836-15.445 4.637-21.58 2.418-3.5262 2.7618-6.2705 3.387-10.381-4.9802-.39852-10.134-2.0733-14.062-3.254z" fill="#bf6b03"></path><path d="m1133.6 86.146c3.248 1.096 6.787 2.26 10.617 3.496 5.3141 1.6076 10.333 3.3751 15.807 4.607 7.8681 1.449 16.808.73027 23.487 0 5.1303-.57099 8.9541-1.1908 13.873-2.065 3.021-11.139 3.727-20.574 2.121-28.307-.9769-3.5647-3.1304-4.0766-5.191-4.95-4.974-1.0518-8.6254-.298-12.313 2.806-6.5718 5.0199-13.522 13.127-20.757 14.641-4.2335.59778-8.0846.81293-12.418 1.854-6.076 1.433-11.148 4.072-15.226 7.918z" fill="#118fbf"></path><path d="m1277.8 100.63c-7.486-2.594-13.689-6.787-18.617-12.576-2.2558-2.6507-3.6236-4.946-5.162-7.918-2.8515 2.9215-5.8274 5.2897-8.816 7.387.158 1.645.609 3.063 1.35 4.264 4.0307 4.6762 9.0136 8.41 12.658 12.814 3.973 9.074 9.381 17.018 16.231 23.83 4.9405 4.787 10.116 8.7883 14.934 12.578 3.6403 3.1792 10.744 7.6036 9.531 11.65.4103 3.5609 5.5568 5.9414 9.717 7.072 1.609-.053 3.252-.115 4.926-.188v-.027c-4.0685-1.3144-9.6053-5.586-3.84-6.511 5.8641-.98957 10.477-.37278 16.576-1.643 2.19-.459 2.779-1.111 1.774-1.959-2.24-1.853-5.824-2.568-10.75-2.144-2.899.10376-6.8823 1.185-9.399-.397-2.859-1.818-5.764-5.199-8.711-10.143-1.73-2.877-4.225-7.739-7.471-14.587-3.8924-6.6617-7.2584-18.664-14.931-21.502z" fill="#549520"></path><path d="m1296.3 61.87c-2.807-.705-9.092-2.6512-18.852-6.8332-7.7435-3.6903-15.003-4.9187-22.057-11.68-4.766-5.453-11.146-6.256-19.144-2.408-9.2024 4.6154-15.45 9.2785-12.737 20.416 1.9533 7.049 10.811 11.782 7.705 18.799-4.3012 7.5337-9.6075 12.742-14.986 20.176-7.502 10.574-10.863 20.361-10.086 29.363.4038 7.2781-2.6659 18.987.713 24.229 3.4857 3.5298 9.4488 4.3749 13.638 3.23 5.1214-2.0765 6.9021-.40026 8.867 2.701.705 1.182.734 2.092.08 2.728 4.377-.353 6.955-.859 7.732-1.51.9334-2.4511-2.004-6.5262-3.682-8.076-5.5609-.057-18.899 1.6477-18.164-5.455.6474-3.3719 1.3865-5.4384 2.465-8.844.211-3.617.73-7.6 1.561-11.941 1.693-8.666 4.123-14.801 7.283-18.404 3.2986-3.857 5.6661-7.2101 8.711-11.357 5.3261-7.156 12.993-9.8161 18.937-15.869 7.9784-9.1333 5.4436-6.5389 16.056-8.6412-4.5447-3.4414-11.42-3.6797-15.48-7.7925-6.373-6.619-8.227-9.984-5.561-10.088 16.009 6.6135 28.878 16.248 44.406 14.563 4.623 1.164 12.074 1.34 22.348.529l14.006-1.59c-11.283-4.9609-23.769-3.9193-33.759-6.2448z" fill="#118fbf"></path><path d="m1126.8 109.68c-1.023 2.42-1.324 7.619-.898 15.596.424 8.42.414 13.461-.027 15.119-.9143 4.8426-.9529 8.8219 0 13.373l9.002 4.236c7.8682.81477 15.524.81792 22.957.82 1.623-1.465 2.313-2.807 2.064-4.023-1.2439-3.9639-3.1914-6.4546-7.572-7.599-3.07-1.766-4.951-4.025-5.639-6.779-1.625-6.426-2.789-12.842-3.496-19.248-1.076-9.586-.432-15.174 1.932-16.762 4.5731-3.3527 5.162-8.0292 5.56-12.737-5.7903-1.7881-11.664-3.6929-17.129-5.535-4.1749 4.5645-8.4238 9.2928-12.789 13.24 1.7041 3.1493 6.0405 6.5565 6.035 10.299z" fill="#ff8f04"></path><path d="m1344.9 47.093c-2.8368.26405-3.7959.36865-5.799.156-1.2054.94784-2.9304.86281-4.129.584-1.7112-.4214-2.3451-1.2208-3.178-2.463l-14.908-2.965c-10.115-2.172-15.613-3.795-16.496-4.873-1.2582-3.0906-8.0082-9.129-9.0872-4.4116-2.3366 2.3883-25.423-5.5069-36.747-9.4364-14.663-7.5867-30.702-5.3149-42.92 1.324-15.421 7.2677-34.031 4.4815-48.51 5.058-21.567.01684-29.292 13.276-33.283 29.256-3.281 9.639-8.4 18.703-15.357 27.195-10.291 12.568-25.092 24.863-44.404 36.883-3.1188 1.9931-6.2082 4.5116-8.101 7.361-6.6563 8.7679-5.997 16.383 1.8 28.174 2.6905.10841 5.4543-.39445 5.694-3.31l-3.047-4.9c.373-.564 1.395-5.912.795-7.678-.9587-2.4405 10.397-13.187 15.888-17.951 11.402-9.869 20.115-15.949 26.135-18.244 10.139-4.5573 17.157-12.654 24.307-20.707 0 0 12.379-16.463 27.024-27.902 16.293-12.726 30.752-8.228 54.086-18.478 10.789-4.5141 21.182-9.315 31.58-8.006 17.5 3.7628 18.793 12.281 43.426 16.789 15.96 3.1847 32.15 3.9741 44.985 14.272 3.406 2.895 7.043 5.074 10.91 6.539 1.7531.59327 3.2057 1.002 4.793 1.299 2.1594-1.1283 3.4951-2.197 4.608-4.317 2.6549-.44998 3.1111-2.0346 4.051-4.238-4.7107-4.9983-9.4116-10.006-14.116-15.01z" fill="#a91600"></path><path d="m1332.6 46.403c.689.74 1.492 1.219 2.412 1.43 1.164.281 2.203.266 3.123-.053l1.006-.531c-.406-.723-.955-1.395-1.643-2.01-2.3758-1.8189-3.6147-1.6692-5.664.131z" fill="#fff"></path></svg>