<?xml version="1.0" encoding="utf-8"?>
<!-- Generator: Adobe Illustrator 22.1.0, SVG Export Plug-In . SVG Version: 6.00 Build 0)  -->
<svg version="1.1" id="Layer_1" xmlns="http://www.w3.org/2000/svg" xmlns:xlink="http://www.w3.org/1999/xlink" x="0px" y="0px"
	 viewBox="0 0 500 500" style="enable-background:new 0 0 500 500;" xml:space="preserve">
<style type="text/css">
	.Drop_x0020_Shadow{fill:none;}
	.Outer_x0020_Glow_x0020_5_x0020_pt{fill:none;}
	.Blue_x0020_Neon{fill:none;stroke:#8AACDA;stroke-width:7;stroke-linecap:round;stroke-linejoin:round;}
	.Chrome_x0020_Highlight{fill:url(#SVGID_1_);stroke:#FFFFFF;stroke-width:0.3629;stroke-miterlimit:1;}
	.Jive_GS{fill:#FFDD00;}
	.Alyssa_GS{fill:#A6D0E4;}
	.st0{fill:url(#SVGID_2_);}
	.st1{fill:url(#SVGID_3_);}
</style>
<linearGradient id="SVGID_1_" gradientUnits="userSpaceOnUse" x1="0" y1="0" x2="6.123234e-17" y2="-1">
	<stop  offset="0" style="stop-color:#656565"/>
	<stop  offset="0.618" style="stop-color:#1B1B1B"/>
	<stop  offset="0.6292" style="stop-color:#545454"/>
	<stop  offset="0.9831" style="stop-color:#3E3E3E"/>
</linearGradient>
<g>
	<linearGradient id="SVGID_2_" gradientUnits="userSpaceOnUse" x1="88.9475" y1="88.2793" x2="411.1881" y2="410.5199">
		<stop  offset="0" style="stop-color:#512569"/>
		<stop  offset="1" style="stop-color:#7E2987"/>
	</linearGradient>
	<path class="st0" d="M81.3,178l-4.4,10.1c-0.2,0.5-0.8,0.8-1.3,0.8c-0.2,0-0.4,0-0.6-0.1l-39.1-17c-0.7-0.3-1-1.1-0.7-1.8l11-25.3
		l0,0c0.2-0.3,0.4-0.6,0.8-0.7c0.3-0.1,0.7-0.1,1,0l8.9,3.9c0.8,0.3,1.1,1.1,0.8,1.9l-6.1,14l4.5,2l4.8-11c0.2-0.4,0.4-0.6,0.8-0.7
		c0.3-0.1,0.7-0.1,1,0.1l7.9,4.4c0.5,0.3,0.9,1.2,0.6,1.9l-4.3,10l13.7,6C81.3,176.5,81.6,177.3,81.3,178z M114.2,124.1
		c0.2,0.4,0.1,0.9-0.2,1.2l-7.9,10.6c-0.5,0.6-1.3,0.9-2.2,0.7l-14.8-3.2l11,8.2c0.6,0.4,0.7,1.4,0.2,2l-6.5,8.7
		c-0.3,0.4-0.7,0.6-1.1,0.6c-0.3,0-0.6-0.1-0.8-0.3l-34.2-25.5c-0.6-0.5-0.8-1.4-0.3-2l9.8-13.1c2.9-3.8,6.5-6.3,10.4-7
		c3.9-0.7,7.9,0.3,11.4,2.9c4.2,3.1,6.5,8.6,5.6,13.4l18.7,2C113.7,123.5,114.1,123.7,114.2,124.1z M74.9,122.8l4.7,3.5l1.9-2.6
		c1.1-1.5,0.9-3.1-0.5-4.2c-0.7-0.5-1.5-0.7-2.2-0.6c-0.7,0.1-1.4,0.6-2,1.3L74.9,122.8z M153.6,91.4c0,0.4-0.1,0.7-0.4,1l-9.6,7.6
		c-0.6,0.5-1.4,0.5-2,0.2l-0.1,0l-5.4-4l-8.6,6.8l2.6,6.2c0.2,0.7-0.1,1.5-0.7,1.9l-9.6,7.6c-0.2,0.2-0.4,0.2-0.7,0.2
		c-0.1,0-0.2,0-0.3-0.1c-0.3-0.1-0.6-0.4-0.7-0.7l-15.6-42.3c-0.1-0.6,0.2-1.5,0.8-2l9.9-7.8c0.6-0.5,1.7-0.6,2.2-0.3l0.1,0
		l37.5,24.9C153.4,90.8,153.6,91.1,153.6,91.4z M119.3,83.8l4.1,9.5l4.3-3.4L119.3,83.8z M177.8,33.2c-0.3-0.7-1.1-1.1-1.8-0.8
		l-10.1,4.3c-0.3,0.1-0.6,0.4-0.7,0.8c-0.1,0.3-0.1,0.7,0,1.1l7.1,16.6L156,42.1c-0.5-0.5-1.4-0.6-2.1-0.3L144,46
		c-0.7,0.3-1,1.1-0.7,1.8l16.7,39.2c0.1,0.3,0.4,0.6,0.7,0.7c0.2,0.1,0.4,0.1,0.6,0.1c0.2,0,0.3,0,0.5-0.1l10.1-4.3
		c0.3-0.1,0.6-0.4,0.8-0.8c0.1-0.3,0.1-0.7,0-1L165.6,65L182,78.1c0.6,0.4,1.4,0.6,2,0.3l9.9-4.2c0.4-0.2,0.6-0.4,0.8-0.8
		c0.1-0.3,0.1-0.7,0-1L177.8,33.2z M226.1,43.9l9.1-21.8c0.2-0.5,0-0.9-0.1-1c-0.1-0.1-0.4-0.4-0.9-0.3l-13.4,2
		c-0.7,0.1-1.4,0.6-1.7,1.3l-4.6,13.7l-1.8-12.4c-0.1-0.8-0.8-1.3-1.6-1.2l-10.9,1.6c-0.3,0-0.7,0.3-0.9,0.6c-0.2,0.3-0.3,0.7-0.2,1
		l6.2,42.2c0.1,0.6,0.7,1.2,1.4,1.2c0.1,0,0.1,0,0.2,0l10.9-1.6c0.4-0.1,0.7-0.3,0.9-0.6c0.2-0.3,0.3-0.6,0.2-1l-2-13.8l8.8,13.1
		c0.4,0.6,1.3,0.8,1.8,0.8l14.2-2.1c0.4-0.1,0.7-0.3,0.9-0.6c0.1-0.3,0-0.7-0.3-1L226.1,43.9z M303.5,44.9l-2.2,8.6
		c-0.2,0.8-0.9,1.3-1.6,1.1l-5.9-1l-0.9,4.9c-0.3,1.8,0.5,3.2,2.2,3.5l3.1,0.5c0.5,0.1,0.9,0.6,1,1.4l0,0.1l-1.1,6.5
		c-0.1,0.8-0.7,1.3-1.4,1.3c-0.1,0-0.2,0-0.3,0l-5.9-1c-2-0.3-4.1-1.2-5.9-2.3c-3.3,0.8-7.1,1-10.6,0.4c-9.5-1.6-14.9-8.6-13.4-17.3
		c0.7-4.2,3.2-7.6,6.7-9.2c-1.9-2.2-2.7-5.5-2.1-9c0.7-4,2.7-7.2,5.8-9.1c3.1-2,7-2.6,11.4-1.9c4.8,0.8,8.6,2.9,11.1,5.9
		c2.5,3.1,3.5,6.9,2.8,11l-0.5,2.9l6.6,1.1C303.2,43.4,303.7,44.1,303.5,44.9z M276.8,56.9c0.9,0.2,1.8,0.1,2.4-0.3
		c0.6-0.3,1-0.9,1.1-1.5l0.6-3.7l-3.1-0.5c-0.4-0.1-0.7-0.1-1-0.1c-1.7,0-2.8,0.8-3,2.3C273.5,55,274.7,56.5,276.8,56.9z
		 M280.7,34.3c-0.3,0-0.5-0.1-0.7-0.1c-1.4,0-2.3,0.7-2.6,2c-0.3,1.6,0.7,2.9,2.4,3.2l3.1,0.5l0.4-2.3
		C283.6,35.9,282.6,34.6,280.7,34.3z M353.6,66.1c-0.1-0.4-0.3-0.7-0.7-0.8l-10.7-5.3l2.2-4.4l13.7,6.8c0.7,0.4,1.5,0.1,1.9-0.7
		l4.3-8.7c0.3-0.7,0-1.5-0.6-1.8l-24.8-12.3c-0.6-0.3-1.5,0-1.8,0.6l-18.9,38.2c-0.3,0.6-0.1,1.5,0.6,1.9l9.8,4.9
		c0.2,0.1,0.4,0.1,0.6,0.1c0.5,0,1-0.3,1.3-0.7l6.6-13.4l9.7,4.8c0.7,0.4,1.6,0.1,1.9-0.5l4.8-7.7C353.6,66.8,353.7,66.4,353.6,66.1
		z M381.5,97.9l-2.5,18.6c-0.1,0.4-0.3,0.8-0.7,0.9c-0.1,0-0.3,0.1-0.4,0.1c-0.3,0-0.6-0.1-0.8-0.3l-10.4-8.3
		c-0.6-0.5-0.9-1.4-0.6-2.2l3.6-14.7l-8.5,10.7c-0.2,0.3-0.6,0.4-0.9,0.5c-0.4,0-0.8-0.1-1.1-0.3l-8.5-6.8c-0.6-0.5-0.7-1.4-0.2-1.9
		l26.5-33.4c0.2-0.3,0.6-0.5,0.9-0.5c0.4-0.1,0.8,0,1,0.3l12.8,10.2c7.6,6.1,9,14.9,3.4,21.9C391.8,96.8,386.3,98.9,381.5,97.9z
		 M383.8,84.3c0.5-0.7,0.8-1.4,0.7-2.2c-0.1-0.8-0.5-1.4-1.2-2l-2.5-2l-3.7,4.6l2.5,2C381,85.9,382.7,85.7,383.8,84.3z M412.5,141.5
		c0-0.4-0.1-0.7-0.3-1l-10.1-13l3.6-2.8l7.1,9.1c0.5,0.6,1.4,0.7,1.9,0.4l7.6-4.9c0.3-0.2,0.5-0.5,0.6-0.8c0.1-0.4,0-0.7-0.3-1.1
		l-7.8-10l3.3-2.6l9.7,12.4c0.5,0.7,1.4,0.8,2,0.3l7.7-6c0.3-0.2,0.5-0.6,0.5-0.9c0-0.4-0.1-0.8-0.3-1.1l-17.4-22.2
		c-0.5-0.6-1.2-0.7-1.9-0.2l-33.6,26.3l-0.1,0.1c-0.4,0.5-0.6,1.4-0.1,1.9l17.8,22.7c0.2,0.3,0.6,0.5,0.9,0.5c0.1,0,0.1,0,0.2,0
		c0.3,0,0.6-0.1,0.8-0.3l7.8-6.1C412.4,142.2,412.5,141.9,412.5,141.5z M457.4,170.8c-2.1,5.3-6.4,9.6-12.5,12.3
		c-3.5,1.6-7.1,2.3-10.4,2.3c-8.3,0-15.6-4.8-19.5-13.5l-5.9-13.1c-0.3-0.6,0.1-1.5,0.8-1.8l38.9-17.3c0.3-0.1,0.7-0.2,1.1,0
		c0.4,0.1,0.6,0.4,0.8,0.7l5.9,13.1C459.1,159.5,459.4,165.4,457.4,170.8z M445.3,159.2l-1.1-2.5l-18.6,8.3l1.1,2.5
		c1.8,4.1,6.8,5.2,12.4,2.7c2.8-1.2,4.8-2.9,5.9-5C446.1,163.3,446.2,161.2,445.3,159.2z M155.6,424.3c0.3,0.1,0.7,0.1,1.1-0.3
		l8.3-5.4c0.6-0.4,0.7-1.2,0.3-1.9c-1.9-4-5.3-7.8-9.2-10.3c-11-6.9-23.5-3.5-31.1,8.4c-3.7,5.9-5.1,12-4.1,17.7
		c1,5.7,4.5,10.5,9.9,13.9c3.9,2.5,8.9,3.9,13.2,3.8c0.1,0,0.1,0,0.2,0c0.7,0,1.3-0.4,1.4-1.1l1.3-9.8c0.1-0.6-0.1-0.9-0.2-1.1
		c-0.1-0.2-0.4-0.4-0.9-0.5c-2.4-0.1-4.4-0.7-6.8-2.2c-4.5-2.8-5.3-8.2-2-13.3c3.2-5.1,8.4-6.7,12.9-3.9c2.4,1.5,3.9,3,5,5.2
		C155.1,424.1,155.4,424.3,155.6,424.3z M198,427.3L198,427.3l-0.6,45.1c0,0.4-0.1,0.7-0.4,0.9c-0.2,0.2-0.4,0.2-0.7,0.2
		c-0.1,0-0.3,0-0.4-0.1l-11.6-4c-0.7-0.2-1.2-0.9-1.3-1.6l0,0l0.4-6.7l-10.3-3.5l-3.8,5.6c-0.5,0.5-1.3,0.7-2,0.5l-11.6-4
		c-0.4-0.1-0.6-0.4-0.7-0.8c-0.1-0.3,0-0.7,0.3-1l27.2-36c0.4-0.4,1.4-0.7,2.2-0.4l12,4.1C197.3,425.9,197.9,426.7,198,427.3z
		 M179,448.8l5.2,1.8l0.7-10.4L179,448.8z M231.1,431.5c-4.7-0.5-8.9,0.5-12.1,2.8c-3.2,2.4-5.1,5.9-5.6,10.2
		c-1,9.5,6.4,13.5,11.3,16.2c2.3,1.2,4.2,2.3,4.1,3.3c-0.1,1.2-1.3,1.9-3,1.7c-2.2-0.4-5.5-2-8-3.9c-0.3-0.3-0.7-0.4-1-0.3
		c-0.3,0.1-0.6,0.3-0.8,0.8l-4.8,8.6c-0.3,0.5-0.2,1.2,0.4,1.8c2.9,3,8.2,5.3,13.5,5.8c0.8,0.1,1.6,0.1,2.4,0.1c3.8,0,7.1-1,9.8-2.9
		c3.2-2.3,5.2-5.9,5.6-10.2c1-9.6-6.5-13.6-11.4-16.3c-2.3-1.2-4.2-2.3-4.1-3.2c0.1-0.5,0.3-1,0.8-1.2c0.5-0.3,1.2-0.4,2-0.3
		c2.1,0.4,5.4,2.1,8.1,4.2c0.3,0.3,0.7,0.4,1,0.3c0.3-0.1,0.6-0.3,0.8-0.8l4.8-8.6c0.4-0.5,0.2-1.3-0.5-1.8
		C241,434.5,235.5,432,231.1,431.5z M268.5,432.7l-10.9,0.7c-0.7,0-1.3,0.8-1.2,1.5l2.9,42.5c0,0.3,0.2,0.7,0.5,0.9
		c0.3,0.2,0.6,0.4,0.9,0.4c0,0,0,0,0.1,0l10.9-0.7c0.4,0,0.7-0.2,1-0.5c0.2-0.3,0.3-0.6,0.3-1L270,434
		C269.9,433.2,269.3,432.6,268.5,432.7z M319.2,422.8c-0.2-0.8-1-1.2-1.7-1l-10.6,3c-0.3,0.1-0.6,0.3-0.8,0.7
		c-0.2,0.3-0.2,0.7-0.1,1.1l4.9,17.4l-14.5-15c-0.5-0.5-1.3-0.8-2.1-0.6l-10.3,2.9c-0.4,0.1-0.6,0.4-0.8,0.7c-0.2,0.3-0.2,0.7-0.1,1
		l11.6,41c0.1,0.3,0.3,0.6,0.6,0.8c0.2,0.1,0.5,0.2,0.7,0.2c0.1,0,0.2,0,0.3,0l10.6-3c0.7-0.2,1.2-1,1-1.7l-5-17.4l14.6,15
		c0.5,0.5,1.3,0.7,1.9,0.6l10.3-2.9c0.4-0.1,0.7-0.3,0.9-0.7c0.2-0.3,0.2-0.7,0.1-1L319.2,422.8z M379.5,433.1
		c-1.3,5.7-4.9,10.6-10.6,14c-3.9,2.4-8,3.5-12,3.5c-7.6,0-14.7-4.2-19.5-12.2c-3.6-6-4.8-12.2-3.6-17.9c1.3-5.7,4.9-10.6,10.6-14
		c11.5-6.9,24.2-3.4,31.5,8.8C379.5,421.2,380.8,427.4,379.5,433.1z M355.4,435.9c2.1,0.8,4.3,0.5,6.3-0.7c4.1-2.5,4.9-7.5,1.8-12.5
		c-1.5-2.5-3.4-4.2-5.6-5c-0.8-0.3-1.6-0.4-2.4-0.4c-1.3,0-2.6,0.4-3.9,1.1c-4.1,2.5-4.9,7.5-1.8,12.5
		C351.3,433.4,353.3,435.2,355.4,435.9z M168.4,172.9c1.8-15,14.6-19.6,27.4-18.7c10.5,0.7,36.1,5.9,36.1,5.9
		c10.6-26.6,36.2-28.9,52.4-21.6c13.7,6.2,19.5,19.8,14.6,31c-3.9,8.9-14.3,19.2-46.3,13.8c-24-4.1-47.7-9.5-57.7-6.8
		c-7.7,2.1-9.8,11-10,13.2c-0.2,2.2-3.7,3.3-7.1,1.9C171.4,187.9,167.5,180.7,168.4,172.9z M254.3,165.3c5.6,0.9,21.8,4.9,24.4-5.3
		c0.7-2.8,0-8.4-6.7-9.6C263.4,148.8,256.3,158.3,254.3,165.3z M210.4,234.5c-8.7,29.6-11.2,56.7-35.7,55.4
		c-7.3-0.4-13-5.1-14.4-5.4c-3.9-0.8-5.7,3-4.5,5.3c11.1,19.5,34.1,19.7,43,16.9c17.5-5.4,22.2-21.8,31-53.5
		C223,245.9,219.8,242.5,210.4,234.5z M266.5,294.7c-8.7,29.6-11.2,56.7-35.7,55.4c-7.3-0.4-13-5.1-14.4-5.4c-3.9-0.8-5.7,3-4.5,5.3
		c11.1,19.5,34.1,19.7,43,16.9c17.5-5.4,22.2-21.8,31-53.5C279.1,306.1,275.9,302.7,266.5,294.7z M354.3,231.4
		c-3.9,8.9-14.3,19.2-46.3,13.8v0c-36.6-5.8-100-16.3-116.1-11.8c-7.6,2.2-9.3,11.3-9.4,13.6c-0.1,2.2-3.6,3.4-7.1,2.2
		c-6.5-3.5-10.7-10.5-10.1-18.3c1.1-15.1,13.8-20.8,26.6-20.5c5.8-0.1,14.7,0.5,25.1,1.7c1.1-3.9-1.3,4.5,9.3-32.2
		c8.8,8.4,12.1,13.1,18.5,20.4c-1,4.1-2.3,8.9-3.9,14.8c15.4,2.1,31.8,4.7,46.4,7c10.9-26.9,36.2-28.9,52.4-21.6
		C353.4,206.6,359.2,220.2,354.3,231.4z M327.5,212.2c-8.7-1.6-15.8,7.9-17.8,14.9c5.6,0.9,21.8,4.9,24.4-5.3
		C335,219,334.2,213.4,327.5,212.2z M331.6,269.3c-3.2-1.8-6.9-1.2-7.3,1c-0.5,2.2-3.8,10.8-11.6,11.9c-4.1,0.6-10.2-0.1-17.6-1.7
		c2.4-8.5,4.5-15.9,4.9-17.6c-6.4-7.3-9.7-12.1-18.5-20.4c-10.6,36.9-8.1,28.2-9.3,32.2c-5.9-1.5-9.6-2.3-12.8-2.9
		c-12.6-2.1-25.8-0.4-29.5,14.3c-1.9,7.6,1,15.3,6.8,19.8c3.2,1.8,6.9,1.2,7.3-1c0.5-2.2,3.8-10.8,11.6-11.9
		c5-0.7,13.1,0.4,22.8,2.9c17.6,5,24.8,6.4,30.5,7.4c12.6,2.1,25.8,0.4,29.5-14.3C340.3,281.5,337.4,273.8,331.6,269.3z
		 M165.3,115.2 M464.3,221.2c-2.7-13.7-15.5-18.2-15.5-18.2s-10.1,9-7.4,22.7c1.4,7,7.6,11.6,13.9,10.3
		C461.7,234.8,465.7,228.2,464.3,221.2z M478.3,237.2c-9.4,0.3-18.4,4.9-24.1,12.3c-6-6.9-14.8-11-23.9-11
		c-1.3,6.7-0.3,13.6,2.5,19.5c8.3,17.5,32.6,18.4,42.1,1.5C478.6,252.9,480,245,478.3,237.2z M477.1,277.7c-9.2-1.7-19,0.9-26.2,6.9
		c-5.4-6.9-13.6-11.3-22.4-12.1c-1.5,5.2-1.5,10.7-0.3,15.9c4.4,18.9,28,24.8,40.9,10.3C474.1,293.1,477.2,285.7,477.1,277.7z
		 M468.8,316.5c-8.8-3.3-18.9-2.4-27,2.3c-4.2-7.7-11.5-13.5-20-15.7c-2.4,4.9-3.4,10.3-3.1,15.6c1.1,19.3,23.3,29.3,38.5,17.2
		C463.2,331.2,467.5,324.4,468.8,316.5z M454,353.3c-8.1-4.7-18.2-5.6-27-2.4c-2.8-8.3-9-15.3-16.9-18.9c-3.2,4.4-5.1,9.5-5.7,14.8
		c-2.3,19.2,17.9,32.9,34.9,23.6C446,366.8,451.4,360.9,454,353.3z M433.1,387c-7.2-6-16.9-8.7-26.2-7c-1.3-8.7-6.2-16.6-13.4-21.6
		c-3.9,3.8-6.6,8.5-8.2,13.6c-5.6,18.6,12,35.5,30.3,29.3C422.8,398.9,429.2,394,433.1,387z M44.8,236.1c6.3,1.2,12.6-3.4,13.9-10.3
		c2.7-13.7-7.4-22.7-7.4-22.7s-12.8,4.5-15.5,18.2C34.5,228.2,38.5,234.8,44.8,236.1z M25.9,260.2c10.1,16.5,34.4,14.7,42-3.1
		c2.1-4.9,3-10.3,2.4-15.7c-8.7-0.8-17.6,2.1-24.1,8c-6-7.2-15.2-11.4-24.6-11.3C20.2,246,21.9,253.8,25.9,260.2z M31,298.8
		c12.8,14.5,36.5,8.6,40.9-10.3c1.2-5.2,1.1-10.6-0.3-15.9c-8.7,0.7-16.9,5.1-22.4,12.1c-7.2-6.1-16.9-8.6-26.2-6.9
		C23,285.7,26,293.1,31,298.8z M42.8,335.9c15.1,12.1,37.4,2.1,38.5-17.2c0.3-5.3-0.7-10.7-3.1-15.6c-8.5,2.2-15.8,8-20,15.7
		c-8.1-4.7-18.2-5.6-27-2.3C32.6,324.4,36.9,331.2,42.8,335.9z M60.8,370.4c17,9.3,37.2-4.3,34.9-23.6c-0.6-5.3-2.5-10.4-5.7-14.8
		c-8,3.7-14.2,10.6-16.9,18.9c-8.8-3.3-18.9-2.4-27,2.4C48.8,360.9,54.2,366.8,60.8,370.4z M84.5,401.3
		c18.3,6.2,35.9-10.7,30.3-29.3c-1.5-5.1-4.3-9.8-8.2-13.6c-7.2,5-12.1,12.9-13.4,21.6c-9.2-1.7-19,0.9-26.2,7
		C71,394,77.3,398.9,84.5,401.3z"/>
	<linearGradient id="SVGID_3_" gradientUnits="userSpaceOnUse" x1="165.0971" y1="114.4044" x2="165.0971" y2="114.4044">
		<stop  offset="0" style="stop-color:#512569"/>
		<stop  offset="1" style="stop-color:#7E2987"/>
	</linearGradient>
	<path class="st1" d="M165.1,114.4"/>
</g>
</svg>
