<svg id="Layer_1" style="background-color:#120f0a" xmlns="http://www.w3.org/2000/svg" xmlns:xlink="http://www.w3.org/1999/xlink" viewBox="0 0 752.5 424.4"><style>.st1{fill:#ebe0d1}</style><path d="M631.3 60.6c-66.2 0-120.1 54-120.1 120.3s53.9 120.3 120.1 120.3 120.1-54 120.1-120.3S697.6 60.6 631.3 60.6m-355.5 0c-66.2 0-120.1 54-120.1 120.3s53.9 120.3 120.1 120.3 120.1-54 120.1-120.3S342.1 60.6 275.8 60.6" fill="#f24aa6"/><path class="st1" d="M155.7 178.4h-30.3v27h30.3v12.7H121c-9.9 0-19.2-3.9-26.2-10.9S84 190.8 84 180.7c0-3.4.4-6.7 1.3-9.8.1-.4.2-.9.4-1.3 4.7-15.2 18.8-26.3 35.3-26.3 9.3 0 18.1 3.6 24.8 9.6.4.4.8.7 1.2 1.1 1.5 1.4 2.9 3 4.1 4.7 1.3 1.8 2.5 3.7 3.5 5.7.6 1.3 1.2 2.7 1.7 4 .2-2.2.5-4.4.9-6.6.9-5.6 2.2-11.1 3.8-16.5.3-.9.6-1.8.8-2.6v-.2c.3-.9.6-1.7.9-2.6 0-.1 0-.1.1-.2.3-.8.6-1.7.9-2.5 0-.1.1-.1.1-.2.3-.8.7-1.6 1-2.4 0-.1.1-.2.1-.2.3-.8.7-1.6 1-2.4 0-.1.1-.2.1-.2.4-.8.7-1.6 1.1-2.4 0-.1.1-.2.1-.2l1.2-2.4c0-.1.1-.1.1-.2l1.2-2.4c0-.1.1-.1.1-.2.4-.8.9-1.6 1.3-2.3 0-.1.1-.1.1-.2.4-.8.9-1.6 1.4-2.3l.1-.1c.5-.8.9-1.5 1.4-2.3l.1-.1c.5-.8 1-1.5 1.5-2.3 0 0 0-.1.1-.1.5-.8 1-1.5 1.6-2.3 0 0 0-.1.1-.1.5-.8 1.1-1.5 1.6-2.2v-.1c.6-.8 1.1-1.5 1.7-2.2.6-.7 1.2-1.5 1.7-2.2.6-.7 1.2-1.5 1.8-2.2 4.3-5 9-9.7 14.1-14-21-17.7-48.1-28.3-77.5-28.3C54.8 60.6 1 114.5 1 180.7c0 32.2 12.5 62.5 35.2 85.2 22.7 22.7 52.8 35.2 84.8 35.2 25 0 45.3-8 60.4-23.8l7.5-7.9v28.7h59.7V178.4h-92.9zm355.5 0h-30.3v27h30.3v12.7h-34.7c-9.9 0-19.2-3.9-26.2-10.9s-10.8-16.4-10.8-26.5c0-3.4.4-6.7 1.3-9.8.1-.4.2-.9.4-1.3 4.7-15.2 18.8-26.3 35.3-26.3 9.3 0 18.1 3.6 24.8 9.6.4.4.8.7 1.2 1.1 1.5 1.4 2.9 3 4.1 4.7 1.3 1.8 2.5 3.7 3.5 5.7.6 1.3 1.2 2.7 1.7 4 .2-2.2.5-4.4.9-6.6.9-5.6 2.2-11.1 3.8-16.5.3-.9.6-1.8.8-2.6 0-.1 0-.1.1-.2.3-.9.6-1.7.9-2.6 0-.1 0-.1.1-.2.3-.8.6-1.7.9-2.5 0-.1.1-.1.1-.2.3-.8.7-1.6 1-2.4 0-.1.1-.2.1-.2.3-.8.7-1.6 1-2.4 0-.1.1-.2.1-.2.4-.8.7-1.6 1.1-2.4 0-.1.1-.2.1-.2l1.2-2.4c0-.1.1-.1.1-.2l1.2-2.4c0-.1.1-.1.1-.2.4-.8.9-1.6 1.3-2.3 0-.1.1-.1.1-.2.4-.8.9-1.6 1.4-2.3l.1-.1c.5-.8.9-1.5 1.4-2.3l.1-.1c.5-.8 1-1.5 1.5-2.3 0 0 0-.1.1-.1.5-.8 1-1.5 1.6-2.3 0 0 0-.1.1-.1.5-.8 1.1-1.5 1.6-2.2v-.1c.6-.8 1.1-1.5 1.7-2.2.6-.7 1.2-1.5 1.7-2.2.6-.7 1.2-1.5 1.8-2.2 4.3-5 9-9.7 14.1-14-21-17.7-48.1-28.3-77.5-28.3-66.1 0-120 53.9-120 120.1 0 32.2 12.5 62.5 35.2 85.2 22.7 22.7 52.8 35.2 84.8 35.2 25 0 45.3-8 60.4-23.8l7.5-7.9v28.7h59.7V178.4h-92.9zm-86.7 182.9c.5.1 1 .4 1.5.5.8.1 1.9-.3 2.8-1.2 2.4-1.8 2.4-1.7 4-4.7 0-.3.4-.8.4-2.1.5-2.6-.7-3.6-1.6-4-.7-.4-1.4-.8-2.2-.9-1-.2-2.1.2-3.1 1.2-2.8 2.3-2.6 2.7-3.7 5.8-.6 3.1.5 4.4 1.9 5.4"/><path class="st1" d="M599.4 375.6c-.5 4.8-1 9-5.2 8.7-1.3-.1-2.9-.6-5.3-1.7s-5-2.2-7.2-4.4c-1.1-1-1.7-2.2-1.8-3.6.1-1.4.6-2.5 1.6-3.6 2.9-3.1 6.8-4.9 11.3-5.1h.7c2.7.2 4.8 2.1 5.6 5 .2 1.2.3 2.6.5 3.3l-.2 1.4zm-9.5 20.7c-3.1 3.7-7.1 6.8-11.3 9.1-2.1 1.1-4.2 2-6.5 2.7-1.9.6-4.4 1.4-6.2.2-3.1-2.2.3-7.2 1.6-9.5 2.4-4 5.3-7.4 8.7-10.5 1.2-1.1 2.6-1.7 4.1-1.6.7 0 1.6.3 2.4.8.9.3 1.8.8 2.6 1.3l3.5 1.6c1.1.5 1.7 1.5 1.9 2.7.2 1-.1 2.3-.8 3.2m-248.4 11.9c-2.5 2.5-6.5 4.4-9.8 5.8-2.2 1-5.8 1.8-8.3 1.4-2.7-.4-4.8-4.2-1.9-5.9 3.5-2.5 7.5-4.3 11.4-5.9 2.8-1.2 8.2-4.7 10.4-.7.5 1.3-1.1 4.7-1.8 5.3m-79.7-30.3c-.7.7-1.6 1.2-2.2 1.6-7.1 3.8-15.2 7.6-23.5 9.5-.2.2-.7.2-.9.2-.9.2-1.8.5-2.7.5-1.6 0-2.7-.7-3.4-2-1.2-2.5.8-4.6 1.9-5.8l.7-.7c5.5-6.1 11.8-9.8 18.9-11.5.9-.2 1.8-.2 2.5-.5h1.1c2.5 0 4.5.4 6.5 1.5 1.4.7 2.3 1.8 2.3 3.4.3 1.5-.1 2.9-1.2 3.8m376.4 7.6c-2.9.3-5.9.9-8.8 1.1-5.7.5-11.2.2-16.9.2h-.7c-2.5-.2-4.2-.5-5.3-1.7-.9-1-.8-2.6-.7-3.8.3-5 .9-10.2-1.3-14.9-1.8-3.8-5.3-6.4-9.3-7.2-4.9-.9-10 .8-14.1 3.4-2.7 1.7-5.3 3.8-6.9 6.6-1.4 2.7-1.6 5.8-1 8.7.5 2.6-.7 4.1-1.7 5.2l-1.2 1.1-.3.3c-.6-.1-1.2-.1-1.7-.1-2.6 0-5.3 1.3-7.7 2.2-4.5 1.7-9.1 3.1-13.7 4.6-4.3 1.4-8.7 2.6-13 4-3.1 1-6 1.7-9.2 2.2l-1.6.2c-1.3 0-2.5-.4-3.2-1.4-1.1-1.4-1.2-3.5-1-4.8.2-1.4.6-3 1.1-4.4v-.2l2.6-9c.4-1.9.6-3.7.4-5.8-.3-3-2.3-5.1-5.5-5.3-.5-.2-.9-.2-1.4-.2-2.2 0-4.5.5-6.7 1.7-4.2 1.9-8.9 4.5-13.6 7.8-2.7 1.6-5.3 3.3-8 5.2l-8.7 5.9c-1.9 1.3-5.5 4.1-7.9 4-7.9-.1 3.1-15.1 4.6-17.2 1.7-2.4 12.2-14.3 4.7-14.8-2.9-.2-4.6 3.2-6 5.2-2.2 3-4.5 6-6.6 9.1-1.7 2.5-3.1 4.9-4.4 7.2-.3.1-.7.3-1.1.5-8 4-16.3 7.6-24.6 11.1l-14.6 6.4c-2.5 1.2-5.3 2.2-8 2.8-2 .5-5.4 1.7-6.6-.8-.2-.5-.9-1.6-.3-3.7 1-3 5-9 6.6-11.7 1.8-3.1 4.6-5.7 6.2-8.9 1-2.2-.7-5.5-3.4-5-1 .2-1.6 1-2.3 1.6-.8.7-1.6 1.2-2.4 1.9-1.3 1.1-3.2 2.2-5.1 1.9-.2 0-.4-.1-.6-.1-.1 0-.3 0-.4.1-.8.1-1.6.3-2.4.5-9.8 2.4-21 5.3-30.6 7.8-5 1.3-10 2.8-15.1 3.8-2.2.5-2.6.4-3.1-1.1-1.4-4.4-9.3-5.2-12.5-7.7-4.7-3.6-1.7-5.6-.6-6.3 17.2-11.6 22.6-8.2 24.6-6.8 1.1.4 2.1.6 3.3 0 .9-.5 1.7-1.7 1.8-3 .1-1.8-.8-2.8-1.8-4.1-1.8-2.5-9.4-1.4-12.4-.9-6.9 1.3-16.8 6.8-22.7 10.4-9 5.6-18.5 10.1-27.9 14.9-9.1 4.8-18 10.6-28 13.2h-.2c-2.3.6-5.8 1.7-7.3-.9-.7-.9-.9-2.5-.5-4.2.2-.9.7-1.9 1.1-2.8 1.7-3.9 3.5-7.2 5.5-10l.7-.9c.4-.7 1.1-1.4 1.5-2.3.7-1.5.4-3.5-1-4.5-1.9-1.3-3.8.2-5.8.2-2.5 0-3.8-1.6-5-3.2-2.5-4.1-6.6-6.2-12.2-6.3h-2c-4.7.1-9.2 1-13.7 3.4-2.4 1.2-4.7 2.5-6.9 4-2.1 1.5-3.9 3.3-5.9 4.8-2.2 1.6-4.8 2.8-7.2 4-2.7 1.4-5.4 2.7-8.2 4-11.2 5.3-22.6 10-34.3 13.9-6.6 2.2-12.6 4.1-17.8 5.6-9.2 2.7-19.3 4.8-28.9 3.3-4.1-.7-8.5-2.3-11.2-5.6-3.2-3.9-2.6-9.6-.3-13.8 1.2-2.2 2.5-4.1 4.4-6.1 8.6-9.6 22-16.2 37.9-18.8 2.6-.4 4.6-.6 6.6-.5 1 .1 2.1.2 3.2.5 2.1.6 3.5 1.3 4.4 2.5 1.2 1.5-.1 3.6-.9 5-.2.4-.5.9-.7 1.4-.6 1.8.1 4.1 2 4.9h.1c.2.1.7.3 1.3.3 1.4.1 2.7-.7 3.4-2 .9-1.6 1.5-2.9 2.1-4.1 1.5-3.3 1.2-6.7-.9-9.7-1.7-2.5-4.1-4.2-7.3-5.3-5.6-1.9-11.5-1.2-17.1-.2-15.4 2.9-29.9 9.7-40.5 21.5-4.6 5.1-7.8 11.7-7.4 18.7.3 5.3 2.6 9.7 6.8 13.1 5.8 4.8 12.7 6.5 20.1 6.4 3.7 0 7.4-.4 11-.9 2.8-.4 5.6-.9 8.3-1.7 20.4-5.2 41.1-13 63.4-23.7-.1.6-.2 1.2-.3 1.7.1 4.2 1.9 6.7 5.5 7.8 1.4.2 2.9.2 4.3.2h.2c2.9 0 5.8-.8 8.7-1.5l1.1-.2c5.6-1.4 11.2-3.8 15.6-5.9 2-1 5.7-3.6 7.9-2.3 2.3 1.4.5 6.7.5 8.9.1 4.3 2.3 8.1 6.5 9.4 3.8 1.2 8.4-.5 12.1-1.6 7.6-2.3 13.5-5.7 20.6-9.1 5.5-2.6 12.1-6.6 17.5-9.4 3.3-1.5 6.6-3.3 9.9-5 .2.3.4.5.6.7.9.9 2 1.6 2.9 2.3 2 1.5 4.6 1.9 7 2.7 1 .4 2 .8 2.8 1.5.5.4 2.1 1.8 2 2.6-.2.9-.6 2.3-2.9 3.3-9.8 4.2-23 6.3-30.3 14.9-2.5 3-3.7 7-1 10.3 6.8 8.3 22.2 3.8 29.5-.8.3-.2.7-.4 1-.7 5.2-3.4 11.1-10.7 12.9-16.7.9-2.9 3-4.3 5.8-5 14.4-3.3 28.5-7.7 42.9-11.3 1.6-.3 3-.6 4.5-.7-.4 0-1.8 3.2-2.1 3.6-.9 1.5-1.8 3-2.6 4.6-1.6 3-3.2 6.3-3.3 9.8-.6 11.7 16 7.4 22.2 4.7l37.3-16.2c-.2.9-.4 1.9-.5 2.8-.2 2.3.3 4.4 1.6 5.8 1.1 1.1 2.7 1.8 4.7 1.8.7 0 1.3 0 2-.3 2.2-.5 4.5-1.2 6.9-2.6 3.1-1.7 6.5-3.5 10.7-6.4 2.7-1.6 5.3-3.5 7.8-5.2 3.1-2.1 6.2-4.4 9.4-6.5 1.6-1 3.2-2 4.9-2.8 1.5-.7 3.3-1.8 4.9-1.8.4 0 1.1.2 1.4.4.7.2 2.3 1.4 1.6 4.1-1.6 6.9-6.4 16.1-.8 22.4 4 4 9.7 3.2 14.6 1.9 5.9-1.5 11.6-3.5 17.4-5.3 3.1-1 6.3-2.1 9.4-3.1 2.4-.6 4.8-1.4 7.2-2.2-1.4 2.1-2.6 4.2-3.7 6.3-1.3 3.2-2.1 5.9-1.9 8.7 0 3.5 1.9 6.1 5.2 7 .9.3 2 .6 3.3.7.7 0 1.4-.1 2.3-.1 4.1-.2 8.2-1.6 13.3-4.3 6.5-3.5 12.2-8.3 16.6-14.3 2.4-3.1 5-4.3 8.3-4.1 1.4.1 2.8.4 4.3.6 1.8.1 3.7.1 5.5.1 3.1 0 6.2-.1 9.3-.2 6.8-.4 13.6-.8 20.3-2.4 1.2-.3 3.5-2 3.3-3.5-.3-1.5-2.5-2.1-3.8-2.3-2 0-4.4 0-6.7.3"/><defs><path id="SVGID_1_" d="M365.7 2.4c-27.6-3.1-51.8 2.8-68.4 19-9.5 9.2-15.7 20.9-18.9 34.4-2.4 10.2-3.1 21.5-2.2 33.4 25.6 2.9 48.4-2 64.8-15.7 1.2-1 2.5-2.1 3.6-3.2 16.7-16.2 23.4-40.2 21.1-67.9"/></defs><clipPath id="SVGID_2_"><use xlink:href="#SVGID_1_" overflow="visible"/></clipPath><path clip-path="url(#SVGID_2_)" fill="#00f08f" d="M267.2-7h107.6V98.7H267.2z"/><defs><path id="SVGID_3_" d="M716.7 2.4c-27.6-3.1-51.8 2.8-68.4 19-9.5 9.2-15.7 20.9-18.9 34.4-2.4 10.2-3.1 21.5-2.2 33.4 25.6 2.9 48.4-2 64.8-15.7 1.2-1 2.5-2.1 3.6-3.2 16.7-16.2 23.3-40.2 21.1-67.9"/></defs><clipPath id="SVGID_4_"><use xlink:href="#SVGID_3_" overflow="visible"/></clipPath><path clip-path="url(#SVGID_4_)" fill="#00f08f" d="M618.1-7h107.6V98.7H618.1z"/></svg>