<svg xmlns="http://www.w3.org/2000/svg" xmlns:xlink="http://www.w3.org/1999/xlink" version="1.1" id="Layer_2_1_" x="0px" y="0px" viewBox="0 0 400 108" style="enable-background:new 0 0 657 108;" xml:space="preserve"><style type="text/css">	.st0{fill:#2B242E;}	.st1{fill:#EF384B;}	.st2{fill:#F2E53E;}	.st3{fill:#FEFBDD;}	.st4{fill:#EAE8BB;}	.st5{fill:#FFFFFF;}	.st6{opacity:0.1;}	.st7{fill:#423A16;}	.st8{opacity:0.5;fill:#FFFFFF;enable-background:new    ;}	.st9{fill:#F36E2C;}	.st10{fill:#3E3E3E;}	.st11{fill:#0D0E0E;}	.st12{opacity:0.3;}	.st13{fill:#E9E8E8;}	.st14{fill:#B0B0B0;}	.st15{opacity:0.8;fill:#FFFFFF;enable-background:new    ;}	.st16{fill:#4A4A4A;}</style><g><path class="st0" d="M175.9,45.1l11.7-11.9c0.5-0.5,0.6-1.4,0.1-2c-2.6-3.4-12.2-13.8-30.6-13.8c-22,0-40.5,18.5-40.5,38.7   s18.3,37.7,40.7,37.7c20,0,30.4-11.2,32.4-13.5c0.2-0.3,0.3-0.6,0.3-1V53.5c0-0.8-0.7-1.5-1.5-1.5h-29.6c-0.8,0-1.5,0.7-1.5,1.5   v12.7c0,0.8,0.7,1.5,1.5,1.5h7.7c0.5,0,0.9,0.4,0.9,0.9v1.3c0,0.4-0.1,0.7-0.3,1c-0.9,1-3.5,3.4-10,3.4c-8.4,0-17.6-7.7-17.6-18.2   s7.6-18.2,18-18.2c8,0,13.8,5,16.1,7.2C174.3,45.7,175.3,45.7,175.9,45.1z"></path><path class="st0" d="M268.2,19.7v18.5c0,0.5,0.4,1,1,1h16.6c0.5,0,1,0.4,1,1v51.4c0,0.5,0.4,1,1,1H309c0.5,0,1-0.4,1-1V40.2   c0-0.5,0.4-1,1-1h16.7c0.5,0,1-0.4,1-1V19.7c0-0.5-0.4-1-1-1h-58.5C268.6,18.7,268.2,19.2,268.2,19.7z"></path><path class="st0" d="M389,28.1c0.4-0.4,0.4-1,0-1.4c-2.3-2.4-10.6-9.7-26.7-9.7c-19.2,0-29.2,12.2-29.2,22.5   c0,26.9,31.9,22,31.9,30.5c0,5.4-8.1,5.3-8.1,5.3s-5.8,0-12.8-6.1c-0.4-0.3-1-0.3-1.4,0.1l-12.3,12.2c-0.4,0.4-0.4,1,0,1.4   c2.6,2.7,12.8,11.8,29.5,11.8c19.8,0,31.5-10.6,31.5-24.6c0-25-32.1-21.9-32.1-29.3c0-4,5.6-4.4,6.6-4.4c0.9,0,5.2,0.2,9.5,4.5   c0.4,0.4,1,0.4,1.4,0L389,28.1z"></path><path class="st0" d="M261.1,18.9c-3.8,0-16.4,0-20.1,0c-0.6,0-1.1,0.5-1.1,1.1v41.7c0,3.2-2.1,11.1-10.7,11.1s-10.7-8-10.7-11.1V20   c0-0.6-0.5-1.1-1.1-1.1h-20.1c-0.6,0-1.1,0.5-1.1,1.1c0.1,6.6,0,40.7,0,40.7c0,14,7.9,31.6,33,31.6l0,0l0,0l0,0l0,0   c25.2,0,33-17.6,33-31.6c0,0-0.1-34.2,0-40.7C262.2,19.4,261.7,18.9,261.1,18.9z"></path></g><g><path class="st1" d="M102.4,24.5c4.1,8,5.9,17.2,5.1,26.3C106,69.5,93.6,86.4,76.6,93.9C58.4,102,36,98.4,21,85.3   C5.4,71.6-0.8,49.5,5.9,29.8c2-5.7,4.9-11,8.9-15.6c3.1-3.7,8.7-4.1,12.3-0.9c3.3,2.8,4,7.6,1.7,11.2l-0.1,0.2   c-9.4,15-5.9,35.9,9.2,45.9c9.6,6.3,22.6,7,32.7,1.7c14.6-7.6,20.8-25.5,15.7-40.8l-0.1-0.2c-1.5-4.6,1-9.5,5.6-11   C96.1,18.9,100.5,20.8,102.4,24.5z"></path><circle class="st1" cx="56.1" cy="41.4" r="23.9"></circle></g></svg>