<svg xmlns="http://www.w3.org/2000/svg" viewBox="25 -4 130 40" class="svg-logo" style="background-color:#123156"
fill="#6ccb88"  ><title>Hajper Logo</title><g transform="translate(25 7.319)"><path d="M29.737.27h-6.825a.594.594 0 0 0-.558.39l-3.12 8.364-4.562.15 3.26-8.502a.297.297 0 0 0-.278-.402H10.47a.595.595 0 0 0-.554.381l-3.371 8.78c-1.931.058-3.593.105-4.911.137a.594.594 0 0 0-.54.381L.02 12.755a.296.296 0 0 0 .285.404c1.258-.041 2.912-.103 4.88-.18l-2.891 7.528a.296.296 0 0 0 .297.405c2.297-.178 4.774-.361 7.42-.546a.597.597 0 0 0 .515-.381l2.814-7.338 4.613-.191-2.661 7.133a.296.296 0 0 0 .295.401c2.223-.144 4.543-.288 6.955-.43a.597.597 0 0 0 .524-.384L30.016.668a.296.296 0 0 0-.279-.398"></path></g><path d="M65.105 10.796h4.528l-1.71 4.78-4.624.144 1.806-4.924zm1.653 8.04l-2.406 6.732c-.07.199.081.407.293.396 1.716-.086 4.47-.264 6.613-.382a.594.594 0 0 0 .523-.383L78.276 7.99a.297.297 0 0 0-.278-.402H59.174a.595.595 0 0 0-.557.384l-6.863 18.183c-.075.2.079.413.293.402 1.928-.1 5.775-.276 7.012-.333a.592.592 0 0 0 .529-.387l2.505-6.829 4.665-.172zM124.223 23.231l-8.386-.425 1.573-4.172 5.327.175a.594.594 0 0 0 .577-.386l.927-2.48a.297.297 0 0 0-.273-.401l-5.353-.106 1.71-4.537 8.462.11a.594.594 0 0 0 .565-.386l.98-2.621a.294.294 0 0 0-.275-.399A173448.448 173448.448 0 0 1 114.4 7.59a.578.578 0 0 0-.542.375l-6.432 17.2c-.07.188.062.39.262.401l15.328.813a.595.595 0 0 0 .588-.385l.883-2.36a.297.297 0 0 0-.264-.402M102.72 11.431l-2.168 6.039a1.192 1.192 0 0 1-1.146.787c-.993-.022-1.924-.038-2.787-.05l2.723-7.571h2.82c.41 0 .698.408.559.795m5.331-3.81a7344.42 7344.42 0 0 1-14.48-.032.57.57 0 0 0-.542.368L86.814 24.65a.297.297 0 0 0 .278.4h6.648c.25 0 .474-.157.559-.393l1.22-3.394 7.745.219a4.162 4.162 0 0 0 4.012-2.693l2.997-7.951a2.378 2.378 0 0 0-2.22-3.217M142.429 11.945L139.896 19a1.19 1.19 0 0 1-1.172.786c-.888-.039-1.802-.08-2.741-.12l3.063-8.516h2.823c.412 0 .7.408.56.795m4.028 8.735l3.713-9.85a2.377 2.377 0 0 0-2.221-3.216c-5.19-.007-11.556-.014-14.486-.025a.59.59 0 0 0-.557.387l-6.783 18.215c-.07.187.06.388.26.4l6.723.437a.297.297 0 0 0 .3-.196l1.397-3.885 1.05.059c.377.02.724.22.931.536l2.368 3.62a.594.594 0 0 0 .46.267l6.93.444a.297.297 0 0 0 .255-.476l-3.138-4.17a4.158 4.158 0 0 0 2.798-2.547"></path><g transform="translate(82.676 .183)"><path d="M.524 4.883l7.381-.002a.566.566 0 0 0 .535-.365c.516-1.371 1.316-3.349 1.54-3.95.074-.194-.079-.407-.29-.408L2.332.114a.567.567 0 0 0-.539.364L.231 4.473c-.073.195.08.41.293.41"></path></g><g><path d="M89.556 7.589l-7.39.002c-.24 0-.45.144-.533.365l-7.46 19.764a1.78 1.78 0 0 1-1.574 1.15c-3.074.156-6.985.358-9.219.488a.592.592 0 0 0-.524.393l-.978 2.738a.298.298 0 0 0 .3.396c.931-.058 1.855-.115 2.765-.168l11.95-.538c2.386-.11 4.436-1.578 5.263-3.773 1.877-4.978 5.306-14.076 7.69-20.41.074-.194-.078-.407-.29-.407"></path></g></svg>