<svg xmlns="http://www.w3.org/2000/svg" viewBox="0 0 124 74"><g fill="none" fill-rule="evenodd"><path fill="#000" d="M3.972 6.07l2.431 67.879 115.126-.03 2.443-69.953z"></path><path fill="#F9EC69" d="M.6 2.718L121.801.594l-2.484 71.128-116.244.03z"></path><path fill="#000" d="M121.18.022l-120 2.103-1.18.02.042 1.188 2.431 67.88.04 1.122h1.12l115.126-.03 1.118-.001.04-1.123 2.442-69.953.043-1.228-1.222.022zM1.2 3.29l120-2.104-2.442 69.952-115.126.03L1.2 3.292z"></path><path fill="#000" d="M30.003 41.23l-.069-10.697h-3.917l-.275 10.697H15.735V13.7H25.88l.068 10.147h3.918L29.79 13.7h10.076v27.53zM43.885 41.23l-.364-27.53h8.839l-.434 27.53z"></path><g fill="#000"><path d="M78.912 39.73a21.576 21.576 0 0 1-5.378 1.547 38.104 38.104 0 0 1-5.73.425c-2.033 0-3.839-.226-5.417-.677-1.577-.45-2.907-1.218-3.989-2.302-1.082-1.083-1.904-2.52-2.463-4.313-.561-1.792-.841-4.03-.841-6.713 0-2.527.319-4.68.958-6.46.639-1.78 1.519-3.23 2.64-4.353a9.994 9.994 0 0 1 3.91-2.437c1.487-.503 3.077-.755 4.772-.755 1.721 0 3.448.169 5.182.504 1.734.335 3.357.953 4.87 1.857l-3.012 6.576a11.852 11.852 0 0 0-3.07-.851 21.929 21.929 0 0 0-2.757-.193c-1.382 0-2.49.432-3.325 1.296-.835.864-1.251 2.405-1.251 4.623 0 1.186.059 2.199.176 3.037.117.838.319 1.528.606 2.07.287.541.69.935 1.213 1.18.52.245 1.199.367 2.033.367.312 0 .646-.02.997-.058.352-.039.697-.11 1.037-.213v-2.63h-2.894v-6.311l11.733.972v13.811zM22.17 51.764c.787 0 1.35-.154 1.686-.46.338-.307.507-.752.507-1.334 0-.597-.197-1.017-.59-1.26-.395-.242-.856-.363-1.387-.363-.192 0-.389.016-.59.048a9.349 9.349 0 0 0-.614.121v3.248h.988zm1.084 3.999h-2.072l.023 5.04h-5.47V44.348c.98-.226 2.016-.412 3.11-.557a24.412 24.412 0 0 1 3.228-.219c1.076 0 2.085.106 3.025.316.94.21 1.763.561 2.47 1.054a5.192 5.192 0 0 1 1.674 1.951c.41.808.616 1.81.616 3.004 0 1.212-.226 2.234-.675 3.066a4.797 4.797 0 0 1-1.953 1.951l3.543 5.913h-6.038l-1.481-5.064zM39.54 56.32c.499 0 .899-.093 1.198-.28.3-.185.529-.45.687-.8.158-.346.262-.766.313-1.26.05-.491.074-1.045.074-1.659 0-.614-.025-1.167-.074-1.66-.05-.493-.155-.913-.313-1.26a1.785 1.785 0 0 0-.687-.8c-.3-.185-.7-.278-1.199-.278-.499 0-.903.093-1.21.278-.309.186-.55.453-.725.8-.176.347-.292.767-.35 1.26a14.175 14.175 0 0 0-.088 1.66c0 .614.03 1.168.088 1.66.058.493.174.913.35 1.26.175.348.416.614.724.8.308.186.712.279 1.211.279m-.1 4.774c-1.432 0-2.652-.179-3.659-.534-1.008-.355-1.828-.892-2.46-1.611-.633-.72-1.1-1.628-1.398-2.727-.3-1.098-.45-2.398-.45-3.9 0-1.503.15-2.804.45-3.903.299-1.098.765-2.006 1.398-2.726.632-.719 1.452-1.256 2.46-1.611 1.007-.356 2.227-.533 3.66-.533 1.431 0 2.655.177 3.67.533 1.017.355 1.85.892 2.5 1.611.648.72 1.127 1.628 1.435 2.726.308 1.1.462 2.4.462 3.902 0 1.503-.154 2.803-.462 3.901-.308 1.1-.787 2.008-1.436 2.727-.65.72-1.482 1.256-2.498 1.611-1.016.355-2.24.534-3.671.534M49.136 60.803V43.839h5.967l-.521 12.19 6.965-.555v5.329zM63.402 60.827V43.864h5.967l-.52 12.19 6.964-.556v5.329zM77.669 60.803V43.839h12.049v4.775l-6.603-.457v2.659l5.958-.434.067 3.417h-6.025v3.097l6.603-.867v4.774zM96.856 41.23l-.069-10.697H92.87l-.275 10.697H82.588V13.7h10.144l.07 10.147h3.916l.054-10.147h9.946v27.53zM98.249 51.764c.787 0 1.35-.154 1.686-.46.338-.307.507-.752.507-1.334 0-.597-.197-1.017-.59-1.26-.395-.242-.856-.363-1.387-.363-.192 0-.389.016-.59.048a9.349 9.349 0 0 0-.614.121v3.248h.988zm1.084 3.999H97.26l.023 5.04h-5.47V44.348c.98-.226 2.017-.412 3.11-.557a24.412 24.412 0 0 1 3.229-.219c1.076 0 2.084.106 3.024.316.94.21 1.763.561 2.47 1.054a5.197 5.197 0 0 1 1.675 1.951c.41.808.615 1.81.615 3.004 0 1.212-.226 2.234-.675 3.066a4.797 4.797 0 0 1-1.952 1.951l3.542 5.913h-6.038l-1.481-5.064z"></path></g></g></svg>