<svg xmlns="http://www.w3.org/2000/svg" xmlns:xlink="http://www.w3.org/1999/xlink" xml:space="preserve" version="1.1" style="shape-rendering:geometricPrecision;  background-color:#000; text-rendering:geometricPrecision; image-rendering:optimizeQuality; fill-rule:evenodd; clip-rule:evenodd" viewBox="0 0 28603.86 7188.85"><defs><style type="text/css">    .fil2 {fill:#C58900}    .fil3 {fill:#F4EF00}    .fil1 {fill:whitesmoke;fill-rule:nonzero}    .fil0 {fill:#F7F7F7;fill-rule:nonzero}   </style></defs><g id="Слой_x0020_1"><metadata id="CorelCorpID_0Corel-Layer"></metadata><g id="_2159006775312"><path class="fil0" d="M6241.57 200.79l-1150.84 4984.81c-13.35,58.34 -65.28,97.87 -122.7,97.82l0 0.25 -1951.45 0c-69.67,0 -126.16,-56.49 -126.16,-126.16 0,-12.82 1.92,-25.19 5.47,-36.85l387.29 -1677.48 -680.58 0 -402.28 1742.42c-13.35,58.34 -65.28,97.87 -122.7,97.82l0 0.25 -1951.46 0c-69.67,0 -126.16,-56.49 -126.16,-126.16 0,-12.82 1.92,-25.19 5.47,-36.85l1150.84 -4984.81c13.35,-58.34 65.28,-97.87 122.7,-97.82l0 -0.25 1951.46 0c69.67,0 126.16,56.49 126.16,126.16 0,12.82 -1.92,25.19 -5.47,36.85l-370.81 1606.15 680.58 0 385.8 -1671.08c13.35,-58.34 65.28,-97.87 122.7,-97.82l0 -0.25 1951.45 0c69.67,0 126.16,56.49 126.16,126.16 0,12.82 -1.92,25.19 -5.47,36.85z"></path><path class="fil1" d="M10222.09 3426.68l-353.09 1793.67c-11.75,60.2 -64.56,101.94 -123.69,101.89l0 0.11 -2110.32 0c-69.67,0 -126.16,-56.49 -126.16,-126.16 0,-10.53 1.3,-20.75 3.72,-30.52l357.77 -1802.84 -1282.93 -3147.04c-26.13,-64.5 4.98,-137.97 69.48,-164.1 18.3,-7.41 37.31,-10.21 55.76,-8.96l1879.2 -17.55c54.75,-0.43 101.6,34.23 119.2,82.97l578.88 1547.76 1262.11 -1566.28c24.84,-30.89 61.29,-46.95 98.07,-46.98l0 -0.32 2090.69 0c69.67,0 126.16,56.49 126.16,126.16 0,34.3 -13.7,65.4 -35.92,88.15l-2608.93 3170.05z"></path><path class="fil1" d="M15780.27 8.9c239.42,0 459.96,19.93 661.57,59.78 203.94,40.31 388.64,101.25 554.05,182.78 167.62,82.61 310.6,183.96 428.88,304.02 119.33,121.12 212.89,260.67 280.59,418.6l12.06 28.56c200.46,495.37 131.16,1071.75 -133.42,1584.84 -261.03,506.22 -713.8,952.92 -1284.82,1197.79 -14.33,6.15 -29.93,12.65 -47.01,19.55l0.07 0.17c-195.79,79.23 -403.74,138.84 -623.75,178.83 -219.24,39.84 -447.56,59.77 -684.92,59.77l-361.96 0 -250.64 1133.07c-12.96,58.67 -65,98.62 -122.7,98.57l0 0.47 -1951.38 0c-69.67,0 -126.16,-56.49 -126.16,-126.16 0,-13.35 2.08,-26.22 5.92,-38.29l1106.78 -5003.3c12.96,-58.67 65,-98.62 122.7,-98.57l0 -0.47 2414.12 0zm-627.05 2371.48c212.83,0 359.21,-123.14 424.18,-268.58 22.06,-49.41 34.78,-101.04 37.47,-150.84 2.54,-46.94 -3.88,-91.89 -19.79,-131.05 -32.22,-79.27 -111.52,-136.77 -245.01,-136.77l-253.16 0 -143.98 687.25 200.29 0z"></path><path class="fil1" d="M26569.69 57.95c237.15,0 455.61,19.75 655.34,59.21 202.03,39.93 385.04,100.31 548.94,181.09 166.1,81.86 307.79,182.31 425.03,301.29 118.28,120.06 211,258.37 278.1,414.88 3.5,8.16 7.46,17.69 11.78,28.38l0.17 -0.07c198.62,490.86 130,1061.97 -132.16,1570.36 -208.21,403.75 -539.54,769.28 -956,1023.04l516.62 1461.25c23.12,65.59 -11.29,137.53 -76.88,160.65 -13.85,4.88 -27.99,7.19 -41.88,7.19l0 0.2 -1992.9 0c-58.85,0 -108.3,-40.31 -122.23,-94.83l-326 -996.78 -221.83 1002.83c-12.96,58.67 -65,98.62 -122.7,98.57l0 0.47 -1932.29 0c-69.67,0 -126.16,-56.49 -126.16,-126.16 0,-13.35 2.08,-26.22 5.92,-38.29l1095.93 -4954.25c12.96,-58.67 65,-98.62 122.7,-98.57l0 -0.47 2390.51 0zm-620.92 2348.29c210.2,0 354.75,-121.6 418.91,-265.22 21.8,-48.8 34.33,-99.75 37,-148.92 2.51,-46.3 -3.81,-90.64 -19.51,-129.24 -31.72,-78.05 -109.87,-134.66 -241.46,-134.66l-249.68 0 -142.06 678.05 196.8 0z"></path><path class="fil2" d="M18987.17 221.97l4421.7 -8.9c370.15,0 313.44,334.69 140.29,443.82l-2315.32 1684.65 1029.49 7.27c269.77,12.39 260.11,327.5 79.71,433.03l-2296.79 1665.47 876.77 -9.78c255.44,16.11 277.5,265.27 54.59,412.92l-2783.79 2272.73c-221.62,145.95 -495.61,43.13 -402.88,-253.99l591.54 -1837.63c6.87,-17.36 -261.41,54.49 -233.85,-273.82 2.58,-30.86 7.8,-65.27 16.1,-103.62l413.09 -2017.86c-208.27,-11.68 -337.45,-51.69 -288.04,-343.36l237.94 -1528.19c43.38,-272.89 140.15,-536.89 459.46,-542.74z"></path><path class="fil3" d="M18964.74 8.9l4421.7 -8.9c370.15,0 313.44,334.69 140.29,443.82l-2315.32 1684.65 1029.49 7.27c269.77,12.39 260.11,327.5 79.71,433.03l-2296.79 1665.47 820.69 -9.78c255.44,16.11 311.15,276.48 65.8,457.78l-2738.93 2227.88c-221.62,145.95 -439.54,43.13 -346.81,-253.99l288.75 -1299.34c6.87,-17.36 -261.42,54.49 -233.85,-273.82 2.58,-30.87 7.8,-65.27 16.1,-103.62l435.51 -2017.87c-208.27,-11.68 -337.45,-51.69 -288.04,-343.36l462.24 -2066.47c43.38,-272.89 140.15,-536.89 459.46,-542.74z"></path></g></g></svg>