<svg xmlns="http://www.w3.org/2000/svg" style="background-color:#89ea88" xmlns:xlink="http://www.w3.org/1999/xlink" version="1.1" id="Layer_1" x="0px" y="0px" viewBox="0 0 300 200" enable-background="new 0 0 300 200" xml:space="preserve"><g><path fill="currentColor" d="M59.437,95.961c-0.747-1.941-3.768-1.236-4.042,0.941l-2.233,17.686c-0.282,2.235-2.327,4.048-4.56,4.048   c-14.74,0.001-14.956-0.521-10.882-32.782c4.099-32.447,10.807-30.541,17.166-32.228c0.124-0.036,0.212-0.104,0.27-0.188   c0.004,0,0.009,0,0.013,0c-0.002,0.071,0.361-0.042,0.015-0.031c-0.005,0.007-0.004,0.01-0.007,0.016   c-0.001-0.002-0.004-0.002-0.006-0.002c0.004-0.004,0.01-0.009,0.013-0.014c-0.085,0.004-0.146,0.008-0.203,0.01   c-0.349-0.006-1.025-0.01-2.261-0.01H16.25c-3.424,0-6.544,2.773-6.977,6.197l-7.917,62.681c-0.431,3.419,1.992,6.193,5.412,6.193   h22.716c0.409,0.76,0.863,1.478,1.338,2.176c0.031,0.045,0.062,0.09,0.093,0.136c0.216,0.311,0.435,0.617,0.664,0.919   c0.108,0.141,0.222,0.277,0.333,0.414c0.215,0.268,0.431,0.534,0.658,0.791c0.292,0.332,0.596,0.654,0.908,0.968   c0.064,0.063,0.129,0.125,0.193,0.188c3.224,3.151,7.453,5.256,12.808,5.884c1.988,0.231,3.258,1.988,3.005,4.005l-2.272,17.982   c-0.104,0.837,0.249,1.452,0.792,1.79c-0.001,0.001-0.002,0.004-0.004,0.007c0.048,0.028,0.102,0.047,0.152,0.071   c0.046,0.022,0.092,0.047,0.139,0.064c0.046,0.018,0.093,0.03,0.14,0.046c0.083,0.026,0.165,0.047,0.252,0.063   c0.026,0.002,0.052,0.008,0.079,0.011c0.784,0.108,1.683-0.221,2.252-1.104l0.183-0.285l0.01-0.071l18.619-29.215   c0.959-1.508,1.472-3.194,1.487-4.84c0.019-1.011-0.143-2.001-0.506-2.935L59.437,95.961z M7.673,122.433l7.938-62.872h16.725   l-7.94,62.872H7.673z"></path><path fill="currentColor" d="M113.462,82.214c-0.747,0-1.191,0.493-1.315,1.476c-0.097,0.776,0.21,1.672,0.915,2.682   c0.83-0.844,1.314-1.786,1.451-2.859C114.621,82.654,114.266,82.214,113.462,82.214z"></path><path fill="currentColor" d="M108.249,99.864c-0.121,0.95,0.092,1.69,0.631,2.207c0.452,0.491,1.07,0.74,1.853,0.74   c0.974,0,1.94-0.437,2.891-1.301l-2.97-4.931C109.157,97.934,108.354,99.029,108.249,99.864z"></path><path fill="currentColor" d="M160.914,72.685c-1.961,0-3.582,0.804-4.846,2.427c-0.93,1.176-1.632,2.94-2.094,5.302   c-0.246,1.508-0.736,5.045-1.432,10.582c-0.731,5.773-1.122,8.651-1.16,8.651c-0.265,3.624-0.015,6.197,0.762,7.75   c0.672,1.287,2.043,1.932,4.102,1.932c2.165,0,3.84-0.77,5.002-2.279c1.165-1.507,2.068-4.111,2.701-7.813l1.933-15.297   c0.229-2.235,0.368-3.784,0.417-4.62c0.002-1.852-0.295-3.303-0.886-4.375C164.604,73.436,163.093,72.685,160.914,72.685z"></path><path fill="currentColor" d="M292.668,53.406H102.097c-3.352-6.222-8.883-10.527-16.976-11.472c-1.987-0.234-3.256-1.99-3.003-4.006   l2.272-17.984c0.273-2.181-2.557-2.88-3.801-0.947l-0.183,0.286l-15.9,24.973l-2.747,4.313c-0.957,1.506-1.472,3.193-1.486,4.837   c-0.019,1.016,0.159,2,0.507,2.934l11.355,29.583c0.757,1.931,3.767,1.239,4.041-0.944l2.234-17.686   c0.279-2.232,2.324-4.044,4.559-4.044c11.378-0.003,14.074,0.491,12.946,14.727c-0.359,4.504-1.094,10.37-2.064,18.053   c-4.186,33.122-10.341,30.429-16.71,32.117c-0.144,0.036-0.623,0.141-0.689,0.236c0.134,0-0.465,0.106-0.066,0.095   c1.697-0.084,1.708,0,5.131,0h201.671c3.424,0,6.548-2.774,6.978-6.193l7.917-62.681C298.511,56.18,296.093,53.406,292.668,53.406z    M118.64,108.687l-1.353-1.95c-2.389,1.534-5.052,2.301-7.987,2.301c-3.175,0-5.639-0.797-7.384-2.385   c-1.739-1.584-2.446-3.716-2.106-6.396c0.367-2.887,2.708-5.967,7.045-9.258c-2.148-2.599-3.087-4.975-2.815-7.138   c0.334-2.655,1.542-4.674,3.622-6.056c1.798-1.215,3.977-1.815,6.542-1.815c3.001,0,5.244,0.733,6.729,2.202   c1.354,1.354,1.902,3.103,1.635,5.235c-0.376,2.972-2.252,5.814-5.624,8.524l1.661,2.939c0.086-0.233,0.342-0.637,0.759-1.21   c0.32-0.46,0.562-1.042,0.742-1.729l7.548,0.86c-0.273,1.701-0.89,3.269-1.846,4.704c-0.96,1.244-1.917,2.462-2.868,3.668   l5.106,7.502H118.64z M184.759,79.482c-0.073,1.015-0.529,4.853-1.372,11.512l-1.399,11.091c-0.229,1.798-0.607,3.484-1.133,5.045   c-1.316,3.704-3.624,6.894-6.939,9.584c-5.2,4.262-11.639,6.388-19.327,6.388c-7.472,0-13.291-2.126-17.469-6.388   c-2.586-2.63-4.032-6.072-4.331-10.336c-0.07-0.727-0.06-2.44,0.062-5.126l2.673-21.181c0.273-1.728,0.684-3.444,1.238-5.129   c1.195-3.703,3.478-6.922,6.855-9.663c5.239-4.25,11.581-6.387,19.039-6.387c8.566,0,15.005,2.75,19.289,8.237   c1.763,2.125,2.741,4.566,2.958,7.307C184.975,75.177,184.925,76.849,184.759,79.482z M289.294,73.352H274.75l-6.195,49.081H250.24   l6.194-49.081h-16.229l-3.801,30.08c-0.515,4.098-1.394,7.253-2.619,9.458c-1.239,2.22-3.103,4.142-5.607,5.758   c-4.638,2.975-10.984,4.455-19.057,4.455c-8.565,0-14.576-1.48-18.013-4.455c-3.778-3.305-5.233-8.375-4.371-15.216l5.542-43.871   h18.394l-5.612,44.458c-0.187,1.469,0.273,2.715,1.38,3.743c1.102,1.043,2.571,1.565,4.421,1.565c1.795,0,3.368-0.522,4.734-1.565   c1.366-1.028,2.142-2.274,2.323-3.743l5.615-44.458h67.503L289.294,73.352z"></path><path fill="currentColor" d="M153.678,134.555h-13.898l-4.116,28.789h13.82c3.618,0,6.443-0.814,8.471-2.447   c2.027-1.632,3.255-3.912,3.675-6.849c0.23-1.618,0.056-2.947-0.521-3.987c-0.577-1.044-1.471-1.837-2.681-2.387   c1.007-0.521,1.911-1.198,2.719-2.036c0.804-0.836,1.318-2.036,1.54-3.598c0.345-2.412-0.172-4.264-1.549-5.552   C159.756,135.201,157.272,134.555,153.678,134.555z M153.786,154.232c-0.117,0.829-0.449,1.513-0.99,2.052   c-0.545,0.54-1.307,0.809-2.296,0.809h-6.292l0.806-5.637h6.333c0.987,0,1.672,0.243,2.053,0.727   C153.785,152.665,153.913,153.349,153.786,154.232z M154.723,143.089c-0.103,0.72-0.361,1.278-0.774,1.68   c-0.415,0.402-1.103,0.602-2.061,0.602h-6.005l0.654-4.563h6.005c0.982,0,1.618,0.214,1.902,0.642   C154.723,141.879,154.816,142.424,154.723,143.089z"></path><polygon fill="currentColor" points="193.941,163.344 216.271,163.344 217.229,156.64 202.796,156.64 203.502,151.704 212.014,151.704    212.96,145.084 204.448,145.084 204.992,141.258 219.143,141.258 220.098,134.555 198.056,134.555  "></polygon><polygon fill="currentColor" points="252.09,141.508 260.149,141.508 257.028,163.344 265.006,163.344 268.127,141.508 276.188,141.508    277.183,134.555 253.081,134.555  "></polygon></g></svg>