<svg xmlns="http://www.w3.org/2000/svg" viewBox="0 0 431 319"><style>		tspan { white-space:pre }		.shp0 { fill: #662d91 } 		.shp1 { fill: #ffffff } 		.shp2 { fill: #ffde17 } 	</style><g id="Layer 1"><path id="Path 0" class="shp0" d="M214.5 1.56C206.25 2.26 196.13 3.3 192 3.88C187.88 4.45 180.68 5.6 176 6.43C171.32 7.26 165.25 8.45 162.5 9.06C159.75 9.67 155.7 10.4 153.5 10.69C151.3 10.97 149.07 11.61 148.55 12.1C148.03 12.6 146.79 13 145.81 13C144.82 13 140.53 14.13 136.26 15.51C131.99 16.9 126.7 18.56 124.5 19.22C122.3 19.87 115.1 22.51 108.5 25.07C101.9 27.64 92 31.85 86.5 34.43C81 37.01 72.9 41.22 68.5 43.78C64.1 46.35 57.59 50.49 54.02 52.98C50.46 55.46 43.71 61.14 39.02 65.6C34.34 70.05 27.93 77.03 24.79 81.1C21.65 85.17 16.57 93.45 13.5 99.5C10.44 105.55 7.46 112.08 6.89 114C6.32 115.92 5.41 119.08 4.87 121C4.33 122.92 3.02 128.78 1.95 134C0.57 140.74 0.01 147.56 0.01 157.5C0.01 165.33 0.67 175.47 1.51 180.5C2.34 185.45 3.51 191.53 4.11 194C4.7 196.47 5.56 199.63 6.01 201C6.46 202.38 8.03 206.88 9.5 211C10.96 215.13 12.53 219.4 12.98 220.5C13.43 221.6 14.36 224.07 15.05 226C15.74 227.93 16.95 231.07 17.75 233C18.55 234.93 19.58 237.4 20.03 238.5C20.49 239.6 21.98 244.1 23.33 248.5C24.69 252.9 26.36 258.98 27.03 262C27.71 265.02 27.99 269.07 27.66 271C27.33 272.93 24.18 280.35 20.66 287.5C17.14 294.65 13.64 302.15 12.88 304.18C11.63 307.5 11.69 308.25 13.5 311.97C14.84 314.72 16.66 316.61 19 317.67C21.4 318.76 23.84 319.06 26.75 318.63C29.09 318.28 33.14 317.01 35.75 315.81C38.36 314.61 42.08 312.66 44 311.48C45.92 310.31 51.33 307.29 56 304.78C60.67 302.27 70.8 296.98 78.5 293.02C86.2 289.06 95.88 284.73 100 283.39C105.17 281.72 109.75 280.97 114.75 280.98C119.21 280.99 125.56 281.94 131.25 283.45C136.34 284.8 143.2 286.62 146.5 287.48C149.8 288.35 155.65 289.7 159.5 290.49C163.35 291.28 171.22 292.72 177 293.68C185.37 295.08 193.38 295.43 216.5 295.41C238.71 295.39 247.96 294.99 256 293.7C261.77 292.78 269.88 291.36 274 290.55C278.13 289.74 286 287.89 291.5 286.45C297 285 304.88 282.69 309 281.3C313.13 279.92 319.88 277.45 324 275.82C328.13 274.2 336.45 270.47 342.5 267.54C348.55 264.62 355.98 260.74 359 258.93C362.02 257.12 367.88 253.4 372 250.66C376.13 247.93 382.2 243.41 385.5 240.62C388.8 237.83 393.92 233.07 396.89 230.03C399.85 226.99 404.58 221.34 407.39 217.47C410.2 213.61 413.15 209.34 413.94 207.97C414.73 206.61 416.64 202.91 418.19 199.75C419.73 196.59 422.27 190.29 423.82 185.75C425.37 181.21 427.2 174.8 427.9 171.5C428.6 168.2 429.58 163.59 430.08 161.25C430.59 158.91 430.99 150.59 430.98 142.75C430.97 134.54 430.32 124.9 429.45 120C428.62 115.33 427.23 108.8 426.37 105.5C425.51 102.2 423.46 96.13 421.83 92C420.2 87.88 417.02 81.13 414.78 77C412.53 72.88 408.2 66.13 405.17 62C402.13 57.88 396.46 51.34 392.57 47.48C388.68 43.63 384.15 39.41 382.5 38.12C380.85 36.83 375.9 33.41 371.5 30.51C367.1 27.61 360.35 23.68 356.5 21.77C352.65 19.86 346.13 17.06 342 15.53C337.88 14.01 333.6 12.39 332.5 11.94C331.4 11.48 325.55 10 319.5 8.64C313.45 7.28 306.02 5.71 303 5.14C299.98 4.57 293.68 3.63 289 3.05C284.32 2.47 274.43 1.55 267 1C259.57 0.44 248.1 0.06 241.5 0.14C234.9 0.22 222.75 0.85 214.5 1.56Z"></path><path id="Path 1" class="shp1" d="M242.09 70.41C240.22 71.14 237.63 73.14 236.34 74.87C235.05 76.59 233.7 79.24 233.34 80.75C232.97 82.26 232.96 103.52 233.3 128C233.65 152.48 234.38 174.07 234.93 176C235.48 177.93 237.33 180.85 239.04 182.5C241.63 185 243.1 185.55 247.82 185.81C252.2 186.04 254.24 185.64 256.75 184.06C258.54 182.92 260.94 180.54 262.09 178.75C264.15 175.54 264.17 174.99 263.55 128C262.99 86.04 262.72 80.09 261.21 77.01C260.27 75.1 257.93 72.5 256 71.24C253.94 69.89 251.06 68.97 249 69.01C247.07 69.05 243.97 69.68 242.09 70.41ZM204.33 73.27C202.66 74.52 200.09 77.11 198.62 79.02L195.94 82.5C196.06 122.03 196.46 143.4 196.9 155.5C197.54 172.73 198.07 178.21 199.36 180.75C200.26 182.54 202.46 184.9 204.25 186C206.04 187.09 209.19 187.99 211.25 188C213.31 188 216.46 187.38 218.25 186.63C220.04 185.87 222.51 184.19 223.73 182.88C224.96 181.57 226.31 178.56 226.73 176.19C227.16 173.82 227.16 151.44 226.75 126.44C226.13 89.15 225.73 80.46 224.5 78C223.68 76.35 221.54 74.1 219.75 73C217.75 71.78 214.74 71.01 211.93 71C208.73 71 206.45 71.68 204.33 73.27ZM357.99 73.25C356.13 74.49 353.69 77.08 352.56 79C350.68 82.2 350.47 84.42 350.19 105C349.9 125.06 350.07 127.92 351.69 131.38C352.88 133.92 354.79 135.9 357.25 137.13C359.31 138.16 362.46 138.99 364.25 138.98C366.04 138.97 369.26 137.96 371.41 136.73C373.56 135.51 376.14 132.93 377.14 131C378.66 128.07 379.08 123.9 379.66 105.5C380.33 84.33 380.28 83.33 378.22 79C377.01 76.45 374.76 73.74 373.04 72.75C371.37 71.79 368.06 71 365.68 71C362.87 71 360.19 71.78 357.99 73.25ZM83.03 88.7C81.12 89.7 79.05 91.41 78.42 92.51C77.8 93.6 76.86 96.3 76.35 98.5C75.83 100.71 75.72 106.76 76.11 112C76.5 117.22 76.85 129.71 76.91 139.75C76.97 151.5 76.55 159.65 75.75 162.64C74.99 165.47 73.62 167.82 72.25 168.64C70.37 169.78 69.63 169.78 67.75 168.67C66.4 167.87 65.02 165.56 64.3 162.92C63.64 160.49 62.85 156.81 62.55 154.75C62.22 152.49 60.71 149.56 58.75 147.38C55.79 144.08 55.02 143.76 50 143.7C46.31 143.65 43.37 144.27 41.07 145.57C38.89 146.79 36.71 149.33 35.12 152.5C32.66 157.37 32.63 157.69 33.9 165C34.63 169.13 36.05 174.75 37.07 177.5C38.09 180.25 40.62 184.68 42.71 187.35C44.79 190.02 48.52 193.52 51 195.14C53.48 196.75 57.3 198.56 59.5 199.15C61.7 199.75 66.65 200.01 70.5 199.74C75.21 199.4 79.3 198.38 83 196.6C86.03 195.14 90.09 192.5 92.03 190.73C93.97 188.95 96.87 185.7 98.47 183.5C100.07 181.3 102.03 177.93 102.83 176C103.62 174.07 104.87 170.03 105.6 167C106.33 163.97 106.94 157 106.96 151.5C106.98 146 106.52 131.6 105.95 119.5C105.37 107.4 104.48 96.38 103.97 95C103.45 93.63 101.86 91.38 100.43 90C98.39 88.05 96.58 87.43 92.16 87.19C88.16 86.98 85.48 87.42 83.03 88.7ZM298.5 102.64C296.3 103.55 292.14 106.03 289.25 108.15C286.36 110.27 281.95 114.81 279.44 118.25C276.94 121.69 273.49 128.1 271.78 132.5C269.37 138.69 268.57 142.54 268.23 149.5C267.91 155.99 268.25 160.03 269.42 164C270.32 167.03 272.61 171.64 274.53 174.25C276.85 177.42 279.74 179.85 283.25 181.55C287.01 183.39 290.2 184.13 294.5 184.17C297.81 184.21 302.74 183.45 305.5 182.48C308.25 181.52 312.19 179.67 314.25 178.37L318 176C323.55 182 325.67 183.21 328.5 183.63C330.7 183.96 334.07 183.74 336 183.14C337.93 182.54 340.71 180.8 342.19 179.28C343.67 177.75 345.29 174.7 345.78 172.5C346.29 170.23 346.33 160.28 345.89 149.5C345.43 138.29 344.57 129.06 343.8 127C343.09 125.07 341.32 121.47 339.87 119C338.42 116.52 335.5 112.91 333.37 110.96C331.24 109.01 327.25 106.09 324.5 104.49C320.21 101.98 318.29 101.52 311 101.27C304.83 101.06 301.4 101.44 298.5 102.64ZM145.5 110.57C142.75 111.33 138.07 113.66 135.11 115.73C132.14 117.8 128.02 121.53 125.94 124C123.86 126.47 120.59 131.65 118.67 135.5C116.75 139.35 114.47 145.31 113.59 148.75C112.72 152.19 112 157.81 112.01 161.25C112.02 164.69 112.63 169.53 113.37 172C114.12 174.47 115.4 177.85 116.24 179.5C117.07 181.15 119.49 184.04 121.62 185.92C123.76 187.8 127.3 190.16 129.5 191.15C131.83 192.2 135.89 192.97 139.25 192.98C142.41 192.99 147.14 192.26 149.75 191.37C152.36 190.47 156.19 188.67 158.25 187.37L162 185C166.26 189.14 169.07 190.98 171 191.76C173.2 192.65 175.8 192.93 178 192.51C179.93 192.13 182.96 190.74 184.75 189.42C186.54 188.09 188.69 185.31 189.52 183.25C190.58 180.64 191.04 176.07 191.02 168.25C191.01 162.06 190.51 152.61 189.91 147.25C189.16 140.61 187.95 135.58 186.09 131.5C184.54 128.08 181.22 123.35 178.38 120.5C175.64 117.75 171.39 114.51 168.95 113.3C166.5 112.09 162.7 110.63 160.5 110.06C158.3 109.48 155.15 109.05 153.5 109.09C151.85 109.14 148.25 109.8 145.5 110.57Z"></path><path id="Path 2" class="shp0" d="M305.5 130.36C304.4 131.12 302.53 133.71 301.33 136.12C300.14 138.53 298.67 142.07 298.07 144C297.46 145.93 296.97 149.19 296.98 151.25C297 153.91 297.44 155 298.5 155C299.32 155 302.08 153.09 304.63 150.75C307.17 148.41 310.55 144.59 312.13 142.25C313.71 139.91 315 137.1 315 136C315 134.9 313.65 132.88 312 131.5C310.35 130.13 308.66 129 308.25 128.99C307.84 128.99 306.6 129.6 305.5 130.36ZM148.15 140.81C146.69 142.35 144.49 146.63 143.25 150.31C142.01 153.99 141 158.35 141 160C141 161.65 141.45 163.22 142 163.5C142.55 163.78 144.13 163.32 145.5 162.5C146.88 161.68 149.69 159.15 151.75 156.88C153.81 154.62 156.29 151.47 157.25 149.88C158.21 148.3 159 145.88 159 144.5C159 142.93 157.97 141.24 156.25 139.97C154.74 138.85 152.89 137.95 152.15 137.97C151.41 137.98 149.61 139.26 148.15 140.81Z"></path><path id="Path 3" class="shp1" d="M358.56 152.92C356.94 153.89 354.56 156.22 353.28 158.09C351.98 159.99 350.96 162.94 350.97 164.75C350.99 166.54 351.6 169.46 352.32 171.25C353.05 173.04 354.96 175.53 356.57 176.78C358.29 178.13 360.84 179.05 362.75 179.03C364.54 179.02 367.8 178.1 370 177C372.2 175.9 374.88 173.54 375.96 171.75C377.04 169.96 378.18 166.93 378.5 165C378.83 163.07 378.62 160.04 378.05 158.25C377.47 156.46 375.65 154.1 374 153C371.99 151.66 369.43 151.02 366.25 151.07C363.6 151.11 360.2 151.93 358.56 152.92Z"></path><path id="Path 4" class="shp2" d="M324.84 189.28C323.38 189.95 321 191.63 319.55 193C318.1 194.38 316.03 197.86 314.96 200.75C313.88 203.64 313 207.69 312.99 209.75C312.98 211.81 313.66 215.86 314.49 218.75C315.32 221.64 317.06 225.24 318.36 226.75C319.65 228.26 322.47 230.12 324.61 230.87C326.81 231.64 330.02 231.98 332 231.65C333.93 231.32 337.07 230.03 339 228.78C341.13 227.39 343.58 224.35 345.27 221C347.5 216.55 348.03 214.16 348.02 208.5C348.02 203.22 347.46 200.41 345.76 197.06C344.52 194.62 342.22 191.69 340.66 190.56C338.82 189.23 336 188.42 332.66 188.28C329.82 188.15 326.3 188.6 324.84 189.28ZM302.4 192.74C301.79 193.16 300.78 194.51 300.15 195.75C299.52 196.99 299 199.8 299 202C299 204.2 298.55 206 298 206C297.45 206 295.35 203.64 293.33 200.75C291.31 197.86 288.95 194.93 288.08 194.23C287.21 193.54 285.49 192.97 284.25 192.98C282.8 192.99 281.29 194.15 280 196.25C278.24 199.13 278.01 201.27 278 215C277.99 227.17 278.31 230.98 279.49 232.75C280.43 234.15 282.04 235.01 283.75 235.03C285.26 235.05 287.28 234.26 288.22 233.28C289.32 232.15 289.96 229.86 289.99 227C290.01 224.53 290.36 221.9 290.77 221.17C291.27 220.25 292.96 221.86 296.25 226.42C298.86 230.04 302.01 233.27 303.25 233.6C304.49 233.93 306.51 233.71 307.75 233.1C308.99 232.5 310.2 230.99 310.44 229.75C310.68 228.51 311.13 220.75 311.45 212.5C311.87 201.34 311.69 196.86 310.73 195C309.87 193.31 308.49 192.42 306.48 192.24C304.84 192.1 303 192.32 302.4 192.74ZM243.36 195.08C241.08 196.29 238.49 198.23 237.6 199.39C236.71 200.55 235.62 203.07 235.18 205C234.73 206.93 234.62 209.9 234.94 211.61C235.25 213.32 236.63 215.65 238 216.79C239.38 217.93 242.65 219.91 245.28 221.18C248.31 222.65 250.04 224.14 250.03 225.25C250.01 226.21 249.32 227.22 248.5 227.5C247.68 227.78 245.25 226.99 243.1 225.75C239.72 223.8 238.86 223.67 236.6 224.75C235.17 225.44 233.78 226.9 233.5 228C233.22 229.1 232.66 230 232.25 230.01C231.84 230.01 230.91 226.53 230.19 222.26C229.47 217.99 228.17 212.25 227.29 209.5C226.41 206.75 224.97 203.43 224.1 202.12C223.22 200.81 221.26 199.12 219.75 198.37C218.24 197.62 215.71 197 214.14 197C212.2 197 210.03 198.2 207.38 200.75C204.79 203.24 202.88 206.35 201.71 210C200.74 213.03 199.31 219.32 198.53 224C197.76 228.68 197.38 233.63 197.7 235C198.03 236.38 198.79 238.08 199.39 238.79C200 239.51 201.63 240.08 203 240.08C204.39 240.07 206.94 238.72 208.75 237.03C210.57 235.33 213.1 234 214.5 234C215.88 234 218.13 235.13 219.5 236.5C220.92 237.92 223.18 239.01 224.75 239.03C226.26 239.05 228.23 238.26 229.13 237.28C230.03 236.3 231.08 234.38 231.48 233L232.19 230.5C234.02 234.38 235.9 236.14 237.53 236.91C239.16 237.69 242.3 238.53 244.5 238.77C247.36 239.09 249.88 238.55 253.37 236.86C256.05 235.56 259.07 233.15 260.09 231.5C261.11 229.85 261.95 226.59 261.97 224.25C261.99 221.01 261.35 219.26 259.25 216.89C257.74 215.17 254.35 212.58 251.72 211.14C248.79 209.52 246.95 207.82 246.97 206.75C246.99 205.37 247.58 205.12 249.75 205.58C251.26 205.91 253.79 206.24 255.38 206.33C257.44 206.45 258.85 205.73 260.38 203.76C262.22 201.39 262.33 200.69 261.25 198.51C260.56 197.13 258.76 195.5 257.25 194.9C255.74 194.29 252.93 193.59 251 193.35C248.63 193.04 246.17 193.6 243.36 195.08ZM267.91 194.28C267.04 194.95 265.8 196.51 265.16 197.75C264.42 199.19 264 205.87 263.99 216.25C263.99 229.08 264.3 232.97 265.49 234.75C266.5 236.25 268 237 270 237C272 237 273.5 236.25 274.51 234.75C275.71 232.95 276.01 228.86 276.01 214.25C276 196.44 275.95 195.96 273.75 194.49C272.51 193.66 271.05 193 270.5 193.02C269.95 193.05 268.79 193.61 267.91 194.28ZM177.5 198.16C176.4 198.77 174.21 200.44 172.62 201.88C171.04 203.32 168.68 206.75 167.38 209.5C165.69 213.08 165.02 216.27 165.01 220.75C165 224.19 165.7 228.69 166.56 230.75C167.41 232.81 169.1 235.56 170.31 236.85C171.51 238.13 173.74 239.82 175.25 240.6C176.76 241.37 179.57 242 181.5 242C183.43 242 186.35 241.32 188 240.5C189.65 239.68 192.13 237.43 193.5 235.5L196 232C192.9 227.35 191.21 225.98 190.25 225.97C189.29 225.95 187.26 226.85 185.75 227.97C184.24 229.08 182.66 230.01 182.25 230.02C181.84 230.03 180.49 229.13 179.25 228.02C177.43 226.39 177 224.94 177 220.5C177 216.9 177.6 214.12 178.75 212.46C179.71 211.06 181.06 209.71 181.75 209.46C182.44 209.2 184.35 209.9 186 211C187.65 212.1 189.34 213.02 189.75 213.03C190.16 213.05 191.74 212.15 193.25 211.03C194.86 209.84 195.99 208.07 195.97 206.75C195.95 205.51 195.25 203.6 194.41 202.5C193.56 201.4 191.66 199.72 190.19 198.76C188.71 197.8 185.7 197.02 183.5 197.04C181.3 197.05 178.6 197.56 177.5 198.16Z"></path><path id="Path 5" class="shp0" d="M328.77 200.25C327.85 200.94 326.62 202.74 326.05 204.25C325.47 205.76 325 208.35 325 210C325 211.65 325.68 214.57 326.5 216.5C327.5 218.83 328.67 220 330 220C331.1 220 332.91 218.99 334.02 217.75C335.6 215.99 336.04 214.13 336.02 209.25C336 204.35 335.57 202.57 334 201C332.9 199.9 331.65 199 331.22 199C330.8 199 329.69 199.56 328.77 200.25ZM213.31 212.64C212.7 213.66 211.92 216.19 211.6 218.25C211.02 221.88 211.09 222 214 222C215.65 222 217.15 221.44 217.34 220.75C217.52 220.06 217.3 217.93 216.85 216C216.4 214.07 215.67 212.11 215.23 211.64C214.8 211.17 213.93 211.62 213.31 212.64Z"></path></g></svg>