<svg id="Lager_2" data-name="Lager 2" style="background-color:#0b5a99" xmlns="http://www.w3.org/2000/svg" viewBox="0 0 156.1 175.42"><defs><style>.cls-1{fill:#fdd116;}</style></defs><title>karlcasino</title><g id="Layer_1" data-name="Layer 1"><path class="cls-1" d="M78.48,85.86q-.3-36.54-.58-73.08l39.47,36.75L156,18,186.58,54,234,23.12Q225.34,59.06,216.66,95Z" transform="translate(-77.9 -12.78)"/><path class="cls-1" d="M82.4,100.2h10v21.12q6.66-10.63,13.16-21.12h10.08l-13.92,21.62,14,26.93H105.4L95.58,129.4c-.84,1.18-1.66,2.36-2.63,3.54a2.37,2.37,0,0,0-.61,1.37v14.42H82.4Z" transform="translate(-77.9 -12.78)"/><path class="cls-1" d="M127.92,100.2h14.77L153,148.75H142.76q-.85-4.41-1.73-8.79H128.66l-1.74,8.79h-9.26Zm2,33.12h9.71q-2.5-12.24-4.87-24.5c-1.6,8.17-3.24,16.35-4.84,24.52Z" transform="translate(-77.9 -12.78)"/><path class="cls-1" d="M157.61,100.2h14.76a20.18,20.18,0,0,1,11.68,2.65,9.78,9.78,0,0,1,3.71,8.37,19.78,19.78,0,0,1-1.21,9.48,9.35,9.35,0,0,1-5.26,4.33,9.4,9.4,0,0,1,4.68,3.13,11,11,0,0,1,1.95,6.45v9.74a10,10,0,0,0,1.05,4.4H178.69a11.42,11.42,0,0,1-.9-4.93v-9.49a5,5,0,0,0-2.63-4.65,19.83,19.83,0,0,0-7.45-.7v19.75h-10.1Zm10.08,6.94V122H173a4.87,4.87,0,0,0,3.81-2,10,10,0,0,0,.79-5.49,11.36,11.36,0,0,0-.68-5.55,4.26,4.26,0,0,0-3.55-1.82c-1.79-.08-3.71,0-5.61,0Z" transform="translate(-77.9 -12.78)"/><path class="cls-1" d="M194.45,100.2h10.08v41.58h16.58v7H194.45Z" transform="translate(-77.9 -12.78)"/><path class="cls-1" d="M101.19,161.9a40.83,40.83,0,0,1,20.34-5.33,23.7,23.7,0,0,1,13,3.08c2.29,1.61,3.29,4,2.63,6.34a8.93,8.93,0,0,1-4.34,4.58,26.17,26.17,0,0,1-11.61,3.09,15.34,15.34,0,0,1-8.58-1.8c-2.06-1.3-2.6-3.54-1.29-5.31a10.64,10.64,0,0,1,9-2.83c1,.26,0,1.1-.39,1.42a13,13,0,0,0-4.66,2.85c-.42.6.45,1.06,1.08,1.24a17.53,17.53,0,0,0,8.21,0,12.84,12.84,0,0,0,6.47-3,2.46,2.46,0,0,0-.29-3.79,10.84,10.84,0,0,0-5.26-1.64,37.73,37.73,0,0,0-14.34,1.42,27.59,27.59,0,0,0-10.84,5.67,8.49,8.49,0,0,0-3,7.69c.73,3.23,3.57,6,7.53,7.24a41.68,41.68,0,0,0,21.45,1.08,56.41,56.41,0,0,0,13.34-4.37,8.26,8.26,0,0,1,2.44-7.61,6.13,6.13,0,0,1,5.08-1.13,5.45,5.45,0,0,1,2.27,1.33,3.22,3.22,0,0,1,3.71.13,1.85,1.85,0,0,1,.6.83,21.57,21.57,0,0,0,0,6.71,2.3,2.3,0,0,0,.74,1.18,5.78,5.78,0,0,0,1.74-2.7,16.84,16.84,0,0,0,1.07-3.41,2.35,2.35,0,0,1,0-2.16,2.51,2.51,0,0,1,1.82-.62,20.27,20.27,0,0,0,7.08-2,2.88,2.88,0,0,1,3.31.77,1.47,1.47,0,0,1,.19,1.4,2.51,2.51,0,0,1-1.42.72c-2,.52-4.08,1-6.11,1.42a13.9,13.9,0,0,1,6.37,2,3.35,3.35,0,0,1,1.05,4.87,8.34,8.34,0,0,1-7.89,2c-2.07-.65-3.24-2.34-2.76-4a3.43,3.43,0,0,1,3.84-1.38,1.35,1.35,0,0,1,.66,1.62,2,2,0,0,0,1.23,2,1.4,1.4,0,0,0,1.6-1v0a3.23,3.23,0,0,0-1.27-2.58,11.48,11.48,0,0,0-5.47-2.51,19.88,19.88,0,0,1-2,5.35,5.29,5.29,0,0,1-3.06,2.47,4.6,4.6,0,0,1-4.08-1.41,5.87,5.87,0,0,1-2.42,3.21,5.06,5.06,0,0,1-4.52.3,6.84,6.84,0,0,1-3.5-4.17,48,48,0,0,1-17.5,6.46A39.64,39.64,0,0,1,104,186.46,20.65,20.65,0,0,1,94.87,181a10.35,10.35,0,0,1-2-9.85A18,18,0,0,1,101.19,161.9Zm44.73,11.3a3.93,3.93,0,0,0-1.66,2.22A10.59,10.59,0,0,0,144,181a3.94,3.94,0,0,0,1.29,2.35,1.59,1.59,0,0,0,1.84-.2l.08-.08a7.6,7.6,0,0,0,1.66-4,7.41,7.41,0,0,0-1-5.67,1.67,1.67,0,0,0-1.91-.22l0,0Z" transform="translate(-77.9 -12.78)"/><path class="cls-1" d="M173.55,163.72a6.28,6.28,0,0,1,4,.5,1.49,1.49,0,0,1,.31,2.41,7.54,7.54,0,0,1-6.76,1.3c-1.2-.37-1.77-1.41-1.29-2.33a2.73,2.73,0,0,1,.21-.3A6.19,6.19,0,0,1,173.55,163.72Z" transform="translate(-77.9 -12.78)"/><path class="cls-1" d="M199.74,167.19a7.25,7.25,0,0,1,6.71,1.44,5.75,5.75,0,0,1-.27,8.64,7.4,7.4,0,0,1-8.5.4l-.23-.16a6.4,6.4,0,0,1-1.34-1.63,11.11,11.11,0,0,1-2.64,3,3.94,3.94,0,0,1-4.53-.1l-.23-.2a7,7,0,0,1-1.39-4.21,11.92,11.92,0,0,0-1.77,5.65,3.11,3.11,0,0,1-3.59.74,2.57,2.57,0,0,1-.64-.4A7.83,7.83,0,0,1,181,178a6.88,6.88,0,0,1-3.19,3.52,4.15,4.15,0,0,1-4.6-1.42,13.78,13.78,0,0,1-1.24-6.83,4,4,0,0,1,.19-2.45,3,3,0,0,1,3.41-.41,1.85,1.85,0,0,1,.95,1.1,19.44,19.44,0,0,0,.16,7.09,1.64,1.64,0,0,0,.79.84,12,12,0,0,0,2.42-5c.56-1.4,0-2.9.48-4.31a3.51,3.51,0,0,1,4.05-1.22l.16.06a1.31,1.31,0,0,1,.47,1.58,24.71,24.71,0,0,0-.47,5.35,14.56,14.56,0,0,1,1.84-3.84,4.23,4.23,0,0,1,3.76-1.51,1.17,1.17,0,0,1,1.19.75,9.43,9.43,0,0,0,.5,6,7.19,7.19,0,0,0,2.94-3.25c.92-1.48.92-3.19,2-4.61A5.8,5.8,0,0,1,199.74,167.19Zm1.39,1.6A2.63,2.63,0,0,0,200,171a6.67,6.67,0,0,0,1.29,4.93,1.82,1.82,0,0,0,2.12.55l.07,0a2.91,2.91,0,0,0,.89-2.36,7.18,7.18,0,0,0-1.39-4.59A1.67,1.67,0,0,0,201.13,168.79Z" transform="translate(-77.9 -12.78)"/></g></svg>