<svg xmlns="http://www.w3.org/2000/svg" viewBox="0 0 512 128"><path d="M70.9243,111.46338a4.5574,4.5574,0,0,1-4.31082-5.97394L77.045,73.5942l-24.91906-18.03a4.55727,4.55727,0,0,1-1.66283-5.10032q.06475-.1996.14657-.38986H46.63809a4.5571,4.5571,0,0,1-2.67159-.86516l-13.77329-9.9667A4.55716,4.55716,0,0,1,28.52965,34.145q.05429-.16712.12016-.32755l-3.76031.00089a4.55735,4.55735,0,0,1-2.67262-.86531L8.44359,22.9863A4.55727,4.55727,0,0,1,11.11517,14.737l489.77074.03694a4.55706,4.55706,0,0,1,4.29109,6.09084l-31.94092,89.37473a4.557,4.557,0,0,1-4.29109,3.02361C468.93786,113.26313,70.9243,111.46338,70.9243,111.46338Z" style="fill:#f23005;fill-rule:evenodd"/><path d="M11.11508,19.29421l489.77039.037-31.94093,89.37462-397.9996-1.79952L82.41,71.85092,54.79735,51.87221l34.12525.06556,2.1-6.42087H46.63805l-13.7732-9.96657,61.407.03165,2.07276-6.33749L24.88845,29.261,11.11508,19.29421m.00066-9.11445A9.11444,9.11444,0,0,0,5.77182,26.67817L19.54518,36.645a9.11492,9.11492,0,0,0,4.64544,1.70372,9.10236,9.10236,0,0,0,3.33106,4.58559l13.7732,9.96657a9.115,9.115,0,0,0,4.81075,1.71491,9.10336,9.10336,0,0,0,3.349,4.64073l22.2256,16.081L62.28208,104.073a9.11441,9.11441,0,0,0,8.62168,11.94762l397.99961,1.79951.04154.00009a9.114,9.114,0,0,0,8.5824-6.04711l31.94093-89.37461a9.11431,9.11431,0,0,0-8.5821-12.1818l-489.7704-.037Z" style="fill:#171717"/><polygon points="87.929 70.386 68.433 56.28 92.497 56.326 99.889 33.427 107.28 56.326 131.345 56.28 111.849 70.386 119.33 93.26 99.889 79.076 80.448 93.26 87.929 70.386" style="fill:#171717;fill-rule:evenodd"/><path d="M239.64465,26.9207h24.37628c-8.00126,17.92233-15.9182,35.65663-23.91926,53.57911H272.7423c-2.9,6.49573-5.5662,12.46827-8.46619,18.96421H207.2592C218.075,75.23644,228.82856,51.14814,239.64465,26.9207Z" style="fill:#171717"/><path d="M303.37472,26.9207h24.377c-10.816,24.22748-21.56957,48.31576-32.38545,72.54332h-24.377C281.80506,75.23644,292.55863,51.14814,303.37472,26.9207Z" style="fill:#171717"/><path d="M346.27068,81.22512h-6.61086c-2.789,6.24747-5.35325,11.99126-8.14232,18.2389H307.14062C317.9563,75.2364,328.7101,51.14822,339.526,26.9207c9.16633-.00027,18.04327.00021,27.17935,0,8.47291.03,18.08778-.68868,25.32171,4.44291,9.76581,6.9139,5.33187,20.5456-.20217,28.87848a45.05065,45.05065,0,0,1-20.56524,16.83767C373.025,84.69335,374.68424,91.85041,376.45,99.464H350.4207C348.99875,93.21648,347.69222,87.47262,346.27068,81.22512Zm18.09524-35.444H355.483c-2.59922,5.82211-4.98848,11.17427-7.58774,16.9965,5.34168-.24125,10.96451.85517,15.93009-1.46906C370.74593,58.133,376.57389,45.37156,364.36592,45.78115Z" style="fill:#171717"/><path d="M423.22032,81.22512h-6.61047c-2.78913,6.24743-5.35321,11.99128-8.14232,18.2389H384.092c10.81592-24.22754,21.5694-48.31587,32.38549-72.54332,9.16574-.00027,18.0421.00021,27.17759,0,8.47218.03,18.08639-.68874,25.31946,4.44291,9.765,6.91446,5.33015,20.54566-.20338,28.87848A45.05,45.05,0,0,1,448.2072,77.07976c1.76483,7.61358,3.42364,14.77064,5.18886,22.38426H427.3693C425.94778,93.21646,424.64147,87.47262,423.22032,81.22512Zm18.095-35.444H432.433c-2.59915,5.8221-4.98849,11.17428-7.58769,16.9965,5.3413-.24123,10.9638.85513,15.929-1.46906C447.69416,58.13319,453.52265,45.37167,441.3153,45.78115Z" style="fill:#171717"/><path d="M153.08841,38.77544c-9.04046,20.25069-18.03513,40.39843-27.07567,60.64962l26.14326.05046,11.751-36.40312,11.74931,36.40312,26.587-.05134c-3.98221-13.22334-7.9038-26.25057-11.89223-39.49932,14.88122-11.00349,29.58637-21.87656,44.46863-32.87874H207.476c-12.26519,9.09122-24.31,18.02166-36.57472,27.11376,4.0851-9.15043,8.01942-17.96339,12.10444-27.11376H158.32481l-.00186.00415H128.67839L144.978,38.77544Z" style="fill:#171717"/></svg>
