<svg xmlns="http://www.w3.org/2000/svg" viewBox="0 0 110.7 34.451"><g id="LegolasBet-primary-no-tagline-white-ouys-QLEyd" transform="translate(-54 -42)"><path id="Path_1" data-name="Path 1" d="M175.231,103.637h4.6V105.8H172.9V92.5l2.352,2.123Z" transform="translate(-94.15 -39.988)" fill="#f02e3a"></path><path id="Path_2" data-name="Path 2" d="M213.152,96.386v3h4.309v2.165h-4.309v3.414h5.2v2.165H210.8V94.2h7.535v2.165h-5.183Z" transform="translate(-124.16 -41.334)" fill="#f02e3a"></path><path id="Path_3" data-name="Path 3" d="M259.821,99.6v6.515H258.26l-.208-.958a3.838,3.838,0,0,1-2.956,1.228c-3.705,0-5.5-2.977-5.5-6.724,0-3.684,2.123-6.765,5.579-6.765a4.825,4.825,0,0,1,4.434,2.789l-1.873,1.291a2.6,2.6,0,0,0-2.5-1.707c-1.957,0-3.081,1.644-3.081,4.413,0,2.789,1.124,4.371,3.081,4.371a2.384,2.384,0,0,0,2.56-2.311h-2.311V99.624h4.33Z" transform="translate(-154.884 -40.305)" fill="#f02e3a"></path><path id="Path_4" data-name="Path 4" d="M301,99.544c0-3.705,2.123-6.744,5.579-6.744s5.579,3.039,5.579,6.744-2.123,6.744-5.579,6.744S301,103.271,301,99.544Zm8.576,0c0-2.789-1.082-4.392-3.018-4.392s-3,1.6-3,4.392,1.082,4.392,3,4.392,3.018-1.582,3.018-4.392Z" transform="translate(-195.584 -40.225)" fill="#f02e3a"></path><path id="Path_5" data-name="Path 5" d="M370.286,93.7h-2.935l-3.372,10.824H360.69V93.7H358.4v12.906h7.619l1-3.539h3.705l1.02,3.539h2.727Zm-2.706,7.077,1.207-4.371h.1l1.228,4.371Z" transform="translate(-241.036 -40.938)" fill="#f02e3a"></path><path id="Path_6" data-name="Path 6" d="M436.3,98.375c-1.311-.479-2.31-.812-2.31-1.769,0-.916.874-1.415,1.915-1.415a3.881,3.881,0,0,1,2.477,1.062l.749-2.082a5.126,5.126,0,0,0-3.351-1.27,3.689,3.689,0,0,0-3.976,3.768c0,2.456,1.853,3.206,3.851,4.059,1.207.416,1.936.9,1.936,1.811s-.708,1.52-1.832,1.52a5.688,5.688,0,0,1-3.31-1.353l1,3.164a6.2,6.2,0,0,0,2.29.5c2.706,0,4.226-1.5,4.226-3.893C439.96,100,438.295,99.124,436.3,98.375Z" transform="translate(-299.157 -40.305)" fill="#f02e3a"></path><path id="Path_7" data-name="Path 7" d="M486.727,103.463c0,2.373-1.145,3.726-4.2,3.726H479.4V94.2h2.914c2.394,0,3.664,1.353,3.664,3.539a3.025,3.025,0,0,1-1.145,2.581A3.162,3.162,0,0,1,486.727,103.463Zm-4.538-8.306h-1.749v5h1.873a2.324,2.324,0,0,0,2.6-2.394A2.437,2.437,0,0,0,482.189,95.158Zm3.455,8.431c0-1.624-.937-2.477-2.956-2.477h-2.248v5.121h1.936c2.5,0,3.268-1.145,3.268-2.644Z" transform="translate(-336.848 -41.334)" fill="#f02e3a"></path><path id="Path_8" data-name="Path 8" d="M521.741,95.137v5.038h4v.958h-4v5.121h4.975v.958H520.7V94.2h5.412l-.333.958h-4.038Z" transform="translate(-369.551 -41.334)" fill="#f02e3a"></path><path id="Path_9" data-name="Path 9" d="M557.357,95.058h-3.5V107.11H552.8V95.058h-2.5l.333-.958h7.057Z" transform="translate(-392.989 -41.255)" fill="#f02e3a"></path><path id="Path_10" data-name="Path 10" d="M68.682,119.206,62.5,105.8H74.886Z" transform="translate(-6.731 -50.519)" fill="#f02e3a"></path><path id="Path_11" data-name="Path 11" d="M100.609,75.566,95.8,74.9l6.1,5.329Z" transform="translate(-33.099 -26.051)" fill="#f02e3a"></path><path id="Path_12" data-name="Path 12" d="M104.553,42l-2.019,6.515L98.1,47.953Z" transform="translate(-34.92)" fill="#f02e3a"></path><path id="Path_13" data-name="Path 13" d="M60.611,75.566,65.42,74.9,59.3,80.229Z" transform="translate(-4.197 -26.051)" fill="#f02e3a"></path><path id="Path_14" data-name="Path 14" d="M55.3,42l2.019,6.515,4.434-.562Z" transform="translate(-1.029)" fill="#f02e3a"></path><path id="Path_15" data-name="Path 15" d="M71.137,77.9,76.7,82.771H65.6Z" transform="translate(-9.185 -28.427)" fill="#f02e3a"></path><path id="Path_16" data-name="Path 16" d="M54.937,108.9,54,109.962l2.54,2.165Z" transform="translate(0 -52.974)" fill="#f02e3a"></path><path id="Path_17" data-name="Path 17" d="M70.989,142.922l1.644-3.872L68.2,129.6Z" transform="translate(-11.244 -69.365)" fill="#f02e3a"></path><path id="Path_18" data-name="Path 18" d="M58.161,124.6l.916.729,1.395,6.391C60.472,131.7,57.141,128.222,58.161,124.6Z" transform="translate(-3.141 -65.406)" fill="#f02e3a"></path><path id="Path_19" data-name="Path 19" d="M119.8,108.9l.937,1.062-2.54,2.165Z" transform="translate(-50.836 -52.974)" fill="#f02e3a"></path><path id="Path_20" data-name="Path 20" d="M96.544,142.922,94.9,139.051l4.434-9.451Z" transform="translate(-32.386 -69.365)" fill="#f02e3a"></path><path id="Path_21" data-name="Path 21" d="M116.711,124.6l-.916.729L114.4,131.7S117.731,128.222,116.711,124.6Z" transform="translate(-47.827 -65.406)" fill="#f02e3a"></path><path id="Path_22" data-name="Path 22" d="M107.187,174.7l1.311,4.58-2.5.916Z" transform="translate(-41.176 -105.077)" fill="#f02e3a"></path><path id="Path_23" data-name="Path 23" d="M67.711,174.7,66.4,179.28l2.5.916Z" transform="translate(-9.819 -105.077)" fill="#f02e3a"></path><path id="Path_24" data-name="Path 24" d="M83.173,179.8,80.8,185.566h4.746Z" transform="translate(-21.221 -109.115)" fill="#f02e3a"></path></g></svg>