<svg xmlns="http://www.w3.org/2000/svg" xmlns:xlink="http://www.w3.org/1999/xlink" width="936px" style="background-color:#242433" height="166px" viewBox="0 0 936 166" version="1.1">
    <!-- Generator: Sketch 52.2 (67145) - http://www.bohemiancoding.com/sketch -->
    <title>logo / light</title>
    <desc>Created with Sketch.</desc>
    <defs>
        <polygon id="path-1" points="0.656911579 0.469905155 93.4716211 0.469905155 93.4716211 95.9414103 0.656911579 95.9414103"/>
    </defs>
    <g id="logo-/-light" stroke="none" stroke-width="1" fill="none" fill-rule="evenodd">
        <path d="M450,84.2667054 L450,84.0009952 C450,57.7434537 469.539949,36 496.214254,36 C511.535429,36 521.173102,41.3012668 530.148774,48.9939253 C530.810776,49.6606887 531.469804,50.585201 531.469804,51.7803993 C531.469804,53.6343997 529.752366,55.2286609 527.905104,55.2286609 C526.983455,55.2286609 526.057842,54.8266125 525.528637,54.2981776 C517.86904,47.2732776 509.025174,42.2337404 496.08443,42.2337404 C473.90143,42.2337404 457.127419,60.3975701 457.127419,83.7382705 L457.127419,84.0009952 C457.127419,107.472063 474.167023,125.773226 496.214254,125.773226 C508.754626,125.773226 517.60642,121.260133 526.324426,112.906682 C526.850658,112.378247 527.644465,111.843841 528.695938,111.843841 C530.418331,111.843841 532,113.440093 532,115.164721 C532,116.224577 531.469804,117.015736 530.942581,117.549147 C521.568519,126.29967 511.396686,132 495.951633,132 C469.539949,132 450,110.919329 450,84.2667054" id="Fill-1" fill="#DB0934"/>
        <path d="M538.523912,124.973517 L577.829187,39.3079935 C578.750721,37.3216099 580.067902,36 582.435868,36 L582.696344,36 C585.063323,36 586.377544,37.3216099 587.294144,39.3079935 L626.471154,124.711576 C626.868775,125.500375 627,126.165148 627,126.821985 C627,128.543451 625.554554,130 623.710501,130 C622.135803,130 620.950834,128.808368 620.29471,127.353804 L609.516518,103.556888 L555.218072,103.556888 L544.435934,127.486758 C543.783757,129.070309 542.730012,130 541.152355,130 C539.447419,130 538,128.675414 538,127.091863 C538,126.560044 538.129251,125.771245 538.523912,124.973517 Z M606.622666,97.3457182 L582.435868,43.8016656 L558.114884,97.3457182 L606.622666,97.3457182 Z" id="Fill-3" fill="#DB0934"/>
        <path d="M636.31751,118.067555 C635.65727,117.541741 635,116.616863 635,115.429574 C635,113.584769 636.582794,112.002377 638.431862,112.002377 C639.350457,112.002377 640.143338,112.395499 640.668957,112.788622 C649.904397,121.101629 659.135877,124.796189 671.79625,124.796189 C685.649411,124.796189 695.145185,117.009986 695.145185,106.45311 L695.145185,106.191688 C695.145185,96.4279892 689.999867,90.7559336 669.026608,86.5355598 C646.870461,82.0448524 637.898325,74.5279923 637.898325,60.537978 L637.898325,60.2765565 C637.898325,46.5558856 650.426056,36 667.573486,36 C679.971545,36 688.550705,39.1687462 696.988314,45.4983166 C697.643604,46.0300718 698.439456,46.9499984 698.439456,48.268989 C698.439456,50.1187446 696.855672,51.7021274 695.006604,51.7021274 C694.219661,51.7021274 693.42381,51.4407059 692.768519,50.9089507 C684.722897,44.7091008 676.675295,42.2028206 667.312162,42.2028206 C653.726265,42.2028206 644.756109,49.9870436 644.756109,59.6180514 L644.756109,59.8824437 C644.756109,69.6461428 649.771755,75.5855614 671.663608,80.0703274 C693.030834,84.421412 702,92.0778949 702,105.534173 L702,105.798566 C702,120.705536 689.205005,131 671.399314,131 C657.555063,131 646.737819,126.641984 636.31751,118.067555" id="Fill-5" fill="#DB0934"/>
        <path d="M719,40.4554281 C719,38.5991817 720.616395,37 722.502526,37 C724.384615,37 726,38.5991817 726,40.4554281 L726,127.545568 C726,129.401815 724.384615,131 722.502526,131 C720.616395,131 719,129.401815 719,127.545568 L719,40.4554281 Z" id="Fill-7" fill="#DB0934"/>
        <path d="M749,40.5850709 C749,38.7287654 750.585735,37.1305293 752.439566,37.1305293 L753.495068,37.1305293 C754.949734,37.1305293 756.011193,37.9306437 756.936619,39.1253352 L819.382013,118.648544 L819.382013,40.3220195 C819.382013,38.4577428 820.840651,37 822.686538,37 C824.542355,37 826,38.4577428 826,40.3220195 L826,127.941032 C826,129.534286 824.808465,130.861499 823.222729,130.861499 L822.686538,130.861499 C821.366913,130.861499 820.312404,129.935838 819.251938,128.608624 L755.616001,47.6226905 L755.616001,127.67798 C755.616001,129.534286 754.159349,131 752.302539,131 C750.45268,131 749,129.534286 749,127.67798 L749,40.5850709 Z" id="Fill-9" fill="#DB0934"/>
        <g id="Group-13" transform="translate(842.000000, 35.000000)">
            <mask id="mask-2" fill="white">
                <use xlink:href="#path-1"/>
            </mask>
            <g id="Clip-12"/>
            <path d="M0.656911579,48.4708948 L0.656911579,48.2066474 C0.656911579,23.0190186 19.2471432,0.469905155 47.1977958,0.469905155 C75.1425116,0.469905155 93.4725116,22.7577402 93.4725116,47.9453691 L93.4725116,48.2066474 C93.4725116,73.3922969 74.8852484,95.9414103 46.9296484,95.9414103 C18.9829537,95.9414103 0.656911579,73.6585237 0.656911579,48.4708948 M86.3542379,48.4708948 L86.3542379,48.2066474 C86.3542379,25.3932866 69.7360274,6.66932784 46.9296484,6.66932784 C24.1193116,6.66932784 7.77419579,25.1320082 7.77419579,47.9453691 L7.77419579,48.2066474 C7.77419579,71.0229773 24.3894379,89.7489155 47.1977958,89.7489155 C70.0002168,89.7489155 86.3542379,71.2842557 86.3542379,48.4708948" id="Fill-11" fill="#DB0934" mask="url(#mask-2)"/>
        </g>
        <path d="M216.220364,130 C213.335311,130 210.09359,127.836009 208.97801,125.180653 L202.096286,108.14766 L158.51435,108.14766 L151.528599,125.191572 C150.394194,127.84395 147.139593,130 144.258503,130 L132,130 L172.111352,37 L183.674351,37 C186.547515,37 189.825894,39.14116 190.980114,41.7915528 L229,130 L216.220364,130 Z M180.23448,56.8362544 L164.884849,92.8865596 L195.726779,92.8865596 L180.23448,56.8362544 Z" id="Fill-14" fill="#FFFFFF"/>
        <path d="M426.221486,130 C423.339434,130 420.093783,127.836009 418.977223,125.180653 L412.090617,108.14766 L368.516061,108.14766 L361.533353,125.191572 C360.394997,127.84395 357.143401,130 354.256396,130 L342,130 L382.111933,37 L393.674814,37 C396.548939,37 399.826294,39.14116 400.983474,41.7915528 L439,130 L426.221486,130 Z M390.234978,56.8362544 L374.879559,92.8865596 L405.727119,92.8865596 L390.234978,56.8362544 Z" id="Fill-16" fill="#FFFFFF"/>
        <path d="M250.601887,97.9308521 L250.601887,124.794599 C250.601887,127.670773 248.259215,130 245.358242,130 L233,130 L233,38 L274.710312,38 C295.99738,38 309.097037,49.168419 309.097037,67.1731923 C309.097037,82.4194887 300.411038,92.0617945 287.452697,95.6125051 L312,130 L297.176677,130 C294.2767,130 290.579577,128.097056 288.913633,125.746071 L269.636845,97.9308521 L250.601887,97.9308521 Z M273.387708,53.1582704 L250.601887,53.1582704 L250.601887,83.1652368 L273.514096,83.1652368 C285.152818,83.1652368 292.565972,77.3950848 292.565972,68.0920252 C292.565972,58.7909437 285.424504,53.1582704 273.387708,53.1582704 Z" id="Fill-18" fill="#FFFFFF"/>
        <path d="M336,43.2110553 L336,130 L324.195266,130 C321.327416,130 319,127.665954 319,124.788945 L319,38 L330.803748,38 C333.678501,38 336,40.3291014 336,43.2110553" id="Fill-20" fill="#FFFFFF"/>
        <g id="Group-24">
            <polygon id="Fill-22" fill="#DB0934" points="95.7443717 166 0 166 0 0 165.952978 0"/>
            <path d="M83.4699933,106.834292 L54.9153834,63.2840192 L54.9153834,123.787098 C54.9153834,126.668433 52.5642258,129 49.665129,129 L38,129 L38,37 L50.987157,37 C53.8852576,37 57.5096268,38.9627484 59.0767332,41.3793515 L83.9950187,80.0558774 L108.922271,41.3793515 C110.490373,38.9627484 114.110757,37 117.013839,37 L130,37 L130,85.9332459 L112.822602,126.214578 L112.822602,63.025945 L83.9950187,106.834292 L83.4699933,106.834292 Z" id="Fill-25" fill="#FFFFFF"/>
        </g>
    </g>
</svg>