<svg id="Lager_1" data-name="Lager 1" xmlns="http://www.w3.org/2000/svg" xmlns:xlink="http://www.w3.org/1999/xlink" viewBox="0 0 220.17 210.65"><defs><style>.cls-1{fill:url(#linear-gradient);}.cls-2{fill:url(#linear-gradient-2);}.cls-3{fill:url(#linear-gradient-3);}.cls-4{fill:url(#linear-gradient-4);}.cls-5{fill:url(#linear-gradient-5);}.cls-6{fill:url(#linear-gradient-6);}.cls-7{fill:url(#linear-gradient-7);}.cls-8{fill:url(#linear-gradient-8);}.cls-9{fill:url(#linear-gradient-9);}.cls-10{fill:url(#linear-gradient-10);}.cls-11{fill:url(#linear-gradient-11);}.cls-12{fill:url(#linear-gradient-12);}.cls-13{fill:url(#linear-gradient-13);}.cls-14{fill:url(#linear-gradient-14);}.cls-15{fill:url(#linear-gradient-15);}.cls-16{fill:url(#linear-gradient-16);}.cls-17{fill:url(#linear-gradient-17);}.cls-18{fill:url(#linear-gradient-18);}.cls-19{fill:url(#linear-gradient-19);}.cls-20{fill:url(#linear-gradient-20);}.cls-21{fill:url(#linear-gradient-21);}.cls-22{fill:url(#linear-gradient-22);}.cls-23{fill:url(#linear-gradient-23);}.cls-24{fill:url(#linear-gradient-24);}.cls-25{fill:url(#linear-gradient-25);}.cls-26{fill:url(#linear-gradient-26);}.cls-27{fill:url(#linear-gradient-27);}.cls-28{fill:#fed100;}</style><linearGradient id="linear-gradient" x1="124.58" y1="23.65" x2="124.58" y2="234.3" gradientUnits="userSpaceOnUse"><stop offset="0" stop-color="#ffdf6c"/><stop offset="0.35" stop-color="#b79340"/><stop offset="0.57" stop-color="#cfab4f"/><stop offset="0.7" stop-color="#d8b555"/><stop offset="0.72" stop-color="#d4b152"/><stop offset="0.9" stop-color="#b38f3c"/><stop offset="1" stop-color="#a68233"/></linearGradient><linearGradient id="linear-gradient-2" x1="54.42" y1="71.49" x2="54.42" y2="74.79" xlink:href="#linear-gradient"/><linearGradient id="linear-gradient-3" x1="52.04" y1="47.84" x2="52.04" y2="51.14" xlink:href="#linear-gradient"/><linearGradient id="linear-gradient-4" x1="64.16" y1="47.84" x2="64.16" y2="51.14" xlink:href="#linear-gradient"/><linearGradient id="linear-gradient-5" x1="76.27" y1="47.84" x2="76.27" y2="51.14" xlink:href="#linear-gradient"/><linearGradient id="linear-gradient-6" x1="88.39" y1="47.84" x2="88.39" y2="51.14" xlink:href="#linear-gradient"/><linearGradient id="linear-gradient-7" x1="100.5" y1="47.84" x2="100.5" y2="51.14" xlink:href="#linear-gradient"/><linearGradient id="linear-gradient-8" x1="127.12" y1="71.49" x2="127.12" y2="74.79" xlink:href="#linear-gradient"/><linearGradient id="linear-gradient-9" x1="124.74" y1="47.84" x2="124.74" y2="51.14" xlink:href="#linear-gradient"/><linearGradient id="linear-gradient-10" x1="136.85" y1="47.84" x2="136.85" y2="51.14" xlink:href="#linear-gradient"/><linearGradient id="linear-gradient-11" x1="148.97" y1="47.84" x2="148.97" y2="51.14" xlink:href="#linear-gradient"/><linearGradient id="linear-gradient-12" x1="161.08" y1="47.84" x2="161.08" y2="51.14" xlink:href="#linear-gradient"/><linearGradient id="linear-gradient-13" x1="173.2" y1="47.84" x2="173.2" y2="51.14" xlink:href="#linear-gradient"/><linearGradient id="linear-gradient-14" x1="199.81" y1="71.49" x2="199.81" y2="74.79" xlink:href="#linear-gradient"/><linearGradient id="linear-gradient-15" x1="53.42" y1="180.96" x2="53.42" y2="184.27" xlink:href="#linear-gradient"/><linearGradient id="linear-gradient-16" x1="51.04" y1="157.31" x2="51.04" y2="160.62" xlink:href="#linear-gradient"/><linearGradient id="linear-gradient-17" x1="63.16" y1="157.31" x2="63.16" y2="160.62" xlink:href="#linear-gradient"/><linearGradient id="linear-gradient-18" x1="75.27" y1="157.31" x2="75.27" y2="160.62" xlink:href="#linear-gradient"/><linearGradient id="linear-gradient-19" x1="87.39" y1="157.31" x2="87.39" y2="160.62" xlink:href="#linear-gradient"/><linearGradient id="linear-gradient-20" x1="99.5" y1="157.31" x2="99.5" y2="160.62" xlink:href="#linear-gradient"/><linearGradient id="linear-gradient-21" x1="126.12" y1="180.96" x2="126.12" y2="184.27" xlink:href="#linear-gradient"/><linearGradient id="linear-gradient-22" x1="123.74" y1="157.31" x2="123.74" y2="160.62" xlink:href="#linear-gradient"/><linearGradient id="linear-gradient-23" x1="135.85" y1="157.31" x2="135.85" y2="160.62" xlink:href="#linear-gradient"/><linearGradient id="linear-gradient-24" x1="147.97" y1="157.31" x2="147.97" y2="160.62" xlink:href="#linear-gradient"/><linearGradient id="linear-gradient-25" x1="160.08" y1="157.31" x2="160.08" y2="160.62" xlink:href="#linear-gradient"/><linearGradient id="linear-gradient-26" x1="172.2" y1="157.31" x2="172.2" y2="160.62" xlink:href="#linear-gradient"/><linearGradient id="linear-gradient-27" x1="198.81" y1="180.96" x2="198.81" y2="184.27" xlink:href="#linear-gradient"/></defs><title>mindep</title><path class="cls-1" d="M233.86,140.87l-6.46,4c.28-1.59.53-3.19.74-4.81l6.52-8.65-6.09,4.61c.14-1.6.24-3.22.31-4.85l5.76-9.21L229,127.14V127h0v-.26c0-1.41,0-2.81-.1-4.2a1.93,1.93,0,0,0,0-.24l4.94-9.67-5.21,5.6c-.13-1.63-.31-3.24-.52-4.85l4.07-10-4.69,6c-.28-1.6-.6-3.2-.95-4.78l3.17-10.36-4.14,6.41q-.63-2.35-1.37-4.67l2.26-10.61-3.57,6.75q-.84-2.28-1.77-4.52l1.33-10.78-3,7c-.68-1.46-1.4-2.91-2.15-4.33l.39-10.89-2.36,7.3c-.81-1.4-1.64-2.78-2.51-4.13l-.57-10.89-1.72,7.5c-.92-1.32-1.87-2.61-2.85-3.89l-1.52-10.83-1,7.63c-.67-.8-1.35-1.58-2-2.35-.32-.37-.64-.73-1-1.09l-.17-.18L199.45,47l-.39,7.7-.06-.06-.08-.08a.3.3,0,0,0-.08-.08c-1.05-1-2.13-2.08-3.22-3.08l0,0L192.2,40.94l.28,7.7c-.9-.77-1.82-1.52-2.76-2.26l-.32-.24-.68-.53-4.27-10.07,1,7.63q-2-1.39-4-2.7l-5.12-9.64,1.61,7.5q-2.1-1.21-4.26-2.34l-5.92-9.13,2.25,7.32c-1.46-.69-2.95-1.35-4.45-2l-6.68-8.56,2.87,7.07L161,33.77,153.67,38l10.84-2.82q2.28.95,4.5,2l-7.69,3.53,11-1.87c1.46.77,2.89,1.56,4.31,2.4L168.71,44l11.13-.89c1.39.89,2.75,1.8,4.1,2.76L175.78,48l11.14.08q2,1.5,3.84,3.11l-8.28,1.41,11.08,1c1.08,1,2.15,2,3.19,3l.37.39-8.38.68,10.95,2c.39.42.77.85,1.15,1.28.72.81,1.42,1.62,2.11,2.45l-8.41-.05,10.73,3c1,1.3,2,2.64,2.93,4l-8.39-.79,10.47,3.89q1.33,2.08,2.56,4.24l-8.31-1.52,10.1,4.8q1.14,2.18,2.18,4.43l-8.15-2.23,9.66,5.66q.94,2.28,1.78,4.61l-7.95-3,9.15,6.5c.49,1.57.95,3.14,1.37,4.74L215,98.19l8.54,7.27c.36,1.6.67,3.21,1,4.83L217.17,106l7.88,8c.21,1.62.38,3.25.52,4.9l-6.91-4.9,7.14,8.63c.06,1.44.1,2.89.1,4.35,0,.2,0,.39,0,.58l-6.45-5.48,6.36,9.22c-.07,1.65-.19,3.29-.34,4.92l-6-6,5.54,9.75c-.21,1.64-.47,3.26-.76,4.87l-5.41-6.53,4.67,10.2c-.36,1.61-.76,3.21-1.19,4.79l-4.82-7,3.76,10.57c-.49,1.57-1,3.12-1.6,4.66l-4.19-7.36L218.33,165q-.95,2.28-2,4.5l-3.53-7.69,1.87,11c-.77,1.46-1.56,2.9-2.4,4.32l-2.83-7.95.89,11.13c-.89,1.39-1.8,2.75-2.76,4.09l-2.13-8.15-.08,11.13c-1,1.31-2,2.6-3.11,3.85L200.84,183l-1,11.08c-1.12,1.22-2.26,2.41-3.44,3.57l-.68-8.38-2,10.95c-1.21,1.11-2.46,2.2-3.73,3.26L190,195l-3,10.73c-1.3,1-2.64,2-4,2.93l.79-8.39-3.89,10.46q-2.09,1.33-4.24,2.57l1.52-8.31-4.8,10.1q-2.17,1.14-4.43,2.18l2.23-8.16-5.66,9.67q-2.28.94-4.61,1.78l2.95-7.95-6.5,9.15c-1.57.49-3.14.95-4.74,1.36l3.63-7.66L148,224c-1.6.35-3.21.67-4.83,1l4.28-7.32-8,7.88c-1.62.21-3.25.38-4.9.51l4.9-6.91-8.63,7.14c-.64,0-1.29,0-1.93.05a4.57,4.57,0,0,0-8.66,0c-.65,0-1.29,0-1.93-.05l-8.63-7.14,4.9,6.91c-1.65-.13-3.28-.3-4.9-.51l-8-7.88L106,225c-1.62-.28-3.23-.6-4.83-1l-7.27-8.54,3.63,7.66c-1.6-.41-3.17-.87-4.74-1.36l-6.5-9.15,3,7.95q-2.32-.84-4.61-1.78l-5.67-9.67,2.24,8.16q-2.25-1-4.43-2.18L72,205l1.52,8.31q-2.16-1.23-4.24-2.57l-3.89-10.46.78,8.39c-1.35-.95-2.69-1.92-4-2.93l-3-10.73,0,8.41c-1.27-1.06-2.52-2.15-3.73-3.26l-2-10.95-.68,8.38c-1.18-1.16-2.32-2.35-3.44-3.57l-1-11.08-1.41,8.29c-1.07-1.25-2.11-2.54-3.11-3.85l-.08-11.13-2.13,8.15q-1.44-2-2.76-4.09l.89-11.13-2.84,7.95c-.83-1.42-1.62-2.86-2.39-4.32l1.87-11-3.53,7.69q-1-2.22-2-4.5l2.82-10.84-4.19,7.36c-.57-1.54-1.11-3.09-1.6-4.66l3.76-10.57-4.82,7c-.43-1.58-.83-3.18-1.19-4.79l4.67-10.2-5.41,6.53c-.29-1.61-.55-3.23-.76-4.87l5.54-9.75-5.95,6c-.16-1.63-.27-3.27-.34-4.92l6.36-9.22-6.45,5.48c0-.19,0-.38,0-.58,0-1.46,0-2.91.1-4.35L30.5,114l-6.91,4.9c.14-1.65.31-3.28.52-4.9L32,106l-7.32,4.28c.28-1.62.59-3.23.95-4.83l8.54-7.27-7.67,3.63c.42-1.6.88-3.17,1.37-4.74L37,90.58l-7.95,3q.84-2.32,1.78-4.61l9.66-5.66-8.15,2.23q1-2.25,2.18-4.43l10.1-4.8-8.31,1.52q1.23-2.16,2.56-4.24l10.47-3.89L41,70.44c.94-1.36,1.92-2.7,2.93-4l10.73-3-8.41.05c.69-.83,1.39-1.64,2.11-2.45.38-.43.76-.86,1.15-1.28l11-2L52,57.11l.37-.39c1-1,2.11-2,3.19-3l11.08-1L58.4,51.22q1.88-1.61,3.84-3.11L73.38,48,65.22,45.9c1.34-1,2.71-1.87,4.1-2.76L80.45,44l-8-2.83c1.42-.84,2.85-1.63,4.31-2.4l11,1.87-7.69-3.53q2.22-1.05,4.5-2L95.49,38l-7.36-4.19-.65-3.05,2.87-7.07-6.68,8.56c-1.5.62-3,1.28-4.45,2l2.25-7.32L75.54,36q-2.15,1.13-4.25,2.34l1.61-7.5-5.12,9.64q-2,1.31-4,2.7l.95-7.63L60.44,45.61l-.68.53-.32.24c-.94.74-1.86,1.49-2.76,2.26l.28-7.7L53.58,51.35l0,0c-1.09,1-2.17,2-3.22,3.08l-.08.08-.09.08,0,.06L49.71,47,47.25,57.67l-.17.18c-.33.36-.65.72-1,1.09-.69.77-1.37,1.55-2,2.35L43,53.66,41.5,64.49c-1,1.28-1.93,2.57-2.86,3.89l-1.71-7.5-.57,10.89c-.87,1.35-1.7,2.73-2.51,4.13l-2.36-7.3.39,10.89c-.75,1.42-1.47,2.87-2.15,4.33l-3-7,1.33,10.78q-.93,2.24-1.77,4.52l-3.57-6.75L25,95.93q-.73,2.31-1.37,4.67l-4.14-6.41,3.17,10.36c-.35,1.58-.67,3.18-.95,4.78l-4.69-6,4.07,10c-.21,1.61-.39,3.22-.53,4.85l-5.2-5.6,4.94,9.67a1.93,1.93,0,0,0,0,.24c-.06,1.39-.1,2.79-.1,4.2,0,.09,0,.17,0,.26h0c0,.06,0,.11,0,.16L14.52,122l5.76,9.21c.07,1.63.17,3.25.31,4.85l-6.1-4.61L21,140.11c.21,1.62.46,3.22.74,4.81l-6.46-4,7.26,8c.34,1.6.73,3.17,1.15,4.73l-6.79-3.47,7.92,7.38c.49,1.56,1,3.09,1.57,4.62l-7.07-2.87L27.9,166q.93,2.25,2,4.45l-7.32-2.25,9.13,5.92q1.13,2.16,2.34,4.26l-7.5-1.61,9.64,5.12q1.31,2,2.7,4l-7.63-1,10.07,4.27q1.47,1.92,3,3.76l-7.7-.28L47,196.08q1.64,1.77,3.34,3.48l-7.7.39,10.68,2.46Q55.13,204,57,205.58l-7.64,1.06,10.84,1.52q1.91,1.47,3.89,2.85l-7.5,1.72,10.89.56q2,1.31,4.13,2.52l-7.3,2.36,10.89-.39c1.42.75,2.87,1.46,4.33,2.15l-7.05,3,10.78-1.33c1.49.62,3,1.21,4.52,1.77L81,226.92l10.61-2.26q2.31.74,4.67,1.36l-6.41,4.15L100.24,227c1.58.36,3.17.68,4.78,1l-6,4.69,10-4.07c1.61.21,3.22.38,4.85.52l-5.6,5.21,9.67-4.94c.77,0,1.54,0,2.31.06a4.57,4.57,0,0,0,8.59,0c.78,0,1.55,0,2.32-.06l9.67,4.94-5.6-5.21c1.63-.14,3.24-.31,4.85-.52l10,4.07-6-4.69c1.6-.28,3.2-.6,4.78-1l10.36,3.18L152.87,226q2.35-.63,4.67-1.36l10.61,2.26-6.75-3.57q2.28-.84,4.52-1.77l10.78,1.33-7-3c1.46-.69,2.91-1.4,4.33-2.15l10.89.39-7.3-2.36q2.1-1.22,4.13-2.52l10.89-.56-7.5-1.72c1.32-.92,2.61-1.87,3.89-2.85l10.83-1.52-7.63-1.06q1.84-1.54,3.62-3.17L206.48,200l-7.7-.39q1.71-1.71,3.34-3.48l10.41-3.38-7.7.28q1.56-1.84,3-3.76L217.93,185l-7.63,1q1.39-2,2.7-4l9.64-5.12-7.5,1.61q1.22-2.1,2.34-4.26l9.13-5.92-7.32,2.25q1-2.2,2-4.45l8.56-6.68-7.07,2.87c.56-1.53,1.08-3.06,1.57-4.62l7.92-7.38-6.79,3.47c.42-1.56.8-3.13,1.15-4.73Z" transform="translate(-14.49 -23.65)"/><path class="cls-2" d="M56.07,73.14a1.65,1.65,0,1,1-1.65-1.65A1.65,1.65,0,0,1,56.07,73.14Z" transform="translate(-14.49 -23.65)"/><circle class="cls-3" cx="52.04" cy="49.49" r="1.65"/><circle class="cls-4" cx="64.16" cy="49.49" r="1.65"/><circle class="cls-5" cx="76.27" cy="49.49" r="1.65"/><circle class="cls-6" cx="88.39" cy="49.49" r="1.65"/><circle class="cls-7" cx="100.5" cy="49.49" r="1.65"/><path class="cls-8" d="M128.77,73.14a1.66,1.66,0,1,1-1.65-1.65A1.65,1.65,0,0,1,128.77,73.14Z" transform="translate(-14.49 -23.65)"/><circle class="cls-9" cx="124.74" cy="49.49" r="1.65"/><circle class="cls-10" cx="136.85" cy="49.49" r="1.65"/><circle class="cls-11" cx="148.97" cy="49.49" r="1.65"/><circle class="cls-12" cx="161.08" cy="49.49" r="1.65"/><circle class="cls-13" cx="173.2" cy="49.49" r="1.65"/><path class="cls-14" d="M201.46,73.14a1.65,1.65,0,1,1-1.65-1.65A1.65,1.65,0,0,1,201.46,73.14Z" transform="translate(-14.49 -23.65)"/><path class="cls-15" d="M55.07,182.62A1.65,1.65,0,1,1,53.42,181,1.65,1.65,0,0,1,55.07,182.62Z" transform="translate(-14.49 -23.65)"/><circle class="cls-16" cx="51.04" cy="158.97" r="1.65"/><circle class="cls-17" cx="63.16" cy="158.97" r="1.65"/><circle class="cls-18" cx="75.27" cy="158.97" r="1.65"/><circle class="cls-19" cx="87.39" cy="158.97" r="1.65"/><circle class="cls-20" cx="99.5" cy="158.97" r="1.65"/><path class="cls-21" d="M127.77,182.62a1.66,1.66,0,1,1-1.65-1.66A1.65,1.65,0,0,1,127.77,182.62Z" transform="translate(-14.49 -23.65)"/><circle class="cls-22" cx="123.74" cy="158.97" r="1.65"/><circle class="cls-23" cx="135.85" cy="158.97" r="1.65"/><circle class="cls-24" cx="147.97" cy="158.97" r="1.65"/><circle class="cls-25" cx="160.08" cy="158.97" r="1.65"/><circle class="cls-26" cx="172.2" cy="158.97" r="1.65"/><path class="cls-27" d="M200.46,182.62a1.65,1.65,0,1,1-1.65-1.66A1.65,1.65,0,0,1,200.46,182.62Z" transform="translate(-14.49 -23.65)"/><path class="cls-28" d="M95.93,90.09h5.38L97.51,108H94l2.56-12.1.33-1.46c.14-.63.25-1.12.31-1.46l-6.57,15H87l-.18-15c-.06.34-.16.83-.29,1.46s-.22,1.11-.3,1.46L83.69,108H80.21L84,90.09h5.44l.25,14.07Z" transform="translate(-14.49 -23.65)"/><path class="cls-28" d="M104.41,108h-3.72l3.8-17.89h3.72Z" transform="translate(-14.49 -23.65)"/><path class="cls-28" d="M111.63,90.09h3.92L120,102.58l2.66-12.49h3.49L122.37,108h-3.74L114,95.27,111.32,108h-3.49Z" transform="translate(-14.49 -23.65)"/><path class="cls-28" d="M129.72,102.46a3.26,3.26,0,0,0,.28,1.83c.46.74,1.42,1.11,2.89,1.11a7.26,7.26,0,0,0,2.21-.29,2.74,2.74,0,0,0,2-2.08,1.23,1.23,0,0,0-.49-1.37,6.52,6.52,0,0,0-2.26-.84l-1.81-.42A9.76,9.76,0,0,1,129,99c-1-.82-1.35-2.11-1-3.87a6.65,6.65,0,0,1,2.6-4,8.75,8.75,0,0,1,5.48-1.6,6.51,6.51,0,0,1,4.5,1.5,4.44,4.44,0,0,1,1.17,4.36h-3.6a2,2,0,0,0-.91-2.3,4.14,4.14,0,0,0-2.08-.45,4.7,4.7,0,0,0-2.43.59,2.4,2.4,0,0,0-1.21,1.62,1.24,1.24,0,0,0,.55,1.44,8.68,8.68,0,0,0,2.17.74l2.93.74A6.21,6.21,0,0,1,140,99.1a3.65,3.65,0,0,1,.82,3.65,6.61,6.61,0,0,1-2.74,4.07,9.27,9.27,0,0,1-5.65,1.63c-2.33,0-4-.54-5.16-1.6a4.43,4.43,0,0,1-1.07-4.39Z" transform="translate(-14.49 -23.65)"/><path class="cls-28" d="M159.24,90.09l-.68,3.17h-5.35L150.09,108h-3.77l3.12-14.72h-5.38l.68-3.17Z" transform="translate(-14.49 -23.65)"/><path class="cls-28" d="M164.72,90.09h4.22L171.48,108h-4l-.38-3.67h-6.59l-2,3.67h-3.91Zm-2.6,11.13h4.54l-.74-7Z" transform="translate(-14.49 -23.65)"/><path class="cls-28" d="M50.55,137.83H46.83l3.8-17.9h3.72Z" transform="translate(-14.49 -23.65)"/><path class="cls-28" d="M57.77,119.93h3.92l4.47,12.49,2.66-12.49H72.3l-3.8,17.9H64.76l-4.61-12.72-2.7,12.72H54Z" transform="translate(-14.49 -23.65)"/><path class="cls-28" d="M75.86,132.3a3.26,3.26,0,0,0,.28,1.83c.45.74,1.42,1.11,2.89,1.11a7.31,7.31,0,0,0,2.21-.29,2.71,2.71,0,0,0,2-2.08,1.22,1.22,0,0,0-.48-1.37,6.6,6.6,0,0,0-2.26-.84l-1.81-.42a9.59,9.59,0,0,1-3.57-1.38c-1-.82-1.35-2.11-1-3.87a6.61,6.61,0,0,1,2.6-4,8.77,8.77,0,0,1,5.47-1.59,6.52,6.52,0,0,1,4.51,1.5,4.41,4.41,0,0,1,1.16,4.35H84.29a2,2,0,0,0-.91-2.3,4.14,4.14,0,0,0-2.08-.45,4.7,4.7,0,0,0-2.43.59,2.4,2.4,0,0,0-1.21,1.62,1.23,1.23,0,0,0,.55,1.44,8.68,8.68,0,0,0,2.17.74l2.93.74a6.26,6.26,0,0,1,2.78,1.3,3.65,3.65,0,0,1,.82,3.65,6.7,6.7,0,0,1-2.74,4.08,9.35,9.35,0,0,1-5.65,1.62c-2.33,0-4-.54-5.16-1.6a4.42,4.42,0,0,1-1.07-4.39Z" transform="translate(-14.49 -23.65)"/><path class="cls-28" d="M97.5,119.93h4.22l2.54,17.9h-4.05l-.38-3.68H93.24l-2,3.68H87.31Zm-2.6,11.13h4.54l-.74-7Zm1.63-15.67H99.7l-.62,2.87H95.91Zm4.85,0h3.17l-.62,2.87h-3.16Z" transform="translate(-14.49 -23.65)"/><path class="cls-28" d="M123.34,119.93l-.68,3.17H117.3l-3.12,14.73h-3.76l3.12-14.73h-5.38l.68-3.17Z" transform="translate(-14.49 -23.65)"/><path class="cls-28" d="M138.53,119.93l-.68,3.17h-5.36l-3.12,14.73h-3.76l3.12-14.73h-5.38l.68-3.17Z" transform="translate(-14.49 -23.65)"/><path class="cls-28" d="M140.65,119.93h3.92L149,132.42l2.66-12.49h3.49l-3.8,17.9h-3.74L143,125.11l-2.69,12.72h-3.49Z" transform="translate(-14.49 -23.65)"/><path class="cls-28" d="M158.29,137.83h-3.71l3.8-17.9h3.72Z" transform="translate(-14.49 -23.65)"/><path class="cls-28" d="M165.52,119.93h3.92l4.47,12.49,2.66-12.49h3.48l-3.8,17.9h-3.74l-4.61-12.72-2.7,12.72h-3.48Z" transform="translate(-14.49 -23.65)"/><path class="cls-28" d="M194.38,125.51a2.66,2.66,0,0,0-1.53-2.56,4.47,4.47,0,0,0-2-.4,5.51,5.51,0,0,0-3.89,1.63,9.22,9.22,0,0,0-2.44,4.91c-.47,2.21-.29,3.77.51,4.68a4,4,0,0,0,3.13,1.37,5.34,5.34,0,0,0,3.32-1.09,6.09,6.09,0,0,0,2.08-2.84h-4.14l.65-3h7.45l-2,9.61H193l.1-2.24a12,12,0,0,1-2.33,1.8,7.9,7.9,0,0,1-3.84.91,6,6,0,0,1-5.3-2.47c-1.23-1.65-1.53-3.91-.93-6.77a12.51,12.51,0,0,1,3.88-7,10,10,0,0,1,6.88-2.62,6.83,6.83,0,0,1,5.11,1.73,5.14,5.14,0,0,1,1.46,4.31Z" transform="translate(-14.49 -23.65)"/><path class="cls-28" d="M38.8,167.67l3.8-17.9h3.7l-1.46,6.82h7l1.46-6.82H57l-3.8,17.9H49.5l1.68-8h-7l-1.69,8Z" transform="translate(-14.49 -23.65)"/><path class="cls-28" d="M70.89,166.08a9.4,9.4,0,0,1-6.3,2.08q-3.84,0-5.43-2.08Q57,163.51,58,158.69a11.9,11.9,0,0,1,4.29-7.38,9.41,9.41,0,0,1,6.3-2.09q3.83,0,5.42,2.09,2.19,2.46,1.15,7.38A12.3,12.3,0,0,1,70.89,166.08Zm.55-7.39a6.56,6.56,0,0,0-.33-4.65,3.36,3.36,0,0,0-3.17-1.65A5.39,5.39,0,0,0,64.05,154a8.94,8.94,0,0,0-2.32,4.66,6.56,6.56,0,0,0,.33,4.67,3.43,3.43,0,0,0,3.2,1.64,5.37,5.37,0,0,0,3.88-1.64A9.1,9.1,0,0,0,71.44,158.69Z" transform="translate(-14.49 -23.65)"/><path class="cls-28" d="M80,162.14a3.09,3.09,0,0,0,.28,1.83c.45.74,1.41,1.11,2.89,1.11a7.36,7.36,0,0,0,2.21-.29,2.73,2.73,0,0,0,2-2.08,1.21,1.21,0,0,0-.49-1.37,6.73,6.73,0,0,0-2.26-.84l-1.8-.42a9.64,9.64,0,0,1-3.57-1.37c-1-.83-1.36-2.12-1-3.88a6.65,6.65,0,0,1,2.6-4,8.81,8.81,0,0,1,5.48-1.59,6.51,6.51,0,0,1,4.5,1.5A4.4,4.4,0,0,1,92,155.1h-3.6a2,2,0,0,0-.91-2.3,4.13,4.13,0,0,0-2.07-.45,4.72,4.72,0,0,0-2.44.59,2.43,2.43,0,0,0-1.21,1.62,1.26,1.26,0,0,0,.55,1.44,8.42,8.42,0,0,0,2.17.74l2.93.74a6.26,6.26,0,0,1,2.78,1.3,3.65,3.65,0,0,1,.83,3.65,6.69,6.69,0,0,1-2.75,4.08,9.32,9.32,0,0,1-5.64,1.62q-3.51,0-5.17-1.6a4.42,4.42,0,0,1-1.06-4.39Z" transform="translate(-14.49 -23.65)"/><path class="cls-28" d="M104.75,151.64a9.23,9.23,0,0,1,6-2.21q4.51,0,6,3a5.4,5.4,0,0,1,.52,3.34h-3.74a3.92,3.92,0,0,0-.52-1.94,3.06,3.06,0,0,0-2.77-1.17,4.73,4.73,0,0,0-3.57,1.65,9.56,9.56,0,0,0-2.16,4.65c-.43,2-.33,3.51.28,4.51a3.11,3.11,0,0,0,2.84,1.5,4.5,4.5,0,0,0,3.28-1.28,7.4,7.4,0,0,0,1.39-2.08H116a10.6,10.6,0,0,1-3.49,4.76,8.81,8.81,0,0,1-5.51,1.83q-3.86,0-5.55-2.47t-.75-6.83A12.37,12.37,0,0,1,104.75,151.64Z" transform="translate(-14.49 -23.65)"/><path class="cls-28" d="M126.5,149.77h4.23l2.53,17.9h-4l-.38-3.68h-6.59l-2,3.68h-3.91Zm-2.6,11.13h4.54l-.74-7Z" transform="translate(-14.49 -23.65)"/><path class="cls-28" d="M139.41,162.14a3.09,3.09,0,0,0,.28,1.83c.45.74,1.41,1.11,2.89,1.11a7.31,7.31,0,0,0,2.21-.29,2.73,2.73,0,0,0,2-2.08,1.21,1.21,0,0,0-.49-1.37,6.66,6.66,0,0,0-2.25-.84l-1.81-.42a9.64,9.64,0,0,1-3.57-1.37c-1-.83-1.36-2.12-1-3.88a6.65,6.65,0,0,1,2.6-4,8.81,8.81,0,0,1,5.48-1.59,6.49,6.49,0,0,1,4.5,1.5,4.4,4.4,0,0,1,1.17,4.35h-3.6a2,2,0,0,0-.91-2.3,4.1,4.1,0,0,0-2.07-.45,4.72,4.72,0,0,0-2.44.59,2.38,2.38,0,0,0-1.2,1.62,1.24,1.24,0,0,0,.54,1.44,8.42,8.42,0,0,0,2.17.74l2.93.74a6.26,6.26,0,0,1,2.78,1.3,3.65,3.65,0,0,1,.83,3.65,6.69,6.69,0,0,1-2.75,4.08,9.32,9.32,0,0,1-5.64,1.62q-3.49,0-5.16-1.6a4.4,4.4,0,0,1-1.07-4.39Z" transform="translate(-14.49 -23.65)"/><path class="cls-28" d="M155.54,167.67h-3.71l3.8-17.9h3.72Z" transform="translate(-14.49 -23.65)"/><path class="cls-28" d="M162.77,149.77h3.92l4.47,12.49,2.66-12.49h3.48l-3.8,17.9h-3.74L165.15,155l-2.7,12.72H159Z" transform="translate(-14.49 -23.65)"/><path class="cls-28" d="M191.1,166.08a9.45,9.45,0,0,1-6.31,2.08q-3.82,0-5.42-2.08-2.18-2.57-1.14-7.39a11.94,11.94,0,0,1,4.28-7.38,9.44,9.44,0,0,1,6.3-2.09q3.84,0,5.43,2.09,2.19,2.46,1.14,7.38A12.24,12.24,0,0,1,191.1,166.08Zm.54-7.39a6.57,6.57,0,0,0-.32-4.65,3.36,3.36,0,0,0-3.17-1.65,5.43,5.43,0,0,0-3.9,1.64,9,9,0,0,0-2.31,4.66,6.5,6.5,0,0,0,.33,4.67,3.43,3.43,0,0,0,3.19,1.64,5.35,5.35,0,0,0,3.88-1.64A9,9,0,0,0,191.64,158.69Z" transform="translate(-14.49 -23.65)"/><path class="cls-28" d="M200.07,149.77H204l4.47,12.49,2.66-12.49h3.48l-3.8,17.9h-3.74L202.45,155l-2.7,12.72h-3.48Z" transform="translate(-14.49 -23.65)"/></svg>