<svg xmlns="http://www.w3.org/2000/svg" viewBox="0 0 701 123" style="background-color:#d70f2a; fill:#feec00;" class="svg-logo"><path d="M353.25,64.9c0,2.67-.51,4.77-3.69,4.77s-3.64-2-3.64-4.77V42.19H331.26V65.07c0,10.9,6.66,15.89,18.3,15.89s18.35-5,18.35-15.89V42.19H353.25V64.9Z"></path><polygon points="479.96 54.73 473.2 42.19 458.62 42.19 458.62 80.67 472.36 80.67 472.36 60.56 479.79 73.34 480.13 73.34 487.94 60.56 487.94 80.67 501.68 80.67 501.68 42.19 486.77 42.19 479.96 54.73"></polygon><path d="M518.52,42.19l-13.4,38.48H520l1.7-6.41h11.35l1.76,6.41h14.81L536.17,42.19H518.52Zm5.62,22.91,3.24-11.81,3.24,11.81h-6.47Z"></path><polygon points="546.58 53.18 557.57 53.18 557.57 80.67 572.23 80.67 572.23 53.18 583.22 53.18 583.22 42.19 546.58 42.19 546.58 53.18"></polygon><polygon points="588.72 80.67 620.79 80.67 620.79 70.59 603.38 70.59 603.38 66.01 618.04 66.01 618.04 56.85 603.38 56.85 603.38 52.27 620.79 52.27 620.79 42.19 588.72 42.19 588.72 80.67"></polygon><polygon points="651.94 42.19 651.94 61.35 640.94 42.19 626.29 42.19 626.29 80.67 640.03 80.67 640.03 60.45 651.78 80.67 665.69 80.67 665.69 42.19 651.94 42.19"></polygon><polygon points="372.49 52.27 383.49 52.27 383.49 79.75 398.14 79.75 398.14 52.27 408.22 52.27 408.22 42.19 372.49 42.19 372.49 52.27"></polygon><path d="M431.94,40.94c-12.94,0-21.74,7.49-21.74,19.92s8.8,19.92,21.74,19.92,21.68-7.49,21.68-19.92S444.83,40.94,431.94,40.94Zm0,28.29a8.36,8.36,0,1,1,8.36-8.36A8.36,8.36,0,0,1,431.92,69.22Z"></path><polygon points="120.47 54.73 113.72 42.19 98.53 42.19 98.53 80.67 112.28 80.67 112.28 60.77 120.3 73.34 120.64 73.34 128.77 60.77 128.77 80.67 142.51 80.67 142.51 42.19 127.28 42.19 120.47 54.73"></polygon><path d="M223.48,60.88a8.66,8.66,0,0,0,5.16-8.12c0-9.37-10.82-11.52-20.76-11.52a101.63,101.63,0,0,0-13.15,1V80.29a109.25,109.25,0,0,0,13.32.79c12.09,0,22.61-2,22.61-11.46C230.67,64.06,226,61.39,223.48,60.88Zm-15-10.16c0.92-.06,1.74-0.11,2.25-0.11,2.1,0,4.76.62,4.76,3.12,0,2.78-2.71,3.35-4.92,3.35-0.51,0-1.17,0-2.08-.06v-6.3ZM211,71.38c-0.57,0-2.53,0-2.53-.06V64.51c0.92-.06,1.85-0.11,2.36-0.11,2.33,0,5.85.45,5.85,3.52C216.69,70.7,213.34,71.38,211,71.38Z"></path><rect x="235.05" y="42.19" width="14.66" height="38.48"></rect><polygon points="270.79 69.67 270.79 42.19 256.13 42.19 256.13 80.67 279.11 80.67 282.95 69.67 270.79 69.67"></polygon><path d="M168.6,40.94c-12.94,0-21.74,7.49-21.74,19.92s8.8,19.92,21.74,19.92,21.68-7.49,21.68-19.92S181.49,40.94,168.6,40.94Zm0,28.29a8.36,8.36,0,1,1,8.36-8.36A8.36,8.36,0,0,1,168.57,69.22Z"></path><path d="M298.47,42.19l-13.4,38.48h14.87l1.7-6.41H313l1.76,6.41h14.81L316.12,42.19H298.47Zm5.62,22.91,3.24-11.81,3.24,11.81h-6.47Z"></path><path d="M61.43,35.31A26.11,26.11,0,1,0,87.54,61.43,26.11,26.11,0,0,0,61.43,35.31ZM59.34,74H50L62.84,51.5H56.43a5.48,5.48,0,1,1-4.93-2.61H72.92Zm11.75,0a5.48,5.48,0,1,1,5.48-5.48A5.49,5.49,0,0,1,71.09,74Z"></path></svg>