<svg xmlns="http://www.w3.org/2000/svg" xmlns:xlink="http://www.w3.org/1999/xlink" version="1.1" x="0px" y="0px" viewBox="-181 248.9 248.6 296.1" style="enable-background:new -181 248.9 248.6 296.1; background-color:#1d743f;" xml:space="preserve"><style type="text/css">	.st0{fill:#FFFFFF;}</style><g id="Layer_1"><path class="st0" d="M-90.6,412l-11.4,6.6l0,0l0,0l2.1,3.6l-0.1,0.1c-4-2.1-9.1-1.2-13.4,1.3c-0.6,0.3-1,0.6-1.5,0.9l-10.7-18.5   c-1.3-2.1-4.6-7.9,1.8-11.7c5.8-3.4,9,2,10.7,5.1l9.9,17.3l11.4-6.7l-10.3-17.7c-4.9-8.5-6.9-10.7-12.7-12.5c-5-1.4-9.7,0.5-12.4,2   c-5.8,3.4-8,8.7-8.2,13.9c-6.3-3.9-11.7-2.5-15-0.5c-7.2,4.1-7.5,9.5-7.5,11.4l-0.1,0.1l-2.3-4.1l-10.7,6.2l22.2,38.4l11.4-6.6   l-11.8-20.4c-1.3-2.2-4.9-8.5,1.6-12.2c5.7-3.3,9.1,2.7,10.4,4.8l13.6,23.3c-1.8,5.7-1.3,12.5,2.7,19.4c7.1,12.4,20.5,15,31,9   c6.1-3.5,7.5-8.6,7.4-11.5l0.1-0.1l0.7,1.2c5.9,10.3-1.9,15-3.3,15.9c-0.8,0.5-5,2.9-8.9,0.1l-13.3,7.7c3.8,5,13.5,10.1,26.9,2.4   c9.4-5.5,14-13.8,14.2-20.3c0-4.3-1.8-8.3-5-14L-90.6,412z M-94.8,452.9c-4.8,2.8-11.3,1.5-14.9-4.5c-3.3-5.6-1.2-12.1,3.7-14.9   c5.1-2.9,11.4-1.6,15,4.4C-87.7,443.5-89.2,449.8-94.8,452.9z M-79.4,367c-0.2,0.7-1.5,5.3-2.6,9.7c-0.8,3.5-2,13.6-2.2,14.5   c-0.2,0.9-0.1,0.4-0.3,0.8l-4.6-7.9c-3.4-5.8-0.2-9.1,5-12.2l-6.9-11.9c-6.6,3.8-6.5,8.5-6.5,11l-0.1,0.1l-2.3-4.1l-10.7,6.2   l20.3,35.2l11.4-6.6l-5.6-9.7l0.2,0.3c0.1-0.5,0.3-1.2,0.5-1.8c0,0,3.5-9.7,4.6-13.2c1.4-4.5,2-8.6,2.5-9.6   c0.3-0.6,1.8-1.1,2.7-1.8c0.3-0.3,0.2-0.8-0.1-1.2c-0.4-0.4-0.7-0.9-1-1.2c-0.1-0.2-0.2-0.4-0.2-0.6c0.1-1.7,0.2-3.1,0.3-4.5   c0.1-1.7,0.4-2.7,1.3-5.3c0-0.1,0.1-0.1,0.1-0.1c1.1,0,2.1-0.3,3.1,0.4c0,0,0.1,0.1,0,0.2l-0.4,1.1c-0.2,0.5,0.3,1,0.8,0.8   c0.2-0.1,0.4-0.2,0.5-0.4c0.3-0.4,0.4-0.9,0.5-1.3c0.2-1-0.2-1.8-0.6-2.6c-0.1-0.1-0.1-0.3,0-0.4c0.5-1,0.9-1.9,1.4-2.8   c0.1-0.1,0.2-0.3,0.3-0.4c0.5-0.5,1-1.1,1.4-1.7c1.4-2.3,2.7-4.7,3.9-7.1c1.3-2.3,2.7-4.6,3.5-7.2c0.1-0.5,0.4-0.9,0.7-1.3   c0.7,0.3,0.6,0.8,0.7,1.3c0.1,2.2,0.3,4.3,0.5,6.5c0.1,1,0.3,2.1,0.4,3.4c0,0.2,0,0.5-0.1,0.7c-0.6,1.4-0.5,3.2-0.5,4.9   c0,0.2,0,0.4,0,0.7c0.1,1.2-0.2,2.3-0.4,3.4c-0.3,1.5-0.6,3-0.7,4.4c-0.1,3.5,0,7-0.1,10.5c-0.1,1.8,0.7,3,2,4.1   c2.1,1.7,4,3.5,6.1,5.3c-0.1,0.6-0.1,1.2-0.3,1.7c-1.3,3.3-1.4,6.6-0.7,10.1c-4.1,1.5-7.5,4.1-10.4,7.8c-1.8,2.6-3,5.5-3.7,8.5   l-3.7-6.5c-5.6,3.3-6.4,7.1-6.5,9.7l-0.4-0.6l-1.5-2.6l-11.4,6.6l1.5,2.6l20.6,35.8l11.4-6.6L-68,421.1c-2.6-4.4-1.4-7.3,1.6-9.9   c0.4,3.4,1.4,6.8,3.2,9.9c6.5,11.4,21.1,14.9,32.1,8.5c4-2.2,7.1-5.6,8.9-9.8c1.8-3.7,2.6-8.2,2.2-13.1c7.3,5.5,17.5,6.2,25.8,1.5   c4-2.2,7.1-5.6,8.9-9.8c1.8-3.7,2.6-8.2,2.2-13.1l6.3,11l11.4-6.6l-12.1-20.9c-1.4-2.3-4.6-8,1.9-11.9c6.1-3.5,9,1.8,10.6,4.4   l12.1,21l11.4-6.6l-12.6-23.3c-4.3-7.6-8.5-9.2-11.7-9.8c-3.1-0.6-8,0.2-11.8,2.3c-6.8,4-7.2,8.9-7.4,11.4l-0.1,0.1l-2.3-4.1   l-10.7,6.2l6.2,10.7c-7.2-5.4-16.9-6.3-25.4-1.4c-8.5,4.9-12.2,14.1-11.2,22.9c-1.9-1.5-4-2.6-6.2-3.4c0-1.4,0-2.7,0-3.9   c0.1,0,0.2,0,0.3,0.1c0.3-0.8,0.6-1.6,0.8-2.5c0.2-0.9,0.6-1.8-0.3-2.5c-0.9-0.2-1.6-0.5-2.3-0.6c-0.8-0.1-1.6,0.1-2.4,0.2   c-1.7-1.7-3.3-3.5-4.7-5.5c0.3-2.1,0.7-4.1,1-6.1c0.3-2.5,0.5-5,1-7.5c0.1-0.5,0.3-1.2,0.3-1.7c0.3-2.6,0.6-5.2,0.9-7.8   c0-0.1,0-0.1,0.1-0.2c0.3-0.3,0.6-0.7,1-1.1c0.1-0.1,0.2-0.3,0.1-0.5c-0.2-1.5-0.4-3-0.6-4.3c0.4-0.5,0.6-0.8,0.7-0.9   c0.2-0.9,0.4-1.5,0.5-2.1c0.1,0.1,0.2,0.1,0.3,0.2c0.7-0.4,1.5-0.8,2.2-1.2c0.8-0.5,1.6-1.1,2.4-1.7c1.8-1.5,3.7-2.9,5.5-4.4   c0.3-0.3,0.7-0.8,0.7-1.2c0-1,0-2-0.7-2.8c-1.6-1.9-3-4-5.2-5.4c-0.5-0.3-0.8-0.8-1.2-1.2c-0.5-0.5-0.8-1.1-1.3-1.7   c-0.7-0.8-1.5-1.6-1.6-2.7c0-0.4-0.3-0.7-0.6-0.9c-0.8-0.4-1.4-0.5-2.5-0.6c-1.5-0.2-2.5-0.9-3.4-2c0.3-0.8,0.3-1.1,0.6-1.9   c0.6-0.1,1.1-0.3,1.7-0.4c1.6-0.4,2.2-1.6,1.6-3.1c-0.3-0.6-0.7-1.1-1-1.7c-0.1-4-2.7-5.9-5.9-6c-0.6,0-0.9,0-1.3,0.1   c-1.3,0.2-2,1.2-2.6,2.2c-1,0.2-2.1,0-2.8,0.9c-0.2,0.2-0.2,0.6,0,0.8l1.3,1.8c-0.2,1.8,0,3.5,0.8,5c-1.2,1.8-2.5,3.1-4.5,3.7   c-1.4,0.4-2.8,1-4.3,1.6c-0.2,0.1-0.3,0.2-0.4,0.4c-0.4,1-0.9,2-1.2,3.1c-0.3,1-0.5,2-0.8,3.1c-0.4,1.3-0.3,2.6-1,3.8   c-0.9,1.7-1.4,3.6-2.4,5.3c-1.6,2.9-2.5,6.1-3.7,9.1c-0.5,1.1-1,2.3-1.3,3.5c-0.2,0.9-0.6,1.5-1.3,1.9c-1.6,0.7-2.3,2-3,3.4   c-0.5,1-0.8,2-0.2,3c0.1,0.1,0.1,0.3,0.1,0.4c-0.2,0.6-0.3,1.1-0.4,1.7c-0.2,0.6-0.4,1.1-0.6,1.8c-0.3,1-0.6,1.8-0.9,2.8   c-0.4,1-1,1.9-1.9,2.4c-0.3,0.1-0.5,0.3-0.4,0.7C-79.8,364.4-79.1,366-79.4,367z M-40.7,330.7c0.6-0.8,0.9-1.8,1.3-2.7   c0.1-0.2,0.3-0.4,0.6-0.7c1.5,1.3,3.2,2.4,4.5,4.1c-1.5,2.2-3.3,3.6-5.8,4.4c-0.4-0.3-0.8-0.5-1.2-0.8   C-41.4,333.4-41.6,332-40.7,330.7z M-50.9,365.4c-0.3-1.6,0.4-3.1,1-4.6c0,1.8,0,3.7,0,5.7C-50.3,366.1-50.6,365.8-50.9,365.4z    M-45.5,382.2c0.4,0.3,0.8,0.6,1.3,1c0.8-0.4,1.6-0.8,2.4-1.2c0.7,1.4,1.5,2.7,2.2,4.1c-1.5-0.2-3-0.3-4.6-0.2   c-0.9,0.1-1.7,0.2-2.6,0.3C-46.3,384.9-45.9,383.6-45.5,382.2z M-48.3,398.7c6-3.4,10.7-0.5,12.5,1.5l-17.4,10   C-54,407.8-54.1,402.1-48.3,398.7z M-31,412.7c-0.5,2.9-1.4,5.6-4.9,7.7c-4.4,2.6-9.9,2.1-13.2-2.1l25.9-14.9   c0.9,1.2,2,2.1,3.2,3.2L-31,412.7z M-11.6,377.6c6-3.4,10.7-0.5,12.5,1.5l-17.4,10C-17.3,386.6-17.5,381-11.6,377.6z M6,391.5   c-0.5,2.9-1.4,5.6-4.9,7.7c-4.4,2.6-9.9,2.1-13.2-2.1l27.2-15.7l2.1,3.6L6,391.5z M36.8,336.3l-0.7-1.2l3.7-2.2l0.7,1.3l-1.1,0.6   l2.3,4.1l-1.5,0.9l-2.3-4.1L36.8,336.3z M45.1,337l-2.2-3.5l0,0l3.1,2.9l1.1-0.6l-1.1-4.2l0,0l2.1,3.6l1.5-0.8l-3.1-5.4l-2,1.1   l0.9,4v0.1l-3-2.8l-1.9,1l3,5.5L45.1,337z"></path></g><g id="Layer_2"></g></svg>