<svg xmlns="http://www.w3.org/2000/svg" style="background-color:#142228;" viewBox="0 -10 112.387 120"><g fill="#E0B437"><path d="M0 72.16a.3.3 0 0 1 .33-.294h.4l7.01 7.451v-6.974a.329.329 0 0 1 .33-.33h1.546a.329.329 0 0 1 .33.33v11.378a.3.3 0 0 1-.33.294h-.4L2.2 76.266v7.267a.329.329 0 0 1-.33.33H.33a.329.329 0 0 1-.33-.33zm18.682-.294a6.074 6.074 0 1 1 0 12.149 6.074 6.074 0 0 1 0-12.149zm0 9.947a3.872 3.872 0 1 0-3.854-3.854 3.885 3.885 0 0 0 3.854 3.854zm10.607 1.578l5.249-11.378a.291.291 0 0 1 .294-.184h.184c.184 0 .22.073.294.184l5.212 11.378a.3.3 0 0 1-.294.44h-1.469a.474.474 0 0 1-.477-.33l-.844-1.835h-5.066l-.844 1.835a.486.486 0 0 1-.477.33h-1.468a.3.3 0 0 1-.294-.44zm7.3-3.6l-1.688-3.707h-.037l-1.652 3.707zm11.016-7.925a5.713 5.713 0 0 1 4.074 1.578.313.313 0 0 1 0 .477l-1.028 1.064a.275.275 0 0 1-.44 0 3.968 3.968 0 0 0-2.606-.991 3.911 3.911 0 0 0 0 7.818 4.082 4.082 0 0 0 2.569-.954.334.334 0 0 1 .44 0l1.064 1.064a.3.3 0 0 1 0 .44 5.863 5.863 0 0 1-4.111 1.652 6.047 6.047 0 0 1-6.092-6.055 6.109 6.109 0 0 1 6.13-6.093zm11.892 0a5.713 5.713 0 0 1 4.074 1.578.313.313 0 0 1 0 .477l-1.028 1.064a.275.275 0 0 1-.44 0 3.968 3.968 0 0 0-2.606-.991 3.911 3.911 0 0 0 0 7.818 4.082 4.082 0 0 0 2.569-.954.334.334 0 0 1 .44 0l1.064 1.064a.3.3 0 0 1 0 .44 5.863 5.863 0 0 1-4.111 1.652 6.047 6.047 0 0 1-6.093-6.056 6.109 6.109 0 0 1 6.131-6.092zm11.928 0a6.074 6.074 0 1 1 0 12.149 6.074 6.074 0 0 1 0-12.149zm0 9.947a3.872 3.872 0 1 0-3.854-3.854 3.885 3.885 0 0 0 3.854 3.854zm8.699-9.47a.329.329 0 0 1 .33-.33h1.615a.329.329 0 0 1 .33.33v6.9a2.461 2.461 0 1 0 4.918.037v-6.937a.329.329 0 0 1 .33-.33h1.615a.329.329 0 0 1 .33.33v7.01a4.7 4.7 0 0 1-9.4 0v-7.01zM92.2 72.16a.3.3 0 0 1 .33-.294h.44l7.01 7.451v-6.974a.329.329 0 0 1 .33-.33h1.542a.329.329 0 0 1 .33.33v11.378a.3.3 0 0 1-.33.294h-.4L94.4 76.266v7.267a.329.329 0 0 1-.33.33h-1.54a.329.329 0 0 1-.33-.33zm15.049 1.871h-2.57a.329.329 0 0 1-.33-.33v-1.395a.329.329 0 0 1 .33-.33h7.377a.329.329 0 0 1 .33.33v1.395a.329.329 0 0 1-.33.33h-2.569v9.47a.329.329 0 0 1-.33.33h-1.578a.329.329 0 0 1-.33-.33zM30.134 88.676a5.713 5.713 0 0 1 4.074 1.578.314.314 0 0 1 0 .477l-1.028 1.064a.275.275 0 0 1-.44 0 3.968 3.968 0 0 0-2.606-.991 3.911 3.911 0 0 0 0 7.818 4.082 4.082 0 0 0 2.569-.954.334.334 0 0 1 .44 0l1.064 1.064a.3.3 0 0 1 0 .44 5.863 5.863 0 0 1-4.111 1.652 6.047 6.047 0 0 1-6.093-6.056 6.109 6.109 0 0 1 6.131-6.092zm5.541 11.525l5.249-11.378a.291.291 0 0 1 .294-.184h.184c.184 0 .22.073.294.184l5.212 11.378a.3.3 0 0 1-.294.44h-1.468a.474.474 0 0 1-.477-.33l-.844-1.835H38.76l-.844 1.835a.486.486 0 0 1-.477.33h-1.47a.31.31 0 0 1-.294-.44zm7.3-3.6l-1.688-3.707h-.037l-1.652 3.707zm5.547 2.389l.624-1.064a.426.426 0 0 1 .587-.11 5.746 5.746 0 0 0 2.533 1.064 1.42 1.42 0 0 0 1.542-1.285c0-.844-.734-1.468-2.129-2.019-1.578-.624-3.157-1.652-3.157-3.634 0-1.5 1.1-3.23 3.817-3.23a5.874 5.874 0 0 1 3.377 1.138.411.411 0 0 1 .11.551l-.624.954a.465.465 0 0 1-.587.22 5.892 5.892 0 0 0-2.349-.918 1.32 1.32 0 0 0-1.468 1.174c0 .807.624 1.321 1.982 1.909 1.652.661 3.524 1.652 3.524 3.817 0 1.725-1.5 3.34-3.891 3.34a5.333 5.333 0 0 1-3.707-1.321c-.255-.219-.331-.329-.184-.586zM58.8 89.153a.329.329 0 0 1 .33-.33h1.578a.329.329 0 0 1 .33.33v11.195a.329.329 0 0 1-.33.33h-1.615a.329.329 0 0 1-.33-.33V89.153zm4.844-.183a.3.3 0 0 1 .33-.294h.44l7.01 7.451v-6.974a.329.329 0 0 1 .33-.33h1.542a.329.329 0 0 1 .33.33v11.378a.3.3 0 0 1-.33.294h-.4l-7.052-7.749v7.267a.329.329 0 0 1-.33.33h-1.54a.329.329 0 0 1-.33-.33zm18.682-.294a6.074 6.074 0 1 1 0 12.149 6.074 6.074 0 0 1 0-12.149zm0 9.947a3.872 3.872 0 1 0-3.856-3.854 3.885 3.885 0 0 0 3.856 3.854zM28.629 62.029l6.9-17.214 10.35-10.35 3.413 10.35V27.564l3.45-3.45H42.429v-6.9l13.764-6.864h3.45L49.293 0l17.251 6.9v3.45l-3.45 3.45h6.9l-3.45 3.413 6.9 10.35 10.314 34.465h-3.413l-10.35-13.764v-6.9l-3.45 6.9h-6.9v13.765h-3.45l-3.45-10.35-13.766 3.45-6.9 6.9z"></path><path d="M49.294 55.129v6.9H45.88l-3.45-6.9zM32.079 44.815v-3.45h3.45zM52.744 10.35l-6.864-.037-3.45-6.863z"></path></g></svg>