<svg xmlns="http://www.w3.org/2000/svg" viewBox="0 0 842.3 519.9"><path d="M17.7 431.9h8.5l35.1 41v-41h12.1v63H65l-35.1-41v41H17.7v-63zm100.8-.9c19.4 0 32.8 14.5 32.8 32.4s-13.4 32.4-32.8 32.4-32.8-14.5-32.8-32.4S99.1 431 118.5 431zm0 54c11.9 0 20.7-9.7 20.7-21.6 0-11.9-8.8-21.6-20.7-21.6-11.9 0-20.7 9.7-20.7 21.6 0 11.8 8.9 21.6 20.7 21.6zm62.6 9.9l27-63h8.5l27 63H231l-5.9-13.9h-25.3l-5.9 13.9h-12.8zm23.2-24.8h16l-8-18.6-8 18.6zm54.2-6.7c0 12.2 9.4 21.6 21.5 21.6 8.2 0 14.1-4 17.8-8.7l8.4 7.5c-5.6 7.1-14.9 12.1-26.5 12.1-19.6 0-33.4-14.3-33.4-32.4 0-18.1 13.6-32.4 33.2-32.4 9.4 0 17.4 3.5 23 9l-7.8 8.3c-3.8-3.8-9.1-6.5-15.3-6.5-11.9-.1-20.9 9.5-20.9 21.5zm66.1 0c0 12.2 9.4 21.6 21.5 21.6 8.2 0 14.1-4 17.8-8.7l8.4 7.5c-5.6 7.1-14.9 12.1-26.5 12.1-19.6 0-33.4-14.3-33.4-32.4 0-18.1 13.6-32.4 33.2-32.4 9.4 0 17.4 3.5 23 9l-7.8 8.3c-3.8-3.8-9.1-6.5-15.3-6.5-11.9-.1-20.9 9.5-20.9 21.5zm86.9-32.4c19.4 0 32.8 14.5 32.8 32.4s-13.4 32.4-32.8 32.4-32.8-14.5-32.8-32.4 13.4-32.4 32.8-32.4zm0 54c11.9 0 20.7-9.7 20.7-21.6 0-11.9-8.8-21.6-20.7-21.6-11.9 0-20.7 9.7-20.7 21.6 0 11.8 8.8 21.6 20.7 21.6zm53.1 4.3c-5.2-4.7-8.1-11.3-8.1-21v-36.4h12.1v37.3c0 5.8 1.5 9.3 4.1 11.7 2.7 2.6 6.5 4 10.7 4 4.2 0 8-1.4 10.7-4 2.6-2.4 4.1-5.9 4.1-11.7v-37.3h12.1v36.4c0 9.6-2.9 16.3-8.1 21-4.9 4.3-11.8 6.5-18.9 6.5-6.9 0-13.8-2.2-18.7-6.5zm62.1-57.4h8.5l35.1 41v-41h12.1v63h-8.5l-35.1-41v41h-12.1v-63zm112.9 0v10.8H623v52.2h-12.1v-52.2h-16.6v-10.8h45.3zm57.9 0c7.1 0 11.1 1.7 14.1 4.4 3.5 3.1 5.8 7.6 5.8 12.7 0 4.1-2 8.4-4 10.5 5.6 2.8 9.5 9.1 9.5 16.1 0 5.3-2.2 10.2-5.8 13.6-3.5 3.5-8.4 5.7-16.5 5.7H676v-63h21.5zm-9.3 24.3h8.5c3.8 0 5.5-.9 6.8-2.2 1.1-1.2 1.8-2.8 1.8-4.5s-.7-3.3-1.8-4.5c-1.3-1.3-3-2.2-6.8-2.2h-8.5v13.4zm12.2 27.9c4.2 0 6.6-1.1 8.1-2.8 1.4-1.5 2.2-3.5 2.2-5.8 0-2.2-.8-4.2-2.2-5.8-1.5-1.7-3.9-2.8-8.1-2.8h-12.1V484h12.1zm46.3-41.4v13H766v10.8h-19.3V484h26.5v10.8h-38.7v-63h37.8v10.8h-25.6zm81.5-10.8v10.8h-16.6v52.2h-12.1v-52.2h-16.6v-10.8h45.3z" fill="#E1B538"></path><linearGradient id="a" x1="390.727" x2="612.373" y1="307.42" y2="126.073" gradientUnits="userSpaceOnUse"><stop offset="0" stop-color="#fff" stop-opacity=".05"></stop><stop offset=".117" stop-color="#fff" stop-opacity=".117"></stop><stop offset=".243" stop-color="#fff" stop-opacity=".243"></stop><stop offset=".371" stop-color="#fff" stop-opacity=".371"></stop><stop offset=".498" stop-color="#fff" stop-opacity=".498"></stop><stop offset=".625" stop-color="#fff" stop-opacity=".625"></stop><stop offset=".751" stop-color="#fff" stop-opacity=".751"></stop><stop offset=".876" stop-color="#fff" stop-opacity=".876"></stop><stop offset="1" stop-color="#fff"></stop></linearGradient><path fill="url(#a)" d="M507 163.8L338.2 287.9c2.8-2.5 6.7-6.1 11.6-10.7 4.9-4.6 10.3-10 16-16.1 5.8-6.1 11.7-12.7 17.9-19.9 6.2-7.2 12-14.5 17.4-22.1 5.4-7.6 10.2-15.2 14.4-23 4.2-7.7 7.2-15.2 8.8-22.3l30.1-121.4H569c5.8 0 11.8.2 18 .5 6.2.4 12.6 1 19 1.9 6.4.9 12.6 2.2 18.6 3.8 6 1.6 11.7 3.6 17.1 6L537 141.7c1.5-1.4 4-3.7 7.3-7 3.3-3.2 6.3-6.5 9-9.7 2.7-3.2 4.4-6.1 5.2-8.6.8-2.5-.5-3.8-3.9-3.8h-35L507 163.8zm173.1 38.1L465.7 359.3h-87l26.1-105.6 102.4-75.2h33.1c6.2 0 12.1-.5 17.7-1.4 5.6-.9 10.7-2.6 15.4-5 4.6-2.4 8.6-5.7 12-9.8 3.4-4.1 5.8-9.6 7.4-16.3 2.9-11.9 1.6-20.4-4-25.5-.6-.6-1-.9-1.3-1.1L708 30.9c-8.3 8.3-15.5 16.2-21.7 23.6-3.7 4.4-6.5 8-8.5 10.9-2 2.9-3.8 5.8-5.2 8.6-1.4 2.9-2.4 5.6-2.9 8.1-.6 2.5-.4 4.6.4 6.3.3.3.5.6.5.8.1.3.2.5.3.6 7.2 13.2 8.4 29.4 3.6 48.5-3.8 15.2-10.4 28.2-19.9 39.2-9.5 11-21.5 19.2-36.1 24.9 7.7 2.8 14.1 6.5 19.2 11.2 1.1.6 2.6 1.1 4.3 1.6 1.8.5 3.8.7 6.2.7 2.4 0 5-.3 7.9-1.1 2.9-.7 6-2 9.4-3.8 2.9-1.7 5.8-3.4 8.5-5.2 2.7-1.7 4.7-3 6.1-3.9zM485.7 359.3l204.8-150.4c-.8 1.1-2.6 3.1-5.2 6s-5.5 6.1-8.6 9.8c-3.2 3.7-6.3 7.3-9.4 11.1-3.1 3.7-5.6 6.9-7.4 9.6-1.4 2.4-2.8 5-4.1 7.9-1.3 2.9-2.6 5.7-3.7 8.3-1.1 2.9-2.2 5.9-3.4 8.8h-.2c-4.1 15.2-10 28.1-17.8 38.9-7.8 10.7-17 19.6-27.7 26.5-10.7 7-22.6 12.3-35.7 15.9-13.1 3.7-27.1 6-41.8 7-4.1.4-8.4 1.2-13.1 2.4-4.6 1.2-9.3 2.6-14.1 4.3-4.8 1.7-9.5 3.5-14.1 5.5s-9.1 3.9-13.3 5.9c-10 4.8-19.9 10-29.9 15.6l45.3-33.1h-.6zm56.4-129.1h-51.6l-17.1 68.7h47.2c5.8 0 11.3-.6 16.5-1.8 5.3-1.2 10.1-3.1 14.4-5.7 4.4-2.6 8.1-6 11.3-10.1 3.2-4.1 5.5-9.2 7.1-15.3 2.9-12.1 2.1-21.1-2.5-27-4.3-5.6-12.8-8.5-25.3-8.8z"></path><g fill="#E1B538"><path d="M213.9 357.6l38-95.1 57.1-57.1 19.1 57.1v-95.2l19-19H290v-38.1l76.1-38.1h19.1L328.1 15l95.2 38.1-.1 19-19 19.1h38.1l-19 19 38 57.1 57.1 190.3h-19l-57.1-76.1v-38.1l-19 38.1h-38.1v76.1h-19.1l-19-57.1-76.1 19.1-38.1 38z"></path><path d="M328.1 319.6v38H309l-19-38zm-95.2-57.1v-19.1h19zM347.1 72.1L309 72l-19-38z"></path></g></svg>