<svg xmlns="http://www.w3.org/2000/svg" viewBox="-5 0 137.3 48"><title>Paf</title><path fill="#fff" d="M38.5 4.3c-14.6-7.6-31-4.9-36.6 6-5.6 10.8 1.4 25.5 15.6 33.1.2.1.3.2.5.3 3.8 2 7.6 3.2 11.4 3.8 10.9 1.8 21-1.8 25.2-9.9 5.7-10.8-1.5-25.7-16.1-33.3z"></path><path fill="#ef3f49" d="M38.5 4.3c-14.6-7.6-31-4.9-36.6 6-5.6 10.8 1.4 25.5 15.6 33.1-3.6-7.2-8.1-16.1-10-20-1.6-3.2-2.1-6.4-1.7-9.3.2-1.7.7-2.7.7-2.7C8.1 7.1 12 3.8 17.7 2.7 28.1.7 40.3 6.8 45 16.3c4.8 9.5.2 18.7-10.2 20.7-3.1.6-6.4.4-9.7-.3-1.4-.3-.5 1.3-.5 1.3l4.8 9.5c10.9 1.8 21-1.8 25.2-9.9 5.7-10.8-1.5-25.7-16.1-33.3z"></path><path fill="#25ac61" d="M32.6 29c-2 .6-3.9.7-5.9.4-4.4-.6-8.3-3.5-10.2-7-2.4-4.4-1.9-9.9 3.5-12 5.6-2.1 11.8 1.1 14.6 5.7.8 1.2 1.3 2.5 1.6 3.7-.1-1.8-.7-3.6-1.7-5.3-1.7-2.5-4.5-4.7-7.7-5.7 4.1.6 7.9 3.3 10 6.6 3.1 5 2.5 11.5-4.2 13.6zm88.8-19.4v1.8h5.8v4.7h-5.8v18.6h-4.9V16.2h-3.2v-4.7h3.2V9.7c0-2.6.8-4.7 2.4-6.3 1.5-1.5 3.6-2.3 6-2.3h2.4v4.7h-1.9c-2.7.1-4 1.3-4 3.8zM112.3 22v12.8h-4.9v-2.2c0 .1-.1.3-.3.4-1.1.9-3.1 2.2-6.7 2.2-5.6 0-11.7-3.8-11.7-12.3 0-3.2 1.1-6.1 3.2-8.3 2.2-2.3 5.2-3.5 8.6-3.5 7.2 0 11.8 4.3 11.8 10.9zm-4.9-.3c0-3.7-2.5-6-6.8-6-4.7 0-6.8 3.7-6.8 7.4 0 4.3 2.7 7.3 6.7 7.3 2.4 0 4.3-.8 5.2-1.5 1.3-1 1.7-1.9 1.7-3.6v-3.6zm-23.2-7.1c2.1 2.2 3.2 5.1 3.2 8.3 0 8.4-6 12.3-11.7 12.3-3.6 0-5.6-1.3-6.7-2.2-.2-.1-.2-.3-.3-.4v12.1h-4.9V22c0-6.7 4.6-11 11.7-11 3.4.1 6.5 1.3 8.7 3.6zm-1.9 8.5c0-3.7-2.1-7.4-6.8-7.4-4.3 0-6.8 2.2-6.8 6v3.6c0 1.7.4 2.6 1.7 3.6.9.7 2.8 1.5 5.2 1.5 4 .1 6.7-2.9 6.7-7.3z"></path></svg>