<svg xmlns="http://www.w3.org/2000/svg" viewBox="0 0 6295 2470" style="background-color:#5915c5;">
  <path fill="#FFF" fill-rule="evenodd" d="M5627 73h460v460c0 44.18278-35.81722 80-80 80h-280c16.66667-46 46.66667-76 90-90-118.22266 0-208.22266 90-270 270V153c0-44.18278 35.81722-80 80-80zm100 180v180h180V253h-180zM830.919344 972.541483c63.523831 67.734167 95.28527 152.939887 95.28527 255.619707s-31.761439 188.53267-95.28527 257.56113c-63.52383 69.02845-137.849918 103.54216-222.980493 103.54216-85.130576 0-153.62293-34.08229-205.479118-102.24789v256.69828L208 1830V882.589231h194.459733v77.656621c59.634616-59.53704 130.071548-89.305114 211.31291-89.305114 81.241361 0 153.622871 33.866577 217.146701 101.600745zM447.185471 1369.88452c31.545848 35.80851 69.789213 53.7125 114.731243 53.7125s84.265716-17.90399 117.972238-53.7125c33.706522-35.80851 50.55953-81.75488 50.55953-137.8405 0-56.08561-16.42088-103.11054-49.263132-141.07619s-72.165938-56.94819-117.972238-56.94819c-45.806299 0-84.481793 18.76683-116.027641 56.30105-31.545847 37.53422-47.318535 84.55915-47.318535 141.07619 0 56.51705 15.772688 102.67913 47.318535 138.48764zm775.462179 209.02574h-194.45973V882.589231h194.45973v696.321029zM1028.18792 556h194.45973v194.141551h-194.45973V556zm505.16319 326.589231l119.26864 186.375889 123.15783-186.375889h228.16609L1764.11 1222.98408l248.90845 355.92618h-232.05528l-136.12181-191.553-132.23262 191.553h-224.27689l243.72286-354.6319-230.75888-341.689129h232.05528zM2682.8242 1477.95665c-78.64855 74.20559-170.90797 111.30783-276.78102 111.30783s-193.37905-32.57232-262.52064-97.71792c-69.14158-65.1456-103.71186-152.50842-103.71186-262.09109 0-109.58267 35.21847-196.72978 105.65646-261.443956 70.43799-64.714174 153.62271-97.070776 249.55666-97.070776 95.93394 0 177.39015 28.905231 244.37106 86.71656 66.98091 57.811332 100.47086 137.192862 100.47086 238.146972v103.54216h-508.1881c6.04989 37.96565 25.9278 69.02798 59.63432 93.18794 33.70652 24.15996 71.73382 36.23976 114.08304 36.23976 68.27732 0 124.45401-22.86533 168.53177-68.59668l108.89745 117.7792zm-186.68134-412.87436c-26.79237-22.43425-59.41806-33.6512-97.87807-33.6512-38.46 0-73.67847 11.64837-105.65645 34.94548-31.97799 23.2971-50.55951 54.79086-55.74513 94.48222h305.94998c-4.32135-41.41707-19.87797-73.34225-46.67033-95.7765zm534.98033 513.82797h-194.45973V704.841856l194.45973-86.285134v960.353538zm121.4293-103.54216c0-31.92566 11.01927-58.88949 33.05815-80.89231 22.03888-22.00282 49.04691-33.00407 81.02489-33.00407 31.97798 0 58.98601 11.00125 81.02489 33.00407s33.05816 48.96665 33.05816 80.89231c0 31.92566-11.01928 58.88949-33.05816 80.89231-22.03888 22.00282-49.04691 33.00407-81.02489 33.00407-31.97798 0-58.98601-11.00125-81.02489-33.00407s-33.05815-48.96665-33.05815-80.89231zm973.16293-505.415171c63.09169 66.008461 94.63707 150.782751 94.63707 254.325431 0 103.54268-32.40963 190.25837-97.22987 260.14968-64.82023 69.89131-138.49813 104.83644-221.03589 104.83644-82.53777 0-151.03012-34.08229-205.47912-102.24789v91.89367h-194.45973V704.841856l194.45973-86.285134v341.68913c53.58473-59.53704 122.72527-89.305114 207.42371-89.305114s158.5924 33.003734 221.6841 99.012191zm-384.38207 399.931591c31.54584 35.80851 69.78921 53.7125 114.73124 53.7125s84.26571-17.90399 117.97224-53.7125c33.70652-35.80851 50.55953-81.75488 50.55953-137.8405 0-56.08561-16.42088-103.11054-49.26313-141.07619-32.84226-37.96565-72.16594-56.94819-117.97224-56.94819-45.8063 0-84.4818 18.76683-116.02764 56.30105-31.54585 37.53422-47.31854 84.55915-47.31854 141.07619 0 56.51705 15.77269 102.67913 47.31854 138.48764zm1185.12404 108.07213c-78.64856 74.20559-170.90797 111.30783-276.78102 111.30783s-193.37906-32.57232-262.52064-97.71792c-69.14159-65.1456-103.71186-152.50842-103.71186-262.09109 0-109.58267 35.21846-196.72978 105.65645-261.443956 70.43799-64.714174 153.62271-97.070776 249.55666-97.070776 95.93395 0 177.39016 28.905231 244.37107 86.71656 66.9809 57.811332 100.47086 137.192862 100.47086 238.146972v103.54216h-508.1881c6.04988 37.96565 25.92779 69.02798 59.63431 93.18794 33.70653 24.15996 71.73383 36.23976 114.08305 36.23976 68.27731 0 124.45401-22.86533 168.53177-68.59668l108.89745 117.7792zm-186.68135-412.87436c-26.79236-22.43425-59.41806-33.6512-97.87806-33.6512-38.46001 0-73.67848 11.64837-105.65646 34.94548-31.97798 23.2971-50.5595 54.79086-55.74512 94.48222h305.94998c-4.32135-41.41707-19.87797-73.34225-46.67034-95.7765zm572.57588-42.71114v311.92076c0 26.74852 6.91406 47.67246 20.74237 62.77243 13.82832 15.09998 30.2492 22.64985 49.26314 22.64985 36.29933 0 66.98045-16.39401 92.04427-49.18253L5547 1506.43075c-60.49889 55.22276-124.23783 82.83373-191.21874 82.83373s-123.58973-22.00249-169.82816-66.00813c-46.23844-44.00564-69.35731-103.97321-69.35731-179.9045v-320.9807h-81.67309V882.589231h81.67309V674.210633h195.75613v208.378598h168.53177l-129.63982 139.781919h-38.89195z"/>
</svg>