<svg xmlns="http://www.w3.org/2000/svg" viewBox="0 0 200 119.894"><defs><style>.cls-1{fill:#e2e504}</style></defs><g data-name="Group 613"><path d="M95.649 119.329l-1.554.141-.212-1.413-2.543.212-.353 1.484-1.554.141 2.543-10.244 1.836-.141zm-2.049-2.685l-.777-4.592-1.2 4.8z" class="cls-1" data-name="Path 236"></path><path d="M100.877 118.905l-4.38.353.353-10.032 1.484-.141-.283 8.619 2.9-.283z" class="cls-1" data-name="Path 237"></path><path d="M106.176 118.41l-4.38.353.353-10.032 1.484-.141-.283 8.619 2.9-.283z" class="cls-1" data-name="Path 238"></path><path d="M114.23 109.155l-2.9.283-.071 2.614 2.19-.212-.071 1.413-2.19.212-.141 4.592-1.484.141.353-10.032 4.38-.353z" class="cls-1" data-name="Path 239"></path><path d="M119.953 115.797a1.663 1.663 0 01-1.484 1.554l-2.19.212a1.279 1.279 0 01-1.413-1.342l.283-8.619 1.484-.141-.283 8.619 2.19-.212.283-8.619 1.484-.141z" class="cls-1" data-name="Path 240"></path><path d="M126.171 116.715l-1.272.141-2.12-6.359-.212 6.571-1.484.141.353-10.032 1.554-.141 1.837 5.723.212-5.935 1.485-.141z" class="cls-1" data-name="Path 241"></path><path d="M135.567 115.938l-1.554.141-.212-1.413-2.543.212-.353 1.484-1.554.141 2.543-10.244 1.837-.141zm-2.049-2.685l-.777-4.592-1.2 4.8z" class="cls-1" data-name="Path 242"></path><path d="M141.502 115.372l-1.272.141-2.12-6.359-.212 6.571-1.484.141.353-10.032 1.554-.141 1.837 5.723.212-5.935 1.484-.141z" class="cls-1" data-name="Path 243"></path><path d="M147.79 113.466a1.663 1.663 0 01-1.484 1.554l-3.6.283.353-10.032 3.6-.283a1.279 1.279 0 011.413 1.342zm-1.484.071l.283-7.206-2.19.212-.283 7.206z" class="cls-1" data-name="Path 244"></path><path d="M156.621 112.688a1.663 1.663 0 01-1.487 1.554l-2.19.212a1.279 1.279 0 01-1.41-1.342l.283-7.206a1.663 1.663 0 011.484-1.554l2.19-.212a1.279 1.279 0 011.413 1.342l-.071 1.413-1.484.141.071-1.413-2.19.212-.283 7.206 2.19-.212.071-2.473-1.06.071.071-1.413 2.543-.212z" class="cls-1" data-name="Path 245"></path><path d="M163.474 113.535l-1.554.141-.212-1.413-2.543.212-.353 1.484-1.554.141 2.543-10.244 1.837-.141zm-1.978-2.685l-.777-4.592-1.2 4.8z" class="cls-1" data-name="Path 246"></path><path d="M171.175 112.9l-1.484.141.212-6.359-1.908 6.5-.495.071-1.478-6.215-.212 6.359-1.484.141.353-10.032 1.837-.141 1.342 5.793 1.766-6.076 1.837-.141z" class="cls-1" data-name="Path 247"></path><path d="M176.615 112.405l-4.38.353.353-10.032 4.38-.353-.071 1.413-2.9.283-.062 2.614 2.19-.212-.071 1.413-2.19.212-.141 3.179 2.9-.283z" class="cls-1" data-name="Path 248"></path><path d="M182.197 107.46a1.715 1.715 0 01.636 1.484l-.071 1.484a1.663 1.663 0 01-1.484 1.554l-2.19.212a1.279 1.279 0 01-1.413-1.343l.071-1.413 1.484-.141-.071 1.413 2.19-.212.071-1.7-2.826-2.614a1.715 1.715 0 01-.636-1.484l.071-1.13a1.663 1.663 0 011.484-1.554l2.19-.212a1.279 1.279 0 011.413 1.342l-.071 1.413-1.484.141.071-1.413-2.19.212-.071 1.272z" class="cls-1" data-name="Path 249"></path></g><g data-name="Group 615"><path d="M36.738 44.369a10.153 10.153 0 01-9.185 9.538l-13.424 1.2-.777 22.467L0 78.705l2.19-61.678 26.71-2.261a7.726 7.726 0 018.619 8.054zm-13.212-3.25l.495-12.788-8.9.777-.421 12.788z" class="cls-1" data-name="Path 250"></path><path d="M68.317 50.303l6.147 22.043-13.918 1.2-5.09-21.971-2.473.212-.777 22.467-13.35 1.13 2.19-61.678 26.71-2.261a7.726 7.726 0 018.619 8.054l-.777 21.548a10.588 10.588 0 01-7.281 9.256zm-6.005-12.505l.424-12.788-8.9.777-.424 12.788z" class="cls-1" data-name="Path 251"></path><path d="M117.422 68.672l-13.918 1.2-.989-6.5-12.083 1.061-1.484 6.712-13.918 1.2L90.573 9.536l15.687-1.341zm-16.89-17.027l-2.68-20.912-4.734 21.548z" class="cls-1" data-name="Path 252"></path><path d="M154.132 65.422l-12.293 1.06-8.832-30.667-1.13 31.51-13.353 1.135 2.19-61.678 14.059-1.13 7.206 26.777.989-27.483 13.356-1.131z" class="cls-1" data-name="Path 253"></path><path d="M198.87 61.537l-14.625 1.272-7.7-19.429-3.886 7.206-.495 13.282L158.811 65l2.19-61.678 13.353-1.13-.918 24.94L186.153 1.2 200 0l-15.825 29.815z" class="cls-1" data-name="Path 254"></path><g data-name="Group 614"><path d="M97.836 100.818a5.2 5.2 0 01-4.592 4.8l-8.9.777a3.864 3.864 0 01-4.31-4.027l.777-22.114a5.2 5.2 0 014.592-4.8l8.9-.777a3.864 3.864 0 014.31 4.027l-.212 5.511-6.712.565.141-3.321-4.451.353-.636 17.663 4.451-.353.141-3.321 6.712-.565z" class="cls-1" data-name="Path 255"></path><path d="M120.236 103.291l-6.994.565-.495-3.25-6.076.495-.777 3.391-6.994.565 7.772-31.51 7.842-.706zm-8.479-8.55l-1.342-10.527-2.331 10.81z" class="cls-1" data-name="Path 256"></path><path d="M138.181 88.384a5.388 5.388 0 011.625 4.239l-.141 4.592a5.2 5.2 0 01-4.592 4.8l-8.9.777a3.864 3.864 0 01-4.31-4.027l.212-5.511 6.712-.565-.141 3.321 4.451-.353.071-2.4-9.043-8.337a5.388 5.388 0 01-1.625-4.239l.141-3.956a5.14 5.14 0 014.592-4.8l8.9-.777a3.864 3.864 0 014.31 4.027l-.212 5.511-6.712.565.141-3.321-4.451.353-.071 1.766z" class="cls-1" data-name="Path 257"></path><path d="M148.778 100.818l-6.712.565 1.13-30.945 6.712-.565z" class="cls-1" data-name="Path 258"></path><path d="M169.197 99.123l-6.147.495-4.451-15.4-.565 15.826-6.712.565 1.13-30.945 7.065-.636 3.6 13.424.495-13.777 6.712-.565z" class="cls-1" data-name="Path 259"></path><path d="M189.752 92.906a5.2 5.2 0 01-4.592 4.8l-8.9.777a3.864 3.864 0 01-4.31-4.027l.777-22.114a5.2 5.2 0 014.592-4.8l8.9-.777a3.864 3.864 0 014.31 4.027zm-6.571-1.625l.636-17.663-4.451.353-.636 17.663z" class="cls-1" data-name="Path 260"></path></g></g></svg>