<svg xmlns="http://www.w3.org/2000/svg" xmlns:xlink="http://www.w3.org/1999/xlink" viewBox="0 0 164.96 58.36"><defs><style>      .cls-1 {        fill: #483559;      }      .cls-2 {        fill: url(#linear-gradient);      }      .cls-3 {        fill: url(#linear-gradient-2);      }      .cls-4 {        fill: url(#linear-gradient-3);      }      .cls-5 {        fill: url(#linear-gradient-4);      }      .cls-6 {        fill: url(#linear-gradient-5);      }    </style><linearGradient id="linear-gradient" x1="14.49" y1="39.37" x2="24.39" y2="60.28" gradientUnits="userSpaceOnUse"><stop offset="0" stop-color="#d95151"></stop><stop offset="0.56" stop-color="#b73030"></stop><stop offset="0.69" stop-color="#ab2b2b"></stop><stop offset="0.81" stop-color="#9e2626"></stop><stop offset="0.85" stop-color="#a12727"></stop><stop offset="0.87" stop-color="#aa2b2b"></stop><stop offset="0.89" stop-color="#b73030"></stop><stop offset="0.93" stop-color="#cb5656"></stop><stop offset="0.98" stop-color="#de7878"></stop><stop offset="1" stop-color="#e58585"></stop></linearGradient><linearGradient id="linear-gradient-2" x1="-10.42" y1="11" x2="54.66" y2="46.61" gradientUnits="userSpaceOnUse"><stop offset="0" stop-color="#d95151"></stop><stop offset="0.42" stop-color="#b73030"></stop><stop offset="0.54" stop-color="#ab2b2b"></stop><stop offset="0.63" stop-color="#9e2626"></stop><stop offset="0.7" stop-color="#a12727"></stop><stop offset="0.75" stop-color="#aa2b2b"></stop><stop offset="0.79" stop-color="#b73030"></stop><stop offset="0.87" stop-color="#cb5656"></stop><stop offset="0.95" stop-color="#de7878"></stop><stop offset="1" stop-color="#e58585"></stop></linearGradient><linearGradient id="linear-gradient-3" x1="15.62" y1="3.42" x2="41.07" y2="21.4" xlink:href="#linear-gradient"></linearGradient><linearGradient id="linear-gradient-4" x1="31.89" y1="11.48" x2="4.85" y2="11.33" xlink:href="#linear-gradient"></linearGradient><linearGradient id="linear-gradient-5" x1="36.05" y1="50.29" x2="6.18" y2="45.1" xlink:href="#linear-gradient"></linearGradient></defs><title>logo 2</title><g id="Слой_2" data-name="Слой 2"><g id="Layer_1" data-name="Layer 1"><g id="_Группа_" data-name="<Группа>"><g id="_Группа_2" data-name="<Группа>"><path id="_Составной_контур_" data-name="<Составной контур>" class="cls-1" d="M138.45,47a1.23,1.23,0,0,1,1.25,1.24,1.18,1.18,0,0,1-.36.89,1.2,1.2,0,0,1-.89.36,1.23,1.23,0,0,1-.91-.36,1.18,1.18,0,0,1-.36-.89,1.21,1.21,0,0,1,.36-.88A1.23,1.23,0,0,1,138.45,47Z"></path><path id="_Составной_контур_2" data-name="<Составной контур>" class="cls-1" d="M143.6,42.53a3.21,3.21,0,0,1,2.91,1.63l-1.27,1a2.79,2.79,0,0,0-.68-.69,1.59,1.59,0,0,0-.95-.27,1.8,1.8,0,0,0-.71.14,1.68,1.68,0,0,0-.91.95,1.83,1.83,0,0,0-.13.71,1.88,1.88,0,0,0,.13.72,1.5,1.5,0,0,0,.36.58,1.55,1.55,0,0,0,.55.38,1.8,1.8,0,0,0,.71.14,1.59,1.59,0,0,0,.95-.27,2.68,2.68,0,0,0,.66-.68l1.28,1a3.2,3.2,0,0,1-2.9,1.65,3.7,3.7,0,0,1-1.42-.27,3.55,3.55,0,0,1-1.15-.74A3.31,3.31,0,0,1,140,46a3.4,3.4,0,0,1,.27-1.36,3.53,3.53,0,0,1,.77-1.09,3.67,3.67,0,0,1,2.57-1Z"></path><path id="_Составной_контур_3" data-name="<Составной контур>" class="cls-1" d="M150.26,42.53a3.67,3.67,0,0,1,2.55,1,3.53,3.53,0,0,1,.77,1.09,3.25,3.25,0,0,1,.29,1.36,3.3,3.3,0,0,1-.29,1.37,3.46,3.46,0,0,1-.77,1.1,3.84,3.84,0,0,1-4,.73,3.71,3.71,0,0,1-1.14-.73,3.17,3.17,0,0,1-.77-1.1,3.29,3.29,0,0,1-.28-1.37,3.33,3.33,0,0,1,1.05-2.45,3.54,3.54,0,0,1,1.14-.73A3.61,3.61,0,0,1,150.26,42.53Zm0,1.64a1.65,1.65,0,0,0-1.26.51,1.86,1.86,0,0,0-.48,1.31,1.77,1.77,0,0,0,.48,1.28,1.65,1.65,0,0,0,1.26.51,1.72,1.72,0,0,0,.68-.14,1.62,1.62,0,0,0,.55-.37A1.79,1.79,0,0,0,152,46a2,2,0,0,0-.13-.73,1.87,1.87,0,0,0-.37-.57,1.64,1.64,0,0,0-.55-.38A1.72,1.72,0,0,0,150.26,44.17Z"></path><path id="_Составной_контур_4" data-name="<Составной контур>" class="cls-1" d="M162.43,42.53a2.83,2.83,0,0,1,1.07.19,2.19,2.19,0,0,1,1.29,1.37,3.16,3.16,0,0,1,.17,1.09v4.11h-1.83V45.44a1.32,1.32,0,0,0-.32-.94,1.15,1.15,0,0,0-.87-.34,1.17,1.17,0,0,0-1.24,1.24v3.89h-1.83V45.44a1.32,1.32,0,0,0-.32-.94,1.18,1.18,0,0,0-.89-.34,1.15,1.15,0,0,0-.88.34,1.25,1.25,0,0,0-.34.94v3.85h-1.83V42.67h1.68v.59a2.44,2.44,0,0,1,.82-.54,2.81,2.81,0,0,1,1.08-.19,2.67,2.67,0,0,1,1.18.24,2.09,2.09,0,0,1,.8.7,3.08,3.08,0,0,1,1-.68A3,3,0,0,1,162.43,42.53Z"></path></g><g id="_Группа_3" data-name="<Группа>"><path id="_Составной_контур_5" data-name="<Составной контур>" class="cls-1" d="M161.35,19h-1.06v2.63h-.67V19h-1.05v-.6h2.78Z"></path><path id="_Составной_контур_6" data-name="<Составной контур>" class="cls-1" d="M165,21.64h-.66v-1.7l-.81,1h-.22l-.81-1v1.7h-.66V18.41H162l1.36,1.72,1.37-1.72H165Z"></path></g><g id="_Группа_4" data-name="<Группа>"><path id="_Составной_контур_7" data-name="<Составной контур>" class="cls-1" d="M60.74,18.41A7.79,7.79,0,0,1,65,19.51a7.49,7.49,0,0,1,2.66,2.77l-2.89,2.2A6.16,6.16,0,0,0,63,22.75a4,4,0,0,0-2.25-.62,3.31,3.31,0,0,0-1.82.48,1.66,1.66,0,0,0-.76,1.5,1.58,1.58,0,0,0,.63,1.36,10,10,0,0,0,1.8,1l2.36,1a12.4,12.4,0,0,1,3.79,2.43,4.82,4.82,0,0,1,1.33,3.55A5.84,5.84,0,0,1,67.54,36,5.7,5.7,0,0,1,66,38a6.91,6.91,0,0,1-2.3,1.21,9.42,9.42,0,0,1-2.86.42,9,9,0,0,1-8-4.52l2.93-2.17A9.58,9.58,0,0,0,56.65,34a7.31,7.31,0,0,0,1.12.95,5.11,5.11,0,0,0,1.37.66,5.28,5.28,0,0,0,1.7.25A3.41,3.41,0,0,0,63,35.29a2,2,0,0,0,.77-1.67,1.72,1.72,0,0,0-.69-1.49,11.15,11.15,0,0,0-2-1.05l-2.2-1a17.53,17.53,0,0,1-2-1.07,7.34,7.34,0,0,1-1.59-1.29,5.48,5.48,0,0,1-1-1.58,4.85,4.85,0,0,1-.38-1.95,5.23,5.23,0,0,1,.54-2.4A5.74,5.74,0,0,1,55.87,20,6.44,6.44,0,0,1,58,18.81,8.77,8.77,0,0,1,60.74,18.41Z"></path><path id="_Составной_контур_8" data-name="<Составной контур>" class="cls-1" d="M74.24,39.23H70V18.41h4.25Z"></path><path id="_Составной_контур_9" data-name="<Составной контур>" class="cls-1" d="M84.34,23.55a8.62,8.62,0,0,1,3.25.62,8.39,8.39,0,0,1,2.66,1.69A7.82,7.82,0,0,1,92,28.38a7.58,7.58,0,0,1,.66,3.16A7.67,7.67,0,0,1,92,34.72a7.79,7.79,0,0,1-1.79,2.54A8.39,8.39,0,0,1,87.59,39a8.85,8.85,0,0,1-6.51,0,8.5,8.5,0,0,1-2.66-1.69,7.85,7.85,0,0,1,0-11.4,8.51,8.51,0,0,1,5.92-2.31Zm0,3.81a3.81,3.81,0,0,0-2.91,1.19,4.25,4.25,0,0,0-1.12,3,4.1,4.1,0,0,0,1.12,3,3.83,3.83,0,0,0,2.91,1.17,4.16,4.16,0,0,0,1.58-.31,3.82,3.82,0,0,0,1.28-.87,4.11,4.11,0,0,0,.85-1.32,4.25,4.25,0,0,0,.31-1.65,4.44,4.44,0,0,0-.31-1.68,4.15,4.15,0,0,0-.85-1.33,4,4,0,0,0-2.86-1.21Z"></path><path id="_Составной_контур_10" data-name="<Составной контур>" class="cls-1" d="M104,27.42H99.53v6a2.17,2.17,0,0,0,.71,1.85,3.59,3.59,0,0,0,2.18.53l.88,0,1.14-.09v3.5c-.44.1-.9.19-1.39.26a10.62,10.62,0,0,1-1.54.11A6.88,6.88,0,0,1,97,38.2a5.36,5.36,0,0,1-1.67-4.36V27.42H92.83V23.89h2.45V18.41h4.25v5.48H104Z"></path><path id="_Составной_контур_11" data-name="<Составной контур>" class="cls-1" d="M112,23.52a7.27,7.27,0,0,1,5.6,2.32l-2.14,2.58a5.44,5.44,0,0,0-1.65-1.09A4.72,4.72,0,0,0,112,27a2.44,2.44,0,0,0-1.21.26.94.94,0,0,0-.07,1.57,7,7,0,0,0,1.24.62l1.52.62a10.56,10.56,0,0,1,3.24,1.86,3.61,3.61,0,0,1,1.13,2.81,4.57,4.57,0,0,1-.47,2.1,4.65,4.65,0,0,1-1.29,1.53,5.84,5.84,0,0,1-1.94.94,8.28,8.28,0,0,1-2.37.33,8.46,8.46,0,0,1-3.75-.81,7.25,7.25,0,0,1-2.7-2.17l2.14-2.54a8.32,8.32,0,0,0,2,1.52,5,5,0,0,0,2.33.56,2.92,2.92,0,0,0,1.4-.31,1,1,0,0,0,.58-1,.92.92,0,0,0-.44-.81,8.28,8.28,0,0,0-1.16-.58l-1.67-.69a14.35,14.35,0,0,1-1.79-.83,5.3,5.3,0,0,1-1.32-1,4.21,4.21,0,0,1-.84-1.26,4,4,0,0,1-.3-1.59,4.27,4.27,0,0,1,.43-2,4,4,0,0,1,1.19-1.44,5.69,5.69,0,0,1,1.83-.9A7.91,7.91,0,0,1,112,23.52Z"></path><path id="_Составной_контур_12" data-name="<Составной контур>" class="cls-1" d="M126.93,23.55a8.67,8.67,0,0,1,3.26.62,8.46,8.46,0,0,1,2.65,1.69,7.85,7.85,0,0,1,1.8,2.52,7.58,7.58,0,0,1,.66,3.16,7.67,7.67,0,0,1-.66,3.18,7.82,7.82,0,0,1-1.8,2.54A8.46,8.46,0,0,1,130.19,39a8.88,8.88,0,0,1-6.52,0A8.46,8.46,0,0,1,121,37.26a7.62,7.62,0,0,1-1.78-2.54,7.83,7.83,0,0,1-.65-3.18,7.73,7.73,0,0,1,.65-3.16A7.64,7.64,0,0,1,121,25.86a8.41,8.41,0,0,1,2.64-1.69A8.54,8.54,0,0,1,126.93,23.55Zm0,3.81A3.81,3.81,0,0,0,124,28.55a4.25,4.25,0,0,0-1.12,3,4.1,4.1,0,0,0,1.12,3,3.83,3.83,0,0,0,2.91,1.17,4.17,4.17,0,0,0,1.59-.31,3.78,3.78,0,0,0,1.27-.87,4.11,4.11,0,0,0,.85-1.32,4.26,4.26,0,0,0,.32-1.65,4.45,4.45,0,0,0-.32-1.68,4.15,4.15,0,0,0-.85-1.33,4,4,0,0,0-2.86-1.21Z"></path><path id="_Составной_контур_13" data-name="<Составной контур>" class="cls-1" d="M145.46,23.55a6.4,6.4,0,0,1,2.45.45,5.3,5.3,0,0,1,1.86,1.25,5.64,5.64,0,0,1,1.16,1.94,7.5,7.5,0,0,1,.41,2.53v9.51h-4.21v-9a3,3,0,0,0-.79-2.15,2.79,2.79,0,0,0-2.11-.82,2.89,2.89,0,0,0-2.14.82,3,3,0,0,0-.82,2.15v9H137V23.89h3.9v1.43A6,6,0,0,1,142.88,24,6.52,6.52,0,0,1,145.46,23.55Z"></path><path id="_Составной_контур_14" data-name="<Составной контур>" class="cls-1" d="M159.14,23.52a7.24,7.24,0,0,1,5.6,2.32l-2.14,2.58A5.32,5.32,0,0,0,161,27.33a4.72,4.72,0,0,0-1.84-.37,2.47,2.47,0,0,0-1.21.26.9.9,0,0,0-.46.82.87.87,0,0,0,.4.75,6.66,6.66,0,0,0,1.24.62l1.51.62a10.56,10.56,0,0,1,3.24,1.86A3.61,3.61,0,0,1,165,34.7a4.57,4.57,0,0,1-.47,2.1,4.42,4.42,0,0,1-1.29,1.53,5.89,5.89,0,0,1-1.93.94,8.93,8.93,0,0,1-6.12-.48,7.29,7.29,0,0,1-2.71-2.17l2.14-2.54a8.18,8.18,0,0,0,2,1.52,4.94,4.94,0,0,0,2.32.56,2.87,2.87,0,0,0,1.4-.31,1,1,0,0,0,.59-1,.92.92,0,0,0-.44-.81,9.09,9.09,0,0,0-1.17-.58l-1.67-.69a14.35,14.35,0,0,1-1.79-.83,5.69,5.69,0,0,1-1.32-1,4,4,0,0,1-.83-1.26,4,4,0,0,1-.3-1.59,4.39,4.39,0,0,1,.42-2,4,4,0,0,1,1.2-1.44,5.64,5.64,0,0,1,1.82-.9A7.91,7.91,0,0,1,159.14,23.52Z"></path></g></g><g><path class="cls-2" d="M26.79,45A27.66,27.66,0,0,1,9.39,38.6c-3.63-2.89-7.09,1.79-7.54,4.82C1.23,47.63,3.19,51,6.49,53.35a28,28,0,0,0,17.67,4.92c7.43-.71,13-7.55,8.5-15A10.54,10.54,0,0,1,26.79,45Z"></path><path class="cls-3" d="M40.93,30C31.5,20.64,4.72,23.25,8.17,4.08-1.93,8.78-2.57,23.66,5.72,30.3c10.76,8.61,31.69,4.64,31,23.58,5.29-2.44,8-8.31,8-14v-.15A13,13,0,0,0,40.93,30Z"></path><path class="cls-4" d="M38,5C31.89.52,22.06-1.81,15,1.71a7.58,7.58,0,0,0-4,4.54A10.82,10.82,0,0,0,11.82,15a10.51,10.51,0,0,1,5.86-1.72,27.66,27.66,0,0,1,17.4,6.43c3.64,2.89,7.1-1.79,7.55-4.82C43.24,10.68,41.28,7.36,38,5Z"></path><path class="cls-5" d="M33.81,18.84a6.37,6.37,0,0,0,1.8-3.36c.47-3.23-1-5.77-3.55-7.6-4.67-3.4-12.2-5.19-17.64-2.49a5.8,5.8,0,0,0-3,3.47,8.43,8.43,0,0,0-.09,5A9.78,9.78,0,0,0,11.82,15a10.51,10.51,0,0,1,5.86-1.72A27.32,27.32,0,0,1,33.81,18.84Z"></path><path class="cls-6" d="M32.66,43.31c-3.86,2.29-12.21,2.77-20.92-3-2.52,2.53-2.66,7.23,1.83,10.49a20.77,20.77,0,0,0,13.17,3.67C31,54.06,36.7,50.22,32.66,43.31Z"></path></g></g></g></svg>