<svg xmlns="http://www.w3.org/2000/svg" xmlns:xlink="http://www.w3.org/1999/xlink" viewBox="0 0 808 216" style=" background-color:#303030" ><defs><style>.cls-6{fill-rule:evenodd;fill:#fff}</style><linearGradient id="linear-gradient" x1="109.078" y1="213.031" x2="109.078" y2="2.625" gradientUnits="userSpaceOnUse"><stop offset="0" stop-color="#ff7124"/><stop offset=".25" stop-color="#ff7137"/><stop offset=".75" stop-color="#ff3a59"/><stop offset="1" stop-color="#ff2b53"/></linearGradient><linearGradient id="linear-gradient-2" x1="109.563" y1="197.75" x2="109.563" y2="17.938" xlink:href="#linear-gradient"/><linearGradient id="linear-gradient-3" x1="109.5" y1="215.656" x2="109.5" xlink:href="#linear-gradient"/><linearGradient id="linear-gradient-4" x1="764.36" y1="128.594" x2="764.36" y2="48.5" xlink:href="#linear-gradient"/></defs><g id="фишка"><path id="Rectangle_1_copy_15" data-name="Rectangle 1 copy 15" d="M104.938 2.625h9.124V20.75h-9.124V2.625zm0 192.313h9.124v18.093h-9.124v-18.093zM2.719 103.375h18.125v8.906H2.719v-8.906zm194.437 0h18.282v8.906h-18.282v-8.906zM52.116 18.8l7.9-4.493 9.127 15.564-7.9 4.493zm97.656 166.536l7.9-4.494 9.127 15.564-7.9 4.493zM14.7 156.283l15.809-8.983 4.563 7.782-15.808 8.986zm168.355-95.7l15.809-8.983 4.563 7.782-15.808 8.986zM14.649 58.735l4.563-7.782 15.808 8.986-4.563 7.782zm169.144 96.15l4.564-7.782 15.807 8.985-4.564 7.782zm-131.73 41.33l9.127-15.564 7.9 4.493-9.127 15.564zm97.2-165.757l9.126-15.563 7.9 4.493-9.126 15.564z" fill="url(#linear-gradient)" fill-rule="evenodd"/><ellipse cx="109.563" cy="107.844" rx="91.313" ry="89.906" fill="url(#linear-gradient-2)"/><path d="M138.785 146.47H119.8V95.847h14.427v32.012l22.023-32.012h18.983zm-32.8-19.646l-52.132-.014v-12.979h45.902v-6.879H53.848V85c0-4.329 3.471-8.614 8.035-8.614l52.656-.008v12.996H68.632v6.115h45.908v22.929a8.718 8.718 0 0 1-8.56 8.406z" fill="#2a2a2a" fill-rule="evenodd"/><path id="Ellipse_1_copy_3" data-name="Ellipse 1 copy 3" d="M109.5 0C169.975 0 219 48.276 219 107.828s-49.025 107.828-109.5 107.828S0 167.38 0 107.828 49.025 0 109.5 0zm.047 6.75c56.721 0 102.7 45.261 102.7 101.094s-45.982 101.094-102.7 101.094S6.844 163.676 6.844 107.844 52.826 6.75 109.547 6.75z" fill="url(#linear-gradient-3)" fill-rule="evenodd"/><path id="Ellipse_1_copy_4" data-name="Ellipse 1 copy 4" d="M109.547 25.219c46.314 0 83.859 36.992 83.859 82.625s-37.545 82.625-83.859 82.625-83.859-36.993-83.859-82.625 37.545-82.625 83.859-82.625zm.437 9.437c41.379 0 74.922 33 74.922 73.7s-33.543 73.7-74.922 73.7-74.921-33-74.921-73.7 33.543-73.7 74.921-73.7z" fill="#3d3d3d" opacity=".31" fill-rule="evenodd"/></g><path id="online_casino" data-name="online casino" class="cls-6" d="M275.97 163.58a10.691 10.691 0 0 0-1.98-3.893 9.507 9.507 0 0 0-3.514-2.653 12.558 12.558 0 0 0-5.225-.982 12.886 12.886 0 0 0-5.244.965 9.556 9.556 0 0 0-3.568 2.653 10.986 10.986 0 0 0-2.051 3.927 18.064 18.064 0 0 0 .018 9.734 10.211 10.211 0 0 0 2.087 3.823 9.338 9.338 0 0 0 3.585 2.482 13.8 13.8 0 0 0 5.173.878 12.22 12.22 0 0 0 4.94-.93 9.9 9.9 0 0 0 3.549-2.567 10.833 10.833 0 0 0 2.141-3.859 15.771 15.771 0 0 0 .713-4.841 17.456 17.456 0 0 0-.624-4.737zm-5.3 8.165a8.628 8.628 0 0 1-1 2.671 4.909 4.909 0 0 1-1.784 1.774 5.2 5.2 0 0 1-2.639.637q-3.318 0-4.656-2.188a11.986 11.986 0 0 1-1.338-6.219 21.079 21.079 0 0 1 .25-3.273 8.266 8.266 0 0 1 .928-2.79 5.1 5.1 0 0 1 4.816-2.687 5.11 5.11 0 0 1 2.907.757 5.22 5.22 0 0 1 1.748 1.982 8.976 8.976 0 0 1 .855 2.79 21.71 21.71 0 0 1 .233 3.187 16.328 16.328 0 0 1-.318 3.359zm48.443 1.051l-3.093-4.823q-1.884-2.93-3.75-5.754t-3.787-5.719h-5.351v23.669h5.1v-16.641a.145.145 0 0 0 .089-.017.137.137 0 0 1 .089-.018q.606 1 1.228 1.965t1.228 1.963l8.293 12.748h5.268V156.5h-5.1v16.3h-.213zm50.332 7.373v-3.549H357v-20.154h-5.28v23.7h17.729zm30.571 0v-23.7h-5.206v23.7h5.208zm43.556-7.373l-3.093-4.823q-1.884-2.93-3.751-5.754t-3.787-5.719h-5.351v23.669h5.1v-16.641a.139.139 0 0 0 .089-.017.142.142 0 0 1 .09-.018q.6 1 1.228 1.965t1.227 1.963l8.294 12.748h5.267V156.5h-5.1v16.3h-.213zm50.011 7.373v-3.617h-12.091v-7.1h9.738v-3.376h-9.738v-6h11.593v-3.617h-16.908v23.7h17.408zm64.262-22.98a10.155 10.155 0 0 0-3.638 2.98 11.06 11.06 0 0 0-1.873 4.014 18.079 18.079 0 0 0-.535 4.272 19.881 19.881 0 0 0 .535 4.737 9.518 9.518 0 0 0 1.873 3.825 8.954 8.954 0 0 0 3.567 2.567 14.677 14.677 0 0 0 5.618.93 24.342 24.342 0 0 0 4.013-.345 28.669 28.669 0 0 0 1.962-.4 12.563 12.563 0 0 0 1.73-.534l-.856-3.514q-.714.174-1.516.31t-1.605.241c-.536.069-1.034.121-1.5.155s-.838.052-1.123.052a9.608 9.608 0 0 1-3.371-.517 5.086 5.086 0 0 1-2.212-1.55 6.248 6.248 0 0 1-1.194-2.567 15.779 15.779 0 0 1-.357-3.566q0-4.168 1.783-6.219a6.532 6.532 0 0 1 5.208-2.05 20.3 20.3 0 0 1 2.373.155 19.806 19.806 0 0 1 2.728.534l.75-3.721a24.043 24.043 0 0 0-3-.689 21.315 21.315 0 0 0-3.532-.275 12.812 12.812 0 0 0-5.826 1.175zm59.947 22.98L609.7 156.5h-6.635l-8.347 23.669h5.244l1.748-5.409h8.953l1.713 5.409h5.422zm-8.2-8.854h-6.743l1.82-6.064 1.5-5.306h.178l1.427 5.133zM644.672 158a6.514 6.514 0 0 0-2.337 5.221 5.478 5.478 0 0 0 .732 2.979 5.948 5.948 0 0 0 1.979 1.913 11.7 11.7 0 0 0 2.89 1.223q1.641.465 3.46.913.893.241 1.641.482a5 5 0 0 1 1.284.6 2.6 2.6 0 0 1 .821.86 2.513 2.513 0 0 1 .285 1.258 2.656 2.656 0 0 1-1.106 2.429 6.16 6.16 0 0 1-3.282.707 26.55 26.55 0 0 1-3.317-.276 21.022 21.022 0 0 1-4.673-1.275l-1.356 3.583a15.965 15.965 0 0 0 2.248.878 21.994 21.994 0 0 0 2.354.587q1.178.224 2.3.326t2.051.1q5.172 0 7.741-1.843a6.043 6.043 0 0 0 2.568-5.22 6.049 6.049 0 0 0-2.836-5.513 10 10 0 0 0-2.675-1.206q-1.445-.412-2.693-.723-.963-.207-1.837-.448a8.187 8.187 0 0 1-1.552-.586 3.589 3.589 0 0 1-1.088-.809 1.681 1.681 0 0 1-.411-1.155 2.717 2.717 0 0 1 .964-2.273 4.156 4.156 0 0 1 2.64-.759 24.007 24.007 0 0 1 3.05.225 14.729 14.729 0 0 1 3.549.947l1.356-3.445a13.076 13.076 0 0 0-3.889-1.327 22.639 22.639 0 0 0-3.888-.361q-4.637.006-6.973 1.988zm48 22.171v-23.7h-5.212v23.7h5.208zm43.556-7.373l-3.093-4.823q-1.884-2.93-3.751-5.754t-3.787-5.719h-5.35v23.669h5.1v-16.643a.145.145 0 0 0 .089-.017.137.137 0 0 1 .089-.018q.606 1 1.228 1.965t1.228 1.963l8.293 12.748h5.268V156.5h-5.1v16.3h-.213zm54.167-9.216a10.675 10.675 0 0 0-1.98-3.893 9.511 9.511 0 0 0-3.513-2.653 12.565 12.565 0 0 0-5.227-.982 12.885 12.885 0 0 0-5.243.965 9.544 9.544 0 0 0-3.567 2.653 10.972 10.972 0 0 0-2.052 3.927 18.038 18.038 0 0 0 .018 9.734 10.211 10.211 0 0 0 2.087 3.823 9.346 9.346 0 0 0 3.585 2.482 13.8 13.8 0 0 0 5.172.878 12.221 12.221 0 0 0 4.941-.93 9.9 9.9 0 0 0 3.549-2.567 10.848 10.848 0 0 0 2.141-3.859 15.771 15.771 0 0 0 .713-4.841 17.456 17.456 0 0 0-.628-4.739zm-5.3 8.165a8.628 8.628 0 0 1-1 2.671 4.909 4.909 0 0 1-1.784 1.774 5.2 5.2 0 0 1-2.64.637q-3.317 0-4.655-2.188a11.977 11.977 0 0 1-1.337-6.219 20.958 20.958 0 0 1 .249-3.273 8.288 8.288 0 0 1 .928-2.79 5.1 5.1 0 0 1 4.815-2.687 5.114 5.114 0 0 1 2.908.757 5.22 5.22 0 0 1 1.748 1.982 9 9 0 0 1 .856 2.79 21.848 21.848 0 0 1 .232 3.187 16.471 16.471 0 0 1-.321 3.357z"/><path id="separator" class="cls-6" d="M240.736 140.23h274.431v13.27l-5.839-10.619zm562.6 0h-274.43v13.27l5.839-10.619z"/><path id="V" d="M751.157 128.6h-30.424V48.51h22.305v49.8l34.528-49.8h30.424z" fill="url(#linear-gradient-4)" fill-rule="evenodd"/><path id="slot" class="cls-6" d="M581.448 72.386V50.535h89.309v21.851h-89.309zm-87.923 0l.411 24.9h-22.089V62.548c0-6.608 6.089-12.014 13.5-12.014h66.328c7.307 0 13.269 5.526 13.269 12.133l-.411 9.718h-71.008zM358.9 48.5h22.164v56.28h75.111v21.864H358.9V48.5zm-28.292 78.081l-81.3.063V106.6h71.006V96.274h-71.002V61.859c0-6.708 5.326-13.349 12.329-13.349l81.252-.013v19.84h-71.007v10.527h71.007v34.82c0 6.908-5.282 12.894-12.285 12.894zm168.663-21.8h43.507v-24.9h22.164V114.5c0 6.707-5.962 12.083-13.269 12.083h-66.328c-7.409 0-13.5-5.306-13.5-12.014v-9.787h27.424zm139.14-24.9v46.765h-24.626v-46.77h24.626z"/></svg>