<svg xmlns="http://www.w3.org/2000/svg" viewBox="16 0 144 33" class="svg-logo" fill="#1fb6ff"><title>Snabbare Logo</title><path d="M151.96 15.84c-1.078 0-1.95.495-2.52 1.433-.02.035-.043.07-.066.106-.2.317-.536.848-.12 1.33.213.246.535.252.795.257.086.002.168.004.234.013l.031.004h.031c.96-.025 1.889-.096 2.691-.695.669-.5.71-1.07.628-1.46-.18-.846-.985-.933-1.288-.966a3.917 3.917 0 0 0-.416-.023M150.89 30c-1.5 0-2.98-.305-4.4-.906-1.846-.782-3.052-2.277-3.486-4.323-.656-3.093-.36-5.952.878-8.498 1.6-3.29 4.394-4.894 8.541-4.907h.053c1.261 0 2.288.153 3.233.482 1.842.64 3.04 1.97 3.375 3.743.368 1.946-.365 4.154-1.781 5.368-1.504 1.29-3.368 1.89-5.868 1.89-.16 0-.324-.002-.49-.007h-.009c-.152 0-.295.005-.438.01-.136.005-.272.01-.407.01-.179 0-.324-.01-.455-.029a2.14 2.14 0 0 0-.31-.025c-.304 0-.522.097-.647.29-.187.287-.075.637.06.942.486 1.108 1.482 1.334 2.393 1.409.176.014.355.022.534.022 1.065 0 2.145-.244 3.503-.79.192-.078.381-.16.57-.244.305-.134.593-.26.89-.362a.956.956 0 0 1 .308-.057c.408 0 .479.341.485.545.03.994-.056 1.94-.256 2.81-.23.994-.983 1.473-1.575 1.7-1.601.615-3.183.927-4.702.927M83.86 15.995c-1.345 0-2.49.957-2.663 2.226-.123.91-.236 1.835-.346 2.73a174.548 174.548 0 0 1-.406 3.158c-.11.784.458 1.025.731 1.14.379.161.784.242 1.205.242 1.136 0 2.244-.604 2.892-1.576.928-1.392 1.042-2.986 1.076-4.37 0-.115.002-.22.003-.326.004-.258.007-.525-.01-.793-.016-.257-.082-.494-.146-.723-.302-1.083-.983-1.62-2.144-1.701a2.69 2.69 0 0 0-.191-.007M83.614 30c-1.316 0-2.53-.349-3.419-.983-.178-.127-.347-.189-.517-.189-.297 0-.494.18-.667.34-.403.37-1.423.628-2.48.628-.785 0-1.462-.14-1.813-.378-.357-.24-.487-.55-.434-1.031l.156-1.419c.596-5.412 2-18.163 2.342-21.308.124-1.143.474-1.526 1.557-1.706a9.286 9.286 0 0 1 1.528-.136c.572 0 1.093.064 1.592.195.886.233 1.217.73 1.107 1.663-.166 1.4-.316 2.785-.476 4.25l-.203 1.852-.072.655.607-.266c1.121-.49 1.952-.78 2.877-.812.1-.003.2-.005.3-.005 3.108 0 5.4 1.621 6.131 4.336 1.207 4.484.398 8.43-2.403 11.732C87.955 29.035 85.82 30 83.614 30M102.296 15.571c-1.311 0-2.417 1.05-2.572 2.442l-.16 1.46a250.353 250.353 0 0 1-.502 4.349c-.107.842.382 1.145.759 1.3.344.141.707.213 1.076.213 1.136 0 2.192-.66 2.825-1.767.79-1.377.885-2.905.978-4.383l.001-.021v-.04l-.01-.284c-.008-.223-.016-.454-.038-.684a5.764 5.764 0 0 0-.137-.819c-.264-1.079-.945-1.67-2.024-1.758a2.426 2.426 0 0 0-.196-.008M102.063 30c-.666 0-1.31-.11-1.914-.325l-.106-.037c-.185-.065-.36-.125-.493-.216-.39-.265-.733-.442-1.137-.442-.353 0-.715.138-1.138.433-.452.315-.987.475-1.59.475-.613 0-1.288-.162-2.003-.482-.233-.104-.532-.335-.45-1.14.168-1.627.566-5.545.997-9.78.553-5.44 1.16-11.407 1.4-13.721.107-1.046.41-1.404 1.347-1.599A7.543 7.543 0 0 1 98.502 3c.546 0 1.072.072 1.563.214.773.224 1.079.719.992 1.606-.145 1.47-.29 2.94-.444 4.485l-.272 2.735.634-.394c.978-.608 1.957-.903 2.995-.903.416 0 .852.049 1.296.145 2.585.561 4.156 2.287 4.668 5.13.7 3.896.087 7.42-1.824 10.473-1.356 2.164-3.672 3.509-6.047 3.509M65.468 15.728c-1.024 0-1.926.604-2.476 1.658-.745 1.428-.826 2.994-.844 4.35 0 .123-.005.241-.01.36-.011.285-.023.58.025.882l.022.142c.12.798.271 1.79 1.458 2.119.159.043.323.066.489.066.813 0 1.643-.535 2.22-1.431.265-.41.295-.846.322-1.23.005-.08.01-.16.019-.24.04-.41.075-.819.11-1.229.114-1.322.232-2.69.511-4.002.172-.805-.391-1.058-.662-1.18a2.88 2.88 0 0 0-1.184-.265M62.262 30c-.333 0-.679-.03-1.026-.087-2.388-.397-3.902-1.853-4.5-4.328-.967-3.998-.418-7.708 1.633-11.025 1.307-2.115 3.492-3.378 5.843-3.378a6.354 6.354 0 0 1 1.648.215c.025.005.049.01.072.017.298.086.577.243.873.41.309.173.629.353.987.457.094.027.19.041.283.041.416 0 .701-.257.952-.484.187-.169.363-.328.556-.35.448-.05.977-.103 1.506-.103.564 0 1.062.06 1.52.184.657.177.906.551.833 1.25a3950.16 3950.16 0 0 0-1.578 15.377c-.114 1.208-.501 1.512-1.177 1.651A6.698 6.698 0 0 1 69.33 30c-.483 0-.919-.067-1.332-.205-.627-.209-.88-.595-.874-1.333l.007-.9-.664.622C65.162 29.406 63.786 30 62.262 30M121.104 15.728c-1.023 0-1.926.604-2.475 1.658-.746 1.428-.827 2.994-.845 4.35 0 .123-.005.241-.01.36-.01.285-.022.58.025.882l.022.142c.121.798.272 1.79 1.459 2.119.158.043.322.066.488.066.813 0 1.643-.535 2.22-1.431.265-.41.295-.846.322-1.23.006-.08.011-.16.02-.24.039-.41.074-.819.11-1.229.113-1.322.23-2.69.51-4.002.172-.805-.39-1.058-.661-1.18a2.879 2.879 0 0 0-1.185-.265M117.898 30c-.333 0-.678-.03-1.026-.087-2.387-.397-3.901-1.853-4.5-4.328-.967-3.998-.418-7.708 1.633-11.025 1.308-2.115 3.492-3.378 5.843-3.378a6.354 6.354 0 0 1 1.649.215c.024.005.048.01.072.017.297.086.577.243.872.41.31.173.629.353.987.457.094.027.19.041.283.041.417 0 .701-.257.953-.484.186-.169.362-.328.555-.35.448-.05.977-.103 1.506-.103.565 0 1.062.06 1.52.184.658.177.907.551.834 1.25a3923.208 3923.208 0 0 0-1.578 15.377c-.114 1.208-.502 1.512-1.178 1.651a6.698 6.698 0 0 1-1.357.153c-.483 0-.92-.067-1.333-.205-.627-.209-.88-.595-.874-1.333l.008-.9-.664.622c-1.305 1.222-2.68 1.816-4.205 1.816M28.452 30c-.089 0-.179-.002-.268-.004a11.939 11.939 0 0 0-.287-.005c-2.171-.033-3.788-.34-5.238-.995-1.236-.558-1.753-1.384-1.629-2.598.03-.288.047-.578.064-.859.027-.44.052-.857.12-1.269.146-.888.464-1.338.946-1.338.284 0 .65.14 1.058.407 1.234.803 2.602 1.547 4.242 1.546.174 0 .35-.008.524-.025.462-.044 1.065-.13 1.638-.41.685-.335 1.122-.95 1.166-1.647.046-.698-.31-1.366-.95-1.786-.778-.51-1.626-.877-2.447-1.23l-.401-.175c-1.045-.457-1.93-.957-2.704-1.53-1.886-1.395-2.271-4.07-2.275-4.097-.125-.923-.989-1.674-1.925-1.674h-2.12a.968.968 0 0 1-.966-.968v-.113c0-.534.434-.968.967-.968h5.484c.963 0 1.746-.779 1.746-1.737v-.112c0-.958-.783-1.737-1.746-1.737h-2.7a.969.969 0 0 1-.966-.968v-.113c0-.529.429-.959.956-.959l10.744.077c.73.005 1.911.107 2.632.228 0 0 .286.052 1.032.307.73.25 1.266.536 1.688.902.706.613.946 1.315-.045 2.92-.678 1.098-1.216 1.567-1.8 1.567-.216 0-.457-.059-.738-.179-.981-.419-2.01-.623-3.142-.623-.308 0-.628.016-.951.047-.755.072-1.79.303-2.067 1.471-.224.946.201 1.743 1.198 2.246.526.265 1.065.523 1.586.772.73.348 1.485.709 2.207 1.093 1.819.968 3.537 2.18 3.786 4.479.334 3.067-.222 5.489-1.653 7.2-1.377 1.645-3.56 2.603-6.487 2.847a3.36 3.36 0 0 1-.279.01M132.724 30c-.605 0-1.181-.074-1.713-.22-.883-.243-1.186-.71-1.082-1.664.434-3.965 1.545-14.36 1.556-14.464.244-1.76 1.863-1.94 1.932-1.946l.028-.003.017-.004a9.568 9.568 0 0 1 1.671-.141c.22 0 .45.007.68.02.456.026.755.292 1.104.98l.235.46.384-.353c1.1-1.012 2.17-1.483 3.365-1.483h.065c.71.01 1.27.217 1.617.596.327.358.466.875.402 1.496-.093.893-.402 1.758-.943 2.643-.314.514-.626.574-.834.574-.128 0-.27-.027-.421-.08a3.117 3.117 0 0 0-1.025-.182c-1.06 0-1.855.604-2.429 1.13-.348.32-.388.701-.42 1.008-.147 1.4-.296 2.802-.445 4.203-.2 1.877-.4 3.753-.594 5.63-.108 1.048-.453 1.443-1.417 1.626a9.288 9.288 0 0 1-1.733.174M40.877 30c-.565 0-1.076-.07-1.56-.212-.834-.244-1.121-.707-1.027-1.651.363-3.626 1.42-14.378 1.431-14.486.217-1.638 1.578-1.918 1.849-1.958l.024-.003.039-.012c.466-.086.95-.128 1.477-.128.21 0 .428.007.65.02.542.034.795.417 1.126 1.209l.188.451.386-.295c1.564-1.196 3.008-1.753 4.545-1.753.13 0 .263.004.396.012 1.468.089 2.577.56 3.298 1.4.72.84 1.028 2.022.914 3.513-.11 1.438-.722 7.522-1.016 10.446l-.162 1.619c-.104 1.078-.449 1.498-1.365 1.665a8.738 8.738 0 0 1-1.572.156c-.565 0-1.076-.07-1.561-.212-.833-.245-1.12-.708-1.027-1.652l.201-1.96c.297-2.887.794-7.72.867-8.613.046-.554-.054-.958-.304-1.234-.24-.266-.601-.395-1.103-.395-.05 0-.101 0-.154.003-1.205.057-2.508 1.29-2.63 2.488-.27 2.662-.625 6.177-.972 9.761-.105 1.078-.45 1.498-1.365 1.665a8.74 8.74 0 0 1-1.573.156"></path></svg>