<svg xmlns="http://www.w3.org/2000/svg" xmlns:xlink="http://www.w3.org/1999/xlink" version="1.1" id="Layer_3" x="0px" y="0px" viewBox="0 0 585.5 391.3" style="enable-background:new 0 0 585.5 391.3;" xml:space="preserve"><style type="text/css">	.st0{fill:url(#SVGID_1_);}	.st1{fill:url(#SVGID_2_);}	.st2{fill:url(#SVGID_3_);}	.st3{fill:#F49E1E;}</style><g><g><linearGradient id="SVGID_1_" gradientUnits="userSpaceOnUse" x1="187.3377" y1="133.5538" x2="413.3377" y2="132.0538"><stop offset="0" style="stop-color:#EF6323"></stop><stop offset="1" style="stop-color:#EEA223"></stop></linearGradient><path class="st0" d="M255.2,142.7h-23.6c-5.2,0-9.5-4.3-9.5-9.5v0c0-5.2,4.3-9.5,9.5-9.5h23.6c5.2,0,9.5,4.3,9.5,9.5v0    C264.8,138.4,260.5,142.7,255.2,142.7z"></path><linearGradient id="SVGID_2_" gradientUnits="userSpaceOnUse" x1="76.3556" y1="103.1012" x2="509.051" y2="100.2294"><stop offset="0" style="stop-color:#EF6323"></stop><stop offset="1" style="stop-color:#EEA223"></stop></linearGradient><path class="st1" d="M505.2,135.2l-4.6-7.2L456,62.9c-7.2-11.2-19.2-15.5-33-18.1c-21.1-3.9-31.9-6.8-54.9-12    C342.4,27,266.2,3.2,254.8,1.4C249,0.5,242.9,0,236.6,0c-8.8,0-39,7.9-51.8,11.7c-29.6,8.8-88.9,36.6-106.6,45    c-2.5,1.2-2.9,4.5-0.8,6.3c9.8,8.2,21.8,15.1,35.4,20.3c5.7,2.2,11.7,4,17.9,5.6c0,0,0.1,0,0.1,0c12.6,2.7,74.6,14,155.5-16    c1.9-0.7,23.5-6.2,34.1-7.4c10.2-1.2,19,0.2,25.5,3.3c2.8,1.3,4.7,4.1,4.8,7.2c0,0,0,0,0,0.1c0,2.6-1.1,5-2.8,6.7l0,0    c-1.8,1.8-4.3,2.8-6.8,2.8h-21.5c-2.6,0-5,1.1-6.7,2.8c-1.7,1.7-2.8,4.1-2.8,6.7c0,5.2,4.3,9.5,9.5,9.5h6.2c5.2,0,9.5,4.3,9.5,9.5    c0,2.6-1.1,5-2.8,6.7c-1.7,1.7-4.1,2.8-6.7,2.8h-46.1c-2.6,0-5,1.1-6.7,2.8c-2,2-3.2,5-2.7,8.1c0.7,4.7,5,8.1,9.7,8.1h9.1    c4.5,0,8.6,3,9.6,7.4c0.8,3.5-0.4,6.7-2.6,8.9c-1.7,1.7-4.1,2.8-6.7,2.8h-37.2c-2.6,0-5,1.1-6.8,2.8c-2,2-3.2,5-2.7,8.1    c0.7,4.7,4.9,8.1,9.7,8.1h20.1c0.6-0.1,1.2-0.2,1.9-0.2h20.1c10.3-0.4,160.4,19.9,175.8,21.6c27,2.9,39.2-19.9,39.2-49.6    C509.4,146.4,507.9,140.4,505.2,135.2z M469.4,136.9c-5.6-0.5-14.9-1.3-15.4-1.3c-1.5,0-3-0.4-4.3-1c-3.2-1.6-5.4-4.8-5.4-8.6    c0-5.2,4-9.4,9.2-9.6c2.8-0.1,7.4,0.6,9.7,3.5c2.7,3.5,5.8,8.2,8,13.8C471.9,135.3,471.1,137,469.4,136.9z"></path><linearGradient id="SVGID_3_" gradientUnits="userSpaceOnUse" x1="187.5916" y1="171.8062" x2="413.5916" y2="170.3062"><stop offset="0" style="stop-color:#EF6323"></stop><stop offset="1" style="stop-color:#EEA223"></stop></linearGradient><path class="st2" d="M219,181.2h-23.6c-5.2,0-9.5-4.3-9.5-9.5v0c0-5.2,4.3-9.5,9.5-9.5H219c5.2,0,9.5,4.3,9.5,9.5v0    C228.5,176.9,224.2,181.2,219,181.2z"></path></g><g><path class="st3" d="M72.8,335.2c2.3,3.2,3.4,6.6,3.4,10.3c0,1.8-0.3,3.7-0.8,5.6l-6.7,27.4c-1.1,3.6-3.5,6.7-7.3,9.1    c-4,2.4-8.5,3.7-13.6,3.7H16.3c-4.7,0-8.6-1.3-11.7-3.8c-3.1-2.4-4.6-5.4-4.6-9v-2.3l8.3-36h21.9l-7.1,30.5v0.5    c0,1.1,0.5,2.1,1.6,3c1.1,0.9,2.3,1.3,3.8,1.3h12.1c1.9,0,3.7-0.5,5.3-1.4c1.6-1,2.6-2.2,3-3.6l4.7-20c0.2-0.6,0.3-1.2,0.3-1.9    c0-2.7-1.5-6.1-4.6-10.2c-1.4-1.9-5.2-7.2-11.3-15.8c-6.9-9.7-10.8-15.3-11.9-16.8c-3.3-4.9-5-9.8-5-14.6c0-1.4,0.1-2.9,0.4-4.4    l5.7-24.5c1-3.7,3.4-6.8,7.4-9.2c3.9-2.4,8.3-3.7,13.3-3.7h31.6c4.6,0,8.5,1.3,11.9,3.8c3.4,2.5,5.1,5.5,5.1,9.1    c0,1-0.1,1.7-0.3,2.3l-8.3,34.9H65.8l7-29.4c0.2-0.2,0.3-0.4,0.3-0.6c0-1.1-0.6-2.1-1.7-3c-1.1-0.7-2.5-1.1-4-1.1H55.2    c-1.9,0-3.6,0.5-5.1,1.4c-1.5,0.9-2.4,1.9-2.8,3.3l-3.8,15.7c-0.3,1.2-0.4,2.4-0.4,3.7c0,4.7,2,9.6,6.1,14.4    C63.7,322.6,71.5,333,72.8,335.2z"></path><path class="st3" d="M87.2,391.3l34.3-141.8h22.8c6.6,51.2,10,87.2,10.3,108.3c0.9-18.6,7.7-54.7,20.6-108.3h22.8l-34.3,141.8    h-22.8c-6.5-51-9.9-86.2-10.2-105.7c-0.9,16.3-7.7,51.6-20.6,105.7H87.2z"></path><path class="st3" d="M210.8,368l-10.7,23.3H176l71.2-141.8h22.7l-14.8,141.8h-21.5l3-23.3H210.8z M238.7,351.9l8.3-62.8    l-28.9,62.8H238.7z"></path><path class="st3" d="M343.5,378.4c-0.9,3.7-3.3,6.8-7.1,9.2c-3.9,2.4-8.3,3.7-13.3,3.7h-52.5l34.3-141.8h49.7    c4.7,0,8.6,1.3,11.9,3.8c3.3,2.5,5,5.5,5,9.1c0,0.5-0.1,1.2-0.4,2.3L360,309.3c-1.7,6.2-6.5,10.2-14.6,11.9c3.1,0.9,5.4,2.4,7,4.5    c1.2,1.7,1.8,3.6,1.8,5.7c0,0.5,0,1-0.1,1.5c0,1,0,1.7-0.1,2.3L343.5,378.4z M308.4,328.7l-11.2,46.7h18.2c1.9,0,3.6-0.5,5.1-1.4    c1.5-0.9,2.4-2,2.6-3.4l9-37.4v-0.5c0-1.1-0.5-2.1-1.6-2.9s-2.3-1.2-3.8-1.2H308.4z M348,270.2v-0.6c0-1.2-0.5-2.2-1.6-3    c-1.1-0.7-2.3-1.1-3.8-1.1h-18.9l-11.2,46.3h18.3c1.9,0,3.6-0.5,5.1-1.5c1.5-0.9,2.4-2.1,2.6-3.5L348,270.2z"></path><path class="st3" d="M432,378.4c-0.9,3.7-3.3,6.8-7.1,9.2c-3.9,2.4-8.3,3.7-13.3,3.7h-52.5l34.3-141.8h49.7    c4.7,0,8.6,1.3,11.9,3.8c3.3,2.5,5,5.5,5,9.1c0,0.5-0.1,1.2-0.4,2.3l-11.1,44.7c-1.7,6.2-6.5,10.2-14.6,11.9    c3.1,0.9,5.4,2.4,7,4.5c1.2,1.7,1.8,3.6,1.8,5.7c0,0.5,0,1-0.1,1.5c0,1,0,1.7-0.1,2.3L432,378.4z M396.9,328.7l-11.2,46.7h18.2    c1.9,0,3.6-0.5,5.1-1.4c1.5-0.9,2.4-2,2.6-3.4l9-37.4v-0.5c0-1.1-0.5-2.1-1.6-2.9s-2.3-1.2-3.8-1.2H396.9z M436.5,270.2v-0.6    c0-1.2-0.5-2.2-1.6-3c-1.1-0.7-2.3-1.1-3.8-1.1h-18.9L401,311.8h18.3c1.9,0,3.6-0.5,5.1-1.5c1.5-0.9,2.4-2.1,2.6-3.5L436.5,270.2z    "></path><path class="st3" d="M470.4,391.3h-22.8L482,249.5h22.7L470.4,391.3z"></path><path class="st3" d="M561.7,335.2c2.3,3.2,3.4,6.6,3.4,10.3c0,1.8-0.3,3.7-0.8,5.6l-6.7,27.4c-1.1,3.6-3.5,6.7-7.3,9.1    c-4,2.4-8.5,3.7-13.6,3.7h-31.5c-4.7,0-8.6-1.3-11.7-3.8c-3.1-2.4-4.6-5.4-4.6-9v-2.3l8.3-36h21.9l-7.1,30.5v0.5    c0,1.1,0.5,2.1,1.6,3c1.1,0.9,2.3,1.3,3.8,1.3h12.1c1.9,0,3.7-0.5,5.3-1.4c1.6-1,2.6-2.2,3-3.6l4.7-20c0.2-0.6,0.3-1.2,0.3-1.9    c0-2.7-1.5-6.1-4.6-10.2c-1.4-1.9-5.2-7.2-11.3-15.8c-6.9-9.7-10.8-15.3-11.9-16.8c-3.3-4.9-5-9.8-5-14.6c0-1.4,0.1-2.9,0.4-4.4    l5.7-24.5c1-3.7,3.4-6.8,7.4-9.2c3.9-2.4,8.3-3.7,13.3-3.7h31.6c4.6,0,8.5,1.3,11.9,3.8c3.4,2.5,5.1,5.5,5.1,9.1    c0,1-0.1,1.7-0.3,2.3l-8.3,34.9h-22.1l7-29.4c0.2-0.2,0.3-0.4,0.3-0.6c0-1.1-0.6-2.1-1.7-3c-1.1-0.7-2.5-1.1-4-1.1h-12.1    c-1.9,0-3.6,0.5-5.1,1.4c-1.5,0.9-2.4,1.9-2.8,3.3l-3.8,15.7c-0.3,1.2-0.4,2.4-0.4,3.7c0,4.7,2,9.6,6.1,14.4    C552.6,322.6,560.5,333,561.7,335.2z"></path></g></g></svg>