<svg xmlns="http://www.w3.org/2000/svg" viewBox="0 0 302 135"><g fill="none" fill-rule="evenodd"><path d="M41.373 100.62c6.197 0 11.305 5.538 11.305 12.712 0 7.175-5.108 12.712-11.305 12.712-3.169 0-5.487-1.107-7.048-2.937V135H27.23v-34.38h7.095v2.937c1.561-1.83 3.879-2.937 7.048-2.937zm-1.419 18.587c3.264 0 5.63-2.263 5.63-5.875 0-3.611-2.366-5.874-5.63-5.874s-5.629 2.263-5.629 5.874c0 3.612 2.365 5.875 5.63 5.875zm22.033-2.96c.93 2.509 3.18 3.377 5.872 3.377 2.007 0 3.72-.772 4.699-1.833l5.872 3.328c-2.398 3.28-6.02 4.968-10.668 4.968-8.37 0-13.557-5.547-13.557-12.733 0-7.187 5.286-12.734 13.018-12.734 7.145 0 12.43 5.45 12.43 12.734 0 1.012-.097 1.977-.293 2.893H61.987zm-.147-5.402h10.522c-.783-2.797-2.985-3.81-5.188-3.81-2.79 0-4.649 1.35-5.334 3.81zm27.122 5.402c.93 2.509 3.181 3.377 5.873 3.377 2.006 0 3.72-.772 4.698-1.833l5.873 3.328c-2.398 3.28-6.02 4.968-10.669 4.968-8.369 0-13.556-5.547-13.556-12.733 0-7.187 5.285-12.734 13.018-12.734 7.145 0 12.43 5.45 12.43 12.734 0 1.012-.098 1.977-.293 2.893H88.962zm-.147-5.402h10.522c-.783-2.797-2.985-3.81-5.187-3.81-2.79 0-4.65 1.35-5.335 3.81zm37.694-19.138h7.096v34.38h-7.096v-2.937c-1.56 1.83-3.878 2.937-7.048 2.937-6.196 0-11.305-5.537-11.305-12.712s5.109-12.712 11.305-12.712c3.17 0 5.487 1.107 7.048 2.937V91.707zm-5.629 27.542c3.264 0 5.63-2.263 5.63-5.874 0-3.611-2.366-5.875-5.63-5.875-3.263 0-5.628 2.264-5.628 5.875s2.365 5.874 5.628 5.874zm32.018-18.629h7.682l-8.21 23.803c-2.69 7.803-6.963 10.895-13.685 10.552v-6.871c3.36 0 4.945-1.08 6.002-4.074l-9.555-23.41h7.922l5.33 15.018 4.514-15.018zm135.601 25.611c-7.071 0-12.739-5.477-12.739-12.65 0-7.175 5.668-12.652 12.74-12.652 7.023 0 12.69 5.477 12.69 12.651 0 7.174-5.667 12.651-12.69 12.651zm0-2.326c5.764 0 10.22-4.557 10.22-10.325 0-5.768-4.456-10.324-10.22-10.324s-10.268 4.556-10.268 10.324 4.504 10.325 10.268 10.325zM180.71 126.06c-10.05 0-17.174-7.602-17.174-17.045 0-9.443 7.125-17.045 17.174-17.045 6.087 0 11.419 3.116 14.155 7.932l-2.217 1.275c-2.17-4.06-6.748-6.8-11.938-6.8-8.681 0-14.673 6.517-14.673 14.638 0 8.121 5.992 14.637 14.673 14.637 5.238 0 9.861-2.786 12.032-6.94l2.217 1.274c-2.689 4.863-8.068 8.074-14.249 8.074zm48.24-18.33c0 6.48 14.435 2.66 14.435 11.51 0 3.965-3.43 6.867-8.528 6.867-4.764 0-7.908-2.273-9.052-5.368l2.049-1.209c.857 2.612 3.43 4.256 7.003 4.256 3.335 0 6.146-1.5 6.146-4.546 0-6.577-14.436-2.805-14.436-11.51 0-3.82 3.24-6.866 8.1-6.866 3.859 0 6.813 1.886 8.1 4.836l-2.002 1.16c-1-2.514-3.478-3.675-6.098-3.675-3.097 0-5.717 1.644-5.717 4.546zm-8.356-6.049h2.463v24.36h-2.463v-5.882c-2.028 3.624-5.745 5.992-10.38 5.992-6.857 0-12.506-5.46-12.506-12.612 0-7.151 5.649-12.611 12.505-12.611 4.636 0 8.353 2.368 10.381 5.991v-5.238zm-10.188 22.15c5.746 0 10.188-4.542 10.188-10.292s-4.442-10.292-10.188-10.292c-5.745 0-10.236 4.542-10.236 10.292s4.49 10.292 10.236 10.292zm37.669-27.89a1.944 1.944 0 0 1-1.937-1.938c0-1.018.871-1.89 1.937-1.89s1.938.872 1.938 1.89a1.944 1.944 0 0 1-1.938 1.939zm-1.21 30.102v-25.115h2.421v25.115h-2.422zm16.924-25.115c5.777 0 9.418 3.883 9.418 9.83v15.285h-2.476v-15.285c0-4.522-2.573-7.471-7.137-7.471-4.757 0-8.495 3.146-8.495 9.78v12.976h-2.428V101.47h2.428v4.669c1.844-3.637 4.951-5.21 8.69-5.21zM13.425 126.1c-6.928 0-11.358-3.306-13.196-8.17l6.504-3.778c1.178 2.74 3.204 4.581 6.927 4.581 3.582 0 4.477-1.417 4.477-2.692 0-2.03-1.885-2.833-6.833-4.203-4.901-1.37-9.708-3.73-9.708-10.059 0-6.375 5.372-10.06 11.075-10.06 5.42 0 9.66 2.598 12.064 7.463l-6.362 3.73c-1.131-2.36-2.686-3.825-5.702-3.825-2.357 0-3.535 1.18-3.535 2.503 0 1.511.801 2.55 5.938 4.109 4.995 1.511 10.604 3.258 10.604 10.248 0 6.375-5.09 10.153-12.253 10.153z" fill="#112E40"></path><path fill="#FF8956" d="M130.045 76.21c-21.897 0-22.949-76.21 0-76.21s58.874 24.496 58.874 38.105c0 13.609-36.977 38.105-58.874 38.105zm7.46-20.323c7.008 0 28.519-12.803 28.519-17.782 0-4.98-20.284-17.782-28.519-17.782-8.234 0-7.007 35.564 0 35.564z"></path></g></svg>