<svg id="Lager_1" data-name="Lager 1" xmlns="http://www.w3.org/2000/svg" xmlns:xlink="http://www.w3.org/1999/xlink" viewBox="0 0 250 250"><defs><style>.cls-1{fill:#13363e;}.cls-2{fill:#20afc6;}.cls-3{fill:url(#linear-gradient);}.cls-4{fill:#17a1c1;}.cls-5{fill:#fff;}</style><linearGradient id="linear-gradient" x1="130.37" y1="119.28" x2="130.37" y2="46.18" gradientUnits="userSpaceOnUse"><stop offset="0" stop-color="#02cafc"/><stop offset="0.57" stop-color="#3bdab1"/><stop offset="1" stop-color="#68e775"/></linearGradient></defs><polygon class="cls-1" points="429.51 527.39 -172.44 527.39 -178.98 -277.04 422.97 -277.04 429.51 527.39"/><path class="cls-2" d="M155.59,102.36,121.48,122s-10.24,5.53-19.15.93c0,0-8.76-5-9.29-17.09V64.94s.33-14.44,9.75-19.06c0,0,6.92-4.79,19.73,1.75L157.33,68s10.12,6.75,10.33,15.69c0,0,1.18,11-11.95,18.47"/><path class="cls-3" d="M155.59,99.17l-34.11,19.64s-10.24,5.53-19.15.93c0,0-8.76-5-9.29-17.08V61.75s.33-14.44,9.75-19c0,0,6.92-4.8,19.73,1.74l34.81,20.33s10.12,6.75,10.33,15.69c0,0,1.18,11-11.95,18.48"/><path class="cls-4" d="M113.22,88.36a6.37,6.37,0,0,0,9,.17l2-1.88c0,.3,0,.61,0,.91a7.45,7.45,0,0,1-5,7l0,0a.53.53,0,0,0,.38,1,17.07,17.07,0,0,1,11.33,0,.53.53,0,0,0,.4-1l-.05,0a7.45,7.45,0,0,1-5-7,8.88,8.88,0,0,1,0-.9l2,1.87a6.35,6.35,0,1,0,8.81-9.14L125.27,68,113.39,79.39A6.37,6.37,0,0,0,113.22,88.36Z"/><path class="cls-5" d="M112.89,87.64a6.36,6.36,0,0,0,9,.17l2-1.88a7,7,0,0,1,.06.91,7.45,7.45,0,0,1-5,7l0,0a.53.53,0,0,0,.38,1,17.07,17.07,0,0,1,11.33,0,.53.53,0,0,0,.4-1l-.05,0a7.45,7.45,0,0,1-5-7,6.8,6.8,0,0,1,.06-.9L128,87.81a6.35,6.35,0,1,0,8.81-9.14L124.93,67.23,113.05,78.67A6.36,6.36,0,0,0,112.89,87.64Z"/><path class="cls-5" d="M10.85,179.24C14,169.05,21.38,163.09,30.71,159a13.41,13.41,0,0,1,3.76-.9c.6-.06,1.26.41,1.89.64a5.62,5.62,0,0,1-.69,1.7c-1.32,1.51-2.83,2.85-4.11,4.38C27,170.39,24.1,176.57,24.75,184c0,.41.11.81.18,1.22,1.19,6.68,5.95,7.51,11,4.9s7.41-7.41,8.54-12.8c1.07-5.08-.27-9.82-2.33-14.41s-4.42-9.27-6.26-14.05c-2.92-7.58-2.42-15,2.53-21.66,4.34-5.88,10.45-9.26,17.32-11.33,5.5-1.66,11.09-2.27,16.75-.8,6.33,1.65,9.28,6.82,7.57,13.16-1.52,5.59-5.15,9.6-9.79,12.78a27.65,27.65,0,0,1-10.62,4.65c-1.51.28-3.44.82-4.17-1.16s1.13-2.62,2.33-3.48c5-3.55,8.54-8,9-14.31.26-3.77-1-5-4.78-5.18a13.73,13.73,0,0,0-14.2,17.06,60.67,60.67,0,0,0,3,7.74c2.1,5.18,4.82,10.19,6.24,15.54a28.23,28.23,0,0,1-31.31,35.62c-7.43-1-12.69-4.83-14.53-12.49a1.82,1.82,0,0,0-.26-.44Z"/><path class="cls-5" d="M56.17,205.44a7.87,7.87,0,0,1-3.85-10.79,313.91,313.91,0,0,1,21-38.29c2.4-3.78,4.79-7.58,7.32-11.27,1.87-2.72,2.46-2.81,5.39-1.18a31.85,31.85,0,0,1,4.06,2.8,2,2,0,0,1,.3,3.08c-.59.74-1.09,1.54-1.64,2.31s-1.08,1.45-1.54,2.07c3.52-2.33,7-4.79,10.67-7a16.65,16.65,0,0,1,5.11-1.9c3.19-.67,5.74.59,7.43,3.52a15,15,0,0,1,1.32,13c-4.71,13-13.54,21.84-27.07,25.36-6.5,1.69-9.81-.45-12.09-6.8-.08-.21-.19-.4-.45-.92-1.67,2.38-3.39,4.47-4.72,6.79-3.15,5.47-6.11,11-9.16,16.57-.51.92-1.14,1.78-1.71,2.66Zm22.3-29.87a29.58,29.58,0,0,0,.38,3.14c.45,2,1.48,2.67,3.48,2a8.56,8.56,0,0,0,3.37-1.83,129.15,129.15,0,0,0,9-10.1,43.2,43.2,0,0,0,7.59-13.88,13.58,13.58,0,0,0,0-3.72,12.67,12.67,0,0,0-3.45,1.19c-6.7,4.7-12.22,10.68-17.86,16.55A8.67,8.67,0,0,0,78.47,175.57Z"/><path class="cls-5" d="M205.71,180.34c-2.12,1.53-4,3-6,4.34a21.53,21.53,0,0,1-2.93,1.64c-3.92,1.86-7.17,1.46-10.18-1.65a66.35,66.35,0,0,1-5-6.61c-.64.78-1.34,1.77-2.17,2.64a34.11,34.11,0,0,1-10.37,7.56,18.8,18.8,0,0,1-10.18,1.59c-4.82-.57-8.14-3.76-9.32-8.87-.19-.79-.31-1.6-.51-2.67-1.13,1-2.11,1.88-3.12,2.73-5.51,4.61-11.66,7.53-19,7.17-10.13-.49-17.4-10.21-14.14-19.79,4.33-12.74,13.2-21,26.5-24,4.9-1.11,8.25.23,10.41,3.66a10.33,10.33,0,0,1-.57,12.38c-4,5.22-9.52,8.21-15.68,10a64.8,64.8,0,0,1-8.65,1.69,1.53,1.53,0,0,0-1.54,1.7,6.7,6.7,0,0,0,7.69,7.28c6.84-.73,11.62-4.79,16-9.63a21.26,21.26,0,0,0,4.3-7.37c5.54-15.82,14.81-29,28.43-39,3.16-2.31,6.6-4.18,10.63-4.47,2.93-.2,4.64,1.18,4.38,4.1a25.07,25.07,0,0,1-1.91,7.46,63.91,63.91,0,0,1-12.29,18.06c-5.45,5.88-11.16,11.52-16.95,17.07a8.49,8.49,0,0,0-3,5.53,35.15,35.15,0,0,0-.25,4.58c.14,3.95,2.82,5.93,6.46,4.44a24.42,24.42,0,0,0,6.83-4.26c2.89-2.58,5.4-5.59,8-8.46a5.91,5.91,0,0,0,1-1.84,40.86,40.86,0,0,1,17.08-20.13,23.73,23.73,0,0,1,6.36-2.55,14.86,14.86,0,0,1,17.07,7.8,7.69,7.69,0,0,1,.14,7.61c-1.44,2.63-3.23,5.07-4.64,7.73s-2.6,5.51-3.79,8.31a5.07,5.07,0,0,0-.18,2.27c.19,2.48,1.9,3.62,4.19,2.6a12.09,12.09,0,0,0,4.08-2.71c4.07-4.49,7.93-9.18,12-13.72.71-.8,1.94-1.84,2.74-1.69,1.43.27,1.59,1.9,1.48,3.21a5.12,5.12,0,0,1-.8,2.64c-3.69,4.8-7.32,9.68-11.31,14.23a13.73,13.73,0,0,1-9.44,5.1C211.7,188.49,207.86,185.76,205.71,180.34Zm-14.24-2.74c.31.54.66,2,1.48,2.34s2.09-.4,3.13-.78a3.36,3.36,0,0,0,1-.93,136.6,136.6,0,0,0,15-20.89,13.85,13.85,0,0,0,1.62-5.16c.32-2.31-1-3.17-3.13-2.31a10.66,10.66,0,0,0-2.33,1.25,46.91,46.91,0,0,0-13.41,15.72A25.81,25.81,0,0,0,191.47,177.6Zm-1.26-51.18-.62-.53a42.82,42.82,0,0,0-4.4,3.22A82.55,82.55,0,0,0,169,150.34c-1.69,3.12-3.07,6.42-4.59,9.63l.61.41c4.95-5.75,10.08-11.35,14.78-17.28,3.42-4.32,6.31-9.07,9.35-13.68A13.93,13.93,0,0,0,190.21,126.42Zm-64.75,40,.59.49c7.42-2.54,13.34-6.93,17-14.11a2.67,2.67,0,0,0,.34-1.18,3.24,3.24,0,0,0-.38-1.91c-.24-.27-1.2-.06-1.76.15a6.23,6.23,0,0,0-2,1.2c-3.07,2.9-6.23,5.75-9.1,8.85A64,64,0,0,0,125.46,166.38Z"/></svg>