<svg xmlns="http://www.w3.org/2000/svg" xmlns:xlink="http://www.w3.org/1999/xlink" viewBox="0 0 286.11 177.5"><defs><style>.cls-1{fill:url(#linear-gradient);}.cls-2{fill:#8d8d8d;}</style><linearGradient id="linear-gradient" x1="53.16" y1="-14.5" x2="242.91" y2="175.25" gradientUnits="userSpaceOnUse"><stop offset="0.23" stop-color="#e71958"/><stop offset="0.23" stop-color="#e71a57"/><stop offset="0.41" stop-color="#ec2d47"/><stop offset="0.59" stop-color="#ee383d"/><stop offset="0.78" stop-color="#ef3c3a"/><stop offset="0.98" stop-color="#ef4c23"/></linearGradient></defs><title>Asset 2</title><g id="Layer_2" data-name="Layer 2"><g id="Layer_1-2" data-name="Layer 1"><path class="cls-1" d="M59.24,70.9a71.15,71.15,0,0,0-6.47-4.5c-1.58-.92-3.91-2.14-7-3.68S40.84,60.27,40.28,60s-1.27-.64-2.13-1A8.25,8.25,0,0,1,36.39,58c-.3-.24-.76-.58-1.37-1a2.61,2.61,0,0,1-.91-2.3q0-4.41,5.94-4.41,5.37,0,21.45,3.76a3.2,3.2,0,0,0,3.92-2.77l2.8-25.85A3.2,3.2,0,0,0,65.67,22,158.2,158.2,0,0,0,35.1,18.87Q18.87,18.87,9.74,29T.6,57.3q0,18.2,12.18,28.31a43,43,0,0,0,6.86,4.87c1.93,1,4.31,2.27,7.16,3.68s5,2.55,6.47,3.4A18.21,18.21,0,0,1,36.62,100a3.92,3.92,0,0,1,1.15,2.94q0,4-4.73,4-6.46,0-23.73-5.1a3.2,3.2,0,0,0-4.11,2.84L3.51,129.19a3.2,3.2,0,0,0,2.3,3.3,111.57,111.57,0,0,0,30.51,4.23q16.83,0,25.82-10t9-28.22Q71.13,80.29,59.24,70.9ZM282,20.71H259.1a3.2,3.2,0,0,0-3.2,3.2V67.23H255L237.8,22.76a3.18,3.18,0,0,0-3-2.05H208.07a3.2,3.2,0,0,0-3.2,3.2v4.77l-13.25-6.54a3.19,3.19,0,0,1-1.75-2.41l-2.47-17A3.2,3.2,0,0,0,181.94,1L170,13.26a3.17,3.17,0,0,1-2.83.92l-16.92-2.9a3.2,3.2,0,0,0-3.37,4.64l8,15.2a3.2,3.2,0,0,1,0,3l-5.11,9.72q-2.11-8.8-6.85-13.92-8.53-9.18-27.26-9.19H81.94a3.2,3.2,0,0,0-3.2,3.2V131.68a3.2,3.2,0,0,0,3.2,3.2h25.59a3.2,3.2,0,0,0,3.2-3.2V102.41a3.19,3.19,0,0,1,3.2-3.19h3.35q17.67,0,25.9-8.92t8.22-30.06c0-2.26-.08-4.41-.22-6.47L167.13,51A3.19,3.19,0,0,1,170,52l10.85,11.13h-18a3.2,3.2,0,0,0-3.2,3.2v65.4a3.2,3.2,0,0,0,3.2,3.2h25.74a3.2,3.2,0,0,0,3.2-3.2V66.28a3.2,3.2,0,0,0-3.2-3.2h-1.33a2.87,2.87,0,0,0,.16-.61l2.47-17a3.16,3.16,0,0,1,1.75-2.4l13.25-6.55v95.15a3.2,3.2,0,0,0,3.2,3.2h22.55a3.19,3.19,0,0,0,3.19-3.2V89.84h1.07l18.37,43.1a3.19,3.19,0,0,0,2.94,1.94H282a3.2,3.2,0,0,0,3.2-3.2V23.91A3.2,3.2,0,0,0,282,20.71ZM118.88,72.56a4.78,4.78,0,0,1-4.8,2.94h-.76a3.2,3.2,0,0,1-3.2-3.2V53a3.2,3.2,0,0,1,3.2-3.2q4,0,5.41,2.94c1,2,1.45,5.27,1.45,9.93S119.74,70.6,118.88,72.56Z"/><path class="cls-2" d="M26.44,167.49a8.18,8.18,0,0,0-1-.88,4.43,4.43,0,0,0-1.13-.6c-.38-.14-.74-.25-1.06-.35a2.48,2.48,0,0,0-.79-.14l-.34,0a6.07,6.07,0,0,1-2.34,2.79,6.84,6.84,0,0,1-3.72,1,6.26,6.26,0,0,1-4.83-2.09,8.6,8.6,0,0,1,0-10.82,6.36,6.36,0,0,1,4.87-2,6.79,6.79,0,0,1,3.55.93A6.25,6.25,0,0,1,22,157.93l.34,0a2.48,2.48,0,0,0,.79-.14l1-.34a4.82,4.82,0,0,0,1.13-.61,7.34,7.34,0,0,0,1-.88,3.79,3.79,0,0,0,.75-1.19,4.12,4.12,0,0,0,.29-1.53,4.6,4.6,0,0,0-.39-1.79,6.35,6.35,0,0,0-1.3-1.87,9.57,9.57,0,0,0-2.23-1.7,12.44,12.44,0,0,0-3.33-1.22,19.7,19.7,0,0,0-4.44-.47,17,17,0,0,0-6.36,1.17,14.33,14.33,0,0,0-5,3.22,14.46,14.46,0,0,0-3.19,4.95A16.75,16.75,0,0,0,0,161.82a16.57,16.57,0,0,0,2,8.12,13.89,13.89,0,0,0,5.52,5.57,16.48,16.48,0,0,0,8.15,2,19.76,19.76,0,0,0,4.5-.49,12.47,12.47,0,0,0,3.39-1.27A10.07,10.07,0,0,0,25.77,174a6.65,6.65,0,0,0,1.32-1.93,4.65,4.65,0,0,0,.41-1.84,3.94,3.94,0,0,0-.3-1.53A3.79,3.79,0,0,0,26.44,167.49ZM74,149.18a3.12,3.12,0,0,0-1.59-1.9,9.58,9.58,0,0,0-4.12-.63,9.89,9.89,0,0,0-4.18.64,3.1,3.1,0,0,0-1.67,1.89l-9.67,25.19a1.37,1.37,0,0,0,0,.19,1.48,1.48,0,0,0,.52.92,6.57,6.57,0,0,0,4.25,1.77c2.35,0,4-1.44,5-4.3l.83-2.31H73l.83,2.22a7.36,7.36,0,0,0,2.29,3.36,5,5,0,0,0,3,1,6.2,6.2,0,0,0,2.55-.57,5.65,5.65,0,0,0,1.9-1.27,1.57,1.57,0,0,0,.49-.94,1.23,1.23,0,0,0,0-.19ZM65,164l3.17-8.7,3.24,8.7ZM131.37,161a14.69,14.69,0,0,0-3.22-1.83,25.75,25.75,0,0,0-4.09-1.26c-.48-.1-1.07-.21-1.76-.32s-1.21-.21-1.57-.29a9.17,9.17,0,0,1-1.13-.31,1.83,1.83,0,0,1-.83-.53,1.42,1.42,0,0,1-.24-.85q0-2.31,4-2.31a10.58,10.58,0,0,1,4.2.91,12.31,12.31,0,0,1,3.66,2.32c.05,0,.19,0,.42-.14a6.24,6.24,0,0,0,.82-.67,11.78,11.78,0,0,0,.93-1,5.29,5.29,0,0,0,.78-1.32,3.68,3.68,0,0,0,.33-1.48c0-1.61-.95-3-2.85-4.06s-4.69-1.64-8.37-1.64q-6.11,0-9.4,2.66a8.88,8.88,0,0,0-3.31,7.31,8.67,8.67,0,0,0,.58,3.25,7.51,7.51,0,0,0,1.49,2.43,9.41,9.41,0,0,0,2.27,1.72,14.45,14.45,0,0,0,2.68,1.17,25.48,25.48,0,0,0,3,.77l1.41.29,1.32.26a9.84,9.84,0,0,1,1,.26,2.78,2.78,0,0,1,.87.37,1.83,1.83,0,0,1,.49.54,1.4,1.4,0,0,1,.22.79q0,2.36-4.16,2.35a12.75,12.75,0,0,1-4.79-1,13.47,13.47,0,0,1-4-2.44c-.06,0-.2,0-.41.15a5.12,5.12,0,0,0-.77.67,9.63,9.63,0,0,0-.85,1,5.35,5.35,0,0,0-.71,1.24,3.29,3.29,0,0,0-.29,1.32,4.37,4.37,0,0,0,.64,2.31,6.19,6.19,0,0,0,2,2A10.88,10.88,0,0,0,115.4,177a26.47,26.47,0,0,0,5.52.51q6.64,0,10-2.63a9,9,0,0,0,3.39-7.57,8.17,8.17,0,0,0-.76-3.6A7.41,7.41,0,0,0,131.37,161Zm35.42-14.37h-1.32q-3.83,0-3.83,4.3v21.82c0,2.86,1.28,4.3,3.83,4.3h1.32c2.65,0,4-1.44,4-4.3V151Q170.76,146.65,166.79,146.65Zm56.81,0h-.79c-2.66,0-4,1.43-4,4.3V162.8l-10.7-14a8.05,8.05,0,0,0-1.83-1.72,4.72,4.72,0,0,0-2.31-.45h-.87a3.57,3.57,0,0,0-2.79,1.09,4.6,4.6,0,0,0-1,3.21v21.82c0,2.86,1.29,4.3,3.87,4.3H204c2.67,0,4-1.44,4-4.3v-12L218.9,175a6.7,6.7,0,0,0,1.76,1.62,5,5,0,0,0,2.33.42h.75a3.5,3.5,0,0,0,2.74-1.1,4.63,4.63,0,0,0,1-3.2V151Q227.47,146.65,223.6,146.65Zm60.51,7.11a14.14,14.14,0,0,0-5.59-5.55,17.48,17.48,0,0,0-16.24,0,14.36,14.36,0,0,0-5.62,5.58,16.15,16.15,0,0,0-2,8.06,16.72,16.72,0,0,0,1.17,6.29,14.18,14.18,0,0,0,8.24,8.17,17,17,0,0,0,6.35,1.17,16.49,16.49,0,0,0,8.11-2,14.22,14.22,0,0,0,5.59-5.53,17.44,17.44,0,0,0,0-16.22Zm-8.93,13.53a6,6,0,0,1-4.77,2,6.13,6.13,0,0,1-4.82-2,7.82,7.82,0,0,1-1.81-5.42,7.92,7.92,0,0,1,1.8-5.46,6.14,6.14,0,0,1,4.83-2,6,6,0,0,1,4.77,2.06,8,8,0,0,1,1.8,5.43A7.86,7.86,0,0,1,275.18,167.29Z"/></g></g></svg>