<svg xmlns="http://www.w3.org/2000/svg" version="1.2" baseProfile="tiny" viewBox="0 0 160.3 31.9"><g fill="#f66363"><path d="M83.4 2.1c-1.8 0-3.3 1.4-3.3 3.3 0 1.8 1.4 3.3 3.3 3.3 1.8 0 3.3-1.4 3.3-3.3s-1.5-3.3-3.3-3.3zm0 4.5c-.7 0-1.3-.6-1.3-1.3S82.7 4 83.4 4c.7 0 1.3.6 1.3 1.3s-.6 1.3-1.3 1.3zm-49.3 2c.8 0 1.4-.6 1.4-1.4s-.6-1.4-1.4-1.4c-.7 0-1.4.6-1.4 1.3 0 .9.6 1.5 1.4 1.5zm5.5 0c.8 0 1.4-.6 1.5-1.4 0-.8-.7-1.4-1.5-1.4s-1.4.6-1.4 1.4c0 .8.6 1.4 1.4 1.4z"></path><path d="M159 14.9c-.2 0-.4.1-.5.2l-7.1 4.7c-.2.1-.4.2-.7.2-.8 0-1.5-.6-1.5-1.4 0-.1 0-.2.1-.4l1.1-3.9c.1-.3.1-.6.1-.9 0-1.9-1.6-3.4-3.5-3.4-.4 0-.8.1-1.2.2-.2-.2-.4-.3-.7-.2-.4 0-.8.3-1 .7l-.1.5-5.7 3.9c-.1 0-.1.1-.2.1l-6.8 4.6c-.2.1-.4.2-.6.2-.7 0-1.3-.5-1.4-1.2l5.6-3.9c.4-.3.5-1 .5-1.5 0-1.9-1.5-3.4-3.4-3.4-.7 0-1.3.2-1.9.6l-6.8 4.5-6.1 4.1 2-7.8v-.1c0-.1 0-.2.1-.3 0-.5-.5-1-1-1-.2 0-.4 0-.6.2l-7.3 4.9-7 4.7c-.2.1-.4.2-.7.2-.8 0-1.5-.6-1.5-1.4 0-.1 0-.2.1-.4l1.1-3.9c.1-.3.1-.6.1-.9 0-1.9-1.6-3.4-3.5-3.4-.4 0-.8.1-1.2.2-.2-.2-.4-.3-.7-.2-.4 0-.8.3-1 .7l-.1.5-5.7 3.9c-.1 0-.1.1-.1.1l-6.9 4.6c-.3.1-.5.2-.7.2-.8 0-1.4-.6-1.4-1.4v-.4l1.8-6.9c0-.1 0-.2.1-.3 0-.5-.5-1-1-1-.2 0-.4 0-.6.2l-7.3 4.9-7 4.7c-.2.1-.4.2-.6.2-.8 0-1.4-.6-1.4-1.4 0-.1 0-.2.1-.4l.8-3.4 5.1-3.4c.7-.4 1.1-1.2 1.3-1.9l1.3-5.2c.1-.3.1-.5.1-.8 0-1.9-1.5-3.4-3.4-3.4-1.6 0-3 1-3.3 2.6l-2.9 10.9-2.3 1.6-7 4.7c-.2.1-.4.2-.6.2-.8 0-1.4-.6-1.5-1.4 0-.1 0-.2.1-.3L56.8 4c0-.1 0-.2.1-.3 0-.6-.5-1-1.1-1-.4 0-.8.3-1 .7l-2 7.5c-1.2-1-2.9-1.1-4.1-.2L42 15.2c-.1.1-.2.1-.3.2-.4.3-.8.6-1.3.6-.8 0-1.4-.6-1.5-1.4 0-.2 0-.3.1-.4.1-.2.1-.4.1-.6 0-1.9-1.5-3.4-3.4-3.4h-.1c-.7 0-1.3.2-1.9.5l-6.9 4.6-7 4.7c-.2.1-.4.2-.7.2-.8 0-1.4-.6-1.4-1.4 0-.1 0-.2.1-.4l1.6-6.2H22c.5 0 1-.4 1-1 0-.5-.4-1-1-1h-2.3L21.3 4v-.1c0-.1 0-.2.1-.3 0-.6-.5-1-1.1-1-.4 0-.8.3-1 .7l-1.9 7.2-5.6 3.7c0-1.9-.8-3.3-2.5-4.5L7.8 8.4c-.3-.2-.5-.6-.5-1.1v-.4h2.2c2.1 0 3.6-1.5 3.6-3.5 0-.9-.3-1.7-.9-2.4-.6-.6-1.6-1-2.5-1-1.6 0-3 1.1-3.3 2.6L5.8 5H1c-.5 0-1 .5-1 1s.4 1 1 1h4.3v.4c0 1.1.6 2.2 1.5 2.8l1.5 1c1.1.7 1.6 1.6 1.6 2.9 0 .5-.1.9-.2 1.4l-.6 2.2C8.8 19 7.6 20 6.2 20c-1.7 0-3.1-1.4-3.1-3.1 0-.2 0-.3.1-.5 0-.2.1-.3.1-.4 0-.5-.4-1-1-1-1.1 0-1.1 1.3-1.1 2 0 2.8 2.2 5.1 5 5.1 2.3 0 4.4-1.6 4.9-3.9l.4-1.4 5.1-3.4-1.1 4.4c-.1.3-.1.6-.1.9 0 1.9 1.5 3.4 3.4 3.4h.1c.6 0 1.3-.2 1.8-.5l7-4.7h.1l3.8-2.5-.9 3.4c-.1.3-.1.6-.1.9 0 1.9 1.6 3.4 3.5 3.4 1.5 0 2.9-1.1 3.3-2.6l.6-2.3c.6.5 1.3.8 2.2.8 1.1 0 1.7-.4 2.5-1 .1-.1.2-.1.3-.2l3.8-2.5-.9 3.4v.2c-.1.3-.1.5-.1.8 0 1.9 1.6 3.4 3.5 3.4 1 0 1.9-.4 2.5-1.2.6.7 1.6 1.2 2.6 1.2.6 0 1.2-.2 1.7-.5l7-4.7.1-.1.3-.2-.5 1.1c-.1.3-.1.6-.1.9 0 1.9 1.5 3.5 3.4 3.5h.1c.6 0 1.2-.2 1.7-.5l7-4.7.1-.1 5-3.4-1.1 4.4c0 .2-.1.5-.1.8 0 1.9 1.6 3.4 3.5 3.4.6 0 1.2-.2 1.7-.5l7-4.7.1-.1 3.7-2.4-1.6 6.7c0 .5.4 1 .9 1h.1c.4 0 .9-.3 1-.7l2.2-8.2c.2-.6.7-1 1.3-1 .8 0 1.4.6 1.4 1.4v.3l-1 3.9c-.2.3-.3.6-.3.9 0 1.9 1.6 3.4 3.5 3.5.6 0 1.3-.2 1.8-.5l7.1-4.7 5.1-3.4-1.9 7.5-5.2 3.5c-.6.4-1.1 1.1-1.3 1.9l-.3 1.3c-.1.3-.1.5-.1.8 0 1.9 1.6 3.4 3.5 3.4 1.5 0 2.9-1 3.3-2.5l1.9-7.2 8.1-5.4.1-.1 3.7-2.5-.9 3.5c-.1.3-.1.6-.1.9 0 1.9 1.4 3.4 3.3 3.5h.2c.6 0 1.3-.2 1.8-.5l7-4.7.1-.1 3.7-2.4-1.7 6.7v.1c0 .5.4 1 .9 1h.1c.4 0 .9-.3 1-.7l2.2-8.2c.2-.6.7-1 1.3-1 .8 0 1.4.6 1.4 1.4v.3l-1 3.9c-.1.3-.1.6-.1.9 0 1.9 1.6 3.4 3.5 3.5.6 0 1.3-.2 1.8-.5l7.1-4.7c.3-.2.4-.5.4-.8-.3-.9-.7-1.3-1.3-1.4zM129.9 16l.7-2.9c.2-.6.8-1.1 1.4-1.1.8 0 1.4.6 1.4 1.3v.1l-3.5 2.6zm-63.3-4.2L68.9 3c.2-.7 1-1.2 1.7-1 .6.2 1.1.7 1.1 1.4v.3l-1.3 5.1c-.1.3-.3.6-.6.8l-3.2 2.2zm-14.8 1.6v.4L50.4 19c-.2.5-.7 1-1.4 1-.8 0-1.4-.6-1.4-1.4 0-.2 0-.3.1-.4l1.3-5.1c.1-.6.7-1.1 1.3-1.1.7 0 1.5.5 1.5 1.4zm-15.1 0v.4L35.4 19c-.2.6-.7 1.1-1.4 1.1-.8 0-1.4-.7-1.4-1.4 0-.1 0-.2.1-.4l1.3-5.1c.2-.6.7-1.1 1.4-1.1.6-.1 1.3.5 1.3 1.3zM7.9 5l.5-1.9c.1-.6.6-1 1.3-1.1.8 0 1.4.6 1.4 1.3v.1c0 .8-.6 1.5-1.4 1.5H7.9V5zm105.9 18.8l-1.3 5c-.2.7-1 1.2-1.7 1-.6-.2-1-.7-1-1.3v-.4l.3-1.3c.1-.3.2-.5.4-.7l3.3-2.3z"></path><path d="M119.6 2.1c-1.8 0-3.3 1.4-3.3 3.3 0 1.8 1.4 3.3 3.3 3.3 1.8 0 3.3-1.4 3.3-3.3s-1.5-3.3-3.3-3.3zm0 4.5c-.7 0-1.3-.6-1.3-1.3s.6-1.3 1.3-1.3c.7 0 1.3.6 1.3 1.3s-.6 1.3-1.3 1.3z"></path></g></svg>