<svg xmlns="http://www.w3.org/2000/svg" xmlns:xlink="http://www.w3.org/1999/xlink" version="1.1" id="Layer_1" x="0px" y="0px" viewBox="0 0 252 54" style="enable-background:new 0 0 252 54;" xml:space="preserve"><style type="text/css">	.st0{fill:url(#SVGID_1_);}	.st1{fill:url(#SVGID_2_);}	.st2{fill:url(#SVGID_3_);}	.st3{fill:url(#SVGID_4_);}	.st4{fill:url(#SVGID_5_);}	.st5{fill:url(#SVGID_6_);}	.st6{fill:url(#SVGID_7_);}	.st7{fill:url(#SVGID_8_);}	.st8{fill:url(#SVGID_9_);}	.st9{fill:url(#SVGID_10_);}	.st10{fill:url(#SVGID_11_);}	.st11{fill:url(#SVGID_12_);}	.st12{fill:url(#SVGID_13_);}	.st13{fill:url(#SVGID_14_);}	.st14{fill:url(#SVGID_15_);}	.st15{fill:url(#SVGID_16_);}	.st16{fill:url(#SVGID_17_);}	.st17{fill:url(#SVGID_18_);}	.st18{fill:#E09E75;}</style><g><g><g><linearGradient id="SVGID_1_" gradientUnits="userSpaceOnUse" x1="312.0729" y1="184.5411" x2="312.0729" y2="142.1525" gradientTransform="matrix(-1 0 0 -1 351.4299 182.748)"><stop offset="0" style="stop-color:#AA5C19"></stop><stop offset="0.5084" style="stop-color:#D09C54"></stop><stop offset="1" style="stop-color:#AD621E"></stop></linearGradient><path class="st0" d="M36.1,19.7c0,2.1,1.5,4.3,3.3,5c1.8,0.6,3.3-0.6,3.3-2.7c0-2.1-1.5-4.3-3.3-5C37.6,16.4,36.1,17.6,36.1,19.7     z"></path><linearGradient id="SVGID_2_" gradientUnits="userSpaceOnUse" x1="318.7151" y1="184.5411" x2="318.7151" y2="142.1525" gradientTransform="matrix(-1 0 0 -1 351.4299 182.748)"><stop offset="0" style="stop-color:#966135"></stop><stop offset="0.5084" style="stop-color:#E09E75"></stop><stop offset="1" style="stop-color:#966135"></stop></linearGradient><path class="st1" d="M29.5,25.1c0,2.1,1.5,4.3,3.3,5c1.8,0.6,3.3-0.6,3.3-2.7c0-2.1-1.5-4.3-3.3-5C30.9,21.8,29.5,23,29.5,25.1z"></path><linearGradient id="SVGID_3_" gradientUnits="userSpaceOnUse" x1="305.4508" y1="184.5411" x2="305.4508" y2="142.1525" gradientTransform="matrix(-1 0 0 -1 351.4299 182.748)"><stop offset="0" style="stop-color:#966135"></stop><stop offset="0.5084" style="stop-color:#E09E75"></stop><stop offset="1" style="stop-color:#966135"></stop></linearGradient><path class="st2" d="M42.7,14.2c0,2.1,1.5,4.3,3.3,5c1.8,0.6,3.3-0.6,3.3-2.7c0-2.1-1.5-4.3-3.3-5C44.2,10.9,42.7,12.1,42.7,14.2     z"></path><linearGradient id="SVGID_4_" gradientUnits="userSpaceOnUse" x1="312.0931" y1="184.5411" x2="312.0931" y2="142.1525" gradientTransform="matrix(-1 0 0 -1 351.4299 182.748)"><stop offset="0" style="stop-color:#966135"></stop><stop offset="0.5084" style="stop-color:#E09E75"></stop><stop offset="1" style="stop-color:#966135"></stop></linearGradient><path class="st3" d="M39.3,24.6c1.8,0.6,3.3-0.6,3.3-2.7c0-2.1-1.5-4.3-3.3-5c-1.8-0.6-3.3,0.6-3.3,2.7     C36.1,21.8,37.5,24,39.3,24.6z"></path><linearGradient id="SVGID_5_" gradientUnits="userSpaceOnUse" x1="305.4508" y1="184.5411" x2="305.4508" y2="142.1525" gradientTransform="matrix(-1 0 0 -1 351.4299 182.748)"><stop offset="0" style="stop-color:#966135"></stop><stop offset="0.5084" style="stop-color:#E09E75"></stop><stop offset="1" style="stop-color:#966135"></stop></linearGradient><path class="st4" d="M46,34.7c1.8,0.6,3.3-0.6,3.3-2.7c0-2.1-1.5-4.3-3.3-5c-1.8-0.6-3.3,0.6-3.3,2.7     C42.7,31.9,44.2,34.1,46,34.7z"></path><linearGradient id="SVGID_6_" gradientUnits="userSpaceOnUse" x1="318.7151" y1="184.5411" x2="318.7151" y2="142.1525" gradientTransform="matrix(-1 0 0 -1 351.4299 182.748)"><stop offset="0" style="stop-color:#966135"></stop><stop offset="0.5084" style="stop-color:#E09E75"></stop><stop offset="1" style="stop-color:#966135"></stop></linearGradient><path class="st5" d="M32.7,14.6c1.8,0.6,3.3-0.6,3.3-2.7c0-2.1-1.5-4.3-3.3-5c-1.8-0.6-3.3,0.6-3.3,2.7     C29.5,11.7,30.9,13.9,32.7,14.6z"></path></g><g><linearGradient id="SVGID_7_" gradientUnits="userSpaceOnUse" x1="-5.5067" y1="33.2568" x2="32.2756" y2="11.4432"><stop offset="0" style="stop-color:#966135"></stop><stop offset="0.5084" style="stop-color:#E09E75"></stop><stop offset="1" style="stop-color:#966135"></stop></linearGradient><path class="st6" d="M25.7,32.1l0-32.1L1.1,12.6l0,32.1L25.7,32.1z M19.3,23.2c1.6-0.8,2.9,0.2,2.9,2.3c0,2.1-1.3,4.5-2.9,5.3     c-1.6,0.8-2.9-0.2-2.9-2.3C16.4,26.5,17.7,24.1,19.3,23.2z M13.4,18.5C13.4,18.5,13.4,18.5,13.4,18.5     C13.4,18.5,13.4,18.5,13.4,18.5c1.6-0.8,2.9,0.2,2.9,2.3c0,2.1-1.3,4.5-2.9,5.3c0,0,0,0,0,0c0,0,0,0,0,0     c-1.6,0.8-2.9-0.2-2.9-2.3C10.4,21.7,11.8,19.4,13.4,18.5z M7.4,13.8C9,13,10.4,14,10.4,16.1c0,2.1-1.3,4.5-2.9,5.3     c-1.6,0.8-2.9-0.2-2.9-2.3C4.5,17,5.8,14.6,7.4,13.8z"></path></g></g><g><linearGradient id="SVGID_8_" gradientUnits="userSpaceOnUse" x1="73.0261" y1="-0.1912" x2="73.0261" y2="48.3629"><stop offset="0" style="stop-color:#966135"></stop><stop offset="0.5084" style="stop-color:#E09E75"></stop><stop offset="1" style="stop-color:#966135"></stop></linearGradient><path class="st7" d="M68.4,17.1c0,2.1,2.2,3.5,4.7,3.6c3.6,0.3,7.1,2.4,7.1,5.7V31c0,3.8-3.3,6.8-7.2,6.8c-4,0-7.2-3.1-7.2-6.8    v-3.1h2.6V31c0,2.2,2.2,4.2,4.6,4.2c2.6,0,4.6-2,4.6-4.2v-4.6c0-1.9-2.2-3.2-4.6-3.2c-3.8,0-7.2-2.6-7.2-6.1v-4.7    c0-3.8,3.2-6.8,7.2-6.8c4,0,7.2,3.1,7.2,6.8v3.2h-2.6v-3.2c0-2.4-2.2-4.2-4.6-4.2c-2.6,0-4.6,2-4.6,4.2V17.1z"></path><linearGradient id="SVGID_9_" gradientUnits="userSpaceOnUse" x1="89.6381" y1="-0.1912" x2="89.6381" y2="48.3629"><stop offset="0" style="stop-color:#966135"></stop><stop offset="0.5084" style="stop-color:#E09E75"></stop><stop offset="1" style="stop-color:#966135"></stop></linearGradient><path class="st8" d="M91,37.7h-2.6V8.1h-5.7V5.5h13.9v2.6H91V37.7z"></path><linearGradient id="SVGID_10_" gradientUnits="userSpaceOnUse" x1="107.2134" y1="-0.1912" x2="107.2134" y2="48.3629"><stop offset="0" style="stop-color:#966135"></stop><stop offset="0.5084" style="stop-color:#E09E75"></stop><stop offset="1" style="stop-color:#966135"></stop></linearGradient><path class="st9" d="M115.1,31.4c0,3.7-3.7,6.5-7.9,6.5c-4.1,0-7.9-2.8-7.9-6.5V12c0-3.7,3.8-6.5,7.9-6.5c4.2,0,7.9,2.8,7.9,6.5    V31.4z M112.5,31.4V12c0-2.3-2.5-4-5.3-4c-2.8,0-5.3,1.7-5.3,4v19.4c0,2.3,2.6,4,5.3,4C110,35.4,112.5,33.7,112.5,31.4z"></path><linearGradient id="SVGID_11_" gradientUnits="userSpaceOnUse" x1="126.2043" y1="-0.1912" x2="126.2043" y2="48.3629"><stop offset="0" style="stop-color:#966135"></stop><stop offset="0.5084" style="stop-color:#E09E75"></stop><stop offset="1" style="stop-color:#966135"></stop></linearGradient><path class="st10" d="M121.8,37.7h-2.6l0-32.1h6.8c3.8,0,6.9,3.1,6.9,6.8v7.9c0,1.8-1.1,3.5-2.8,4.8c2,1.3,3.1,3.3,3.1,5.2v7.4    h-2.6v-7.4c0-2.1-2-4-4.3-4h-4.4V37.7z M121.8,8.1v16h4.4c2.3,0,4-1.8,4-3.8v-7.9c0-2.4-1.8-4.2-4.2-4.2H121.8z"></path><linearGradient id="SVGID_12_" gradientUnits="userSpaceOnUse" x1="144.5063" y1="-0.1912" x2="144.5063" y2="48.3629"><stop offset="0" style="stop-color:#966135"></stop><stop offset="0.5084" style="stop-color:#E09E75"></stop><stop offset="1" style="stop-color:#966135"></stop></linearGradient><path class="st11" d="M139.9,17.1c0,2.1,2.2,3.5,4.7,3.6c3.6,0.3,7.1,2.4,7.1,5.7V31c0,3.8-3.3,6.8-7.2,6.8c-4,0-7.2-3.1-7.2-6.8    v-3.1h2.6V31c0,2.2,2.2,4.2,4.6,4.2c2.6,0,4.6-2,4.6-4.2v-4.6c0-1.9-2.2-3.2-4.6-3.2c-3.8,0-7.2-2.6-7.2-6.1v-4.7    c0-3.8,3.2-6.8,7.2-6.8c4,0,7.2,3.1,7.2,6.8v3.2h-2.6v-3.2c0-2.4-2.2-4.2-4.6-4.2c-2.6,0-4.6,2-4.6,4.2V17.1z"></path><linearGradient id="SVGID_13_" gradientUnits="userSpaceOnUse" x1="162.4548" y1="-0.1912" x2="162.4548" y2="48.3629"><stop offset="0" style="stop-color:#966135"></stop><stop offset="0.5084" style="stop-color:#E09E75"></stop><stop offset="1" style="stop-color:#966135"></stop></linearGradient><path class="st12" d="M169.3,20.3c0,3.8-3.1,6.8-6.8,6.8h-4.2v10.5h-2.6l0-32.1h6.8c3.7,0,6.8,3.1,6.8,6.8V20.3z M158.2,8.1v16.4    h4.2c2.2,0,4.2-2,4.2-4.2v-7.9c0-2.2-2-4.2-4.2-4.2H158.2z"></path><linearGradient id="SVGID_14_" gradientUnits="userSpaceOnUse" x1="178.4173" y1="-0.1912" x2="178.4173" y2="48.3629"><stop offset="0" style="stop-color:#966135"></stop><stop offset="0.5084" style="stop-color:#E09E75"></stop><stop offset="1" style="stop-color:#966135"></stop></linearGradient><path class="st13" d="M184.6,5.5v2.6h-9.7v9.7h8.7V20h-8.7v15.1h9.7v2.6h-12.3l0-32.1H184.6z"></path><linearGradient id="SVGID_15_" gradientUnits="userSpaceOnUse" x1="193.1017" y1="-0.1912" x2="193.1017" y2="48.3629"><stop offset="0" style="stop-color:#966135"></stop><stop offset="0.5084" style="stop-color:#E09E75"></stop><stop offset="1" style="stop-color:#966135"></stop></linearGradient><path class="st14" d="M198.3,37.7h-10.5l0-32.1h2.6v29.5h7.9V37.7z"></path><linearGradient id="SVGID_16_" gradientUnits="userSpaceOnUse" x1="208.6516" y1="-0.1912" x2="208.6516" y2="48.3629"><stop offset="0" style="stop-color:#966135"></stop><stop offset="0.5084" style="stop-color:#E09E75"></stop><stop offset="1" style="stop-color:#966135"></stop></linearGradient><path class="st15" d="M214.3,37.7l-1.5-5.6h-8.5l-1.4,5.6h-2.7l6.4-32.1h3.5l6.7,32.1H214.3z M212.5,29.8L208.5,10    c-1.2,6.2-2.4,12.2-3.8,19.8H212.5z"></path><linearGradient id="SVGID_17_" gradientUnits="userSpaceOnUse" x1="227.1709" y1="-0.1912" x2="227.1709" y2="48.3629"><stop offset="0" style="stop-color:#966135"></stop><stop offset="0.5084" style="stop-color:#E09E75"></stop><stop offset="1" style="stop-color:#966135"></stop></linearGradient><path class="st16" d="M222.8,37.7h-2.6l0-32.1h6.8c3.8,0,6.9,3.1,6.9,6.8v7.9c0,1.8-1.1,3.5-2.8,4.8c2,1.3,3.1,3.3,3.1,5.2v7.4    h-2.6v-7.4c0-2.1-2-4-4.3-4h-4.4V37.7z M222.8,8.1v16h4.4c2.3,0,4-1.8,4-3.8v-7.9c0-2.4-1.8-4.2-4.2-4.2H222.8z"></path><linearGradient id="SVGID_18_" gradientUnits="userSpaceOnUse" x1="244.5881" y1="-0.1912" x2="244.5881" y2="48.3629"><stop offset="0" style="stop-color:#966135"></stop><stop offset="0.5084" style="stop-color:#E09E75"></stop><stop offset="1" style="stop-color:#966135"></stop></linearGradient><path class="st17" d="M250.8,5.5v2.6H241v9.7h8.7V20H241v15.1h9.7v2.6h-12.3l0-32.1H250.8z"></path></g></g><g><path class="st18" d="M69,45.2c-0.7,0-1.2,0.2-1.6,0.7s-0.6,1.1-0.6,2c0,0.9,0.2,1.5,0.6,2c0.4,0.4,0.9,0.7,1.6,0.7   c0.3,0,0.6,0,0.9-0.1c0.3-0.1,0.6-0.1,0.9-0.2v1c-0.6,0.2-1.2,0.3-1.9,0.3c-1,0-1.8-0.3-2.4-0.9c-0.6-0.6-0.8-1.5-0.8-2.7   c0-0.7,0.1-1.4,0.4-1.9c0.3-0.6,0.7-1,1.2-1.3s1.1-0.4,1.8-0.4c0.7,0,1.4,0.2,2,0.5l-0.4,1c-0.2-0.1-0.5-0.2-0.8-0.3   C69.6,45.3,69.3,45.2,69,45.2z"></path><path class="st18" d="M76.7,51.5l-0.2-0.8h0c-0.3,0.3-0.5,0.6-0.8,0.7c-0.3,0.1-0.6,0.2-1,0.2c-0.5,0-0.9-0.1-1.2-0.4   c-0.3-0.3-0.4-0.7-0.4-1.2c0-0.6,0.2-1,0.6-1.3s1-0.4,1.9-0.5l0.9,0v-0.3c0-0.3-0.1-0.6-0.2-0.8c-0.2-0.2-0.4-0.3-0.8-0.3   c-0.3,0-0.5,0-0.8,0.1s-0.5,0.2-0.7,0.3l-0.4-0.8c0.3-0.2,0.6-0.3,1-0.3c0.3-0.1,0.7-0.1,1-0.1c0.7,0,1.2,0.1,1.6,0.4   c0.4,0.3,0.5,0.8,0.5,1.4v3.6H76.7z M75,50.7c0.4,0,0.8-0.1,1-0.3c0.3-0.2,0.4-0.6,0.4-1v-0.5l-0.7,0c-0.5,0-0.9,0.1-1.2,0.3   c-0.2,0.2-0.4,0.4-0.4,0.7c0,0.2,0.1,0.4,0.2,0.6C74.5,50.6,74.8,50.7,75,50.7z"></path><path class="st18" d="M84,49.9c0,0.5-0.2,0.9-0.6,1.2c-0.4,0.3-0.9,0.4-1.7,0.4c-0.7,0-1.3-0.1-1.7-0.3v-1c0.6,0.3,1.2,0.4,1.8,0.4   c0.7,0,1.1-0.2,1.1-0.6c0-0.1,0-0.3-0.1-0.3s-0.2-0.2-0.4-0.3s-0.4-0.2-0.7-0.3c-0.6-0.2-1-0.5-1.3-0.7c-0.2-0.2-0.3-0.6-0.3-0.9   c0-0.5,0.2-0.8,0.6-1.1c0.4-0.3,0.9-0.4,1.5-0.4c0.6,0,1.2,0.1,1.8,0.4l-0.4,0.9c-0.6-0.2-1.1-0.4-1.5-0.4c-0.6,0-0.9,0.2-0.9,0.5   c0,0.2,0.1,0.3,0.2,0.4c0.2,0.1,0.5,0.3,1,0.5c0.4,0.2,0.8,0.3,1,0.5s0.4,0.3,0.4,0.5C83.9,49.5,84,49.7,84,49.9z"></path><path class="st18" d="M86.3,44.6c0-0.2,0.1-0.4,0.2-0.5c0.1-0.1,0.3-0.2,0.5-0.2c0.2,0,0.4,0.1,0.5,0.2c0.1,0.1,0.2,0.3,0.2,0.5   c0,0.2-0.1,0.3-0.2,0.5c-0.1,0.1-0.3,0.2-0.5,0.2c-0.2,0-0.4-0.1-0.5-0.2C86.4,45,86.3,44.8,86.3,44.6z M87.5,51.5h-1.1v-5.4h1.1   V51.5z"></path><path class="st18" d="M95.1,51.5h-1.2v-3.3c0-0.4-0.1-0.7-0.3-0.9c-0.2-0.2-0.4-0.3-0.8-0.3c-0.5,0-0.8,0.1-1.1,0.4   s-0.3,0.8-0.3,1.4v2.7h-1.1v-5.4h0.9l0.2,0.7h0.1c0.2-0.3,0.4-0.5,0.7-0.6s0.6-0.2,1-0.2c1.3,0,1.9,0.7,1.9,2V51.5z"></path><path class="st18" d="M102.6,48.8c0,0.9-0.2,1.6-0.7,2.1s-1.1,0.7-1.9,0.7c-0.5,0-1-0.1-1.3-0.3s-0.7-0.6-0.9-1s-0.3-0.9-0.3-1.5   c0-0.9,0.2-1.6,0.7-2.1s1.1-0.7,1.9-0.7c0.8,0,1.4,0.3,1.9,0.8C102.4,47.2,102.6,47.9,102.6,48.8z M98.7,48.8   c0,1.2,0.5,1.9,1.4,1.9c0.9,0,1.4-0.6,1.4-1.9c0-1.2-0.5-1.9-1.4-1.9c-0.5,0-0.8,0.2-1,0.5C98.8,47.7,98.7,48.2,98.7,48.8z"></path><path class="st18" d="M111.6,46.9h-1.3v4.5h-1.2v-4.5h-0.9v-0.5l0.9-0.4v-0.4c0-0.6,0.1-1.1,0.4-1.4c0.3-0.3,0.8-0.5,1.4-0.5   c0.4,0,0.8,0.1,1.2,0.2l-0.3,0.9c-0.3-0.1-0.6-0.1-0.8-0.1c-0.3,0-0.5,0.1-0.6,0.2c-0.1,0.2-0.2,0.4-0.2,0.7v0.4h1.3V46.9z"></path><path class="st18" d="M118.5,48.8c0,0.9-0.2,1.6-0.7,2.1s-1.1,0.7-1.9,0.7c-0.5,0-1-0.1-1.3-0.3s-0.7-0.6-0.9-1s-0.3-0.9-0.3-1.5   c0-0.9,0.2-1.6,0.7-2.1s1.1-0.7,1.9-0.7c0.8,0,1.4,0.3,1.9,0.8C118.3,47.2,118.5,47.9,118.5,48.8z M114.4,44.6   c0-0.2,0.1-0.3,0.2-0.4c0.1-0.1,0.2-0.1,0.4-0.1c0.2,0,0.3,0.1,0.4,0.2c0.1,0.1,0.2,0.2,0.2,0.4c0,0.2-0.1,0.3-0.2,0.4   s-0.2,0.2-0.4,0.2c-0.2,0-0.3,0-0.4-0.1C114.5,45,114.4,44.8,114.4,44.6z M114.6,48.8c0,1.2,0.5,1.9,1.4,1.9c0.9,0,1.4-0.6,1.4-1.9   c0-1.2-0.5-1.9-1.4-1.9c-0.5,0-0.8,0.2-1,0.5C114.7,47.7,114.6,48.2,114.6,48.8z M116.3,44.6c0-0.2,0.1-0.3,0.2-0.4   c0.1-0.1,0.2-0.1,0.4-0.1c0.2,0,0.3,0.1,0.4,0.2s0.2,0.2,0.2,0.4c0,0.2-0.1,0.3-0.2,0.4c-0.1,0.1-0.2,0.2-0.4,0.2   c-0.2,0-0.3,0-0.4-0.1C116.4,45,116.3,44.8,116.3,44.6z"></path><path class="st18" d="M123.7,46c0.2,0,0.4,0,0.6,0l-0.1,1.1c-0.2,0-0.3-0.1-0.5-0.1c-0.5,0-0.8,0.1-1.1,0.4   c-0.3,0.3-0.4,0.7-0.4,1.2v2.8H121v-5.4h0.9l0.2,1h0.1c0.2-0.3,0.4-0.6,0.7-0.8C123.1,46.1,123.4,46,123.7,46z"></path><path class="st18" d="M132,51.6c-0.7,0-1.2-0.2-1.6-0.7s-0.6-1.2-0.6-2.1c0-0.9,0.2-1.6,0.6-2.1c0.4-0.5,0.9-0.7,1.6-0.7   c0.7,0,1.3,0.3,1.6,0.8h0.1c-0.1-0.4-0.1-0.7-0.1-0.9v-2h1.2v7.6h-0.9l-0.2-0.7h-0.1C133.3,51.3,132.8,51.6,132,51.6z M132.4,50.6   c0.5,0,0.8-0.1,1-0.4c0.2-0.3,0.3-0.7,0.3-1.3v-0.2c0-0.7-0.1-1.2-0.3-1.5s-0.6-0.4-1-0.4c-0.4,0-0.7,0.2-0.9,0.5   c-0.2,0.3-0.3,0.8-0.3,1.4c0,0.6,0.1,1.1,0.3,1.4C131.6,50.5,131.9,50.6,132.4,50.6z"></path><path class="st18" d="M137.6,44.6c0-0.2,0.1-0.4,0.2-0.5c0.1-0.1,0.3-0.2,0.5-0.2c0.2,0,0.4,0.1,0.5,0.2c0.1,0.1,0.2,0.3,0.2,0.5   c0,0.2-0.1,0.3-0.2,0.5c-0.1,0.1-0.3,0.2-0.5,0.2c-0.2,0-0.4-0.1-0.5-0.2C137.6,45,137.6,44.8,137.6,44.6z M138.8,51.5h-1.1v-5.4   h1.1V51.5z"></path><path class="st18" d="M146.1,46.1v0.6l-0.9,0.2c0.1,0.1,0.2,0.3,0.2,0.4s0.1,0.3,0.1,0.5c0,0.6-0.2,1-0.6,1.3s-0.9,0.5-1.6,0.5   c-0.2,0-0.3,0-0.5,0c-0.2,0.2-0.4,0.3-0.4,0.5c0,0.1,0.1,0.2,0.2,0.3c0.1,0.1,0.3,0.1,0.6,0.1h0.9c0.6,0,1,0.1,1.4,0.4   s0.5,0.6,0.5,1.1c0,0.6-0.3,1.1-0.8,1.4s-1.2,0.5-2.2,0.5c-0.7,0-1.3-0.1-1.7-0.4s-0.6-0.6-0.6-1.1c0-0.3,0.1-0.6,0.3-0.8   c0.2-0.2,0.5-0.4,0.9-0.5c-0.2-0.1-0.3-0.2-0.4-0.3c-0.1-0.1-0.1-0.3-0.1-0.5c0-0.2,0.1-0.4,0.2-0.5s0.3-0.3,0.5-0.4   c-0.3-0.1-0.5-0.3-0.7-0.6c-0.2-0.3-0.3-0.6-0.3-1c0-0.6,0.2-1,0.6-1.4c0.4-0.3,0.9-0.5,1.6-0.5c0.2,0,0.3,0,0.5,0   c0.2,0,0.3,0,0.4,0.1H146.1z M141.9,52.3c0,0.2,0.1,0.4,0.3,0.6c0.2,0.1,0.5,0.2,0.9,0.2c0.6,0,1.1-0.1,1.4-0.3s0.5-0.4,0.5-0.7   c0-0.2-0.1-0.4-0.3-0.5c-0.2-0.1-0.5-0.1-0.9-0.1H143c-0.3,0-0.6,0.1-0.8,0.2C142,51.8,141.9,52,141.9,52.3z M142.4,47.8   c0,0.3,0.1,0.6,0.3,0.8c0.2,0.2,0.4,0.3,0.7,0.3c0.7,0,1-0.4,1-1.1c0-0.4-0.1-0.6-0.2-0.8c-0.2-0.2-0.4-0.3-0.7-0.3   c-0.3,0-0.6,0.1-0.8,0.3C142.5,47.2,142.4,47.5,142.4,47.8z"></path><path class="st18" d="M155.7,49.9c0,0.5-0.2,0.9-0.6,1.2c-0.4,0.3-0.9,0.4-1.7,0.4c-0.7,0-1.3-0.1-1.7-0.3v-1   c0.6,0.3,1.2,0.4,1.8,0.4c0.7,0,1.1-0.2,1.1-0.6c0-0.1,0-0.3-0.1-0.3s-0.2-0.2-0.4-0.3s-0.4-0.2-0.7-0.3c-0.6-0.2-1-0.5-1.3-0.7   c-0.2-0.2-0.3-0.6-0.3-0.9c0-0.5,0.2-0.8,0.6-1.1c0.4-0.3,0.9-0.4,1.5-0.4c0.6,0,1.2,0.1,1.8,0.4l-0.4,0.9   c-0.6-0.2-1.1-0.4-1.5-0.4c-0.6,0-0.9,0.2-0.9,0.5c0,0.2,0.1,0.3,0.2,0.4c0.2,0.1,0.5,0.3,1,0.5c0.4,0.2,0.8,0.3,1,0.5   s0.4,0.3,0.4,0.5C155.7,49.5,155.7,49.7,155.7,49.9z"></path><path class="st18" d="M162.9,48.8c0,0.9-0.2,1.6-0.7,2.1s-1.1,0.7-1.9,0.7c-0.5,0-1-0.1-1.3-0.3s-0.7-0.6-0.9-1s-0.3-0.9-0.3-1.5   c0-0.9,0.2-1.6,0.7-2.1s1.1-0.7,1.9-0.7c0.8,0,1.4,0.3,1.9,0.8C162.7,47.2,162.9,47.9,162.9,48.8z M159,48.8c0,1.2,0.5,1.9,1.4,1.9   c0.9,0,1.4-0.6,1.4-1.9c0-1.2-0.5-1.9-1.4-1.9c-0.5,0-0.8,0.2-1,0.5C159.1,47.7,159,48.2,159,48.8z"></path><path class="st18" d="M170,51.5h-1.2v-3.3c0-0.4-0.1-0.7-0.2-0.9c-0.2-0.2-0.4-0.3-0.7-0.3c-0.4,0-0.8,0.1-1,0.4   c-0.2,0.3-0.3,0.8-0.3,1.4v2.7h-1.1v-5.4h0.9l0.2,0.7h0.1c0.1-0.3,0.4-0.5,0.7-0.6c0.3-0.1,0.6-0.2,0.9-0.2c0.8,0,1.4,0.3,1.7,0.8   h0.1c0.2-0.3,0.4-0.5,0.7-0.6s0.6-0.2,1-0.2c0.6,0,1.1,0.2,1.4,0.5c0.3,0.3,0.4,0.8,0.4,1.5v3.5h-1.1v-3.3c0-0.4-0.1-0.7-0.2-0.9   c-0.2-0.2-0.4-0.3-0.7-0.3c-0.4,0-0.8,0.1-1,0.4c-0.2,0.3-0.3,0.7-0.3,1.3V51.5z"></path><path class="st18" d="M183.5,49.9c0,0.5-0.2,0.9-0.6,1.2c-0.4,0.3-0.9,0.4-1.7,0.4c-0.7,0-1.3-0.1-1.7-0.3v-1   c0.6,0.3,1.2,0.4,1.8,0.4c0.7,0,1.1-0.2,1.1-0.6c0-0.1,0-0.3-0.1-0.3s-0.2-0.2-0.4-0.3s-0.4-0.2-0.7-0.3c-0.6-0.2-1-0.5-1.3-0.7   c-0.2-0.2-0.3-0.6-0.3-0.9c0-0.5,0.2-0.8,0.6-1.1c0.4-0.3,0.9-0.4,1.5-0.4c0.6,0,1.2,0.1,1.8,0.4l-0.4,0.9   c-0.6-0.2-1.1-0.4-1.5-0.4c-0.6,0-0.9,0.2-0.9,0.5c0,0.2,0.1,0.3,0.2,0.4c0.2,0.1,0.5,0.3,1,0.5c0.4,0.2,0.8,0.3,1,0.5   s0.4,0.3,0.4,0.5C183.5,49.5,183.5,49.7,183.5,49.9z"></path><path class="st18" d="M188.7,51.6c-0.7,0-1.2-0.2-1.6-0.7H187c0,0.5,0.1,0.7,0.1,0.8v2.2h-1.1v-7.8h0.9c0,0.1,0.1,0.3,0.2,0.7h0.1   c0.4-0.5,0.9-0.8,1.6-0.8c0.7,0,1.2,0.2,1.6,0.7c0.4,0.5,0.6,1.2,0.6,2.1s-0.2,1.6-0.6,2.1C189.9,51.3,189.3,51.6,188.7,51.6z    M188.4,46.9c-0.5,0-0.8,0.1-1,0.4c-0.2,0.3-0.3,0.7-0.3,1.3v0.2c0,0.7,0.1,1.1,0.3,1.4c0.2,0.3,0.5,0.4,1,0.4   c0.4,0,0.7-0.2,0.9-0.5s0.3-0.8,0.3-1.4c0-0.6-0.1-1.1-0.3-1.4C189.1,47.1,188.8,46.9,188.4,46.9z"></path><path class="st18" d="M195.7,51.6c-0.8,0-1.5-0.2-2-0.7c-0.5-0.5-0.7-1.2-0.7-2c0-0.9,0.2-1.6,0.7-2.1s1-0.8,1.8-0.8   c0.7,0,1.3,0.2,1.7,0.6s0.6,1,0.6,1.8V49h-3.6c0,0.5,0.2,0.9,0.4,1.2c0.3,0.3,0.6,0.4,1.1,0.4c0.3,0,0.6,0,0.9-0.1   c0.3-0.1,0.6-0.2,0.9-0.3v0.9c-0.3,0.1-0.6,0.2-0.8,0.3S196.1,51.6,195.7,51.6z M195.5,46.8c-0.4,0-0.7,0.1-0.9,0.3   c-0.2,0.2-0.4,0.6-0.4,1h2.5c0-0.4-0.1-0.8-0.3-1C196.1,47,195.8,46.8,195.5,46.8z"></path><path class="st18" d="M201.4,51.5h-1.1v-7.6h1.1V51.5z"></path><path class="st18" d="M207.6,51.5l-0.2-0.8h0c-0.3,0.3-0.5,0.6-0.8,0.7c-0.3,0.1-0.6,0.2-1,0.2c-0.5,0-0.9-0.1-1.2-0.4   c-0.3-0.3-0.4-0.7-0.4-1.2c0-0.6,0.2-1,0.6-1.3s1-0.4,1.9-0.5l0.9,0v-0.3c0-0.3-0.1-0.6-0.2-0.8c-0.2-0.2-0.4-0.3-0.8-0.3   c-0.3,0-0.5,0-0.8,0.1s-0.5,0.2-0.7,0.3l-0.4-0.8c0.3-0.2,0.6-0.3,1-0.3c0.3-0.1,0.7-0.1,1-0.1c0.7,0,1.2,0.1,1.6,0.4   c0.4,0.3,0.5,0.8,0.5,1.4v3.6H207.6z M205.9,50.7c0.4,0,0.8-0.1,1-0.3c0.3-0.2,0.4-0.6,0.4-1v-0.5l-0.7,0c-0.5,0-0.9,0.1-1.2,0.3   c-0.2,0.2-0.4,0.4-0.4,0.7c0,0.2,0.1,0.4,0.2,0.6C205.4,50.6,205.6,50.7,205.9,50.7z"></path><path class="st18" d="M213.9,46c0.2,0,0.4,0,0.6,0l-0.1,1.1c-0.2,0-0.3-0.1-0.5-0.1c-0.5,0-0.8,0.1-1.1,0.4   c-0.3,0.3-0.4,0.7-0.4,1.2v2.8h-1.1v-5.4h0.9l0.2,1h0.1c0.2-0.3,0.4-0.6,0.7-0.8C213.3,46.1,213.6,46,213.9,46z"></path><path class="st18" d="M224.1,49.9c0,0.5-0.2,0.9-0.6,1.2c-0.4,0.3-0.9,0.4-1.7,0.4c-0.7,0-1.3-0.1-1.7-0.3v-1   c0.6,0.3,1.2,0.4,1.8,0.4c0.7,0,1.1-0.2,1.1-0.6c0-0.1,0-0.3-0.1-0.3s-0.2-0.2-0.4-0.3s-0.4-0.2-0.7-0.3c-0.6-0.2-1-0.5-1.3-0.7   c-0.2-0.2-0.3-0.6-0.3-0.9c0-0.5,0.2-0.8,0.6-1.1c0.4-0.3,0.9-0.4,1.5-0.4c0.6,0,1.2,0.1,1.8,0.4l-0.4,0.9   c-0.6-0.2-1.1-0.4-1.5-0.4c-0.6,0-0.9,0.2-0.9,0.5c0,0.2,0.1,0.3,0.2,0.4c0.2,0.1,0.5,0.3,1,0.5c0.4,0.2,0.8,0.3,1,0.5   s0.4,0.3,0.4,0.5C224,49.5,224.1,49.7,224.1,49.9z"></path><path class="st18" d="M228.5,50.6c0.3,0,0.6,0,0.8-0.1v0.9c-0.1,0.1-0.3,0.1-0.5,0.1c-0.2,0-0.4,0.1-0.6,0.1   c-1.1,0-1.6-0.6-1.6-1.7v-2.9h-0.7v-0.5l0.8-0.4l0.4-1.1h0.7v1.2h1.5v0.9h-1.5v2.9c0,0.3,0.1,0.5,0.2,0.6   C228.1,50.6,228.3,50.6,228.5,50.6z"></path><path class="st18" d="M236.4,48.8c0,0.9-0.2,1.6-0.7,2.1s-1.1,0.7-1.9,0.7c-0.5,0-1-0.1-1.3-0.3s-0.7-0.6-0.9-1s-0.3-0.9-0.3-1.5   c0-0.9,0.2-1.6,0.7-2.1s1.1-0.7,1.9-0.7c0.8,0,1.4,0.3,1.9,0.8C236.1,47.2,236.4,47.9,236.4,48.8z M232.4,48.8   c0,1.2,0.5,1.9,1.4,1.9c0.9,0,1.4-0.6,1.4-1.9c0-1.2-0.5-1.9-1.4-1.9c-0.5,0-0.8,0.2-1,0.5C232.6,47.7,232.4,48.2,232.4,48.8z"></path><path class="st18" d="M241.6,46c0.2,0,0.4,0,0.6,0l-0.1,1.1c-0.2,0-0.3-0.1-0.5-0.1c-0.5,0-0.8,0.1-1.1,0.4   c-0.3,0.3-0.4,0.7-0.4,1.2v2.8h-1.1v-5.4h0.9l0.2,1h0.1c0.2-0.3,0.4-0.6,0.7-0.8C241,46.1,241.3,46,241.6,46z"></path><path class="st18" d="M246.4,50.6c0.3,0,0.6,0,0.8-0.1v0.9c-0.1,0.1-0.3,0.1-0.5,0.1c-0.2,0-0.4,0.1-0.6,0.1   c-1.1,0-1.6-0.6-1.6-1.7v-2.9h-0.7v-0.5l0.8-0.4l0.4-1.1h0.7v1.2h1.5v0.9h-1.5v2.9c0,0.3,0.1,0.5,0.2,0.6   C246,50.6,246.1,50.6,246.4,50.6z"></path><path class="st18" d="M249.3,50.9c0-0.2,0.1-0.4,0.2-0.5s0.3-0.2,0.5-0.2c0.2,0,0.4,0.1,0.5,0.2c0.1,0.1,0.2,0.3,0.2,0.5   c0,0.2-0.1,0.4-0.2,0.5c-0.1,0.1-0.3,0.2-0.5,0.2s-0.4-0.1-0.5-0.2S249.3,51.1,249.3,50.9z"></path></g></svg>