<svg xmlns="http://www.w3.org/2000/svg" xmlns:xlink="http://www.w3.org/1999/xlink" version="1.1" x="0px" y="0px" viewBox="-15 0 850 117.1" style="enable-background:new 0 0 817.7 117.1; background-color:#2474c2;" xml:space="preserve"><style type="text/css">	.st0{fill:#FFFFFF;}	.st1{fill:#FFD000;}</style><g id="Layer_1"><g><g><path class="st0" d="M18.5,95.3c-5.9,0-11.3-2.2-16.2-5.6l3.1-5.8c4,3.1,8.9,5.3,13.1,5.3c6.7,0,10-4.6,10-10.6     c0-6.2-3.2-10.1-11-15.8C9.6,57.4,4.8,51.8,4.8,44c0-9.2,6.9-16.4,16.5-16.4c5.5,0,9.9,2,13.3,4.7L31.5,38     c-3.1-2.6-6.6-4.3-10.5-4.3c-6.2,0-9.6,4.4-9.6,10.1c0,5.1,3.9,9.5,10.1,14c9,6,13.9,11.6,13.9,20.5C35.4,88.1,28,95.3,18.5,95.3     "></path></g><polygon class="st0" points="62.2,95.2 60.1,95.2 38.9,28.5 45.9,28.5 61.3,78.9 76.4,28.5 83.3,28.5   "></polygon><polygon class="st0" points="90.2,94.3 90.2,28.5 120.4,28.5 120.4,34.7 96.9,34.7 96.9,57.6 118.4,57.6 118.4,63.7 96.9,63.7     96.9,88.1 120.4,88.1 120.4,94.3   "></polygon><g><path class="st0" d="M142.6,34.1c-1.8,0-3.2,0.1-5.1,0.4v27.8c1.6,0.2,3.6,0.3,5.3,0.3c9.6,0,14.4-4.9,14.4-14.3     C157.2,39.7,152,34.1,142.6,34.1 M159.8,94.3l-13.3-26.2c-1.2,0.1-2.6,0.2-3.9,0.2c-1.5,0-3.5-0.1-5.1-0.2v26.2h-6.6V28.9     c3.7-0.5,7.3-0.9,11.2-0.9c15.3,0,22.1,9.3,22.1,20.1c0,9-4.4,15.2-11.5,18.2l14.7,28H159.8z"></path></g><rect x="174.8" y="28.5" class="st0" width="6.6" height="65.8"></rect><g><path class="st0" d="M234.3,60v30.2c-4.5,3.4-10,5.2-16.4,5.2c-14.8,0-26.2-12.9-26.2-33.9c0-20.8,12.2-33.8,25.8-33.8     c7.4,0,12.4,2.5,16.8,6.2l-3.6,5.1c-3.9-3.1-8.3-5.2-13.2-5.2c-11.1,0-18.8,10.5-18.8,27.5c0,17.6,8.2,28.2,19.4,28.2     c4,0,6.7-0.8,9.6-2.5V66.2h-12.4V60H234.3z"></path></g><polygon class="st0" points="244.5,94.3 244.5,28.5 274.7,28.5 274.7,34.7 251.2,34.7 251.2,57.6 272.7,57.6 272.7,63.7     251.2,63.7 251.2,88.1 274.7,88.1 274.7,94.3   "></polygon><g><path class="st1" d="M355,49.8c0,0,4.6-13.8-1.3-18.5c-4.7-3.7-13.9-2.3-13.9-2.3s9.9-7.2,17.1-1.3C364.1,34.7,355,49.8,355,49.8      M347.3,21.3c-4.6,1-10.1,3.4-14,6.3c-5.1,3.8-9.6,8-12.8,13c-0.7-6-1.2-10.6-2.9-16c-1.6-5-4.5-8.6-9.6-9.6     c-4.8-0.9-11,2.9-13.5,6.6c-7.9,12-6.2,21.4-5.3,35.5c0.8,12.7,5.2,29.8,13.2,40.4c2.9,3.8,4.2,6.2,7.7,3.3     c21.3-20.2,27.4-25.8,33.9-31.7c8.7-8.5,18.4-19.1,19.5-32C364.3,27,356.9,19.2,347.3,21.3"></path></g><path class="st0" d="M388.6,53.9l-4.8,17.8h9.4L388.6,53.9z M400.2,94.3l-3.5-11.4h-16.2l-3.5,11.4h-13.5l22.1-66.2h6.4l22,66.2    H400.2z"></path><g><path class="st0" d="M439.2,95.3c-13.2,0-21.6-7.3-21.6-22.5V28.5h13.6v44.3c0,6.4,2.8,10.1,8.4,10.1c5.6,0,8.2-3.8,8.2-10.1     V28.5h13.6v44.3C461.5,88.2,452.6,95.3,439.2,95.3"></path></g><polygon class="st0" points="495.9,41.2 495.9,94.3 482.2,94.3 482.2,41.2 467.9,41.2 467.9,28.5 510,28.5 510,41.2   "></polygon><g><path class="st0" d="M538.4,39.6c-7.1,0-11.2,8.2-11.2,21.8c0,13.6,4.1,22,11.2,22c7.1,0,11.3-8.4,11.3-22     C549.7,47.7,545.5,39.6,538.4,39.6 M538.1,95.3c-15.5,0-25.2-13.5-25.2-33.8s10-33.9,25.8-33.9c15.5,0,25.2,13.3,25.2,33.7     C564,81.7,553.9,95.3,538.1,95.3"></path></g><polygon class="st0" points="613.8,94.3 613.1,62 600.6,83.7 598.5,83.7 585.6,62 585.1,94.3 572,94.3 574.1,28.4 578.8,28.2     599.8,62.7 620.1,28.2 624.8,28.4 627,94.3   "></polygon><path class="st0" d="M656.5,53.9l-4.8,17.8h9.4L656.5,53.9z M668.1,94.3l-3.5-11.4h-16.2l-3.5,11.4h-13.5l22.1-66.2h6.4l22,66.2    H668.1z"></path><polygon class="st0" points="706.2,41.2 706.2,94.3 692.5,94.3 692.5,41.2 678.3,41.2 678.3,28.5 720.3,28.5 720.3,41.2   "></polygon><polygon class="st0" points="727.4,94.3 727.4,28.5 761.5,28.5 761.5,41.1 741,41.1 741,54.7 759.1,54.7 759.1,66.7 741,66.7     741,81.8 761.5,81.8 761.5,94.3   "></polygon><polygon class="st0" points="770.9,28.2 770.9,94.3 784.3,94.3 784.3,60.6 811.1,95 815.3,94.7 815.3,28.5 801.9,28.5 801.9,61.5     775.3,27.9   "></polygon></g></g><g id="Layer_2"></g></svg>