<svg xmlns="http://www.w3.org/2000/svg"  xmlns:xlink="http://www.w3.org/1999/xlink" xml:space="preserve" version="1.1" height="150px" width="150px" style="shape-rendering:geometricPrecision; text-rendering:geometricPrecision; image-rendering:optimizeQuality; fill-rule:evenodd; clip-rule:evenodd; background-color:#2c163b" viewBox="0 0 18406.68 3041.56"><defs><style type="text/css">    .fil0 {fill:#00D0A1}    .fil2 {fill:#00D0A1;fill-rule:nonzero}    .fil1 {fill:url(#id0)}   </style><linearGradient id="id0" gradientUnits="userSpaceOnUse" x1="15742.44" y1="844.61" x2="18025.84" y2="874.25"><stop offset="0" style="stop-opacity:1; stop-color:#FF2F60"></stop><stop offset="1" style="stop-opacity:1; stop-color:#FF5B52"></stop></linearGradient></defs><g id="Слой_x0020_1"><metadata id="CorelCorpID_0Corel-Layer"></metadata><path class="fil0" d="M428.82 1205.12l2502.65 0c10.02,0 18.16,2.45 24.16,6.79 3.79,2.72 6.66,6.15 8.6,10.18 1.84,3.82 2.79,8.07 2.79,12.63 0,10.12 -4.76,22.21 -14.58,34.72l-319.42 407.11c-11.04,14.08 -27.05,26.87 -43.88,36.08 -17.18,9.4 -35.56,15.27 -50.95,15.27l-872.18 0 -526.71 1238.75c-2.78,6.87 -7.2,13.42 -12.72,19.3 -5.5,5.93 -12.22,11.2 -19.56,15.51 -7.07,4.16 -14.94,7.55 -23.1,9.86 -7.86,2.23 -16.11,3.49 -24.23,3.5l-512.28 1.08c-4.3,0.04 -8.48,-0.3 -12.45,-0.96 -4.14,-0.69 -8.02,-1.75 -11.54,-3.08 -4.47,-1.73 -8.48,-3.92 -12.04,-6.49 -3.67,-2.63 -6.85,-5.74 -9.48,-9.21 -2.75,-3.64 -4.89,-7.68 -6.31,-11.96 -1.43,-4.26 -2.19,-8.73 -2.19,-13.28 0.03,-3.17 0.36,-6.33 0.98,-9.39 0.62,-3.04 1.58,-6.16 2.88,-9.33l520.64 -1224.29 -982.35 0c-10.03,0 -18.15,-2.45 -24.15,-6.79 -3.79,-2.71 -6.66,-6.15 -8.6,-10.17 -1.84,-3.83 -2.79,-8.09 -2.79,-12.64 0,-10.13 4.76,-22.2 14.57,-34.71l319.42 -407.12c11.06,-14.09 27.06,-26.87 43.89,-36.09 17.17,-9.4 35.55,-15.25 50.94,-15.25z"></path><path class="fil0" d="M2297.8 2312.22l430.09 -1062.96c4.94,-12.15 15.25,-23.03 27.82,-30.71 12.28,-7.52 27.12,-12.22 41.39,-12.25l512.26 -1.12c7.63,-0.01 14.48,1.28 20.26,3.62 6.89,2.79 12.46,7.08 16.37,12.46 4.01,5.55 6.21,12.22 6.22,19.54 0.01,4.95 -1,10.17 -3.12,15.43l-412.71 1019.99c-6.65,86.54 37.7,152.32 111.43,190.74 91.13,47.5 323.37,24.31 414.51,13.44 143.64,-17.15 295.11,-103.48 376.12,-230.93l404.69 -1000.21c4.94,-12.15 15.25,-23.03 27.82,-30.71 12.28,-7.52 27.12,-12.22 41.39,-12.25l512.26 -1.12c7.63,-0.01 14.48,1.28 20.26,3.62 6.89,2.79 12.46,7.08 16.37,12.46 4.01,5.55 6.21,12.22 6.22,19.54 0.01,4.95 -1,10.17 -3.12,15.43l-135.36 334.54 0.03 0 -1.58 3.81c-250.8,619.85 -390.7,1348.61 -1160.31,1416.84 -279.95,24.83 -566.79,27.16 -847.18,-12.06 -369.98,-51.75 -577.64,-290.51 -424.33,-663.58 -0.63,-2.58 -0.95,-5.29 -0.95,-8.09 -0.01,-4.98 1.01,-10.19 3.13,-15.47z"></path><path class="fil0" d="M4486.65 2974.42l701.78 -1770.34c4.8,-12.14 14.55,-23 26.29,-30.74 11.7,-7.73 25.71,-12.53 38.95,-12.56l378.75 -0.92c4.24,-0.17 8.56,-0.26 13.02,-0.26l545.34 0 584.81 0c687.8,0 437.2,1183.12 -282.94,1326.2 -23.58,4.68 -47.17,7.83 -70.63,9.36l305.55 472.71c5.57,8.65 8.13,17.13 7.92,24.64 -0.18,4.67 -1.32,9 -3.38,12.81 -2.12,3.92 -5.21,7.27 -9.16,9.87 -5.63,3.71 -12.99,5.81 -21.77,5.79l-518.25 -1.12c-12.86,-0.02 -27.45,-4.66 -40.44,-12.1 -12.82,-7.33 -24.43,-17.59 -31.62,-28.93l-305.2 -482.64 -69.01 0 -358.36 0c-21.36,0.89 -19.49,-17.92 -13.39,-24.61l427.33 -435.61c22.73,-23.17 11.34,-18.16 42.55,-18.16l455.56 0c186.45,0 447.32,-379.82 267.48,-379.82l-686.63 0 -270.2 0 -3.27 -2.43 -1.01 2.43 -15.96 0c-117.35,296.02 -215.02,559.83 -338.12,858.2l-2.06 0 -50.65 127.77 -18.52 44.89 1.21 -1.24 -124.12 313.13c-4.81,12.13 -14.58,22.99 -26.34,30.74 -11.69,7.73 -25.68,12.54 -38.9,12.56l-461.63 1.12c-6.04,0.01 -11.6,-0.96 -16.4,-2.77 -6.96,-2.61 -12.53,-6.95 -16.32,-12.53 -3.8,-5.64 -5.77,-12.45 -5.59,-19.88 0.12,-4.93 1.19,-10.21 3.3,-15.57z"></path><path class="fil0" d="M7022.63 2972.76l655.51 -1770.34c4.49,-12.14 13.98,-23.01 25.52,-30.75 11.5,-7.71 25.38,-12.52 38.61,-12.55 292.5,-0.72 584.87,-1.18 877.38,-1.18l584.81 0c518.25,0 524.27,491.74 189.61,779.03 428.9,180.43 186.6,969.19 -446.89,1075.36 -34.13,5.7 -68.39,8.71 -102.34,8.71l-547.17 0 -106.17 0c-377.66,0 -754.91,1.56 -1132.53,2.48 -6.13,0.01 -11.68,-0.95 -16.46,-2.72 -7.02,-2.61 -12.67,-6.96 -16.63,-12.58 -3.98,-5.63 -6.13,-12.44 -6.14,-19.89 -0.01,-4.94 0.92,-10.2 2.89,-15.56zm1050.9 -836.21l203.06 -236.4 0.01 0 0.92 -1.08c19.06,-18.68 33.04,-27.22 60.2,-25.64l162.53 0 336.29 0c53.35,0 133.94,-44.35 165.77,-107.66l18.93 -37.66c31.84,-63.3 25.12,-107.66 -28.24,-107.66l-537.47 0c-124.43,0 -243.14,-3.7 -366.38,-3.7l-344.74 931 232.39 0 161.51 0 255.07 0 155.09 0 301.82 0c56.6,0 95.4,-47.07 129.15,-114.23l20.08 -39.97c33.79,-67.16 26.65,-114.23 -29.96,-114.23l-255.08 0 -264.92 0 -305.35 0 -1.39 0 -154.96 0c-22.04,1.41 -24.81,-14.41 -14.45,-26.17l100.14 -116.59z"></path><path class="fil0" d="M9615.54 2969.99l588.17 -1511.07c8.48,-21.81 32.85,-30.64 55.55,-38.85l647.88 -247.49c9.17,-3.5 17.68,-3.15 24.94,-0.21 4.55,1.85 8.55,4.74 11.81,8.33 3.12,3.43 5.6,7.53 7.29,11.94 3.53,9.24 3.78,20.29 -0.31,30.35l-714.08 1753.84c-4.92,12.1 -15.27,22.99 -27.87,30.71 -12.3,7.52 -27.09,12.23 -41.31,12.25l-512.28 1.12c-7.33,0.01 -13.97,-1.2 -19.61,-3.4 -7.11,-2.76 -12.8,-7.06 -16.78,-12.5 -4.11,-5.62 -6.35,-12.37 -6.37,-19.82 -0.04,-4.81 0.93,-9.94 2.98,-15.21z"></path><path class="fil1" d="M17728.35 1390.79l84.81 58.6c133.69,68.75 58.7,133.59 -0.41,142.48 -251.12,76.14 -1036.39,357.94 -1326.82,357.94 -538.41,0 -974.9,-436.49 -974.9,-974.9 0,-538.41 436.49,-974.9 974.9,-974.9 519.91,0 1376.33,600.26 1779.28,810.8 227.38,83.66 132.98,218.79 45.05,250.97l-581.9 329.01zm-778.43 -547.83c-158.3,-125.45 -332.12,-220.81 -519.09,-290.64 -126.68,-50.45 -233.48,32.69 -249.36,119.46 -38.94,183.25 -38.94,422.99 0,606.24 15.88,86.76 122.67,169.9 249.36,119.46 186.97,-69.83 360.79,-165.18 519.09,-290.64 95.77,-64.36 95.77,-197.43 0,-263.88z"></path><path class="fil2" d="M15358.45 1926.27l-120.49 323.32c-113.57,304.8 -324.36,619.59 -658.68,720.29 -169.84,51.15 -508.97,71.69 -713.72,71.69 -204.77,0 -320.94,-25.81 -452.65,-76.98 -131.71,-51.16 -221.42,-137.66 -269.09,-259.47 -47.67,-121.81 -37.01,-275.33 32.18,-460.97 151.23,-405.86 221.42,-695.81 628.49,-948.08 211.73,-131.21 412.02,-148.46 683.85,-159.93 28.96,-1.22 172.01,-1.85 201.62,-1.85 307.15,0 457.18,66.28 600.54,198.79 143.21,132.37 140.73,397.83 67.94,593.19zm-1402.05 -57.19l-218.12 440.3c-33.24,67.11 -20.56,124.15 16.55,161.65 94.13,95.13 569.85,65.16 692.14,-6.64 65.49,-38.43 104.15,-95.82 137.53,-163.02l216.09 -434.85c33.4,-67.2 20.77,-124.58 -16.03,-163.02 -93.96,-98.17 -572.05,-64.67 -691.13,3.92 -65.12,37.51 -103.8,94.54 -137.04,161.65z"></path><path class="fil2" d="M11502.08 2447.29c27.62,27.62 64.85,46.17 107.43,56.74 28.98,7.18 152.42,10.7 185.06,10.85 134.49,0.62 288.66,-55.59 368.94,-144.38 41.76,-46.17 83.09,-69.29 123.98,-69.29l602.41 0c16.73,0 29.19,5.79 37.03,17.22 7.99,11.66 8.97,25.36 3.09,41.66 -59.75,165.72 -195.95,317.21 -409.22,454.17 -106.13,68.16 -234.88,122.54 -385.57,164.38 -150.96,41.92 -410.25,62.93 -594.32,62.93 -184.07,0 -342.24,-26.71 -474.34,-80.6 -132.1,-53.89 -223.43,-142.19 -273.99,-264.9 -50.56,-122.71 -43.6,-273.5 20.73,-451.91 238.4,-661 479.94,-1043.66 1277.07,-1103.94 52.18,-3.95 105.76,-5.92 160.66,-5.92 169.2,0 315.55,17.03 434.69,62.93 231.65,89.26 374.99,312.51 348.65,618.55 -1.49,17.31 -16.74,30 -33.14,41.66 -16.08,11.42 -32.73,17.22 -49.45,17.22l-510.48 0c-40.89,0 -65.57,-23.1 -74.01,-69.29 -8.45,-46.19 -26.87,-81.51 -55.39,-105.5 -22.54,-18.95 -62.06,-30.31 -118.46,-34.22 -14.96,-1.03 -123.08,-1.56 -140.44,-1.56 -82.74,0 -154.29,23.2 -221.21,56.6 -145.21,72.47 -457.95,598.34 -329.73,726.6z"></path></g></svg>