<svg xmlns="http://www.w3.org/2000/svg" id="Layer_1" data-name="Layer 1"  style="background-color:#147b44;" viewBox="-15 0 508.11 173.63"><defs><style>.cls-1,.cls-2,.cls-3,.cls-4,.cls-5,.cls-6{fill:#3eab37;}.cls-1{opacity:0.9;}.cls-3{opacity:0.5;}.cls-4{opacity:0.6;}.cls-5{opacity:0.8;}.cls-6{opacity:0.7;}.cls-7{fill:#fff;}</style></defs><title>Unibet-Logo-for-black-bg</title><path class="cls-1" d="M498.44,333.46a25.26,25.26,0,1,0,25,25.25A25.12,25.12,0,0,0,498.44,333.46Z" transform="translate(-176.89 -210.82)"></path><path class="cls-2" d="M550.1,333.46a25.26,25.26,0,1,0,25,25.25A25.12,25.12,0,0,0,550.1,333.46Z" transform="translate(-176.89 -210.82)"></path><path class="cls-3" d="M291.78,333.46a25.26,25.26,0,1,0,25,25.25A25.13,25.13,0,0,0,291.78,333.46Z" transform="translate(-176.89 -210.82)"></path><path class="cls-4" d="M343.45,333.46a25.26,25.26,0,1,0,25,25.25A25.12,25.12,0,0,0,343.45,333.46Z" transform="translate(-176.89 -210.82)"></path><path class="cls-5" d="M446.78,333.94a25.26,25.26,0,1,0,25,25.26A25.14,25.14,0,0,0,446.78,333.94Z" transform="translate(-176.89 -210.82)"></path><path class="cls-6" d="M395,333.71A25.26,25.26,0,1,0,420,359,25.14,25.14,0,0,0,395,333.71Z" transform="translate(-176.89 -210.82)"></path><path class="cls-7" d="M574.45,285.84l-43.43,0V269l23.23,0h0a2,2,0,0,0,1.37-.56,1.92,1.92,0,0,0,.56-1.36V249a1.94,1.94,0,0,0-1.92-1.93l-23.22,0V232.84l40.82,0h0a1.92,1.92,0,0,0,1.92-1.92l0-18.12a1.93,1.93,0,0,0-.56-1.37,2,2,0,0,0-1.37-.56L507,210.83h0a1.93,1.93,0,0,0-1.93,1.93L505,305.85a1.93,1.93,0,0,0,1.93,1.93l67.52.06h0a1.93,1.93,0,0,0,1.93-1.93V287.77A1.93,1.93,0,0,0,574.45,285.84Z" transform="translate(-176.89 -210.82)"></path><path class="cls-7" d="M348.42,210.83H326.56a1.95,1.95,0,0,0-1.93,1.93v48.57L303.39,212a1.92,1.92,0,0,0-1.77-1.17H273.56a1.93,1.93,0,0,0-1.93,1.93V305.9a1.94,1.94,0,0,0,1.93,1.93h22.16a1.93,1.93,0,0,0,1.93-1.92V250.85l24.46,55.82a1.92,1.92,0,0,0,1.76,1.15l24.55,0h0a1.93,1.93,0,0,0,1.93-1.93V212.76A1.93,1.93,0,0,0,348.42,210.83Z" transform="translate(-176.89 -210.82)"></path><path class="cls-7" d="M252.7,210.83H228.08a.94.94,0,0,0-.66.27.91.91,0,0,0-.27.66v59.8a11.9,11.9,0,0,1-23.79,0V222.49h0V211.75a.92.92,0,0,0-.92-.92H177.82a.94.94,0,0,0-.66.27.91.91,0,0,0-.27.66v59.8a38.37,38.37,0,0,0,76.73,0V219h0v-7.24A.92.92,0,0,0,252.7,210.83Z" transform="translate(-176.89 -210.82)"></path><path class="cls-7" d="M394.4,212.79a1.94,1.94,0,0,0-1.93-1.93l-22.18,0h0a1.93,1.93,0,0,0-1.92,1.93l0,93.05a1.93,1.93,0,0,0,1.93,1.93l22.19,0h0a1.95,1.95,0,0,0,1.93-1.93Z" transform="translate(-176.89 -210.82)"></path><path class="cls-7" d="M480.06,255.31a25.69,25.69,0,0,0-17.54-44.49c-.19,0-.38,0-.56,0l-12.06,0v0l-35.53,0h0a1.93,1.93,0,0,0-1.92,1.93l-.05,93.07a1.93,1.93,0,0,0,1.93,1.93h47.72a29.32,29.32,0,0,0,18-52.46Zm-42.18-25.08H457.3a6.92,6.92,0,1,1,0,13.84H437.88ZM457,284.65H437.88V264.42H457a10.12,10.12,0,0,1,0,20.23Z" transform="translate(-176.89 -210.82)"></path><path class="cls-7" d="M664.44,211.54a1.89,1.89,0,0,0-1.36-.57l-72.8-.14h0a1.93,1.93,0,0,0-1.93,1.93l0,18a1.92,1.92,0,0,0,1.92,1.93l22.85.05L613,305.85a1.89,1.89,0,0,0,.57,1.36,1.93,1.93,0,0,0,1.36.57l23,0h0a1.92,1.92,0,0,0,1.92-1.93l.12-73.15,23.07,0h0a1.92,1.92,0,0,0,1.93-1.92l0-17.95A1.92,1.92,0,0,0,664.44,211.54Z" transform="translate(-176.89 -210.82)"></path></svg>