<svg fill="none" viewBox="0 0 111 46" id="logo" xmlns="http://www.w3.org/2000/svg"><path d="M0 0h111v45.59H0z"></path><path fill="#9846A5" d="M75.724 45.59h-43.38a2.514 2.514 0 01-2.517-2.513v-.05a2.514 2.514 0 012.517-2.513h9.591a2.538 2.538 0 002.543-2.533 2.538 2.538 0 00-2.537-2.538H28.955a2.514 2.514 0 01-2.516-2.512v-.05a2.514 2.514 0 012.517-2.513h24.99a2.537 2.537 0 002.214-2.512c0-1.4-1.138-2.535-2.54-2.535H14.774a2.514 2.514 0 01-2.517-2.512v-.052a2.514 2.514 0 012.517-2.512h35.08a2.538 2.538 0 002.537-2.538 2.538 2.538 0 00-2.537-2.532H14.759a2.514 2.514 0 01-2.516-2.512v-.052A2.514 2.514 0 0114.76 10.1h26.02c1.4 0 2.535-1.134 2.535-2.531a2.533 2.533 0 00-2.535-2.53H22.399a2.514 2.514 0 01-2.517-2.513v-.051A2.514 2.514 0 0122.399 0h53.325C88.33.44 98.19 10.997 97.748 23.578c-.42 11.963-10.038 21.565-22.024 21.983v.028zM20.455 30.367H9.76a2.514 2.514 0 00-2.517 2.512v.051a2.514 2.514 0 002.517 2.512h10.696a2.514 2.514 0 002.517-2.512v-.05a2.514 2.514 0 00-2.517-2.513zm-10.379-7.49v-.05a2.514 2.514 0 00-2.517-2.513H2.517A2.514 2.514 0 000 22.827v.051a2.514 2.514 0 002.517 2.512h5.042a2.514 2.514 0 002.517-2.512v-.004.004zM110.534 38.56c.322.987.464 2.024.42 3.061 0 2.898-1.193 3.959-4.526 3.959-3.332 0-4.525-1.06-4.525-3.959a9.305 9.305 0 01.34-2.87l2.004.2c0 .884-.023 1.465-.023 2.67 0 .86.429 1.075 2.204 1.075 1.776 0 2.205-.214 2.205-1.075.018-.955-.016-1.91-.103-2.86l2.004-.2zm-1.622-3.35l1.888.466v2.791l-8.035-2.265a.93.93 0 01-.708-.93v-2.494a.93.93 0 01.708-.93l8.035-2.266v2.791l-1.888.465v2.373zm-3.803-1.516a9.17 9.17 0 01-1.002.154v.34c.317.037.685.088 1.002.153l1.864.428v-1.507l-1.864.432zm1.976-6.327c-.634 1.396-1.356 1.95-2.638 1.95-1.99 0-2.572-.963-2.572-3.592a9.981 9.981 0 01.466-3.177l1.761.163c0 .758-.023 1.986-.023 3.075 0 .633.065.81.331.81s.368-.163.597-.759l.657-1.582c.634-1.456 1.398-1.958 2.661-1.958 1.962 0 2.675.846 2.675 3.568a13.597 13.597 0 01-.429 3.377l-1.953-.167c.038-1.507.066-2.708.066-3.177 0-.698-.066-.861-.303-.861-.238 0-.354.126-.532.595l-.764 1.735zm3.715-6.061h-8.748v-2.698h8.743l.005 2.698zm-.951-12.081a.848.848 0 01.932.93v1.052c0 .567-.28.772-.797 1.06l-3.001 1.898a7.214 7.214 0 01-1.496.582v.088c.529-.079 1.063-.12 1.598-.126h3.701v2.531h-7.76a.848.848 0 01-.932-.93v-1.051c0-.568.28-.759.797-1.061l2.866-1.824a9.74 9.74 0 011.496-.67v-.074c-.531.065-1.053.112-1.584.125h-3.575V9.24l7.755-.014zM106.428.042c3.598 0 4.549 1.075 4.549 4.075s-.932 4.061-4.549 4.061c-3.617 0-4.549-1.074-4.549-4.061s.946-4.075 4.549-4.075zm0 5.252c2.027 0 2.507-.242 2.507-1.177s-.466-1.177-2.507-1.177-2.507.242-2.507 1.177.48 1.172 2.507 1.172v.005z"></path><path fill="#fff" d="M75.37 22.716l-3.634 1.563-1.534-3.564-7.256-6.331 3.728-1.605 3.02 3.005a8.5 8.5 0 011.049 1.47l.219-.093a10.021 10.021 0 01-.354-1.79l-.117-4.23 3.729-1.604-.397 9.583 1.548 3.596zM87.413 10.7c2.046 4.75 1.166 6.615-2.796 8.322-3.961 1.707-5.919 1.056-7.965-3.694-2.046-4.75-1.165-6.615 2.797-8.313 3.961-1.698 5.919-1.056 7.964 3.685zm-6.953 2.986c1.151 2.675 1.748 3.173 2.987 2.642 1.24-.53 1.287-1.302.13-3.982-1.155-2.68-1.747-3.172-2.982-2.642-1.235.53-1.286 1.312-.135 3.987v-.005zm-6.11 25.516l-3.635 1.563-1.534-3.55-7.275-6.33 3.729-1.606 3.02 3.006a8.5 8.5 0 011.048 1.47l.22-.093a10.021 10.021 0 01-.355-1.791l-.116-4.229 3.728-1.605-.396 9.583 1.566 3.582zm12.043-12.007c2.046 4.75 1.165 6.615-2.796 8.323-3.962 1.707-5.92 1.056-7.965-3.694-2.046-4.75-1.165-6.615 2.796-8.313 3.962-1.698 5.914-1.065 7.965 3.684zm-6.954 2.987c1.152 2.675 1.748 3.173 2.988 2.642 1.24-.53 1.286-1.302.13-3.982-1.156-2.68-1.747-3.172-2.982-2.642-1.235.53-1.291 1.307-.136 3.982z"></path></svg>