<svg id="Lager_1" data-name="Lager 1" xmlns="http://www.w3.org/2000/svg" xmlns:xlink="http://www.w3.org/1999/xlink" viewBox="0 0 250 152"><defs><style>.cls-1{fill:url(#_ÂÁ_Ï_ÌÌ_È_ËÂÌÚ_26);}</style><linearGradient id="_ÂÁ_Ï_ÌÌ_È_ËÂÌÚ_26" x1="67.25" y1="71.33" x2="188" y2="71.33" gradientUnits="userSpaceOnUse"><stop offset="0" stop-color="#ff9523"/><stop offset="1" stop-color="#ff2e16"/></linearGradient></defs><title>Namnlöst-1</title><path class="cls-1" d="M90.61,8.36a1.66,1.66,0,0,1-.11-.58,3.79,3.79,0,0,1,1.72-3.23,3.38,3.38,0,0,1,3.27-.24l23.18,10.55a3.13,3.13,0,0,1,2.3-1,1.58,1.58,0,0,1,.38,0l4.24,1a9.35,9.35,0,0,0,4.4,0l4.24-1a1.64,1.64,0,0,1,.38,0,3.15,3.15,0,0,1,2.08.8L159.38,4.31a3.42,3.42,0,0,1,3.28.24,3.81,3.81,0,0,1,1.71,3.23,1.61,1.61,0,0,1-.12.6l-4.48,11.18a10.43,10.43,0,0,0-.08,7.52l2.05,5.43h23.35A2.92,2.92,0,0,1,188,35.42V66.07a2.48,2.48,0,0,1-2.48,2.48h-1.06V91.12a3.25,3.25,0,0,1,.64.24,3,3,0,0,1,1.69,2.71V104.5a3.05,3.05,0,0,1-2.33,3v25.48a3.26,3.26,0,0,1-3.26,3.26H135.79a4.94,4.94,0,0,1-4.64,2.47h-7.42a4.94,4.94,0,0,1-4.65-2.47h-45a3.26,3.26,0,0,1-3.26-3.26V107.51a3,3,0,0,1-2.71-3V94.07a3,3,0,0,1,2.71-3V68.55H69.73a2.48,2.48,0,0,1-2.48-2.48V35.42a2.92,2.92,0,0,1,2.91-2.91h23l1.93-5a10.38,10.38,0,0,0,0-7.52Zm28.19,99.18H74v25.39l44.79,0Zm0-13.3H71.3v10.09h47.5Zm0-25.69H74V91H118.8Zm0-15.78-4.29,9.15a3.17,3.17,0,0,1-5.79-.23l-2.31-5.89-6.07,1.62a3.17,3.17,0,0,1-3.64-4.5l6.8-13.3-8,3.65a3.4,3.4,0,0,1-1.42.31,3.47,3.47,0,0,1-2.85-1.51,3.67,3.67,0,0,1-.36-3.49L92,35.73H70.47v29.6H118.8Zm14-6.76-5.46-11.57L122,45.91v89a2.49,2.49,0,0,0,1.71.51h7.42a2.48,2.48,0,0,0,1.7-.51Zm48.4,61.53H136.07V133l45.13,0a0,0,0,0,0,.05,0Zm2.32-13.3h-47.5v10.09h47.5ZM181.25,91V68.55H136.07V91Zm-17.59-49a3.5,3.5,0,0,1-2.86,1.52,3.43,3.43,0,0,1-1.42-.31l-8-3.65,6.8,13.3a3.17,3.17,0,0,1-3.64,4.5l-6.07-1.62-2.31,5.89a3.13,3.13,0,0,1-2.79,2h-.16A3.13,3.13,0,0,1,140.38,62l-4.31-9.14v12.5h48.71V35.73H163L164,38.61A3.68,3.68,0,0,1,163.66,42.06ZM137.74,29.88l23,10.46c.14.07.27-.07.32-.14a.6.6,0,0,0,0-.46l-4.34-11.52a13.58,13.58,0,0,1,.11-9.86l4.33-10.81a.58.58,0,0,0-.2-.3.16.16,0,0,0-.2,0l-23,10.45Zm-3.13,3.86a1.64,1.64,0,0,1-.38,0l-4.1-1,13.09,27.73,2.36-6.11A2.86,2.86,0,0,1,149,52.61l6.28,1.67-8.58-16.8-10-4.54A3.15,3.15,0,0,1,134.61,33.74Zm-13.56-3.28,3.78-.91a12.6,12.6,0,0,1,5.92,0l3.78.91V17.12l-3.78.91a12.6,12.6,0,0,1-5.92,0l-3.78-.91Zm-2.38,2.26-10.46,4.76-8.64,16.9,6.33-1.77a2.85,2.85,0,0,1,3.39,1.72l2.38,6.08,12.88-27.48-3.2.77a1.58,1.58,0,0,1-.38,0A3.13,3.13,0,0,1,118.67,32.72ZM93.75,7.55l4.39,11.31a13.63,13.63,0,0,1,0,9.86l-4.28,11a.55.55,0,0,0,0,.45c.06.08.18.21.32.14l23.69-10.78V18L94.16,7.24a.17.17,0,0,0-.2,0A.58.58,0,0,0,93.75,7.55Z"/></svg>