<svg id="Lager_1" data-name="Lager 1" xmlns="http://www.w3.org/2000/svg" viewBox="0 0 29.75 24.37"><defs><style>.cls-1{fill:#5dd55d;stroke:#000;stroke-miterlimit:10;stroke-width:0.1px;}</style></defs><title>card</title><path class="cls-1" d="M30.81,14.6l.51-1.19a2,2,0,0,0-1-2.59L9.46,1.92A2,2,0,0,0,6.87,3L6.36,4.15Z" transform="translate(-1.78 -1.71)"/><path class="cls-1" d="M5,7.45,2,14.38A2,2,0,0,0,3,17l20.82,8.9a2,2,0,0,0,2.59-1l3-6.93Z" transform="translate(-1.78 -1.71)"/><path class="cls-1" d="M6.4,4.05,4.94,7.47Z" transform="translate(-1.78 -1.71)"/><path class="cls-1" d="M30.85,14.51l-1.46,3.42Z" transform="translate(-1.78 -1.71)"/></svg>