<svg id="Lager_1" data-name="Lager 1" xmlns="http://www.w3.org/2000/svg" width="201.0323" height="71.2271" viewBox="0 0 406.0323 58.2271"><defs><style>.cls-1{fill:#fff;}.cls-2{fill:#fed100;}</style></defs><title>casinonizlogo</title><path class="cls-1" d="M17.8984,16.46A26.567,26.567,0,0,1,35.7505,9.667q13.3615,0,17.6719,9.1074a17.4051,17.4051,0,0,1,1.5449,10.2647H43.9038a12.703,12.703,0,0,0-1.5444-5.9722q-2.2632-3.583-8.19-3.583a13.789,13.789,0,0,0-10.56,5.0571q-4.5256,5.0582-6.3936,14.3145-1.9043,9.2571.8262,13.8662a9.097,9.097,0,0,0,8.4053,4.6094,13.025,13.025,0,0,0,9.6982-3.9561A22.5351,22.5351,0,0,0,40.24,46.9922H51.1958A32.4844,32.4844,0,0,1,40.8687,61.624,25.3636,25.3636,0,0,1,24.58,67.26q-11.4228,0-16.4155-7.6143Q3.2078,51.9946,5.937,38.6689,8.8821,24.2616,17.8984,16.46Z" transform="translate(-4.9677 -9.0327)"/><path class="cls-1" d="M82.23,10.7124h12.5L102.2368,65.73H90.24L89.126,54.42H69.6221L63.6592,65.73H52.0933ZM74.543,44.94H87.9766L85.7856,23.291Z" transform="translate(-4.9677 -9.0327)"/><path class="cls-1" d="M120.4121,48.7466a10.1824,10.1824,0,0,0,.8262,5.6362q2.0112,3.397,8.5488,3.3965a20.4746,20.4746,0,0,0,6.5376-.8955q4.9922-1.7167,5.9263-6.3828a3.8416,3.8416,0,0,0-1.4365-4.2178,19.3958,19.3958,0,0,0-6.6812-2.5757l-5.3521-1.3061q-7.8662-1.94-10.56-4.2178-4.5622-3.8071-2.91-11.9067a20.5141,20.5141,0,0,1,7.687-12.28q6.1773-4.89,16.2-4.89,8.3686,0,13.3257,4.6094t3.4483,13.3813H145.34q.7545-4.9635-2.6938-7.0546a11.8627,11.8627,0,0,0-6.1426-1.3809,13.5575,13.5575,0,0,0-7.2017,1.7915,7.38,7.38,0,0,0-3.5737,5.0015,3.8529,3.8529,0,0,0,1.6162,4.4043q1.4011.9711,6.43,2.2768l8.6563,2.2769q5.6756,1.4934,8.2255,3.9941,3.9507,3.8819,2.4424,11.2349A20.5426,20.5426,0,0,1,144.981,62.165q-6.5729,4.9835-16.7022,4.9825-10.3447,0-15.2661-4.9082t-3.1606-13.4927Z" transform="translate(-4.9677 -9.0327)"/><path class="cls-1" d="M168.1484,65.73H157.1572L168.4,10.7124h10.9917Z" transform="translate(-4.9677 -9.0327)"/><path class="cls-1" d="M189.521,10.7124h11.602L214.3413,49.12l7.8662-38.4072h10.3091L221.2739,65.73H210.21L196.561,26.65l-7.9741,39.08H178.2783Z" transform="translate(-4.9677 -9.0327)"/><path class="cls-1" d="M273.32,60.84q-7.2919,6.42-18.6426,6.42T238.623,60.84q-6.4306-7.875-3.3769-22.6938,3.0879-15.1164,12.68-22.6934,7.292-6.42,18.6426-6.42t16.0546,6.42Q289.0889,23.03,286,38.146,282.9472,52.9644,273.32,60.84Zm1.6172-22.6938q1.8662-9.2556-.9531-14.314t-9.3926-5.0576A15.6332,15.6332,0,0,0,253.08,23.8135q-4.9395,5.0391-6.8418,14.3325-1.9043,9.2944.9687,14.3335t9.4473,5.0381A15.5206,15.5206,0,0,0,268.1309,52.48Q273.0322,47.44,274.9375,38.146Z" transform="translate(-4.9677 -9.0327)"/><path class="cls-2" d="M299.8652,10.7124h11.6016L324.6846,49.12l7.8672-38.4072H342.86L331.6172,65.73H320.5547L306.9053,26.65l-7.9746,39.08H288.6221Z" transform="translate(-4.9677 -9.0327)"/><path class="cls-2" d="M352.0557,65.73H341.0645l11.2431-55.0171h10.9912Z" transform="translate(-4.9677 -9.0327)"/><path class="cls-2" d="M360.6055,56.0254l34.59-35.5713H368.543l2.0117-9.7417H411l-1.9043,9.2192L374.0391,56.0254h27.7656L399.8291,65.73H358.63Z" transform="translate(-4.9677 -9.0327)"/></svg>