<svg id="Lager_1" data-name="Lager 1" xmlns="http://www.w3.org/2000/svg" width="201.011" height="71.1473" viewBox="-10 10 371.010 71.1473"><defs><style>.cls-1,.cls-3{fill:#fff;}.cls-1{stroke:#fff;stroke-miterlimit:10;}.cls-2{fill:#fed100;}.cls-4{fill:#c7192d;}.cls-5{fill:#1a1a1a;opacity:0.1;}</style></defs><title>casinonizlogo</title><path class="cls-1" d="M14.1382,34.6689A22.1629,22.1629,0,0,1,28.71,29.3672q10.8984.0227,14.3994,7.1782a13.2007,13.2007,0,0,1,1.2432,8.0591l-9.0235-.0186a9.6857,9.6857,0,0,0-1.25-4.69q-1.84-2.8161-6.6743-2.8262a11.4218,11.4218,0,0,0-8.6211,3.9517q-3.6995,3.9631-5.2383,11.2246-1.5681,7.2642.6514,10.8848a7.4873,7.4873,0,0,0,6.8481,3.6328,10.84,10.84,0,0,0,7.9165-3.0889,17.6305,17.6305,0,0,0,3.35-5.0029l8.9356.0185A25.5373,25.5373,0,0,1,32.8,70.1572a21.2063,21.2063,0,0,1-13.2954,4.3965q-9.3165-.0191-13.3765-6.0049-4.03-6.0132-1.7822-16.4677Q6.7713,40.7768,14.1382,34.6689Z" transform="translate(-3.0411 -4.2942)"/><path class="cls-1" d="M66.6782,30.2656l10.1953.021,6.0337,43.1968-9.7851-.02-.89-8.8789-15.9082-.0332L51.4424,73.418l-9.4336-.02ZM60.353,57.1182l10.9571.0224L69.5581,40.145Z" transform="translate(-3.0411 -4.2942)"/><path class="cls-1" d="M97.8188,60.1836a7.7279,7.7279,0,0,0,.6651,4.4258q1.6347,2.669,6.9673,2.68a17.2748,17.2748,0,0,0,5.333-.6924q4.0745-1.3374,4.8442-4.999a2.9571,2.9571,0,0,0-1.165-3.3135,16.1716,16.1716,0,0,0-5.4448-2.0322l-4.3628-1.0342q-6.4131-1.5366-8.607-3.3282-3.714-2.997-2.3535-9.351a16.0353,16.0353,0,0,1,6.29-9.626q5.0456-3.8277,13.2207-3.81,6.8254.0138,10.8613,3.6406t2.79,10.5088l-8.6719-.0181q.6234-3.8943-2.1855-5.5415a9.9782,9.9782,0,0,0-5.0073-1.0942,11.3978,11.3978,0,0,0-5.877,1.394,5.8064,5.8064,0,0,0-2.9228,3.9194,2.9709,2.9709,0,0,0,1.311,3.46,20.3572,20.3572,0,0,0,5.2407,1.7978l7.0562,1.8018a15.2368,15.2368,0,0,1,6.7026,3.1484q3.2161,3.0543,1.9741,8.8223a16.0793,16.0793,0,0,1-6.6416,9.8154q-5.3694,3.9009-13.6308,3.8838-8.4375-.0175-12.4429-3.8789-4.0063-3.86-2.5566-10.5957Z" transform="translate(-3.0411 -4.2942)"/><path class="cls-1" d="M136.7871,73.5938l-8.9648-.0176,9.2588-43.1651,8.9648.0186Z" transform="translate(-3.0411 -4.2942)"/><path class="cls-1" d="M154.3672,30.4468l9.4629.02,10.72,30.1685,6.4775-30.1333,8.4082.0175-9.2587,43.1646-9.0235-.0186L160.084,42.9683l-6.5674,30.6606-8.4082-.0176Z" transform="translate(-3.0411 -4.2942)"/><path class="cls-1" d="M222.6963,69.9336q-5.9575,5.0259-15.2149,5.0078T194.3955,69.875q-5.231-6.1918-2.7168-17.8174,2.5445-11.8608,10.3779-17.792,5.959-5.0259,15.2159-5.0078,9.2577.02,13.0849,5.0664,5.2617,5.9591,2.7178,17.8184Q230.56,63.7676,222.6963,69.9336Zm1.3555-17.81q1.538-7.2627-.753-11.2373t-7.6533-3.9853a12.9853,12.9853,0,0,0-9.3975,3.9355q-4.0371,3.9471-5.6044,11.2383t.7675,11.2519q2.335,3.96,7.6973,3.9708a12.89,12.89,0,0,0,9.3682-3.9356Q222.4843,59.416,224.0518,52.124Z" transform="translate(-3.0411 -4.2942)"/><path class="cls-2" d="M244.4873,30.6323l9.4629.02L264.67,60.82l6.4776-30.1328,8.4082.0176-9.2588,43.164-9.0235-.0185L250.2041,43.1543l-6.5674,30.66-8.4082-.0176Z" transform="translate(-3.0411 -4.2942)"/><path class="cls-2" d="M286.9668,73.9043l-8.9648-.0186,9.2587-43.165,8.9649.0186Z" transform="translate(-3.0411 -4.2942)"/><path class="cls-2" d="M293.9551,66.3008l28.27-27.8613-21.7383-.045,1.6563-7.643,32.9882.0678-1.5673,7.2334L304.9121,66.3232l22.6465.0469-1.627,7.6143-33.6035-.0694Z" transform="translate(-3.0411 -4.2942)"/><path class="cls-3" d="M335.7149,37.5314l-.0365.0589Z" transform="translate(-3.0411 -4.2942)"/><path class="cls-4" d="M346.4672,30.3689a7.9492,7.9492,0,0,0-1.4518.6335,7.19,7.19,0,0,0-1.91,1.4727L339.18,26.9267l-.3215-.4539a12.116,12.116,0,0,1-.3047,3.84c-.0821.3989-.2286.9257-.3912,1.4652l0,.0013A9.6509,9.6509,0,0,0,336.7,26.7022a12.1066,12.1066,0,0,1,1.8919,1.3193s-5.0243-12.3668-21.2837-9.5141a4.1005,4.1005,0,0,1,1.8637-1.614,28.4149,28.4149,0,0,0-12.3,1.3176,14.7081,14.7081,0,0,0,1.6421-1.4823,18.2189,18.2189,0,0,0-6.969,1.3143c.3295-.7278.7049-1.4711,1.1317-2.2167A21.8678,21.8678,0,0,1,317.7,4.9762c16.9493-3.5506,23.0168,7.7519,24.9319,11.1621,1.4811,2.6333,2.89,10.2184,3.4543,13.5385Z" transform="translate(-3.0411 -4.2942)"/><path class="cls-5" d="M338.2405,24.95a11.7086,11.7086,0,0,1,.939,1.9773l-.3216-.4541a12.1219,12.1219,0,0,1-.3043,3.84c-.0824.399-.2286.9256-.3916,1.4652A9.6536,9.6536,0,0,0,336.7,26.7026a12.0823,12.0823,0,0,1,1.8914,1.3186s-5.0238-12.3668-21.2831-9.5137a4.099,4.099,0,0,1,1.8635-1.6143,28.4191,28.4191,0,0,0-12.3,1.3177,14.691,14.691,0,0,0,1.6425-1.4822,18.2227,18.2227,0,0,0-6.9694,1.3145c.3295-.728.7049-1.4713,1.1317-2.2167a19.1847,19.1847,0,0,1,6.6114-1.1218A15.1485,15.1485,0,0,1,307.6,16.2275a29.1884,29.1884,0,0,1,12.6352-1.3541,4.2142,4.2142,0,0,0-1.9144,1.6583c16.7016-2.93,21.8626,9.7728,21.8626,9.7728A12.4341,12.4341,0,0,0,338.2405,24.95Z" transform="translate(-3.0411 -4.2942)"/><path class="cls-3" d="M308.5135,16.7285s-13.4094-.3966-11.0436,9.8429c1.2561,5.4365,4.4689,7.3555,4.4689,7.3555s-.6024-1.8244-.6831-2.29h0s5.1342-3.7816,14.64-.4532h0s-1.7289-1.803-1.7787-2.4065c0,0,7.228,3.3072,10.5687,3.6351a19.5767,19.5767,0,0,1-1.1945-2.2615s2.0442.9125,5.9349,2.6809c4.861,2.21,5.8378,5.4289,5.8378,5.4289h0A9.1292,9.1292,0,0,0,336.7,26.7024a12.0914,12.0914,0,0,1,1.8915,1.3189s-5.0241-12.3667-21.2833-9.514a4.1,4.1,0,0,1,1.8636-1.6141,28.417,28.417,0,0,0-12.3,1.3179A14.7045,14.7045,0,0,0,308.5135,16.7285Z" transform="translate(-3.0411 -4.2942)"/><path class="cls-3" d="M353.0281,32.4909a6.04,6.04,0,0,0-8.0125-1.4884c-4.9641,2.75-2.5231,6.9156-2.2663,7.8626l.66-.6655s1.6105,2.5517,3.0821,3.0254l-.0762-.7919s3.15.7779,3.8852,1.5669l.1707-1.78s.806.834.9928,1.0736c0,0,1.9089-2.4833,1.395-4.1566,0,0,.6773.471.78.9381,0,0,1.6443-2.5628-1.6254-5.3861Z" transform="translate(-3.0411 -4.2942)"/></svg>