<svg id="Lager_1" data-name="Lager 1" xmlns="http://www.w3.org/2000/svg" viewBox="0 0 200.89 232.75"><defs><style>.cls-1{fill:#fd8f22;stroke:#fc3316;stroke-miterlimit:10;stroke-width:0.75px;}</style></defs><title>env</title><path class="cls-1" d="M226.26,103.39c-.42-1.8,5.33,4.39-94.26-95.21a4.35,4.35,0,0,0-6,0c-99.88,99.89-93.93,93.57-94.39,95.14a14.29,14.29,0,0,0-2.73,8.42V224.51a14.47,14.47,0,0,0,14.52,14.43c184.08,0,172.24.36,175.57-.72a14.13,14.13,0,0,0,7.52-5.76c3.32-5,2.41,1.77,2.41-120.72A14.29,14.29,0,0,0,226.26,103.39ZM129,17.1l80.19,80.19H48.82Zm86.53,88.72L160,161.38l-28.16-28.17a4.19,4.19,0,0,0-6,0l-28,28L42.48,105.8C43.59,105.64,214.68,105.66,215.55,105.82ZM37.33,112.53l54.6,54.61-54.6,54.6Zm177.15,118c-183,0-171.78.26-173.53-.53l87.88-87.89,88,88A6.37,6.37,0,0,1,214.48,230.54Zm6.06-8.58-54.62-54.63,54.62-54.62Z" transform="translate(-28.55 -6.62)"/></svg>