<svg id="Lager_1" data-name="Lager 1" xmlns="http://www.w3.org/2000/svg" viewBox="0 0 231.81 145.6"><defs><style>.cls-1{fill:#f15a24;}</style></defs><title>esporticon</title><path class="cls-1" d="M28.14,58.39,7.29,121.84h0c-7.87,26.82,28.11,42.29,42.49,19.54l27.27-40.25a21.05,21.05,0,0,1-2.6-5A37.53,37.53,0,0,1,28.14,58.39Z" transform="translate(-6.19 -6.8)"/><path class="cls-1" d="M79.23,10.47A3.69,3.69,0,0,0,75.55,6.8H59.64A3.69,3.69,0,0,0,56,10.47v1.86l23.27-.06Z" transform="translate(-6.19 -6.8)"/><path class="cls-1" d="M84.44,28.29l-1-11.06a3.6,3.6,0,0,0-3.15-3.12l-24.78.07a5.15,5.15,0,0,0-4.07,3.07l-3.79,10.3A37.62,37.62,0,0,1,84.44,28.29Z" transform="translate(-6.19 -6.8)"/><path class="cls-1" d="M213.82,60.13A35,35,0,1,0,145.6,71.26a18.68,18.68,0,1,0,22.66,22.28A35,35,0,0,0,213.82,60.13Zm-63.77,43.06a13.8,13.8,0,1,1,13.81-13.8A13.82,13.82,0,0,1,150.05,103.19Zm5.44-32.1a4.6,4.6,0,0,1-4.6-4.6V53.79a4.59,4.59,0,0,1,4.6-4.6h12.35V36.82a4.6,4.6,0,0,1,4.6-4.59h12.71a4.6,4.6,0,0,1,4.6,4.59V49.19H202.1a4.59,4.59,0,0,1,4.6,4.6v12.7a4.6,4.6,0,0,1-4.6,4.6H189.75V83.44a4.61,4.61,0,0,1-4.6,4.61H172.44a4.62,4.62,0,0,1-4.6-4.61V71.09Z" transform="translate(-6.19 -6.8)"/><path class="cls-1" d="M169.69,83.44a2.75,2.75,0,0,0,2.75,2.76h12.71a2.76,2.76,0,0,0,2.76-2.76V69.25H202.1a2.77,2.77,0,0,0,2.76-2.76V53.79A2.77,2.77,0,0,0,202.1,51H187.91V36.82a2.76,2.76,0,0,0-2.76-2.75H172.44a2.75,2.75,0,0,0-2.75,2.75V51h-14.2a2.77,2.77,0,0,0-2.76,2.77v12.7a2.77,2.77,0,0,0,2.76,2.76h14.2Zm25.55-30.23a7.08,7.08,0,1,1-7.08,7.08A7.08,7.08,0,0,1,195.24,53.21ZM179,36.93A7.08,7.08,0,1,1,171.88,44,7.07,7.07,0,0,1,179,36.93Zm0,32.57a7.08,7.08,0,1,1-7.08,7.07A7.06,7.06,0,0,1,179,69.5Zm-16.28-2.14a7.08,7.08,0,1,1,7.07-7.07A7.08,7.08,0,0,1,162.68,67.36Z" transform="translate(-6.19 -6.8)"/><path class="cls-1" d="M150.05,77.42a12,12,0,1,0,12,12A12,12,0,0,0,150.05,77.42Z" transform="translate(-6.19 -6.8)"/><path class="cls-1" d="M236.88,121.84h0L216.05,58.39a37.53,37.53,0,0,1-46.33,37.76,21.43,21.43,0,0,1-2.6,5l27.26,40.25C208.77,164.13,244.77,148.69,236.88,121.84Z" transform="translate(-6.19 -6.8)"/><path class="cls-1" d="M98.59,71.26A35,35,0,1,0,75.93,93.54,18.68,18.68,0,1,0,98.59,71.26ZM76.35,83.44a4.61,4.61,0,0,1-4.6,4.61H59a4.61,4.61,0,0,1-4.6-4.61V71.09H42.09a4.6,4.6,0,0,1-4.6-4.6V53.79a4.59,4.59,0,0,1,4.6-4.6H54.44V36.82A4.6,4.6,0,0,1,59,32.23H71.75a4.6,4.6,0,0,1,4.6,4.59V49.19H88.7a4.59,4.59,0,0,1,4.6,4.6v12.7a4.6,4.6,0,0,1-4.6,4.6H76.35Zm17.78,19.75A13.8,13.8,0,1,1,108,89.39,13.83,13.83,0,0,1,94.13,103.19Z" transform="translate(-6.19 -6.8)"/><path class="cls-1" d="M91.45,66.49V53.79A2.77,2.77,0,0,0,88.7,51H74.5V36.82a2.75,2.75,0,0,0-2.75-2.75H59a2.76,2.76,0,0,0-2.76,2.75V51H42.09a2.78,2.78,0,0,0-2.77,2.77v12.7a2.77,2.77,0,0,0,2.77,2.76H56.28V83.44A2.76,2.76,0,0,0,59,86.2H71.75a2.75,2.75,0,0,0,2.75-2.76V69.25H88.7A2.76,2.76,0,0,0,91.45,66.49ZM57.62,64.28c-.75.93-1.11.71-9.38.71a.92.92,0,0,1-.91-.92V56.2a.92.92,0,0,1,.91-.92c8,0,8.61-.24,9.38.72l2.77,3.43C61.14,60.34,60.3,61,57.62,64.28ZM70.51,77.54a.92.92,0,0,1-.91.93H61.72a.93.93,0,0,1-.93-.93c0-8-.23-8.61.73-9.37l3.42-2.77c.92-.74,1.54.09,4.85,2.77a2.14,2.14,0,0,1,.72,1.49Zm-.72-25.43c-3.31,2.68-3.93,3.51-4.85,2.76-3.34-2.7-4.15-3.08-4.15-4.26V42.73a.93.93,0,0,1,.93-.92H69.6a.92.92,0,0,1,.91.92C70.51,50.92,70.72,51.36,69.79,52.11ZM84,64.07a.91.91,0,0,1-.91.92c-8.18,0-8.63.22-9.37-.71C71,61,70.17,60.35,70.92,59.43c2.71-3.37,3.09-4.15,4.27-4.15h7.87a.92.92,0,0,1,.91.92Z" transform="translate(-6.19 -6.8)"/><path class="cls-1" d="M94.13,77.42a12,12,0,1,0,12,12A12,12,0,0,0,94.13,77.42Z" transform="translate(-6.19 -6.8)"/><path class="cls-1" d="M188.23,10.47a3.69,3.69,0,0,0-3.67-3.67H168.64A3.69,3.69,0,0,0,165,10.47v1.8l23.27.06Z" transform="translate(-6.19 -6.8)"/><path class="cls-1" d="M196.5,27.55l-3.78-10.3a5.17,5.17,0,0,0-4.07-3.07l-24.78-.07a3.59,3.59,0,0,0-3.15,3.12l-1,11.06A37.6,37.6,0,0,1,196.5,27.55Z" transform="translate(-6.19 -6.8)"/><rect class="cls-1" x="100.65" y="55.95" width="7.94" height="2.02"/><rect class="cls-1" x="123.99" y="55.91" width="7.93" height="2.02"/><path class="cls-1" d="M143.17,70.09A36.69,36.69,0,0,1,154,32.91a342.49,342.49,0,0,1-63,.91,36.66,36.66,0,0,1,9.79,36.26,20.4,20.4,0,0,1,13.73,20.41q7.47-.08,14.94.12A20.46,20.46,0,0,1,143.17,70.09Zm-26.54-4.4a.92.92,0,0,1-.93.92h-9.78a.92.92,0,0,1-.91-.92V61.83a.92.92,0,0,1,.91-.92h9.78a.92.92,0,0,1,.93.92Zm11.71,0V61.79a.93.93,0,0,1,.93-.92h9.78a.92.92,0,0,1,.92.92v3.87a.93.93,0,0,1-.92.92h-9.78A.93.93,0,0,1,128.34,65.66Z" transform="translate(-6.19 -6.8)"/></svg>