<svg id="Lager_1" data-name="Lager 1" width="250px" xmlns="http://www.w3.org/2000/svg" xmlns:xlink="http://www.w3.org/1999/xlink" viewBox="0 0 250 200"><defs><style>.cls-1{fill:url(#_ÂÁ_Ï_ÌÌ_È_ËÂÌÚ_26);}</style><linearGradient id="_ÂÁ_Ï_ÌÌ_È_ËÂÌÚ_26" x1="38.97" y1="99.82" x2="211.51" y2="99.82" gradientUnits="userSpaceOnUse"><stop offset="0" stop-color="#ff9523"/><stop offset="1" stop-color="#ff2e16"/></linearGradient></defs><title>handinco</title><path class="cls-1" d="M154.76,158c-9.41,6.9-24.19,15.45-36.31,17.84l-14.58,19.9a2.15,2.15,0,0,1-3,.47,2.14,2.14,0,0,1-.6-2.8l.13-.23,15.08-20.59a2.14,2.14,0,0,1,1.38-.86c9.61-1.67,21.34-7.81,30.34-13.73h-44a5.62,5.62,0,0,1-5.62-5.62V98.1a5,5,0,0,1-4.71-1.46,5.42,5.42,0,0,1-1.34-4.46L97.3,46l.25-2.39A7.43,7.43,0,0,0,82.93,42.1v0a1,1,0,0,1-.05.16L63.57,103.05c-.32,1.77-3.49,19.66-3.86,23.59A31.35,31.35,0,0,0,61,137.33L64.13,144a2.16,2.16,0,0,1-1,2.88,2,2,0,0,1-.93.21,2.15,2.15,0,0,1-2-1.23l-1.74-3.64L43.06,161.43l-.23.28A2.17,2.17,0,1,1,39.45,159l17.11-21.33a34.87,34.87,0,0,1-1.16-11.43c.4-4.3,3.78-23.29,3.92-24.09a2.29,2.29,0,0,1,.07-.28L78.73,41h0a11.74,11.74,0,0,1,18.83-6.19V8.62A5.62,5.62,0,0,1,103.18,3h79.74a5.62,5.62,0,0,1,5.62,5.62V30.87l3.68-2.15a12.94,12.94,0,0,1,17.58,5.05l.12.23a12.91,12.91,0,0,1-5.1,17.49l-15.3,8.93a10.42,10.42,0,0,1,10,6.93l1.71,4.88a10.38,10.38,0,0,1-6.37,13.23l-.48.17a10.4,10.4,0,0,1,5.42,6l1.7,4.88a10.38,10.38,0,0,1-6.36,13.23l-2.88,1a10.38,10.38,0,0,1,7.95,6.77l1,2.81a10.38,10.38,0,0,1-6.37,13.24l-1.48.53a11.79,11.79,0,0,1-3.92.67c-.28,0-.57,0-.85,0v17.69a5.62,5.62,0,0,1-5.62,5.62ZM97.56,78.79l-1.75,14a1.15,1.15,0,0,0,.21.94c.11.12.37.4,1.44,0l.1,0Zm90.8,36.41-1.25.44-.21.08a7.43,7.43,0,0,0-4.59,9.5l.05.14a7.43,7.43,0,0,0,9.51,4.61l1.48-.52a6.07,6.07,0,0,0,3.72-7.73l-1-2.81A6.07,6.07,0,0,0,188.36,115.2ZM188,89.32l-.86.3-2.7.94a7.45,7.45,0,0,0-4.56,9.5l.79,2.25a7.4,7.4,0,0,0,6,4.9,7.51,7.51,0,0,0,3.45-.36l3.56-1.24a6,6,0,0,0,3.7-7.71L195.67,93A6.07,6.07,0,0,0,188,89.32ZM188.54,56l14.14-8.27a8.55,8.55,0,0,0,3.42-11.66l-.12-.24a8.58,8.58,0,0,0-11.63-3.33l-5.81,3.4Zm-4.41,10.34a7.45,7.45,0,0,0-4.57,9.49l.79,2.24A7.45,7.45,0,0,0,186.59,83a7.31,7.31,0,0,0,3.25-.38l3.55-1.25a6.06,6.06,0,0,0,3.71-7.71l-1.71-4.87a6.06,6.06,0,0,0-7.72-3.71l-.58.21h0ZM101.89,13.22h82.32V8.62a1.29,1.29,0,0,0-1.29-1.29H103.18a1.29,1.29,0,0,0-1.29,1.29Zm0,127.84h82.32v-7.55a11.74,11.74,0,0,1-5.93-6.67l-.05-.14a11.77,11.77,0,0,1,6-14.54v-1.07a11.74,11.74,0,0,1-7.69-7.35l-.78-2.25a11.79,11.79,0,0,1,7.17-15,11.82,11.82,0,0,1-6.65-7l-.79-2.24a11.78,11.78,0,0,1,7.22-15l1.52-.53V17.55H101.89Zm81,12.61a1.28,1.28,0,0,0,1.29-1.28v-7H101.89v7a1.28,1.28,0,0,0,1.29,1.28ZM148,147.36h-8.37a2.17,2.17,0,1,0,0,4.33H148a2.17,2.17,0,1,0,0-4.33Zm20.6-64.51a27.16,27.16,0,1,1-27.16-27.16A27.19,27.19,0,0,1,168.6,82.85Zm-4.34,0a22.83,22.83,0,1,0-22.82,22.83A22.85,22.85,0,0,0,164.26,82.85Zm-7.2-11.36a2.15,2.15,0,0,0-3,.34L137.8,92.08a1.11,1.11,0,0,1-1.57.17l-7.71-6.14a2.17,2.17,0,1,0-2.7,3.39l7.71,6.14a5.41,5.41,0,0,0,3.39,1.19,5.48,5.48,0,0,0,4.27-2L157.4,74.53A2.15,2.15,0,0,0,157.06,71.49Z"/></svg>