<svg id="Lager_1" data-name="Lager 1" xmlns="http://www.w3.org/2000/svg" viewBox="0 0 224.75 158.82"><defs><style>.cls-1{fill:#39b54a;}.cls-2{fill:#bf0005;}.cls-3{fill:#009408;}</style></defs><title>minislot</title><g id="Slot_machine" data-name="Slot machine"><path class="cls-1" d="M161.21,38.24H40.8A11.28,11.28,0,0,0,29.54,49.49V84.56A11.28,11.28,0,0,0,40.8,95.81H161.21a11.27,11.27,0,0,0,11.25-11.25V49.49A11.27,11.27,0,0,0,161.21,38.24ZM35.92,84.56V49.49a4.89,4.89,0,0,1,4.88-4.88H75.06V89.44H40.8A4.89,4.89,0,0,1,35.92,84.56ZM81.43,44.61h39.15V89.44H81.43Zm84.66,40a4.89,4.89,0,0,1-4.88,4.88H127V44.61h34.26a4.89,4.89,0,0,1,4.88,4.88Z" transform="translate(-12.25 -9.61)"/><path class="cls-2" d="M154.12,52.43h-15.2a3.19,3.19,0,1,0,0,6.37h8.91a46.55,46.55,0,0,0-6,19.32,3.19,3.19,0,0,0,2.86,3.48l.31,0a3.19,3.19,0,0,0,3.17-2.88c1.37-14,8.1-20.76,8.15-20.81a3.19,3.19,0,0,0-2.2-5.5Z" transform="translate(-12.25 -9.61)"/><path class="cls-2" d="M108.61,52.43H93.4a3.19,3.19,0,1,0,0,6.37h8.91a46.85,46.85,0,0,0-6,19.32,3.19,3.19,0,0,0,2.86,3.48l.32,0a3.2,3.2,0,0,0,3.17-2.88c1.37-14,8.09-20.76,8.15-20.81a3.19,3.19,0,0,0-2.2-5.5Z" transform="translate(-12.25 -9.61)"/><path class="cls-2" d="M63.09,52.43H47.88a3.19,3.19,0,0,0,0,6.37H56.8a46.55,46.55,0,0,0-6,19.32,3.19,3.19,0,0,0,2.86,3.48l.31,0a3.19,3.19,0,0,0,3.17-2.88c1.37-14,8.1-20.76,8.15-20.81a3.19,3.19,0,0,0-2.2-5.5Z" transform="translate(-12.25 -9.61)"/><path class="cls-1" d="M161.93,111.8H40.08a10.55,10.55,0,0,0-10.54,10.53v7a10.55,10.55,0,0,0,10.54,10.53H161.93a10.54,10.54,0,0,0,10.53-10.53v-7A10.54,10.54,0,0,0,161.93,111.8Zm4.16,17.48a4.16,4.16,0,0,1-4.16,4.16H40.08a4.16,4.16,0,0,1-4.16-4.16v-7a4.16,4.16,0,0,1,4.16-4.16H161.93a4.16,4.16,0,0,1,4.16,4.16Z" transform="translate(-12.25 -9.61)"/><path class="cls-3" d="M237,39.24a18,18,0,1,0-21.14,17.65v46.42a11.56,11.56,0,0,1-8.43,11.1c-.76-20.93-8.23-24.65-17.67-25.21v-61A18.59,18.59,0,0,0,171.19,9.61H30.82A18.59,18.59,0,0,0,12.25,28.18V149.87a18.59,18.59,0,0,0,18.57,18.56H171.19a18.59,18.59,0,0,0,18.57-18.56v-3c9.55-.57,17.09-4.36,17.69-25.95a17.93,17.93,0,0,0,14.78-17.62V56.89A18,18,0,0,0,237,39.24ZM183.38,149.87a12.2,12.2,0,0,1-12.19,12.19H30.82a12.2,12.2,0,0,1-12.19-12.19V28.18A12.2,12.2,0,0,1,30.82,16H171.19a12.2,12.2,0,0,1,12.19,12.2Zm6.38-9.34v-45c6.75.36,11.37,3,11.37,22.49S196.51,140.16,189.76,140.53ZM219,50.82a11.59,11.59,0,1,1,11.59-11.58A11.6,11.6,0,0,1,219,50.82Z" transform="translate(-12.25 -9.61)"/></g></svg>