<svg id="Lager_1" data-name="Lager 1" height="32px" width="32px" xmlns="http://www.w3.org/2000/svg" viewBox="0 0 242.87 242.88"><defs><style>.cls-1{fill:#fed100;}</style></defs><title>minodds</title><path class="cls-1" d="M140.21,4.21C72.25-4.56,11.11,44.55,3.85,111.46c-7.84,72,48.81,134.61,120.71,134.61A121.44,121.44,0,0,0,140.21,4.21ZM35.14,100.11q25.32,8.9,50.74,17.44,6,19.1,12.59,38.05c-10.48,14.33-21,28.6-31.49,43C53.82,197,47.5,196.12,36.05,194.2,25.54,170.44,19,147.44,13.37,122.11A299.75,299.75,0,0,1,35.14,100.11ZM28.46,64.68C48.26,47.93,68,32.84,91.05,20.78c10.59,5.67,16.38,8.88,28.56,16q-.1,27-.14,54-16.71,12-33.2,24.21c-16.85-5.58-33.65-11.34-50.43-17.12C32.27,83.73,30.2,76.73,28.46,64.68Zm72.11,93.21q20.5.3,41,0c10.14,13.91,20.59,27.59,30.79,41.46-5.7,12.31-8.89,17.41-14.75,25.48q-36.58.57-73.16.37c-5.93-8-9.08-13.22-14.85-25.54C79.86,185.7,90.35,171.89,100.57,157.89Zm21.67-121c12.26-7.17,18.12-10.39,28.78-16.1,23.2,12.06,43.13,27.05,63.11,43.84-1.72,11.86-3.75,18.73-7.26,32.63-17.3,5.93-34.62,11.84-52,17.58q-16.17-12-32.56-23.72Q122.3,64,122.24,36.91Zm21.19,119.58q6.73-19.47,12.95-39.09,25.53-8.5,50.88-17.47a304.25,304.25,0,0,1,22,22.18c-5.78,25.18-12.48,48.05-23.12,71.63-11.83,2-18.39,2.86-32,4.43C164,184.23,153.58,170.44,143.43,156.49Zm78.93-91.24c-2.12-.37-4.49-.76-7.23-1.21C194.94,47,174.79,31.79,151.22,19.71c-1.74-2.93-3.22-5.32-4.58-7.35A114.78,114.78,0,0,1,222.36,65.25ZM94.26,14.31c-1,1.57-2.1,3.33-3.32,5.37C67.56,31.73,47.58,47,27.59,64A114.91,114.91,0,0,1,94.26,14.31Zm-84,105.1c.66.78,1.35,1.58,2.11,2.45,5.5,25.53,12,48.69,22.48,72.66-.05.3-.09.59-.13.87A113.68,113.68,0,0,1,10.26,119.41ZM78.19,229.22c1.91-.84,4.06-1.81,6.56-3,0,0,33.21.18,72.87-.42,7.32,3.35,8.36,3.81,10.43,4.68A114,114,0,0,1,78.19,229.22Zm130.35-26.93c-.36-2.42-.74-5.08-1.19-8.23,10.61-23.73,17.25-46.69,22.92-72,3.51-4.05,6-7,8.06-9.77A114,114,0,0,1,208.54,202.29Z" transform="translate(-3.13 -3.2)"/></svg>