<svg id="Lager_1" data-name="Lager 1" width="250px"  xmlns="http://www.w3.org/2000/svg" xmlns:xlink="http://www.w3.org/1999/xlink" viewBox="0 0 250 200"><defs><style>.cls-1{fill:url(#_ÂÁ_Ï_ÌÌ_È_ËÂÌÚ_26);}</style><linearGradient id="_ÂÁ_Ï_ÌÌ_È_ËÂÌÚ_26" x1="11" y1="101.36" x2="239.65" y2="101.36" gradientUnits="userSpaceOnUse"><stop offset="0" stop-color="#ff9523"/><stop offset="1" stop-color="#ff2e16"/></linearGradient></defs><title>minpig</title><path class="cls-1" d="M216.64,118.35c-4.22,16.24-15.89,31.1-32.73,41.76-1.21.77-2.44,1.52-3.7,2.24l.55,8.06c.71,10.5-8.46,19.66-20.43,20.42l-1.5.09q-.83.06-1.62.06c-10.27,0-19-6.16-21.41-14.69a126.81,126.81,0,0,1-26.35,0c-2.55,9-12.14,15.27-23,14.6l-1.51-.1c-12-.76-21.14-9.92-20.43-20.42L65,162.7a86.82,86.82,0,0,1-24.49-20.13,21.17,21.17,0,0,1-5.33.68,20.33,20.33,0,0,1-19.31-13.12l-3.82-10.64c-3.56-10,2-20.91,12.5-24.42l2.55-.86c2.09-11.25,7.72-22,16.35-31.37C38.69,55.35,36.55,46.55,37,36.61A64.39,64.39,0,0,1,37.59,30,4.44,4.44,0,0,1,42,26.47c20.36-.71,31.94,6.13,38.32,12.59a119.3,119.3,0,0,1,23.9-6,33.23,33.23,0,0,1,13.23-14.9,44.51,44.51,0,0,1,29-6.08c20.27,2.52,34.85,17.6,34,34.38.7.41,1.4.82,2.08,1.25,18.16,11,30.4,26.61,34.45,44a7.86,7.86,0,0,0,3.09,4.73,49.33,49.33,0,0,1,19.45,28.81,4.44,4.44,0,0,1-1.09,4.09,5.83,5.83,0,0,1-8.21.16C224.22,123.5,219.78,120.18,216.64,118.35ZM107.53,45.53l5.14-.17a19.73,19.73,0,0,1,.28-4.21c1.73-10.65,11.64-18.61,23.7-20.12.2,0,.41,0,.62-.06.7-.07,1.4-.14,2.11-.17.45,0,.91,0,1.36,0s.95,0,1.44,0c.94,0,1.89.11,2.84.23a30.23,30.23,0,0,1,18.81,9.36,21.16,21.16,0,0,1,5.6,17.79,20.8,20.8,0,0,1-2.8,7.51c-.08.14-.15.29-.24.42l4.46,2.23a24.32,24.32,0,0,0,3.73-9.52c2.48-15.27-10.49-29.55-28.9-31.84a38.34,38.34,0,0,0-25,5.21c-7.12,4.44-11.7,11-12.9,18.33A23.5,23.5,0,0,0,107.53,45.53Zm51.8-12.07a24,24,0,0,0-15.1-7.57,25.82,25.82,0,0,0-16.91,3.59A18.45,18.45,0,0,0,118.58,42a17.21,17.21,0,0,0-.2,3.28,144.68,144.68,0,0,1,22,2.33c7.28,1.4,16.71,4.69,21,6.25a16.76,16.76,0,0,0,2.36-6.24h0A17,17,0,0,0,159.33,33.46Zm56.45,78.85c5,1.94,11.1,6.45,18.15,13.43a44.52,44.52,0,0,0-17.35-25.44,12.75,12.75,0,0,1-5.09-7.6c-3.73-16-15.05-30.48-31.87-40.75a28.92,28.92,0,0,1-4,9c1.05.64,2.09,1.3,3.13,2a2.27,2.27,0,0,1,.53,3.45,3,3,0,0,1-2.23,1,3,3,0,0,1-1.7-.51c-1.76-1.17-3.55-2.25-5.35-3.27l-8.46-4.23-.86-.37c-2.41-.9-10.66-3.91-17.85-5.71a122.72,122.72,0,0,0-16.21-2.52h-.17c-4.27-.37-8.24-.51-11.8-.5l-8.79.29c-5.15.35-8.29.88-8.4.9a2.82,2.82,0,0,1-3.32-1.91,2.49,2.49,0,0,1,2.18-2.9c.37-.07,2.39-.42,5.64-.75a27.21,27.21,0,0,1,.3-6c.08-.49.18-1,.28-1.47a110.9,110.9,0,0,0-21.9,6,3.07,3.07,0,0,1-3.37-.75C72.11,37.71,62,30.9,43.06,31.36c-1.67,12,.42,22.19,6.22,30.43A2.23,2.23,0,0,1,49,64.67C40,74,34.24,84.94,32.43,96.33a2.55,2.55,0,0,1-1.77,2l-4.08,1.37A14.32,14.32,0,0,0,17.43,118l3.82,10.64a14.78,14.78,0,0,0,14,9.67,15.21,15.21,0,0,0,4.82-.79l.59-.2a3,3,0,0,1,3.33.92,80.83,80.83,0,0,0,25.46,21,2.38,2.38,0,0,1,1.33,2.24l-.62,9.16c-.53,7.83,6.3,14.66,15.23,15.22l1.5.1c8.77.54,16.52-5,17.53-12.71a2.4,2.4,0,0,1,1.08-1.66,3.06,3.06,0,0,1,2.1-.49,120.07,120.07,0,0,0,30.13,0,2.82,2.82,0,0,1,.41,0,3,3,0,0,1,1.71.51,2.36,2.36,0,0,1,1.08,1.67c1,7.64,8.63,13.32,17.54,12.75l1.5-.1c8.93-.56,15.76-7.39,15.23-15.22l-.64-9.5a2.39,2.39,0,0,1,1.31-2.23c19.46-10.7,32.61-27,36.05-44.82a2.53,2.53,0,0,1,1.44-1.76A3.25,3.25,0,0,1,215.78,112.31Zm-69.18,9.92c-1.38,9.79-10.68,13.1-17.25,13.7v6.28a2.83,2.83,0,0,1-5.61,0v-6.35c-13.36-1.52-18-12-18.5-17.61a2.59,2.59,0,0,1,2.56-2.66,2.72,2.72,0,0,1,3,2.24c.06.53,1.34,11.25,12.91,13V107.7c-4.33-1-10.87-3-14.18-7.71-2.16-3.09-2.62-6.8-1.37-11,.94-4.11,5.35-10.71,15.55-11.42v-3.8a2.83,2.83,0,0,1,5.61,0v4l1.25.15c6.35,1,11.55,4.48,13.91,9.26A14.34,14.34,0,0,1,146,93.55,2.65,2.65,0,0,1,143.19,96h0a2.64,2.64,0,0,1-2.8-2.46,10.15,10.15,0,0,0-1-4.47c-1.61-3.27-5.27-5.65-9.77-6.37a2,2,0,0,1-.24,0v21.16l1.22.31a32.7,32.7,0,0,1,4.81,1.58C146.2,110.38,147.46,118.48,146.6,122.23ZM123.74,82.48c-8.45.82-10,7.16-10.06,7.48a1.24,1.24,0,0,1,0,.16c-.89,3-.65,5.36.71,7.31,2,2.82,6,4.31,9.39,5.17Zm9.17,27.66a26.08,26.08,0,0,0-3.56-1.17v22c3.92-.47,10.74-2.32,11.69-9.4a2,2,0,0,1,0-.24C141.14,121.05,142.54,114.28,132.91,110.14Z"/></svg>