<svg xmlns="http://www.w3.org/2000/svg" viewBox="96 93 110 35" style="background-color:#a7f2ac" fill="#000"><path d="M132.91 107.18a2.871 2.871 0 0 0-.797-.5 2.348 2.348 0 0 0-.915-.185 1.352 1.352 0 0 0-.732.219.956.956 0 0 0-.27.268.663.663 0 0 0-.106.377c0 .156.04.286.119.391.079.105.176.197.29.275.114.077.237.141.369.191.132.05.255.094.369.13l.659.207c.342.11.663.24.962.39.299.152.558.337.777.557.22.22.394.482.52.789.129.306.192.67.192 1.09 0 .512-.073 1.018-.217 1.517a2.64 2.64 0 0 1-.811 1.269 3.593 3.593 0 0 1-1.33.747c-.493.151-.99.227-1.49.227a5.559 5.559 0 0 1-1.839-.309 6.204 6.204 0 0 1-1.654-.871l1.108-2.168c.324.293.676.544 1.054.755.378.21.79.315 1.239.315.15 0 .298-.02.448-.062a1.3 1.3 0 0 0 .402-.185.956.956 0 0 0 .29-.322.947.947 0 0 0 .112-.473.711.711 0 0 0-.165-.481 1.487 1.487 0 0 0-.409-.329 2.562 2.562 0 0 0-.514-.22 30.52 30.52 0 0 1-.48-.15c-.405-.12-.772-.245-1.101-.378a2.889 2.889 0 0 1-.85-.515 2.056 2.056 0 0 1-.547-.795c-.128-.32-.191-.732-.191-1.235 0-.522.085-.998.257-1.427.172-.43.408-.796.711-1.098a3.16 3.16 0 0 1 1.081-.7 3.725 3.725 0 0 1 1.377-.247c.246 0 .508.02.785.062a6.978 6.978 0 0 1 1.607.44c.26.104.499.22.719.35l-1.028 2.085zm-17.316-2.662h2.543l2.017 5.53 2.134-5.53h2.57l1.503 10.346h-2.583l-.725-5.954h-.026l-2.386 5.954h-1.028l-2.28-5.954h-.026l-.83 5.954h-2.57l1.687-10.346zm-3.756 2.663a2.871 2.871 0 0 0-.797-.501 2.347 2.347 0 0 0-.916-.185 1.351 1.351 0 0 0-.732.219.961.961 0 0 0-.27.268.663.663 0 0 0-.105.377c0 .156.04.286.118.391.08.105.176.197.29.275.115.077.237.141.37.191.131.05.254.094.368.13l.659.207c.343.11.663.24.962.39.299.152.558.337.778.557.22.22.393.482.52.789.128.306.191.67.191 1.09 0 .512-.072 1.018-.217 1.517a2.644 2.644 0 0 1-.81 1.269 3.593 3.593 0 0 1-1.331.747c-.493.151-.989.227-1.49.227a5.559 5.559 0 0 1-1.838-.309 6.204 6.204 0 0 1-1.654-.871l1.107-2.168c.325.293.676.544 1.054.755.378.21.79.315 1.239.315.15 0 .299-.02.448-.062a1.3 1.3 0 0 0 .402-.185.963.963 0 0 0 .29-.322.952.952 0 0 0 .112-.473.714.714 0 0 0-.165-.481 1.48 1.48 0 0 0-.408-.329 2.57 2.57 0 0 0-.514-.22c-.18-.055-.34-.105-.481-.15a12.012 12.012 0 0 1-1.1-.378 2.882 2.882 0 0 1-.85-.515 2.056 2.056 0 0 1-.547-.795c-.128-.32-.192-.732-.192-1.235 0-.522.086-.998.257-1.427.171-.43.409-.796.712-1.098a3.16 3.16 0 0 1 1.08-.7 3.725 3.725 0 0 1 1.378-.247c.246 0 .507.02.784.062a6.964 6.964 0 0 1 1.608.44c.259.104.498.22.718.35l-1.028 2.085zM100.625 100a.638.638 0 0 0-.625.65v18.503c0 .358.28.649.625.649h8.13v4.547c0 .578.675.869 1.068.46l4.82-5.007h25.732a.638.638 0 0 0 .625-.65V100.65c0-.358-.28-.649-.625-.649h-39.75zM199.064 109.652h.027c.229-.449.532-.773.911-.974.378-.201.805-.301 1.28-.301h.462v2.452a1.404 1.404 0 0 0-.495-.197 3.08 3.08 0 0 0-.521-.041c-.335 0-.61.056-.826.168a1.307 1.307 0 0 0-.507.455 1.88 1.88 0 0 0-.258.687 4.804 4.804 0 0 0-.073.861v2.9h-2.402v-7.187h2.402v1.177zm-3.497 2.844h-5.056c0 .523.126.92.376 1.191.252.271.628.407 1.13.407.254 0 .476-.05.666-.148.19-.098.35-.268.482-.51h2.31c-.097.42-.258.786-.483 1.099-.223.313-.492.57-.805.77-.312.202-.653.35-1.022.449-.37.098-.748.147-1.136.147a4.7 4.7 0 0 1-1.564-.252 3.515 3.515 0 0 1-1.24-.735 3.368 3.368 0 0 1-.819-1.199c-.198-.476-.296-1.023-.296-1.64 0-.597.091-1.134.277-1.61.185-.477.441-.879.772-1.206.33-.327.724-.579 1.181-.756a4.17 4.17 0 0 1 1.518-.267c.59 0 1.113.094 1.57.281.458.187.845.453 1.162.798.317.346.558.764.726 1.255.167.49.251 1.044.251 1.66v.266zm-2.23-1.471a1.308 1.308 0 0 0-.482-.827 1.38 1.38 0 0 0-.878-.308c-.352 0-.66.096-.924.287-.264.191-.432.474-.502.848h2.785zm-11.048-6.992v5.353h.026c.282-.393.594-.682.937-.869.344-.187.752-.28 1.227-.28.432 0 .806.072 1.123.217.316.145.58.35.791.616.211.266.37.584.476.953.106.369.158.783.158 1.24v4.4h-2.402v-3.685c0-.206-.011-.411-.033-.617a1.779 1.779 0 0 0-.145-.553.934.934 0 0 0-.33-.393c-.145-.097-.337-.147-.575-.147-.237 0-.435.05-.594.147a1.19 1.19 0 0 0-.389.393 1.612 1.612 0 0 0-.211.553c-.04.206-.06.41-.06.617v3.685h-2.402v-11.63h2.403zm-3.894 6.782a2.866 2.866 0 0 0-.581-.357 1.595 1.595 0 0 0-1.835.357c-.149.159-.266.343-.35.553-.083.21-.125.442-.125.694 0 .523.156.948.468 1.275.313.327.72.49 1.221.49a1.755 1.755 0 0 0 1.202-.49v2.158c-.264.14-.54.243-.825.308a3.841 3.841 0 0 1-.865.098c-.501 0-.974-.093-1.419-.28a3.671 3.671 0 0 1-1.973-1.976 3.814 3.814 0 0 1-.29-1.499c0-.58.097-1.11.29-1.59a3.61 3.61 0 0 1 2.013-2.032 3.843 3.843 0 0 1 1.485-.288c.282 0 .557.035.825.106.268.07.521.175.759.315v2.158zm-11.22-2.34v3.84c0 .223.016.431.047.623.03.191.09.357.178.497.089.14.211.248.37.323.158.074.36.112.607.112.246 0 .449-.038.607-.112a.856.856 0 0 0 .37-.323c.088-.14.147-.306.178-.497.03-.192.046-.4.046-.624v-3.84h2.402v4.33c0 .589-.092 1.082-.277 1.479a2.42 2.42 0 0 1-.766.952c-.325.239-.706.41-1.141.512a6.2 6.2 0 0 1-1.419.154c-.51 0-.985-.051-1.425-.154a3.066 3.066 0 0 1-1.143-.512 2.452 2.452 0 0 1-.759-.952c-.184-.397-.277-.89-.277-1.479v-4.33h2.403zm-7.523 1.975c-.246 0-.464.045-.653.133-.189.09-.35.206-.482.351a1.503 1.503 0 0 0-.303.512c-.07.196-.106.406-.106.63 0 .458.134.84.403 1.148.268.309.649.463 1.141.463.493 0 .873-.154 1.142-.463.268-.308.403-.69.403-1.148 0-.224-.035-.434-.106-.63a1.496 1.496 0 0 0-.786-.863 1.52 1.52 0 0 0-.653-.133zm0-2.214c.546 0 1.065.084 1.557.253.493.168.927.415 1.3.742.375.327.672.729.892 1.205.22.477.33 1.023.33 1.64 0 .607-.11 1.148-.33 1.625-.22.477-.517.878-.891 1.205a3.834 3.834 0 0 1-1.3.743 4.789 4.789 0 0 1-1.558.252 4.737 4.737 0 0 1-1.55-.252 3.914 3.914 0 0 1-1.3-.743 3.547 3.547 0 0 1-.898-1.198c-.22-.472-.33-1.016-.33-1.632 0-.617.11-1.163.33-1.64.22-.476.516-.878.89-1.205a3.838 3.838 0 0 1 1.3-.742 4.782 4.782 0 0 1 1.558-.253zm-9.397 3.28l2.415-6.418h2.812l-4.25 10.565h-2.007l-4.184-10.565h2.811l2.403 6.417z"></path></svg>