<svg id="Lager_1" data-name="Lager 1" xmlns="http://www.w3.org/2000/svg" xmlns:xlink="http://www.w3.org/1999/xlink" viewBox="0 0 250 152"><defs><style>.cls-1{fill:url(#_ÂÁ_Ï_ÌÌ_È_ËÂÌÚ_26);}</style><linearGradient id="_ÂÁ_Ï_ÌÌ_È_ËÂÌÚ_26" x1="25.93" y1="73.92" x2="220" y2="73.92" gradientUnits="userSpaceOnUse"><stop offset="0" stop-color="#ff9523"/><stop offset="1" stop-color="#ff2e16"/></linearGradient></defs><title>spinner</title><path class="cls-1" d="M220,60.09v59.44a12,12,0,0,1-12,12H37.91a11.29,11.29,0,0,1-1.76-.15,12,12,0,0,1-10.22-11.83V28.32a12,12,0,0,1,12-12H208a12,12,0,0,1,12,12V60.09ZM29.13,119.53a8.78,8.78,0,0,0,8.78,8.77H208a8.78,8.78,0,0,0,8.78-8.77V28.32A8.79,8.79,0,0,0,208,19.54H37.91a8.79,8.79,0,0,0-8.78,8.78Zm7.15-2.25V30.56A6.58,6.58,0,0,1,42.85,24H83.59a6.58,6.58,0,0,1,6.57,6.57v86.72a6.57,6.57,0,0,1-6.57,6.57H42.85A6.57,6.57,0,0,1,36.28,117.28Zm35.91-10a6.16,6.16,0,0,0-3.58-3.64,5.83,5.83,0,0,0-2-.35,7.66,7.66,0,0,0-6.87,5.27l-.32.88a19.67,19.67,0,0,1-6,8.35,18.13,18.13,0,0,0-2.86,2.9H70.71a19.5,19.5,0,0,1,1.19-6.77l.28-.79A8.19,8.19,0,0,0,72.19,107.24Zm-19.95-80,19.89,8.24a.53.53,0,0,0,.4,0,.53.53,0,0,0,.28-.28.51.51,0,0,0-.07-.51c-1.12-1.35-2.14-2.87-1.39-5.35l.55-2.1ZM39.49,117.28a3.37,3.37,0,0,0,3.36,3.37h3.87a19.63,19.63,0,0,1,4.67-5.38,16.28,16.28,0,0,0,5-7l.33-.87c2.06-5.64,7.89-8.7,13-6.83a9.33,9.33,0,0,1,5.47,5.48,11.44,11.44,0,0,1,0,8.13l-.28.78a16.32,16.32,0,0,0-1,5.67h9.68A3.37,3.37,0,0,0,87,117.28V30.56a3.37,3.37,0,0,0-3.36-3.36H75.22l-.78,3c-.29.95-.17,1.3.77,2.44a3.71,3.71,0,0,1-4.3,5.79L50.2,29.83A3.73,3.73,0,0,1,48,27.2H42.85a3.37,3.37,0,0,0-3.36,3.36Zm57.11,0V30.56A6.57,6.57,0,0,1,103.17,24H143.9a6.58,6.58,0,0,1,6.57,6.57v86.72a6.57,6.57,0,0,1-6.57,6.57H103.17l-.44,0A6.57,6.57,0,0,1,96.6,117.28Zm37.23,3.37a10.84,10.84,0,0,0-1.47-6,2.65,2.65,0,0,1-.16-2.53.51.51,0,0,0,.07-.4.54.54,0,0,0-.4.06,2.65,2.65,0,0,1-2.53-.15c-5-3.07-12.75-1.27-18.31,4.29a20.76,20.76,0,0,0-3.53,4.69ZM112.44,27.2a5.2,5.2,0,0,0,.67,1.86c1.34,1.87,3.68,2.73,5.12,1.87a1.58,1.58,0,0,1,2,.31,5.26,5.26,0,0,0,2.4,1.64,5.9,5.9,0,0,0,2.78-1.75,1.61,1.61,0,0,1,2.12-.16,2.7,2.7,0,0,0,.52.3c1.57.61,3.71-.58,4.67-2.61A4.58,4.58,0,0,0,133,27.2ZM99.8,117.28a3.37,3.37,0,0,0,3.37,3.37h.72a24.14,24.14,0,0,1,4.87-7c6.52-6.51,15.73-8.55,22-4.89a3.36,3.36,0,0,1,4.44,4.44,14,14,0,0,1,1.78,7.41h6.89a3.37,3.37,0,0,0,3.36-3.37V30.56a3.37,3.37,0,0,0-3.36-3.36h-7.65a8.07,8.07,0,0,1-.62,2.83c-1.71,3.62-5.55,5.47-8.74,4.22l-.1,0a7.16,7.16,0,0,1-4.15,1.87,6.51,6.51,0,0,1-3.94-1.87c-2.77.86-6.15-.43-8.2-3.28a9,9,0,0,1-1.32-3.73h-6a3.37,3.37,0,0,0-3.37,3.36Zm57.11,0V30.56A6.58,6.58,0,0,1,163.48,24h40.73a6.57,6.57,0,0,1,6.57,6.57v86.72a6.57,6.57,0,0,1-6.57,6.57H163.48A6.57,6.57,0,0,1,156.91,117.28Zm32,3.37-.1-.27-3.58-3.18-6-.53a7,7,0,0,0-3.13,3l-.56,1Zm-10.22-7.25,6.18.55h0l.32-.77.43-1h0l-8-6.55-.1-.09a.38.38,0,0,0-.27-.12h-.09a.39.39,0,0,0-.29.24L174,112.47a.38.38,0,0,0,0,.37.42.42,0,0,0,.33.19h.12Zm19.67.8A.37.37,0,0,0,198,114l-9.44-.67-.5,1.22-.27.64,3.65,3.25,2.46,2.19.94.83a.43.43,0,0,0,.41.15.36.36,0,0,0,.29-.24l.31-.74,2.52-6.07A.39.39,0,0,0,198.34,114.2ZM186.58,29.1a5.19,5.19,0,0,0,2.53,1.35c2.38.46,4.8-1.12,6.19-3.25h-8A12.33,12.33,0,0,1,186.58,29.1Zm-15.69-1.9a8.45,8.45,0,0,0,2,3.21,6.73,6.73,0,0,0,4.7,2.12,6.62,6.62,0,0,0,5.16-3.09,9.34,9.34,0,0,0,.92-1.63,6.44,6.44,0,0,0,.24-.61h-13Zm-10.77,90.08a3.37,3.37,0,0,0,3.36,3.37h8.31l1.48-2.53a10.26,10.26,0,0,1,1.29-1.86l-.31,0a3.62,3.62,0,0,1-3.21-5l2.83-6.82a3.61,3.61,0,0,1,5.79-1.26l8.49,7,10,.71a3.54,3.54,0,0,1,2.87,1.62,3.59,3.59,0,0,1,.32,3.36l-2,4.85h4.88a3.37,3.37,0,0,0,3.37-3.37V30.56a3.37,3.37,0,0,0-3.37-3.36h-5.29c-1.5,3.49-5.06,6.53-9,6.53a7.76,7.76,0,0,1-1.43-.13,8.23,8.23,0,0,1-3.61-1.73,9.58,9.58,0,0,1-7.25,3.87h-.12a9.78,9.78,0,0,1-6.9-3.07,11.43,11.43,0,0,1-3.05-5.47h-4.09a3.37,3.37,0,0,0-3.36,3.36ZM45.2,67.46a1.61,1.61,0,0,1-.47-1.14V55.17a1.61,1.61,0,0,1,1.6-1.61H80.11a1.61,1.61,0,0,1,1.42,2.35L69.45,79.08a10.57,10.57,0,0,0-1.18,4.83v8.77a1.6,1.6,0,0,1-1.6,1.6H50.4A1.59,1.59,0,0,1,49,92L60.86,67.84l-14.52.09A1.5,1.5,0,0,1,45.2,67.46Zm2.73-2.75,15.5-.09h0a1.6,1.6,0,0,1,1.36.75,1.63,1.63,0,0,1,.08,1.56L53,91.08H65.06V83.91a13.72,13.72,0,0,1,1.55-6.31L77.47,56.77H47.93Zm57.58,2.75a1.61,1.61,0,0,1-.47-1.14V55.17a1.61,1.61,0,0,1,1.6-1.61h33.78a1.61,1.61,0,0,1,1.42,2.35L129.76,79.08a10.57,10.57,0,0,0-1.18,4.83v8.77a1.6,1.6,0,0,1-1.6,1.6H110.72a1.59,1.59,0,0,1-1.36-.75,1.61,1.61,0,0,1-.08-1.56l11.89-24.13-14.52.09h0A1.61,1.61,0,0,1,105.51,67.46Zm2.74-2.75,15.49-.09h0a1.6,1.6,0,0,1,1.44,2.31l-11.9,24.15h12.09V83.91a13.71,13.71,0,0,1,1.54-6.31l10.86-20.83H108.25Zm57.58,2.75a1.58,1.58,0,0,1-.48-1.14V55.17A1.61,1.61,0,0,1,167,53.56h33.78a1.61,1.61,0,0,1,1.42,2.35L190.08,79.08a10.46,10.46,0,0,0-1.19,4.83v8.77a1.59,1.59,0,0,1-1.6,1.6H171a1.6,1.6,0,0,1-1.36-.75,1.63,1.63,0,0,1-.08-1.56l11.89-24.13L167,67.93A1.48,1.48,0,0,1,165.83,67.46Zm2.73-2.75,15.5-.09h0a1.59,1.59,0,0,1,1.43,2.31L173.61,91.08h12.08V83.91a13.6,13.6,0,0,1,1.55-6.31l10.85-20.83H168.56Z"/></svg>