<svg id="Lager_1" data-name="Lager 1" xmlns="http://www.w3.org/2000/svg" xmlns:xlink="http://www.w3.org/1999/xlink" viewBox="0 0 250 250"><defs><style>.cls-1{fill:url(#Namnlös_övertoning_3);}.cls-2{fill:url(#Namnlös_övertoning_3-2);}.cls-3{fill:url(#Namnlös_övertoning_3-3);}.cls-4{fill:none;stroke:#1a1a1a;stroke-linecap:round;stroke-linejoin:round;stroke-width:1.44px;}.cls-5{fill:url(#Namnlös_övertoning_9);}.cls-6{fill:url(#_ÂÁ_Ï_ÌÌ_È_ËÂÌÚ_26);}.cls-7{fill:#fff;}.cls-8{fill:#ff9022;stroke:#ed1c24;stroke-miterlimit:10;stroke-width:2px;}.cls-9{fill:url(#Namnlös_övertoning_3-4);}.cls-10{fill:url(#Namnlös_övertoning_9-2);}</style><linearGradient id="Namnlös_övertoning_3" x1="198.06" y1="170.11" x2="205.16" y2="170.11" gradientTransform="matrix(-0.4, 0, -0.01, -1.56, 208.72, 412.36)" gradientUnits="userSpaceOnUse"><stop offset="0" stop-color="#ff9523"/><stop offset="1" stop-color="#ff2e16"/></linearGradient><linearGradient id="Namnlös_övertoning_3-2" x1="163.54" y1="-7.84" x2="170.63" y2="-7.84" gradientTransform="matrix(0.24, 0.97, -0.81, 0.2, 125.85, -115.89)" xlink:href="#Namnlös_övertoning_3"/><linearGradient id="Namnlös_övertoning_3-3" x1="176.72" y1="-103.2" x2="183.82" y2="-103.2" gradientTransform="matrix(-0.29, -0.96, 0.8, -0.24, 212.06, 218.85)" xlink:href="#Namnlös_övertoning_3"/><radialGradient id="Namnlös_övertoning_9" cx="189.58" cy="105.52" r="47.43" gradientUnits="userSpaceOnUse"><stop offset="0" stop-color="#ff9523"/><stop offset="0" stop-color="#ff9222"/><stop offset="0" stop-color="#ff9022"/><stop offset="1" stop-color="#ff2e16"/></radialGradient><linearGradient id="_ÂÁ_Ï_ÌÌ_È_ËÂÌÚ_26" x1="112.34" y1="56.35" x2="142" y2="56.35" gradientTransform="matrix(1, 0, 0, 1, 0, 0)" xlink:href="#Namnlös_övertoning_3"/><linearGradient id="Namnlös_övertoning_3-4" x1="18.84" y1="156.58" x2="25.94" y2="156.58" gradientTransform="matrix(0, -0.4, 1.09, 0, -41.32, 234.74)" xlink:href="#Namnlös_övertoning_3"/><radialGradient id="Namnlös_övertoning_9-2" cx="70.58" cy="138.15" r="47.43" xlink:href="#Namnlös_övertoning_9"/></defs><title>Namnlöst-3</title><path class="cls-1" d="M126.62,226h1.48c.67,0,1.2-2.55,1.19-5.68l-.58-146.27c0-3.13-.56-5.67-1.23-5.67l-1.6.89"/><path class="cls-2" d="M214.84,37.32l-.91-3.6a3.06,3.06,0,0,0-3.7-2.22L134.08,50.68a3.06,3.06,0,0,0-2.21,3.71l1.45,3.8"/><path class="cls-3" d="M35.48,80.75l1.08,3.56a3.06,3.06,0,0,0,3.81,2L115.5,63.5a3.06,3.06,0,0,0,2-3.81L115.89,56"/><path class="cls-4" d="M128.25,45.68a12.17,12.17,0,1,1-12.17,12.17,12.16,12.16,0,0,1,12.17-12.17Z"/><path class="cls-5" d="M156,140.51c6.71,12.91,19,22,33.61,22,14.46,0,26.6-8.88,33.38-21.55,2.59-4.85,2.58-7.81.72-13.48l-29-75.66a4.31,4.31,0,0,0-8.24-.32h0c-10.35,29.91-20.7,46.58-31,76.48-1.77,5.14-1.77,8.1.55,12.55Z"/><path class="cls-6" d="M142,56.35a15.12,15.12,0,0,1-14.83,15.36,14.25,14.25,0,0,1-7.06-1.86,15.43,15.43,0,0,1-7.77-13.5A15.11,15.11,0,0,1,127.17,41a14.62,14.62,0,0,1,11.78,6A15.6,15.6,0,0,1,142,56.35Z"/><ellipse class="cls-7" cx="127" cy="56.5" rx="13" ry="13.5"/><path class="cls-7" d="M159.12,139.82c6,11.57,17,19.7,30.13,19.7s23.84-8,29.92-19.32c2.33-4.35,2.31-7,.65-12.08l-26-67.83a3.87,3.87,0,0,0-7.39-.28h0c-9.27,26.81-18.55,41.75-27.82,68.55-1.59,4.61-1.59,7.26.49,11.25Z"/><line class="cls-8" x1="157" y1="134.38" x2="221" y2="134.38"/><path class="cls-9" d="M74.1,224.52V226c0,.67,1.77,1.22,4,1.21l102,0c2.19,0,4-.55,4-1.22l-.62-1.6"/><path class="cls-10" d="M37,173.13c6.71,12.91,19,22,33.61,22,14.46,0,26.6-8.88,33.38-21.55,2.59-4.85,2.58-7.8.72-13.48l-29-75.66a4.31,4.31,0,0,0-8.24-.32h0c-10.35,29.91-20.7,46.58-31,76.48-1.77,5.14-1.77,8.1.55,12.55Z"/><path class="cls-7" d="M40.12,172.44c6,11.57,17,19.7,30.13,19.7s23.84-8,29.92-19.32c2.33-4.35,2.31-7,.65-12.08l-26-67.83a3.87,3.87,0,0,0-7.39-.28h0c-9.27,26.81-18.55,41.75-27.82,68.56-1.59,4.6-1.59,7.25.49,11.24Z"/><line class="cls-8" x1="38" y1="167" x2="102" y2="167"/></svg>