<svg xmlns="http://www.w3.org/2000/svg" viewBox="0 0 245 65" style="background-color:#00ddd4;"><g fill="#FFF" ><path d="M51 11.59C54.0641695 11.5160888 56.6603184 9.31165407 57.23 6.3 57.4850752 4.95756522 57.1121129 3.57219683 56.217552 2.53926157 55.3229911 1.50632632 54.0051043.939298225 52.64 1 49.5661339 1.05514133 46.9526913 3.25945066 46.38 6.28 46.1240341 7.62870099 46.5005471 9.02030874 47.4016229 10.0559608 48.3026988 11.0916129 49.6288591 11.6569739 51 11.59zM244.55 14.59C239.55 14.33 233.05 20.43 233.05 20.43L231 15.23 225.3 15.23 222.57 30.76C222.396759 31.8253179 221.838 32.7898003 221 33.47L213.49 39.38C213.49 39.38 210.41 41.74 206.15 44.49 204.567405 45.3527575 202.801945 45.8258321 201 45.87 197.53 45.87 195.4 44.54 194.37 42.24 194.203812 41.8174657 194.070091 41.3828721 193.97 40.94L213.27 27.94C215.297996 26.682827 216.258093 24.2419014 215.63 21.94 214.38 17.78 210.63 14.65 204.44 14.65 192.87 14.65 184.92 24.52 184.92 38.53 184.923869 39.4528026 184.98398 40.3745116 185.1 41.29L179.63 45.14C178.534482 45.8316865 177.290333 46.2532575 176 46.37 174.36 46.37 173.65 45.1 174.16 42.31L181.32 2.25 172.32 2.25 168.73 22.19C168.577891 23.0381742 168.181716 23.823574 167.59 24.45L157.74 34.83C157.992603 33.0276663 158.119576 31.2099491 158.12 29.39 158.12 20.95 154.2 14.71 147.64 14.71 141.3 14.71 136.56 20.07 136.56 20.07L134.07 15.28 128.47 15.28 125.4 32.83C125.255387 33.5992108 124.910453 34.3166738 124.4 34.91L118.68 41.67C117.09 43.36 115.42 45.5 114.59 45.55 113.08 45.81 112.44 45.25 112.94 42.47L115.22 29.73C117 19.66 114 14.58 105.31 14.58 100.16 14.58 94.1 20.37 94.1 20.37 92.81 16.58 89.67 14.58 84.88 14.58 79.66 14.58 73.97 20.68 73.97 20.68L71.63 15.23 66 15.23 63 31.86C62.857515 32.6328926 62.5124322 33.3541157 62 33.95L55.46 41.67C53.87 43.36 52.2 45.5 51.37 45.55 49.87 45.81 49.22 45.25 49.72 42.47L54.66 15.24 45.66 15.24 44.2 23.24C44.005904 24.2873286 43.5364975 25.2641081 42.84 26.07L29.73 41.32C27.4739477 43.711002 24.4384605 45.2181072 21.17 45.57L11.87 45.57 33 21.63 34.09 15.13 6.93 15.13 5.63 22.42 21.43 22.42 1 46.37 0 53.16C0 53.16 19.11 53.24 19.44 53.16 25.05 53.16 30.03 48.16 32.06 46.16L42.26 34.16 40.41 44.25C39.27 50.83 41.77 53.93 47.2 53.83 50.54 53.76 52.81 51.54 55.1 49.26L61.24 42.06 59.24 53.66 68.24 53.66 72.18 30.93C72.7 28.13 76.29 23.34 80.08 23.34 84.08 23.34 85.99 25.34 85.08 30.66L81.08 53.66 90.01 53.66 94.35 29.21C94.61 27.59 97.52 23.01 101.55 23.01 105.76 23.01 107.12 25.3 106.19 30.66L103.69 44.25C102.55 50.83 105.05 53.93 110.48 53.83 113.82 53.76 116.09 51.54 118.37 49.26L123.61 43 121.73 53.67 119.56 66 128.56 66 131.49 49.21C132.820749 50.8847503 134.626223 52.1186072 136.67 52.75 137.166751 52.9085634 137.674899 53.0289141 138.19 53.11 144.02 53.4 149.19 50.58 153.84 45.77L167 32.21 164.86 44.08C163.7 50.64 166.2 53.65 171.63 53.66 175.15 53.66 178.45 51.92 181.91 49.66L186.5 46.36C186.58 46.54 186.67 46.71 186.76 46.89 188.82 50.89 192.65 53.57 198.31 53.63 204.25 53.63 210.07 48.02 213.43 45.63 214.29 45.03 217.56 42.4 221.06 39.56L218.58 53.67 227.58 53.67 231.52 30.94C232.04 28.14 235.63 23.35 239.41 23.35 240.634854 23.2831545 241.852242 23.5788059 242.91 24.2L244.58 14.6 244.55 14.59zM132.71 42.16L134.8 30.21C135.74 27.38 139.05 23.6 142.5 23.38 144.06392 23.1690005 145.64744 23.5900727 146.9 24.55 148.296624 26.3495948 148.989844 28.5963367 148.85 30.87 148.85 39.37 144.71 45.3 138.85 45.3 136.396583 45.3921389 134.071468 44.2030734 132.71 42.16zM194.25 31.07C195.25 26.36 199.04 22.36 203.33 22.36 205.74 22.36 207.48 24.15 206.86 26.16L193.61 35.26C193.721057 33.8496166 193.934959 32.4492259 194.25 31.07z"></path></g></svg>